<svg width="24" height="24" viewBox="0 0 24 24" fill="none" xmlns="http://www.w3.org/2000/svg">
<path d="M10.9 2.09961L20.799 3.51461L22.213 13.4146L13.021 22.6066C12.8334 22.7941 12.5791 22.8994 12.314 22.8994C12.0488 22.8994 11.7945 22.7941 11.607 22.6066L1.70697 12.7066C1.5195 12.5191 1.41418 12.2648 1.41418 11.9996C1.41418 11.7344 1.5195 11.4801 1.70697 11.2926L10.9 2.09961ZM11.607 4.22161L3.82797 11.9996L12.314 20.4846L20.092 12.7066L19.032 5.28161L11.607 4.22161ZM13.727 10.5856C13.3518 10.2103 13.1411 9.70139 13.1412 9.17076C13.1413 8.90801 13.1931 8.64785 13.2936 8.40513C13.3942 8.1624 13.5417 7.94186 13.7275 7.75611C13.9133 7.57035 14.1339 7.42302 14.3766 7.32251C14.6194 7.22201 14.8796 7.1703 15.1423 7.17035C15.673 7.17044 16.1818 7.38133 16.557 7.75661C16.9321 8.13189 17.1428 8.64083 17.1427 9.17146C17.1426 9.7021 16.9318 10.211 16.5565 10.5861C16.1812 10.9613 15.6723 11.172 15.1416 11.1719C14.611 11.1718 14.1021 10.9609 13.727 10.5856Z" fill="#17B26A"/>
</svg>
