<svg width="24" height="24" viewBox="0 0 24 24" fill="none" xmlns="http://www.w3.org/2000/svg">
<g clip-path="url(#clip0_10930_50679)">
<path d="M9.53362 15.1356C10.0992 14.6549 10.6649 14.1743 11.2305 13.6938C11.438 13.5161 11.7091 13.3909 12.0215 13.3921C12.3324 13.3933 12.5993 13.5194 12.8019 13.6888L12.8069 13.6929L12.8069 13.6929C13.0218 13.8757 13.2358 14.0581 13.4494 14.2403C13.7901 14.5307 14.1298 14.8203 14.4704 15.1088V15.1011V15.0868V15.0726V15.0583V15.0441V15.0298V15.0156V15.0013V14.9871V14.9728V14.9585V14.9443V14.93V14.9158V14.9015V14.8873V14.873V14.8588V14.8445V14.8303V14.816V14.8018V14.7875V14.7733V14.759V14.7448V14.7305V14.7162V14.702V14.6877V14.6735V14.6592V14.645V14.6307V14.6165V14.6022V14.588V14.5737V14.5595V14.5452V14.531V14.5167V14.5025V14.4882V14.474V14.4597V14.4454V14.4312V14.4169V14.4027V14.3884V14.3742V14.3599V14.3457V14.3314V14.3172V14.3029V14.2887V14.2744V14.2602V14.2459V14.2317V14.2174V14.2031V14.1889V14.1746V14.1604V14.1461V14.1319V14.1176V14.1034V14.0891V14.0749V14.0606V14.0464V14.0321V14.0179V14.0036V13.9894V13.9751V13.9609V13.9466V13.9323V13.9181V13.9038V13.8896V13.8753V13.8611V13.8468V13.8326V13.8183V13.8041V13.7898V13.7756V13.7613V13.7471V13.7328V13.7186V13.7043V13.69V13.6758V13.6615V13.6473V13.633V13.6188V13.6045V13.5903V13.576V13.5618V13.5475V13.5333V13.519V13.5048V13.4905V13.4763V13.462V13.4478V13.4335V13.4192V13.405V13.3907V13.3765V13.3622V13.348V13.3337V13.3195V13.3052V13.291V13.2767V13.2625V13.2482V13.234V13.2197V13.2055V13.1912V13.1769V13.1627V13.1484V13.1342V13.1199V13.1057V13.0914V13.0772V13.0629V13.0487V13.0344V13.0202V13.0059V12.9917V12.9774V12.9632V12.9489V12.9347V12.9204V12.9061V12.8919V12.8776V12.8634V12.8491V12.8349V12.8206V12.8064V12.7921V12.7779V12.7636V12.7494V12.7351V12.7209V12.7066V12.6924V12.6781V12.6638V12.6496V12.6353V12.6211V12.6068V12.5926V12.5783V12.5641V12.5498V12.5356V12.5213V12.5071V12.4928V12.4786V12.4643V12.4501V12.4358V12.4216V12.4073V12.393V12.3788V12.3645V12.3503V12.336V12.3218V12.3075V12.2933V12.279V12.2648V12.2505V12.2363V12.222V12.2078V12.1935V12.1793V12.165V12.1507V12.1365V12.1222V12.108V12.0937V12.0795V12.0652V12.051V12.0367V12.0225V12.0082V11.994V11.9797V11.9655V11.9512V11.937V11.9227V11.9085V11.8942V11.8799V11.8657V11.8514V11.8372V11.8229V11.8087V11.7944V11.7802V11.7659V11.7517V11.7374V11.7232V11.7089V11.6947V11.6804V11.6662V11.6519V11.6376V11.6234V11.6091V11.5949V11.5806V11.5664V11.5521V11.5379V11.5236V11.5094V11.4951V11.4809V11.4666V11.4524V11.4381V11.4239V11.4096V11.3954V11.3811V11.3668V11.3526V11.3383V11.3241V11.3098V11.2956V11.2813V11.2671V11.2528V11.2386V11.2243V11.2101V11.1958V11.1816V11.1673V11.1531V11.1388V11.1245V11.1103V11.096V11.0818V11.0675V11.0533V11.039V11.0248V11.0105V10.9963V10.982V10.9678V10.9535V10.9393V10.925V10.9108V10.8965V10.8822V10.868V10.8537V10.8395V10.8252V10.811V10.7967V10.7825V10.7682V10.754V10.7397V10.7255V10.7112V10.697V10.6827V10.6685V10.6542V10.64V10.6257V10.6114V10.5972V10.5829V10.5687V10.5544V10.5402V10.5259V10.5117V10.4974V10.4832V10.4689V10.4547V10.4404V10.4262V10.4119V10.3977V10.3834V10.3691V10.3549V10.3406V10.3264V10.3121V10.2979V10.2836V10.2694V10.2551V10.2409V10.2266V10.2124V10.1981V10.1839V10.1696V10.1554V10.1411V10.1269V10.1126V10.0983V10.0841V10.0698V10.0556V10.0413V10.0271V10.0128V9.99858V9.98432V9.97007V9.95582V9.94157V9.92731V9.91306V9.89881V9.88455V9.8703V9.85605V9.8418V9.82754V9.81329V9.79904V9.78479V9.77053V9.75628V9.74203V9.72777V9.71352V9.69927V9.68502V9.67076V9.65651V9.64226V9.628V9.61375V9.5995V9.58525V9.57099V9.55674V9.54249V9.52823V9.51398V9.49973V9.48548V9.47122V9.45697V9.44272V9.42847V9.41421V9.39996V9.38571V9.37145V9.3572V9.34295V9.3287V9.31444V9.30019V9.28594V9.27168V9.25743V9.24318V9.22893V9.21467V9.20042V9.18617V9.17192V9.15766V9.14341V9.12916V9.1149V9.10065V9.0864V9.07215V9.05789V9.04364V9.02939V9.01513V9.00088V8.98663V8.97238V8.95812V8.94387V8.92962V8.91536V8.90111V8.88686V8.87261V8.85835V8.8441V8.82985V8.8156V8.80134V8.78709V8.77284V8.75858V8.74433V8.73008V8.71583V8.70157V8.68732V8.67307V8.65881V8.64456V8.63031V8.61606V8.6018V8.58755V8.5733V8.55905V8.54479V8.53054V8.51629V8.50203V8.48778V8.48121H14.4679H14.4583H14.4487H14.4391H14.4294H14.4198H14.4102H14.4006H14.391H14.3813H14.3717H14.3621H14.3525H14.3429H14.3332H14.3236H14.314H14.3044H14.2947H14.2851H14.2755H14.2659H14.2563H14.2466H14.237H14.2274H14.2178H14.2082H14.1985H14.1889H14.1793H14.1697H14.1601H14.1504H14.1408H14.1312H14.1216H14.112H14.1023H14.0927H14.0831H14.0735H14.0639H14.0542H14.0446H14.035H14.0254H14.0158H14.0061H13.9965H13.9869H13.9773H13.9677H13.958H13.9484H13.9388H13.9292H13.9196H13.9099H13.9003H13.8907H13.8811H13.8715H13.8618H13.8522H13.8426H13.833H13.8234H13.8137H13.8041H13.7945H13.7849H13.7753H13.7656H13.756H13.7464H13.7368H13.7272H13.7175H13.7079H13.6983H13.6887H13.6791H13.6694H13.6598H13.6502H13.6406H13.631H13.6213H13.6117H13.6021H13.5925H13.5829H13.5732H13.5636H13.554H13.5444H13.5348H13.5251H13.5155H13.5059H13.4963H13.4867H13.477H13.4674H13.4578H13.4482H13.4386H13.4289H13.4193H13.4097H13.4001H13.3905H13.3808H13.3712H13.3616H13.352H13.3424H13.3328H13.3231H13.3135H13.3039H13.2943H13.2847H13.275H13.2654H13.2558H13.2462H13.2366H13.2269H13.2173H13.2077H13.1981H13.1885H13.1788H13.1692H13.1596H13.15H13.1404H13.1307H13.1211H13.1115H13.1019H13.0923H13.0827H13.073H13.0634H13.0538H13.0442H13.0346H13.0249H13.0153H13.0057H12.9961H12.9865H12.9768H12.9672H12.9576H12.948H12.9384H12.9287H12.9191H12.9095H12.8999H12.8903H12.8807H12.871H12.8614H12.8518H12.8422H12.8326H12.8229H12.8133H12.8037H12.7941H12.7845H12.7748H12.7652H12.7556H12.746H12.7364H12.7268H12.7171H12.7075H12.6979H12.6883H12.6787H12.669H12.6594H12.6498H12.6402H12.6306H12.621H12.6113H12.6017H12.5921H12.5825H12.5729H12.5632H12.5536H12.544H12.5344H12.5248H12.5151H12.5055H12.4959H12.4863H12.4767H12.4671H12.4574H12.4478H12.4382H12.4286H12.419H12.4093H12.3997H12.3901H12.3805H12.3709H12.3613H12.3516H12.342H12.3324H12.3228H12.3132H12.3035H12.2939H12.2843H12.2747H12.2651H12.2555H12.2458H12.2362H12.2266H12.217H12.2074H12.1977H12.1881H12.1785H12.1689H12.1593H12.1497H12.14H12.1304H12.1208H12.1112H12.1016H12.092H12.0823H12.0727H12.0631H12.0535H12.0439H12.0342H12.0246H12.015H12.0054H11.9958H11.9862H11.9765H11.9669H11.9573H11.9477H11.9381H11.9285H11.9188H11.9092H11.8996H11.89H11.8804H11.8707H11.8611H11.8515H11.8419H11.8323H11.8227H11.813H11.8034H11.7938H11.7842H11.7746H11.765H11.7553H11.7457H11.7361H11.7265H11.7169H11.7073H11.6976H11.688H11.6784H11.6688H11.6592H11.6495H11.6399H11.6303H11.6207H11.6111H11.6015H11.5918H11.5822H11.5726H11.563H11.5534H11.5438H11.5341H11.5245H11.5149H11.5053H11.4957H11.4861H11.4764H11.4668H11.4572H11.4476H11.438H11.4284H11.4187H11.4091H11.3995H11.3899H11.3803H11.3707H11.361H11.3514H11.3418H11.3322H11.3226H11.313H11.3033H11.2937H11.2841H11.2745H11.2649H11.2553H11.2456H11.236H11.2264H11.2168H11.2072H11.1976H11.1879H11.1783H11.1687H11.1591H11.1495H11.1399H11.1302H11.1206H11.111H11.1014H11.0918H11.0822H11.0725H11.0629H11.0533H11.0437H11.0341H11.0245H11.0148H11.0052H10.9956H10.986H10.9764H10.9668H10.9571H10.9475H10.9379H10.9283H10.9187H10.9091H10.8994H10.8898H10.8802H10.8706H10.861H10.8514H10.8417H10.8321H10.8225H10.8129H10.8033H10.7937H10.784H10.7744H10.7648H10.7552H10.7456H10.736H10.7264H10.7167H10.7071H10.6975H10.6879H10.6783H10.6687H10.659H10.6494H10.6398H10.6302H10.6206H10.611H10.6013H10.5917H10.5821H10.5725H10.5629H10.5533H10.5436H10.534H10.5244H10.5148H10.5052H10.4956H10.486H10.4763H10.4667H10.4571H10.4475H10.4379H10.4283H10.4186H10.409H10.3994H10.3898H10.3802H10.3706H10.361H10.3513H10.3417H10.3321H10.3225H10.3129H10.3033H10.2936H10.284H10.2744H10.2648H10.2552H10.2456H10.2359H10.2263H10.2167H10.2071H10.1975H10.1879H10.1783H10.1686H10.159H10.1494H10.1398H10.1302H10.1206H10.111H10.1013H10.0917H10.0821H10.0725H10.0629H10.0533H10.0436H10.034H10.0244H10.0148H10.0052H9.99557H9.98595H9.97634H9.96672H9.95711H9.94749H9.93788H9.92826H9.91865H9.90903H9.89942H9.8898H9.88019H9.87057H9.86096H9.85134H9.84173H9.83211H9.8225H9.81288H9.80327H9.79365H9.78404H9.77442H9.76481H9.75519H9.74558H9.73596H9.72635H9.71674H9.70712H9.69751H9.68789H9.67828H9.66866H9.65905H9.64943H9.63982H9.6302H9.62059H9.61097H9.60136H9.59174H9.58213H9.57252H9.5629H9.55677C9.54965 8.48142 9.54287 8.48435 9.53784 8.48942C9.53269 8.49461 9.5298 8.50162 9.52978 8.50894L9.53362 15.1356ZM9.53362 15.1356C9.53371 14.734 9.53387 14.3322 9.53402 13.9304C9.53473 12.1242 9.53543 10.3164 9.52979 8.50907L9.53362 15.1356ZM14.4697 15.787C14.4697 15.7869 14.4698 15.7861 14.47 15.7847L14.4697 15.787Z" stroke="#2384C1" stroke-width="1.5"/>
<path d="M9.53362 15.1356C10.0992 14.6549 10.6649 14.1743 11.2305 13.6938C11.438 13.5161 11.7091 13.3909 12.0215 13.3921C12.3324 13.3933 12.5993 13.5194 12.8019 13.6888L12.8069 13.6929L12.8069 13.6929C13.0218 13.8757 13.2358 14.0581 13.4494 14.2403C13.7901 14.5307 14.1298 14.8203 14.4704 15.1088V15.1011V15.0868V15.0726V15.0583V15.0441V15.0298V15.0156V15.0013V14.9871V14.9728V14.9585V14.9443V14.93V14.9158V14.9015V14.8873V14.873V14.8588V14.8445V14.8303V14.816V14.8018V14.7875V14.7733V14.759V14.7448V14.7305V14.7162V14.702V14.6877V14.6735V14.6592V14.645V14.6307V14.6165V14.6022V14.588V14.5737V14.5595V14.5452V14.531V14.5167V14.5025V14.4882V14.474V14.4597V14.4454V14.4312V14.4169V14.4027V14.3884V14.3742V14.3599V14.3457V14.3314V14.3172V14.3029V14.2887V14.2744V14.2602V14.2459V14.2317V14.2174V14.2031V14.1889V14.1746V14.1604V14.1461V14.1319V14.1176V14.1034V14.0891V14.0749V14.0606V14.0464V14.0321V14.0179V14.0036V13.9894V13.9751V13.9609V13.9466V13.9323V13.9181V13.9038V13.8896V13.8753V13.8611V13.8468V13.8326V13.8183V13.8041V13.7898V13.7756V13.7613V13.7471V13.7328V13.7186V13.7043V13.69V13.6758V13.6615V13.6473V13.633V13.6188V13.6045V13.5903V13.576V13.5618V13.5475V13.5333V13.519V13.5048V13.4905V13.4763V13.462V13.4478V13.4335V13.4192V13.405V13.3907V13.3765V13.3622V13.348V13.3337V13.3195V13.3052V13.291V13.2767V13.2625V13.2482V13.234V13.2197V13.2055V13.1912V13.1769V13.1627V13.1484V13.1342V13.1199V13.1057V13.0914V13.0772V13.0629V13.0487V13.0344V13.0202V13.0059V12.9917V12.9774V12.9632V12.9489V12.9347V12.9204V12.9061V12.8919V12.8776V12.8634V12.8491V12.8349V12.8206V12.8064V12.7921V12.7779V12.7636V12.7494V12.7351V12.7209V12.7066V12.6924V12.6781V12.6638V12.6496V12.6353V12.6211V12.6068V12.5926V12.5783V12.5641V12.5498V12.5356V12.5213V12.5071V12.4928V12.4786V12.4643V12.4501V12.4358V12.4216V12.4073V12.393V12.3788V12.3645V12.3503V12.336V12.3218V12.3075V12.2933V12.279V12.2648V12.2505V12.2363V12.222V12.2078V12.1935V12.1793V12.165V12.1507V12.1365V12.1222V12.108V12.0937V12.0795V12.0652V12.051V12.0367V12.0225V12.0082V11.994V11.9797V11.9655V11.9512V11.937V11.9227V11.9085V11.8942V11.8799V11.8657V11.8514V11.8372V11.8229V11.8087V11.7944V11.7802V11.7659V11.7517V11.7374V11.7232V11.7089V11.6947V11.6804V11.6662V11.6519V11.6376V11.6234V11.6091V11.5949V11.5806V11.5664V11.5521V11.5379V11.5236V11.5094V11.4951V11.4809V11.4666V11.4524V11.4381V11.4239V11.4096V11.3954V11.3811V11.3668V11.3526V11.3383V11.3241V11.3098V11.2956V11.2813V11.2671V11.2528V11.2386V11.2243V11.2101V11.1958V11.1816V11.1673V11.1531V11.1388V11.1245V11.1103V11.096V11.0818V11.0675V11.0533V11.039V11.0248V11.0105V10.9963V10.982V10.9678V10.9535V10.9393V10.925V10.9108V10.8965V10.8822V10.868V10.8537V10.8395V10.8252V10.811V10.7967V10.7825V10.7682V10.754V10.7397V10.7255V10.7112V10.697V10.6827V10.6685V10.6542V10.64V10.6257V10.6114V10.5972V10.5829V10.5687V10.5544V10.5402V10.5259V10.5117V10.4974V10.4832V10.4689V10.4547V10.4404V10.4262V10.4119V10.3977V10.3834V10.3691V10.3549V10.3406V10.3264V10.3121V10.2979V10.2836V10.2694V10.2551V10.2409V10.2266V10.2124V10.1981V10.1839V10.1696V10.1554V10.1411V10.1269V10.1126V10.0983V10.0841V10.0698V10.0556V10.0413V10.0271V10.0128V9.99858V9.98432V9.97007V9.95582V9.94157V9.92731V9.91306V9.89881V9.88455V9.8703V9.85605V9.8418V9.82754V9.81329V9.79904V9.78479V9.77053V9.75628V9.74203V9.72777V9.71352V9.69927V9.68502V9.67076V9.65651V9.64226V9.628V9.61375V9.5995V9.58525V9.57099V9.55674V9.54249V9.52823V9.51398V9.49973V9.48548V9.47122V9.45697V9.44272V9.42847V9.41421V9.39996V9.38571V9.37145V9.3572V9.34295V9.3287V9.31444V9.30019V9.28594V9.27168V9.25743V9.24318V9.22893V9.21467V9.20042V9.18617V9.17192V9.15766V9.14341V9.12916V9.1149V9.10065V9.0864V9.07215V9.05789V9.04364V9.02939V9.01513V9.00088V8.98663V8.97238V8.95812V8.94387V8.92962V8.91536V8.90111V8.88686V8.87261V8.85835V8.8441V8.82985V8.8156V8.80134V8.78709V8.77284V8.75858V8.74433V8.73008V8.71583V8.70157V8.68732V8.67307V8.65881V8.64456V8.63031V8.61606V8.6018V8.58755V8.5733V8.55905V8.54479V8.53054V8.51629V8.50203V8.48778V8.48121H14.4679H14.4583H14.4487H14.4391H14.4294H14.4198H14.4102H14.4006H14.391H14.3813H14.3717H14.3621H14.3525H14.3429H14.3332H14.3236H14.314H14.3044H14.2947H14.2851H14.2755H14.2659H14.2563H14.2466H14.237H14.2274H14.2178H14.2082H14.1985H14.1889H14.1793H14.1697H14.1601H14.1504H14.1408H14.1312H14.1216H14.112H14.1023H14.0927H14.0831H14.0735H14.0639H14.0542H14.0446H14.035H14.0254H14.0158H14.0061H13.9965H13.9869H13.9773H13.9677H13.958H13.9484H13.9388H13.9292H13.9196H13.9099H13.9003H13.8907H13.8811H13.8715H13.8618H13.8522H13.8426H13.833H13.8234H13.8137H13.8041H13.7945H13.7849H13.7753H13.7656H13.756H13.7464H13.7368H13.7272H13.7175H13.7079H13.6983H13.6887H13.6791H13.6694H13.6598H13.6502H13.6406H13.631H13.6213H13.6117H13.6021H13.5925H13.5829H13.5732H13.5636H13.554H13.5444H13.5348H13.5251H13.5155H13.5059H13.4963H13.4867H13.477H13.4674H13.4578H13.4482H13.4386H13.4289H13.4193H13.4097H13.4001H13.3905H13.3808H13.3712H13.3616H13.352H13.3424H13.3328H13.3231H13.3135H13.3039H13.2943H13.2847H13.275H13.2654H13.2558H13.2462H13.2366H13.2269H13.2173H13.2077H13.1981H13.1885H13.1788H13.1692H13.1596H13.15H13.1404H13.1307H13.1211H13.1115H13.1019H13.0923H13.0827H13.073H13.0634H13.0538H13.0442H13.0346H13.0249H13.0153H13.0057H12.9961H12.9865H12.9768H12.9672H12.9576H12.948H12.9384H12.9287H12.9191H12.9095H12.8999H12.8903H12.8807H12.871H12.8614H12.8518H12.8422H12.8326H12.8229H12.8133H12.8037H12.7941H12.7845H12.7748H12.7652H12.7556H12.746H12.7364H12.7268H12.7171H12.7075H12.6979H12.6883H12.6787H12.669H12.6594H12.6498H12.6402H12.6306H12.621H12.6113H12.6017H12.5921H12.5825H12.5729H12.5632H12.5536H12.544H12.5344H12.5248H12.5151H12.5055H12.4959H12.4863H12.4767H12.4671H12.4574H12.4478H12.4382H12.4286H12.419H12.4093H12.3997H12.3901H12.3805H12.3709H12.3613H12.3516H12.342H12.3324H12.3228H12.3132H12.3035H12.2939H12.2843H12.2747H12.2651H12.2555H12.2458H12.2362H12.2266H12.217H12.2074H12.1977H12.1881H12.1785H12.1689H12.1593H12.1497H12.14H12.1304H12.1208H12.1112H12.1016H12.092H12.0823H12.0727H12.0631H12.0535H12.0439H12.0342H12.0246H12.015H12.0054H11.9958H11.9862H11.9765H11.9669H11.9573H11.9477H11.9381H11.9285H11.9188H11.9092H11.8996H11.89H11.8804H11.8707H11.8611H11.8515H11.8419H11.8323H11.8227H11.813H11.8034H11.7938H11.7842H11.7746H11.765H11.7553H11.7457H11.7361H11.7265H11.7169H11.7073H11.6976H11.688H11.6784H11.6688H11.6592H11.6495H11.6399H11.6303H11.6207H11.6111H11.6015H11.5918H11.5822H11.5726H11.563H11.5534H11.5438H11.5341H11.5245H11.5149H11.5053H11.4957H11.4861H11.4764H11.4668H11.4572H11.4476H11.438H11.4284H11.4187H11.4091H11.3995H11.3899H11.3803H11.3707H11.361H11.3514H11.3418H11.3322H11.3226H11.313H11.3033H11.2937H11.2841H11.2745H11.2649H11.2553H11.2456H11.236H11.2264H11.2168H11.2072H11.1976H11.1879H11.1783H11.1687H11.1591H11.1495H11.1399H11.1302H11.1206H11.111H11.1014H11.0918H11.0822H11.0725H11.0629H11.0533H11.0437H11.0341H11.0245H11.0148H11.0052H10.9956H10.986H10.9764H10.9668H10.9571H10.9475H10.9379H10.9283H10.9187H10.9091H10.8994H10.8898H10.8802H10.8706H10.861H10.8514H10.8417H10.8321H10.8225H10.8129H10.8033H10.7937H10.784H10.7744H10.7648H10.7552H10.7456H10.736H10.7264H10.7167H10.7071H10.6975H10.6879H10.6783H10.6687H10.659H10.6494H10.6398H10.6302H10.6206H10.611H10.6013H10.5917H10.5821H10.5725H10.5629H10.5533H10.5436H10.534H10.5244H10.5148H10.5052H10.4956H10.486H10.4763H10.4667H10.4571H10.4475H10.4379H10.4283H10.4186H10.409H10.3994H10.3898H10.3802H10.3706H10.361H10.3513H10.3417H10.3321H10.3225H10.3129H10.3033H10.2936H10.284H10.2744H10.2648H10.2552H10.2456H10.2359H10.2263H10.2167H10.2071H10.1975H10.1879H10.1783H10.1686H10.159H10.1494H10.1398H10.1302H10.1206H10.111H10.1013H10.0917H10.0821H10.0725H10.0629H10.0533H10.0436H10.034H10.0244H10.0148H10.0052H9.99557H9.98595H9.97634H9.96672H9.95711H9.94749H9.93788H9.92826H9.91865H9.90903H9.89942H9.8898H9.88019H9.87057H9.86096H9.85134H9.84173H9.83211H9.8225H9.81288H9.80327H9.79365H9.78404H9.77442H9.76481H9.75519H9.74558H9.73596H9.72635H9.71674H9.70712H9.69751H9.68789H9.67828H9.66866H9.65905H9.64943H9.63982H9.6302H9.62059H9.61097H9.60136H9.59174H9.58213H9.57252H9.5629H9.55677C9.54965 8.48142 9.54287 8.48435 9.53784 8.48942C9.53269 8.49461 9.5298 8.50162 9.52978 8.50894L9.53362 15.1356ZM9.53362 15.1356C9.53371 14.734 9.53387 14.3322 9.53402 13.9304C9.53473 12.1242 9.53543 10.3164 9.52979 8.50907L9.53362 15.1356ZM14.4697 15.787C14.4697 15.7869 14.4698 15.7861 14.47 15.7847L14.4697 15.787Z" stroke="black" stroke-opacity="0.2" stroke-width="1.5"/>
</g>
<circle cx="12.0005" cy="11.9992" r="8.11865" stroke="#2384C1" stroke-width="1.5"/>
<circle cx="12.0005" cy="11.9992" r="8.11865" stroke="black" stroke-opacity="0.2" stroke-width="1.5"/>
<defs>
<clipPath id="clip0_10930_50679">
<rect width="6.44169" height="8.53373" fill="white" transform="translate(8.78003 7.73096)"/>
</clipPath>
</defs>
</svg>
