<svg width="24" height="24" viewBox="0 0 24 24" fill="none" xmlns="http://www.w3.org/2000/svg">
<g clip-path="url(#clip0_7742_46403)">
<path d="M3.75 8.25V6.375L12 2.25L20.25 6.375V8.25H3.75Z" fill="#785349"/>
<path d="M4.125 8.25H20.25V6.5625L12.375 2.625L5.46675 6.07913C5.06357 6.28068 4.72449 6.59054 4.4875 6.97397C4.25052 7.3574 4.12499 7.79925 4.125 8.25Z" fill="#916658"/>
<path d="M3.75 9.75H20.625V20.25H3.75V9.75Z" fill="#D7E0EF"/>
<path d="M19.125 18.75L19.5 9.75H21L21.375 18.75H19.125Z" fill="#A37765"/>
<path d="M19.5004 9.75H20.2816L20.5786 16.875C20.5881 17.0501 20.5542 17.2249 20.48 17.3838C20.4058 17.5428 20.2935 17.6809 20.1531 17.7861C20.0127 17.8912 19.8486 17.9601 19.6752 17.9866C19.5018 18.0132 19.3246 17.9965 19.1592 17.9381L19.5004 9.75Z" fill="#BF9377"/>
<path d="M14.625 18.75L15 10.5H16.5L16.875 18.75H14.625Z" fill="#A37765"/>
<path d="M15.0001 10.5H15.4092L15.6991 16.875C15.7054 17.0171 15.6834 17.159 15.6344 17.2926C15.5854 17.4261 15.5103 17.5485 15.4135 17.6528C15.3168 17.7571 15.2003 17.8411 15.0708 17.8999C14.9413 17.9587 14.8014 17.9912 14.6592 17.9955L15.0001 10.5Z" fill="#BF9377"/>
<path d="M4.875 18.75L4.5 9.75H3L2.625 18.75H4.875Z" fill="#A37765"/>
<path d="M4.49961 9.75H3.71849L3.42149 16.875C3.41198 17.0501 3.44584 17.2249 3.52005 17.3838C3.59425 17.5428 3.70653 17.6809 3.84691 17.7861C3.9873 17.8912 4.15146 17.9601 4.32484 17.9866C4.49822 18.0132 4.67546 17.9965 4.84086 17.9381L4.49961 9.75Z" fill="#BF9377"/>
<path d="M12 0.75L21.75 5.625V7.125L12 2.25L2.25 7.125V5.625L12 0.75Z" fill="#0059BE"/>
<path d="M18 9.75H22.5V8.25H18" fill="#006BDB"/>
<path d="M6 8.25H1.5V9.75H6" fill="#006BDB"/>
<path d="M6 6H18V10.5H6V6Z" fill="#0059BE"/>
<path d="M6.75 6H18V9.75H6.75V6Z" fill="#006BDB"/>
<path d="M0.75 21.75H23.25V23.25H0.75V21.75Z" fill="#004180"/>
<path d="M1.5 20.25H22.5V21.75H1.5V20.25Z" fill="#0059BE"/>
<path d="M2.25 20.25V18.75H5.25V20.25" fill="#785349"/>
<path d="M18.75 20.25V18.75H21.75V20.25" fill="#785349"/>
<path d="M14.25 20.25V18.75H17.25V20.25" fill="#785349"/>
<path d="M9.375 18.75L9 10.5H7.5L7.125 18.75H9.375Z" fill="#A37765"/>
<path d="M6.75 20.25V18.75H9.75V20.25" fill="#785349"/>
<path d="M8.0625 6.75H7.5C7.40054 6.75 7.30516 6.78951 7.23483 6.85983C7.16451 6.93016 7.125 7.02554 7.125 7.125V9.375C7.125 9.47446 7.16451 9.56984 7.23483 9.64017C7.30516 9.71049 7.40054 9.75 7.5 9.75H8.0625C8.2366 9.75 8.40727 9.70152 8.55537 9.60999C8.70348 9.51845 8.82316 9.38749 8.90103 9.23176C8.97889 9.07604 9.01185 8.90171 8.99621 8.72831C8.98058 8.55491 8.91696 8.38928 8.8125 8.25C8.91696 8.11072 8.98058 7.94509 8.99621 7.77169C9.01185 7.59829 8.97889 7.42396 8.90103 7.26824C8.82316 7.11251 8.70348 6.98155 8.55537 6.89001C8.40727 6.79848 8.2366 6.75 8.0625 6.75ZM8.0625 9H7.875V8.625H8.0625C8.11223 8.625 8.15992 8.64475 8.19508 8.67992C8.23025 8.71508 8.25 8.76277 8.25 8.8125C8.25 8.86223 8.23025 8.90992 8.19508 8.94508C8.15992 8.98025 8.11223 9 8.0625 9ZM8.0625 7.875H7.875V7.5H8.0625C8.11223 7.5 8.15992 7.51975 8.19508 7.55492C8.23025 7.59008 8.25 7.63777 8.25 7.6875C8.25 7.73723 8.23025 7.78492 8.19508 7.82008C8.15992 7.85525 8.11223 7.875 8.0625 7.875Z" fill="white"/>
<path d="M10.812 6.91687C10.7757 6.86837 10.7286 6.82899 10.6745 6.80187C10.6203 6.77474 10.5606 6.76062 10.5 6.76062C10.4394 6.76062 10.3797 6.77474 10.3255 6.80187C10.2714 6.82899 10.2243 6.86837 10.188 6.91687L9.438 8.04187C9.39703 8.10356 9.37512 8.17594 9.375 8.25V9.75H10.125V9H10.875V9.75H11.625V8.25C11.6249 8.17594 11.603 8.10356 11.562 8.04187L10.812 6.91687ZM10.8 8.25H10.2L10.5 7.8L10.8 8.25Z" fill="white"/>
<path d="M13.5 8.1375L12.687 6.918C12.6424 6.85111 12.5775 6.80033 12.5018 6.77314C12.4262 6.74595 12.3438 6.74379 12.2668 6.76698C12.1898 6.79018 12.1224 6.83749 12.0743 6.90195C12.0263 6.96641 12.0002 7.04461 12 7.125V9.75H12.75V8.3625L13.563 9.582C13.6076 9.64889 13.6725 9.69967 13.7482 9.72686C13.8238 9.75405 13.9062 9.75621 13.9832 9.73302C14.0602 9.70982 14.1276 9.66251 14.1757 9.59805C14.2237 9.53359 14.2498 9.45539 14.25 9.375V6.75H13.5V8.1375Z" fill="white"/>
<path d="M16.1134 8.25C16.3488 8.07694 16.5403 7.85109 16.6726 7.59058C16.8048 7.33007 16.8742 7.04217 16.875 6.75H16.125C16.124 6.98185 16.0515 7.20774 15.9172 7.39676C15.783 7.58579 15.5936 7.72872 15.375 7.806V6.75H14.625V9.75H15.375V8.694C15.5936 8.77128 15.783 8.91421 15.9172 9.10324C16.0515 9.29226 16.124 9.51815 16.125 9.75H16.875C16.8742 9.45783 16.8048 9.16993 16.6726 8.90942C16.5403 8.64891 16.3488 8.42306 16.1134 8.25Z" fill="white"/>
<path d="M2.25 22.5H23.25V21.75H1.5C1.5 21.9489 1.57902 22.1397 1.71967 22.2803C1.86032 22.421 2.05109 22.5 2.25 22.5Z" fill="#004C9D"/>
<path d="M3 21H22.5V20.25H2.25C2.25 20.4489 2.32902 20.6397 2.46967 20.7803C2.61032 20.921 2.80109 21 3 21Z" fill="#006BDB"/>
<path d="M3.75 19.5H5.25V18.75H3C3 18.9489 3.07902 19.1397 3.21967 19.2803C3.36032 19.421 3.55109 19.5 3.75 19.5Z" fill="#916658"/>
<path d="M8.25 19.5H9.75V18.75H7.5C7.5 18.9489 7.57902 19.1397 7.71967 19.2803C7.86032 19.421 8.05109 19.5 8.25 19.5Z" fill="#916658"/>
<path d="M15.75 19.5H17.25V18.75H15C15 18.9489 15.079 19.1397 15.2197 19.2803C15.3603 19.421 15.5511 19.5 15.75 19.5Z" fill="#916658"/>
<path d="M20.25 19.5H21.75V18.75H19.5C19.5 18.9489 19.579 19.1397 19.7197 19.2803C19.8603 19.421 20.0511 19.5 20.25 19.5Z" fill="#916658"/>
<path d="M8.99987 10.5H8.59074L8.30087 16.875C8.29454 17.0171 8.31652 17.159 8.36554 17.2926C8.41455 17.4261 8.48962 17.5485 8.58638 17.6528C8.68314 17.7571 8.79965 17.8411 8.92916 17.8999C9.05866 17.9587 9.19857 17.9912 9.34074 17.9955L8.99987 10.5Z" fill="#BF9377"/>
<path d="M2.25 6.375V7.125L12 2.25L21.75 7.125V6.375L12 1.5L2.25 6.375Z" fill="#006BDB"/>
</g>
<defs>
<clipPath id="clip0_7742_46403">
<rect width="24" height="24" fill="white"/>
</clipPath>
</defs>
</svg>
