<svg width="20" height="20" viewBox="0 0 20 20" fill="none" xmlns="http://www.w3.org/2000/svg">
<path d="M16.8484 8.50035L14.8703 5.05859H10.9375V6.58203H7.07031V5.52734H5.89844V6.58203H1.17188V5.52734H0V13.3789H2.38656C2.6423 14.2796 3.4716 14.9414 4.45312 14.9414C5.43465 14.9414 6.26391 14.2796 6.51969 13.3789H13.7928C14.0486 14.2796 14.8779 14.9414 15.8594 14.9414C16.8409 14.9414 17.6702 14.2796 17.9259 13.3789H20V8.92059L16.8484 8.50035ZM1.17188 7.75391H5.89844V8.45703H1.17188V7.75391ZM4.45312 13.7695C3.91465 13.7695 3.47656 13.3314 3.47656 12.793C3.47656 12.2545 3.91465 11.8164 4.45312 11.8164C4.9916 11.8164 5.42969 12.2545 5.42969 12.793C5.42969 13.3314 4.9916 13.7695 4.45312 13.7695ZM10.9375 12.207H6.51969C6.26395 11.3064 5.43465 10.6445 4.45312 10.6445C3.4716 10.6445 2.64234 11.3064 2.38656 12.207H1.17188V9.62891H10.9375V12.207ZM10.9375 8.45703H7.07031V7.75391H10.9375V8.45703ZM12.1094 6.23047H14.1922L15.4718 8.45703H12.1094V6.23047ZM15.8594 13.7695C15.3209 13.7695 14.8828 13.3314 14.8828 12.793C14.8828 12.2545 15.3209 11.8164 15.8594 11.8164C16.3979 11.8164 16.8359 12.2545 16.8359 12.793C16.8359 13.3314 16.3979 13.7695 15.8594 13.7695ZM18.8281 12.207H17.9259C17.6702 11.3064 16.8409 10.6445 15.8594 10.6445C14.8779 10.6445 14.0486 11.3064 13.7928 12.207H12.1094V9.62891H16.4455L18.8281 9.9466V12.207Z" fill="#5D6370"/>
</svg>
