<svg width="20" height="20" viewBox="0 0 20 20" fill="none" xmlns="http://www.w3.org/2000/svg">
<path d="M0 16.3574V10.5176C0 10.335 0.0851555 10.1628 0.230272 10.052L10.8162 1.96602C10.9184 1.88797 11.0433 1.8457 11.1719 1.8457H17.4609C18.861 1.8457 20 2.98473 20 4.38477V6.98242C20 7.30602 19.7377 7.56836 19.4141 7.56836H12.795L5.29039 13.4277H11.7188V9.32617C11.7188 9.00258 11.9811 8.74023 12.3047 8.74023H15.8984C18.16 8.74023 20 10.5802 20 12.8418V16.3574C20 16.681 19.7377 16.9434 19.4141 16.9434H17.5241C17.287 17.6464 16.6218 18.1543 15.8398 18.1543C15.0579 18.1543 14.3927 17.6464 14.1556 16.9434H8.1491C7.91203 17.6464 7.24684 18.1543 6.46484 18.1543C5.68285 18.1543 5.01766 17.6464 4.78059 16.9434L0.585157 16.9433C0.262814 16.9429 0 16.6804 0 16.3574ZM12.5934 6.39648H18.8281V4.38477C18.8281 3.6309 18.2148 3.01758 17.4609 3.01758H11.37L1.17188 10.8073V15.1566L12.2328 6.52059C12.3357 6.44016 12.4627 6.39648 12.5934 6.39648ZM6.46484 14.5996H3.78945L2.28852 15.7715H4.79383C5.04199 15.0887 5.69734 14.5996 6.46484 14.5996C7.23234 14.5996 7.8877 15.0887 8.13586 15.7715H11.7188V14.5996H6.46484ZM15.8984 9.91211H15.2344V12.2559H18.7692C18.497 10.9202 17.3132 9.91211 15.8984 9.91211ZM18.8281 13.4277H14.6484C14.3248 13.4277 14.0625 13.1654 14.0625 12.8418V9.91211H12.8906V15.7715H14.1688C14.417 15.0887 15.0723 14.5996 15.8398 14.5996C16.6073 14.5996 17.2627 15.0887 17.5109 15.7715H18.8281V13.4277ZM15.8398 16.9824C16.1737 16.9824 16.4453 16.7108 16.4453 16.377C16.4453 16.0431 16.1737 15.7715 15.8398 15.7715C15.506 15.7715 15.2344 16.0431 15.2344 16.377C15.2344 16.7108 15.506 16.9824 15.8398 16.9824ZM6.46484 16.9824C6.79871 16.9824 7.07031 16.7108 7.07031 16.377C7.07031 16.0431 6.79871 15.7715 6.46484 15.7715C6.13098 15.7715 5.85938 16.0431 5.85938 16.377C5.85938 16.7108 6.13098 16.9824 6.46484 16.9824Z" fill="#5D6370"/>
</svg>
