<svg width="18" height="18" viewBox="0 0 18 18" fill="none" xmlns="http://www.w3.org/2000/svg">
<path d="M9 1.5C13.1423 1.5 16.5 4.85775 16.5 9C16.5 13.1423 13.1423 16.5 9 16.5C4.85775 16.5 1.5 13.1423 1.5 9C1.5 4.85775 4.85775 1.5 9 1.5ZM9 3.75C6.1005 3.75 3.75 6.1005 3.75 9C3.75 10.389 4.29 11.6528 5.1705 12.5917L5.2875 12.7118L6.348 11.652C5.67 10.9725 5.25 10.035 5.25 9C5.25 6.92925 6.92925 5.25 9 5.25C9.336 5.25 9.6615 5.29425 9.97125 5.3775L11.1435 4.206C10.4887 3.9135 9.7635 3.75 9 3.75ZM13.794 6.85725L12.6232 8.02875C12.7057 8.3385 12.75 8.664 12.75 9C12.75 10.035 12.33 10.9725 11.652 11.652L12.7125 12.7125C13.662 11.7623 14.25 10.4497 14.25 9C14.25 8.2365 14.0872 7.51125 13.794 6.85725ZM12.1815 4.75725L9.38775 7.55025C9.264 7.51725 9.13425 7.5 9 7.5C8.17125 7.5 7.5 8.17125 7.5 9C7.5 9.82875 8.17125 10.5 9 10.5C9.82875 10.5 10.5 9.82875 10.5 9C10.5 8.86575 10.4827 8.736 10.4497 8.61225L13.2428 5.81775L12.1823 4.75725H12.1815Z" fill="#1C6A9B"/>
</svg>
