<svg width="22" height="22" viewBox="0 0 22 22" fill="none" xmlns="http://www.w3.org/2000/svg">
<g clip-path="url(#clip0_7561_44478)">
<g clip-path="url(#clip1_7561_44478)">
<path d="M19.287 6.12907V15.6412C19.2527 15.8412 19.2446 16.0484 19.1175 16.2221C19.0004 16.3895 18.8468 16.5281 18.6683 16.6273C18.4898 16.7266 18.291 16.7839 18.087 16.795C18.0345 16.7992 17.9815 16.795 17.9286 16.795H4.40759C4.18518 16.8025 3.96401 16.759 3.76099 16.6679C3.28431 16.4391 3.03473 16.0709 3.03516 15.5344C3.03516 12.4331 3.03586 9.33156 3.03728 6.22992C3.03728 5.51425 3.57625 4.9829 4.297 4.97146C4.75123 4.96426 5.20546 4.97146 5.66012 4.97146C9.74932 4.97146 13.8388 4.97146 17.9286 4.97146C18.3235 4.97146 18.6637 5.08672 18.9536 5.3562C19.0491 5.44306 19.1263 5.54817 19.1806 5.66533C19.2349 5.7825 19.2652 5.90934 19.2696 6.0384C19.266 6.06969 19.272 6.10136 19.287 6.12907Z" fill="#5D647E"/>
<path d="M15.7422 7.08033C16.0432 7.08167 16.337 7.17222 16.5864 7.34053C16.8359 7.50884 17.0299 7.74734 17.1438 8.02588C17.2577 8.30443 17.2865 8.6105 17.2265 8.90539C17.1664 9.20029 17.0203 9.47075 16.8066 9.6826C16.5928 9.89445 16.3211 10.0382 16.0257 10.0956C15.7302 10.1529 15.4244 10.1215 15.1469 10.0051C14.8694 9.88865 14.6326 9.69257 14.4666 9.44161C14.3005 9.19064 14.2125 8.89607 14.2139 8.59513C14.2167 8.19189 14.379 7.80617 14.6654 7.52231C14.9518 7.23844 15.339 7.07953 15.7422 7.08033Z" fill="#FE4F19"/>
<path d="M9.13422 8.85532V9.36379C9.06727 9.45616 8.96473 9.43963 8.87363 9.44006C8.31517 9.44387 7.75712 9.44006 7.19866 9.44006C7.13044 9.44006 7.0618 9.44006 6.99315 9.44006C6.73892 9.44429 6.68638 9.49684 6.68129 9.74599C6.68129 9.81463 6.68129 9.88285 6.67706 9.95149C6.67282 10.0201 6.66223 10.0786 6.6029 10.1172H6.09444C6.02368 10.0689 6.01986 9.99344 6.01944 9.91929C6.01435 9.04021 6.01435 8.16084 6.01944 7.28119C6.01944 7.20747 6.02368 7.13204 6.09444 7.08374H6.6029C6.69994 7.15577 6.67748 7.26297 6.6796 7.36001C6.68807 7.73839 6.70926 7.76042 7.08807 7.76085C7.68128 7.76085 8.2783 7.76085 8.87363 7.76085C8.966 7.76085 9.06727 7.74475 9.13422 7.83712V8.34558C9.06685 8.43796 8.96473 8.42186 8.87363 8.42228C8.25712 8.42567 7.6406 8.42228 7.02408 8.42228C6.95561 8.41748 6.88681 8.42363 6.82027 8.4405C6.78379 8.44893 6.75157 8.47025 6.72955 8.50053C6.70752 8.53081 6.69715 8.56802 6.70036 8.60533C6.70078 8.64002 6.71283 8.67356 6.73457 8.7006C6.75631 8.72764 6.78648 8.74661 6.82027 8.75448C6.88683 8.7712 6.95563 8.77721 7.02408 8.77227C7.6406 8.77227 8.25712 8.77227 8.87363 8.77227C8.966 8.77948 9.06685 8.76337 9.13422 8.85532Z" fill="#FE9400"/>
<path d="M6.09595 7.08544V10.1189C5.9218 10.1189 5.74765 10.1278 5.57393 10.1223C5.44305 10.1195 5.31844 10.0656 5.22675 9.9722C5.13506 9.87876 5.08356 9.75317 5.08326 9.62226C5.07902 8.94176 5.07902 8.26127 5.08326 7.58077C5.08269 7.44968 5.13393 7.32367 5.22583 7.23018C5.31773 7.13669 5.44284 7.0833 5.57393 7.08162C5.74765 7.07654 5.9218 7.08374 6.09595 7.08544Z" fill="#FED000"/>
<path d="M7.87307 14.9436C7.07018 14.9436 6.26714 14.9436 5.46396 14.9436C5.40087 14.9472 5.33757 14.9434 5.27539 14.9321C5.21983 14.9219 5.16993 14.8917 5.13512 14.8472C5.1003 14.8027 5.08297 14.747 5.08639 14.6906C5.08286 14.6342 5.1001 14.5785 5.13485 14.534C5.16959 14.4895 5.21944 14.4593 5.27496 14.449C5.33727 14.4376 5.40072 14.4336 5.46396 14.4372H10.3135C10.5453 14.4372 10.6606 14.5219 10.6606 14.6914C10.6606 14.8609 10.5453 14.9457 10.314 14.9457L7.87307 14.9436Z" fill="#898794"/>
<path d="M6.22962 12.1536C6.43566 12.1536 6.64169 12.1507 6.8473 12.1536C7.15127 12.1587 7.36027 12.3711 7.36663 12.6768C7.36663 12.7616 7.3696 12.8463 7.36663 12.9311C7.36339 13.06 7.31061 13.1827 7.21926 13.2736C7.1279 13.3646 7.00502 13.4168 6.87613 13.4195C6.44329 13.4271 6.01002 13.4195 5.57675 13.4195C5.55044 13.4197 5.52417 13.4173 5.49832 13.4123C5.18249 13.35 5.04174 13.0799 5.08328 12.6183C5.09397 12.4904 5.1526 12.3713 5.24742 12.2848C5.34223 12.1983 5.46623 12.1508 5.59456 12.1519C5.80695 12.1507 6.01808 12.1536 6.22962 12.1536Z" fill="#B7B9BF"/>
<path d="M9.53843 12.1538C9.73895 12.1538 9.9399 12.1513 10.1404 12.1538C10.4457 12.1585 10.6568 12.3692 10.664 12.6732C10.664 12.758 10.667 12.8427 10.664 12.9275C10.6521 13.1972 10.4478 13.4151 10.1803 13.4197C9.74192 13.4282 9.30356 13.4223 8.86606 13.4197C8.85013 13.4204 8.83419 13.4191 8.81857 13.4159C8.50274 13.3358 8.34503 13.1615 8.38234 12.6388C8.38824 12.5079 8.44443 12.3843 8.5392 12.2938C8.63397 12.2033 8.76002 12.1529 8.89107 12.153C9.10516 12.15 9.32179 12.1538 9.53843 12.1538Z" fill="#B7B9BF"/>
<path d="M12.8108 13.4215C12.6048 13.4215 12.3989 13.4245 12.1929 13.4215C12.1255 13.4225 12.0585 13.4101 11.996 13.385C11.9334 13.3599 11.8764 13.3226 11.8284 13.2753C11.7804 13.228 11.7422 13.1716 11.7162 13.1094C11.6902 13.0472 11.6768 12.9804 11.6768 12.913C11.6768 12.8443 11.6768 12.7757 11.6768 12.707C11.6797 12.3629 11.8853 12.1561 12.2306 12.1561C12.6261 12.1561 13.0216 12.1561 13.4172 12.1561C13.7422 12.1561 13.9524 12.368 13.9575 12.6896C13.9575 12.7685 13.9604 12.8481 13.9575 12.927C13.9543 13.0579 13.9007 13.1827 13.8079 13.2751C13.7151 13.3676 13.5901 13.4206 13.4591 13.4232H12.8108V13.4215Z" fill="#B7B9BF"/>
<path d="M16.1186 13.4222C15.9177 13.4222 15.7171 13.4222 15.5166 13.4222C15.1843 13.4188 14.9774 13.2102 14.974 12.8736C14.974 12.7943 14.971 12.7146 14.974 12.6358C14.9786 12.51 15.0308 12.3906 15.1199 12.3018C15.209 12.2129 15.3285 12.1611 15.4543 12.1567C15.8922 12.1483 16.331 12.1542 16.7685 12.1567C16.7896 12.1567 16.8106 12.1585 16.8313 12.1623C17.1488 12.2186 17.2912 12.484 17.2552 12.9495C17.2453 13.0773 17.1881 13.1967 17.0948 13.2845C17.0015 13.3723 16.8788 13.4222 16.7507 13.4243H16.1148L16.1186 13.4222Z" fill="#B7B9BF"/>
<path d="M9.13806 7.84148C8.36267 7.84148 7.58771 7.83809 6.81232 7.84445C6.65589 7.84445 6.59187 7.80205 6.60035 7.63926C6.61264 7.45527 6.60332 7.27001 6.60332 7.08559C7.28798 7.08559 7.97222 7.07796 8.65689 7.08305C8.92101 7.08305 9.12916 7.30646 9.14018 7.57312C9.14569 7.66258 9.13976 7.75203 9.13806 7.84148Z" fill="#FED000"/>
<path d="M6.60514 10.1192C6.60514 9.92421 6.61234 9.72877 6.60302 9.53376C6.59581 9.38453 6.67042 9.36079 6.79634 9.36121C7.57681 9.36503 8.35729 9.36121 9.13776 9.36121C9.13776 9.45066 9.1454 9.54012 9.142 9.62957C9.13098 9.89623 8.92367 10.1175 8.65871 10.1196C7.97404 10.1269 7.2898 10.1209 6.60514 10.1192Z" fill="#FED000"/>
<path d="M12.581 14.4367C12.9349 14.4367 13.2887 14.4367 13.6404 14.4367C13.8437 14.4367 13.9556 14.5299 13.9556 14.691C13.9556 14.852 13.8433 14.9452 13.6404 14.9452C12.922 14.9452 12.2038 14.9452 11.4857 14.9452C11.2828 14.9452 11.1705 14.8515 11.1709 14.691C11.1713 14.5304 11.2828 14.4393 11.4861 14.4367C11.8527 14.4355 12.2171 14.4367 12.581 14.4367Z" fill="#898794"/>
<path d="M9.1389 8.85567C8.36266 8.85567 7.586 8.85227 6.80977 8.85905C6.64825 8.85905 6.5978 8.80818 6.60288 8.64963C6.61179 8.34863 6.60288 8.34863 6.90473 8.34863H9.1389V8.85567Z" fill="#FED000"/>
</g>
</g>
<defs>
<clipPath id="clip0_7561_44478">
<rect width="21.9978" height="21.9978" fill="white" transform="translate(0 0.00109863)"/>
</clipPath>
<clipPath id="clip1_7561_44478">
<rect width="16.2506" height="11.8274" fill="white" transform="translate(3.03711 4.97095)"/>
</clipPath>
</defs>
</svg>
