<svg width="18" height="18" viewBox="0 0 18 18" fill="none" xmlns="http://www.w3.org/2000/svg">
<path d="M17.25 8.46012C17.2218 7.56546 17.0513 6.68098 16.7452 5.83987C16.2453 4.47875 15.3934 3.27454 14.2764 2.35001C13.9745 2.09918 13.6557 1.86956 13.3221 1.66279C13.1653 1.56605 12.9856 1.51287 12.8014 1.50873C12.6173 1.50459 12.4353 1.54965 12.2744 1.63925C12.1134 1.72885 11.9793 1.85975 11.8858 2.01847C11.7923 2.17718 11.7428 2.35796 11.7424 2.54217C11.7423 2.71711 11.7871 2.88915 11.8727 3.04173C11.9583 3.19432 12.0816 3.32232 12.231 3.41342C12.4857 3.57088 12.7289 3.7461 12.9589 3.93779C14.1325 4.91011 14.9041 6.28282 15.1248 7.79081C15.159 8.01794 15.1802 8.24685 15.1883 8.4764C15.2436 9.99921 14.7351 11.4889 13.7601 12.66L13.099 13.4531C13.0138 13.5618 12.9076 13.6524 12.7867 13.7194C12.6659 13.7864 12.5328 13.8284 12.3954 13.843C12.258 13.8576 12.1191 13.8445 11.9868 13.8045C11.8546 13.7644 11.7318 13.6982 11.6256 13.6098C11.5194 13.5214 11.432 13.4125 11.3687 13.2897C11.3053 13.167 11.2673 13.0327 11.2567 12.8949C11.2462 12.7571 11.2635 12.6187 11.3075 12.4877C11.3514 12.3567 11.4213 12.2359 11.5128 12.1324L12.1724 11.3393C12.6361 10.7839 12.945 10.116 13.068 9.40301C13.1755 8.77701 13.1382 8.1347 12.9589 7.52536C12.9329 7.43742 12.9036 7.35111 12.871 7.26643C12.6214 6.58678 12.196 5.9855 11.6382 5.52394C11.0824 5.05893 10.4131 4.74984 9.69868 4.62827C9.39806 4.57763 9.09278 4.56016 8.78835 4.57616C8.78466 3.94088 8.58551 3.32212 8.21794 2.80395C7.85037 2.28578 7.33221 1.89331 6.73384 1.67986C6.13547 1.46642 5.4859 1.44233 4.87337 1.61088C4.26083 1.77943 3.71503 2.13245 3.3101 2.62197L2.6587 3.41505C1.72847 4.52716 1.11029 5.86637 0.867358 7.29574C0.625142 8.72496 0.759282 10.1926 1.25657 11.5543C1.75662 12.9149 2.60782 14.1189 3.72374 15.0441C4.02586 15.2953 4.34529 15.525 4.67967 15.7313C4.91147 15.865 5.18612 15.9035 5.44572 15.8386C5.70533 15.7738 5.92962 15.6106 6.07131 15.3836C6.213 15.1566 6.26102 14.8835 6.20525 14.6218C6.14949 14.3601 5.99429 14.1302 5.77238 13.9807C5.5176 13.8234 5.27435 13.6482 5.04445 13.4563C3.87207 12.4832 3.10116 11.1108 2.88018 9.60332C2.84596 9.37619 2.82475 9.14728 2.81667 8.91773C2.75782 7.39584 3.26226 5.90569 4.23346 4.7325L4.89463 3.93942C4.97984 3.83065 5.08602 3.74009 5.20687 3.67311C5.32772 3.60612 5.46079 3.56408 5.59819 3.54947C5.73559 3.53485 5.87451 3.54797 6.00675 3.58803C6.13899 3.6281 6.26184 3.6943 6.36802 3.78271C6.47421 3.87113 6.56157 3.97995 6.62492 4.10274C6.68827 4.22554 6.72634 4.3598 6.73685 4.49758C6.74736 4.63535 6.73012 4.77383 6.68613 4.90482C6.64214 5.03581 6.57232 5.15663 6.48078 5.26013L5.82938 6.0532C5.36293 6.60763 5.05164 7.27571 4.92719 7.98948C4.92719 8.01065 4.92719 8.03183 4.91742 8.053C4.80935 8.74876 4.88053 9.46059 5.12424 10.1212C5.37515 10.8005 5.80035 11.4019 6.35717 11.865C6.91399 12.3281 7.58283 12.6365 8.29654 12.7593C8.59779 12.8092 8.90353 12.8267 9.2085 12.8114C9.21219 13.4467 9.41135 14.0655 9.77891 14.5837C10.1465 15.1018 10.6646 15.4943 11.263 15.7077C11.8614 15.9212 12.511 15.9453 13.1235 15.7767C13.736 15.6082 14.2818 15.2552 14.6868 14.7656L15.3382 13.9726C16.6259 12.4272 17.3041 10.4643 17.2451 8.45361L17.25 8.46012ZM8.99517 10.7579C8.58773 10.7579 8.18945 10.6371 7.85067 10.4107C7.5119 10.1844 7.24786 9.86265 7.09194 9.48622C6.93602 9.1098 6.89523 8.69559 6.97471 8.29598C7.0542 7.89637 7.25039 7.52931 7.53849 7.24121C7.8266 6.9531 8.19367 6.7569 8.59328 6.67742C8.99288 6.59793 9.40709 6.63873 9.78351 6.79465C10.1599 6.95057 10.4817 7.2146 10.708 7.55338C10.9344 7.89215 11.0552 8.29044 11.0552 8.69788C11.0552 9.24424 10.8382 9.76821 10.4518 10.1545C10.0655 10.5409 9.54153 10.7579 8.99517 10.7579Z" fill="#1C6A9B"/>
</svg>
