<svg width="51" height="51" viewBox="0 0 51 51" fill="none" xmlns="http://www.w3.org/2000/svg">
<g clip-path="url(#clip0_10273_59565)">
<path d="M33.6042 38.4827H28.875V19.7327C28.875 19.1802 29.0945 18.6503 29.4852 18.2596C29.8759 17.8689 30.4058 17.6494 30.9583 17.6494H36.9625C37.3493 17.6496 37.7284 17.7575 38.0573 17.961C38.3863 18.1645 38.6521 18.4555 38.825 18.8015L42.4167 25.9827L46.3146 27.5432C46.7012 27.6976 47.0326 27.9643 47.2662 28.3089C47.4998 28.6535 47.6247 29.0602 47.625 29.4765V36.3994C47.625 36.9519 47.4055 37.4819 47.0148 37.8726C46.6241 38.2633 46.0942 38.4827 45.5417 38.4827H40.8125" stroke="#0E354D" stroke-width="2" stroke-linecap="round" stroke-linejoin="round"/>
<path d="M28.8744 32.2324H2.83268C2.55642 32.2324 2.29146 32.3422 2.09611 32.5375C1.90076 32.7329 1.79102 32.9978 1.79102 33.2741V36.3991C1.79102 36.9516 2.01051 37.4815 2.40121 37.8722C2.79191 38.2629 3.32181 38.4824 3.87435 38.4824H6.5181" stroke="#0E354D" stroke-width="2" stroke-linecap="round" stroke-linejoin="round"/>
<path d="M22.0566 38.4824H32.0004" stroke="#0E354D" stroke-width="2" stroke-linecap="round" stroke-linejoin="round"/>
<path d="M14.291 11.3994L20.541 19.7327V27.0244C20.541 27.3007 20.4313 27.5656 20.2359 27.761C20.0406 27.9563 19.7756 28.0661 19.4993 28.0661H2.83268C2.55642 28.0661 2.29146 27.9563 2.09611 27.761C1.90076 27.5656 1.79102 27.3007 1.79102 27.0244V22.8577C1.79102 22.5815 1.90076 22.3165 2.09611 22.1212C2.29146 21.9258 2.55642 21.8161 2.83268 21.8161H5.95768V11.3994" stroke="#0E354D" stroke-width="2" stroke-linecap="round" stroke-linejoin="round"/>
<path d="M16.375 21.8154H10.125" stroke="#2384C1" stroke-width="2" stroke-linecap="round" stroke-linejoin="round"/>
<path d="M16.375 21.8154H10.125" stroke="black" stroke-opacity="0.2" stroke-width="2" stroke-linecap="round" stroke-linejoin="round"/>
<path d="M45.541 17.6494C45.541 18.0615 45.6632 18.4643 45.8921 18.8069C46.121 19.1495 46.4464 19.4165 46.8271 19.5742C47.2078 19.7318 47.6267 19.7731 48.0308 19.6927C48.4349 19.6123 48.8061 19.4139 49.0975 19.1226C49.3888 18.8312 49.5873 18.46 49.6677 18.0559C49.748 17.6517 49.7068 17.2328 49.5491 16.8522C49.3914 16.4715 49.1244 16.1461 48.7818 15.9172C48.4392 15.6883 48.0364 15.5661 47.6243 15.5661V11.3994" stroke="#2384C1" stroke-width="2" stroke-linecap="round" stroke-linejoin="round"/>
<path d="M45.541 17.6494C45.541 18.0615 45.6632 18.4643 45.8921 18.8069C46.121 19.1495 46.4464 19.4165 46.8271 19.5742C47.2078 19.7318 47.6267 19.7731 48.0308 19.6927C48.4349 19.6123 48.8061 19.4139 49.0975 19.1226C49.3888 18.8312 49.5873 18.46 49.6677 18.0559C49.748 17.6517 49.7068 17.2328 49.5491 16.8522C49.3914 16.4715 49.1244 16.1461 48.7818 15.9172C48.4392 15.6883 48.0364 15.5661 47.6243 15.5661V11.3994" stroke="black" stroke-opacity="0.2" stroke-width="2" stroke-linecap="round" stroke-linejoin="round"/>
<path d="M5.95898 40.5661C5.95898 41.6711 6.39797 42.731 7.17937 43.5124C7.96077 44.2938 9.02058 44.7327 10.1257 44.7327C11.2307 44.7327 12.2905 44.2938 13.0719 43.5124C13.8533 42.731 14.2923 41.6711 14.2923 40.5661C14.2923 39.461 13.8533 38.4012 13.0719 37.6198C12.2905 36.8384 11.2307 36.3994 10.1257 36.3994C9.02058 36.3994 7.96077 36.8384 7.17937 37.6198C6.39797 38.4012 5.95898 39.461 5.95898 40.5661Z" stroke="#2384C1" stroke-width="2" stroke-linecap="round" stroke-linejoin="round"/>
<path d="M5.95898 40.5661C5.95898 41.6711 6.39797 42.731 7.17937 43.5124C7.96077 44.2938 9.02058 44.7327 10.1257 44.7327C11.2307 44.7327 12.2905 44.2938 13.0719 43.5124C13.8533 42.731 14.2923 41.6711 14.2923 40.5661C14.2923 39.461 13.8533 38.4012 13.0719 37.6198C12.2905 36.8384 11.2307 36.3994 10.1257 36.3994C9.02058 36.3994 7.96077 36.8384 7.17937 37.6198C6.39797 38.4012 5.95898 39.461 5.95898 40.5661Z" stroke="black" stroke-opacity="0.2" stroke-width="2" stroke-linecap="round" stroke-linejoin="round"/>
<path d="M14.291 40.5661C14.291 41.6711 14.73 42.731 15.5114 43.5124C16.2928 44.2938 17.3526 44.7327 18.4577 44.7327C19.5628 44.7327 20.6226 44.2938 21.404 43.5124C22.1854 42.731 22.6243 41.6711 22.6243 40.5661C22.6243 39.461 22.1854 38.4012 21.404 37.6198C20.6226 36.8384 19.5628 36.3994 18.4577 36.3994C17.3526 36.3994 16.2928 36.8384 15.5114 37.6198C14.73 38.4012 14.291 39.461 14.291 40.5661Z" stroke="#2384C1" stroke-width="2" stroke-linecap="round" stroke-linejoin="round"/>
<path d="M14.291 40.5661C14.291 41.6711 14.73 42.731 15.5114 43.5124C16.2928 44.2938 17.3526 44.7327 18.4577 44.7327C19.5628 44.7327 20.6226 44.2938 21.404 43.5124C22.1854 42.731 22.6243 41.6711 22.6243 40.5661C22.6243 39.461 22.1854 38.4012 21.404 37.6198C20.6226 36.8384 19.5628 36.3994 18.4577 36.3994C17.3526 36.3994 16.2928 36.8384 15.5114 37.6198C14.73 38.4012 14.291 39.461 14.291 40.5661Z" stroke="black" stroke-opacity="0.2" stroke-width="2" stroke-linecap="round" stroke-linejoin="round"/>
<path d="M33.041 40.5661C33.041 41.6711 33.48 42.731 34.2614 43.5124C35.0428 44.2938 36.1026 44.7327 37.2077 44.7327C38.3128 44.7327 39.3726 44.2938 40.154 43.5124C40.9354 42.731 41.3743 41.6711 41.3743 40.5661C41.3743 39.461 40.9354 38.4012 40.154 37.6198C39.3726 36.8384 38.3128 36.3994 37.2077 36.3994C36.1026 36.3994 35.0428 36.8384 34.2614 37.6198C33.48 38.4012 33.041 39.461 33.041 40.5661Z" stroke="#2384C1" stroke-width="2" stroke-linecap="round" stroke-linejoin="round"/>
<path d="M33.041 40.5661C33.041 41.6711 33.48 42.731 34.2614 43.5124C35.0428 44.2938 36.1026 44.7327 37.2077 44.7327C38.3128 44.7327 39.3726 44.2938 40.154 43.5124C40.9354 42.731 41.3743 41.6711 41.3743 40.5661C41.3743 39.461 40.9354 38.4012 40.154 37.6198C39.3726 36.8384 38.3128 36.3994 37.2077 36.3994C36.1026 36.3994 35.0428 36.8384 34.2614 37.6198C33.48 38.4012 33.041 39.461 33.041 40.5661Z" stroke="black" stroke-opacity="0.2" stroke-width="2" stroke-linecap="round" stroke-linejoin="round"/>
<path d="M33.041 17.6494V25.9827H42.416" stroke="#0E354D" stroke-width="2" stroke-linecap="round" stroke-linejoin="round"/>
<path d="M5.95898 11.3991V9.31576C5.95898 8.76322 6.17848 8.23332 6.56918 7.84262C6.95988 7.45192 7.48978 7.23242 8.04232 7.23242H43.459C43.7789 7.25059 44.0917 7.33388 44.3783 7.47717C44.6649 7.62046 44.9192 7.82074 45.1257 8.06576L47.6257 11.3991H5.95898Z" stroke="#0E354D" stroke-width="2" stroke-linecap="round" stroke-linejoin="round"/>
</g>
<defs>
<clipPath id="clip0_10273_59565">
<rect width="50" height="50" fill="white" transform="translate(0.75 0.982422)"/>
</clipPath>
</defs>
</svg>
