<svg width="18" height="18" viewBox="0 0 18 18" fill="none" xmlns="http://www.w3.org/2000/svg">
<path d="M4.84125 14.25L1.5 16.875V3C1.5 2.80109 1.57902 2.61032 1.71967 2.46967C1.86032 2.32902 2.05109 2.25 2.25 2.25H15.75C15.9489 2.25 16.1397 2.32902 16.2803 2.46967C16.421 2.61032 16.5 2.80109 16.5 3V13.5C16.5 13.6989 16.421 13.8897 16.2803 14.0303C16.1397 14.171 15.9489 14.25 15.75 14.25H4.84125ZM8.25 10.5V12H9.75V10.5H8.25ZM6.42525 6.60975L7.89675 6.9045C7.93851 6.69557 8.03874 6.5028 8.18577 6.34861C8.33281 6.19442 8.52061 6.08516 8.72732 6.03353C8.93403 5.9819 9.15115 5.99003 9.35342 6.05698C9.55568 6.12392 9.73478 6.24693 9.86987 6.41168C10.005 6.57644 10.0905 6.77617 10.1165 6.98763C10.1425 7.1991 10.108 7.4136 10.0168 7.60619C9.9257 7.79877 9.78175 7.96152 9.60174 8.0755C9.42173 8.18947 9.21306 8.24999 9 8.25H8.25V9.75H9C9.49708 9.74985 9.98389 9.60856 10.4038 9.34257C10.8237 9.07659 11.1595 8.69684 11.3721 8.2475C11.5846 7.79817 11.6652 7.29771 11.6045 6.80436C11.5438 6.311 11.3443 5.84503 11.0291 5.46064C10.7139 5.07625 10.2961 4.78925 9.82421 4.63302C9.35232 4.47679 8.84577 4.45776 8.36349 4.57814C7.88121 4.69851 7.44302 4.95335 7.0999 5.313C6.75677 5.67266 6.52282 6.12234 6.42525 6.60975Z" fill="#1C6A9B"/>
</svg>
