<svg width="12" height="11" viewBox="0 0 12 11" fill="none" xmlns="http://www.w3.org/2000/svg">
<g clip-path="url(#clip0_9134_51864)">
<path d="M8.12173 7.35854H10.2827V8.22295H8.98613V9.51956H8.12173V7.35854ZM3.79969 3.03651H1.63867V2.1721H2.93528V0.875488H3.79969V3.03651ZM8.71125 6.7258L8.10012 6.1138L8.71125 5.50266C8.91336 5.30231 9.07391 5.06402 9.18368 4.80145C9.29345 4.53889 9.35028 4.25723 9.3509 3.97264C9.35153 3.68806 9.29593 3.40615 9.18731 3.14311C9.0787 2.88007 8.91919 2.64107 8.71796 2.43984C8.51673 2.23861 8.27773 2.07911 8.01469 1.97049C7.75165 1.86187 7.46974 1.80628 7.18516 1.8069C6.90057 1.80752 6.61891 1.86435 6.35635 1.97412C6.09379 2.08389 5.85549 2.24444 5.65514 2.44655L5.044 3.05812L4.43244 2.44698L5.04444 1.83584C5.61184 1.26844 6.38141 0.949673 7.18385 0.949673C7.98628 0.949673 8.75585 1.26844 9.32325 1.83584C9.89066 2.40325 10.2094 3.17282 10.2094 3.97525C10.2094 4.77769 9.89066 5.54726 9.32325 6.11466L8.71169 6.7258H8.71125ZM7.48898 7.94807L6.87741 8.55921C6.31001 9.12661 5.54044 9.44538 4.738 9.44538C3.93557 9.44538 3.166 9.12661 2.5986 8.55921C2.03119 7.9918 1.71242 7.22223 1.71242 6.4198C1.71242 5.61736 2.03119 4.8478 2.5986 4.28039L3.21016 3.66925L3.8213 4.28125L3.21016 4.89239C3.00805 5.09274 2.8475 5.33103 2.73773 5.5936C2.62797 5.85616 2.57114 6.13782 2.57052 6.42241C2.56989 6.70699 2.62549 6.9889 2.7341 7.25194C2.84272 7.51498 3.00223 7.75398 3.20346 7.95521C3.40469 8.15644 3.64369 8.31594 3.90673 8.42456C4.16977 8.53318 4.45168 8.58877 4.73626 8.58815C5.02084 8.58753 5.3025 8.5307 5.56507 8.42093C5.82763 8.31116 6.06593 8.15061 6.26628 7.9485L6.87741 7.33737L7.48898 7.9485V7.94807ZM7.18298 3.36368L7.79455 3.97525L4.73844 7.03093L4.12687 6.4198L7.18298 3.36412V3.36368Z" fill="#2384C1"/>
<path d="M8.12173 7.35854H10.2827V8.22295H8.98613V9.51956H8.12173V7.35854ZM3.79969 3.03651H1.63867V2.1721H2.93528V0.875488H3.79969V3.03651ZM8.71125 6.7258L8.10012 6.1138L8.71125 5.50266C8.91336 5.30231 9.07391 5.06402 9.18368 4.80145C9.29345 4.53889 9.35028 4.25723 9.3509 3.97264C9.35153 3.68806 9.29593 3.40615 9.18731 3.14311C9.0787 2.88007 8.91919 2.64107 8.71796 2.43984C8.51673 2.23861 8.27773 2.07911 8.01469 1.97049C7.75165 1.86187 7.46974 1.80628 7.18516 1.8069C6.90057 1.80752 6.61891 1.86435 6.35635 1.97412C6.09379 2.08389 5.85549 2.24444 5.65514 2.44655L5.044 3.05812L4.43244 2.44698L5.04444 1.83584C5.61184 1.26844 6.38141 0.949673 7.18385 0.949673C7.98628 0.949673 8.75585 1.26844 9.32325 1.83584C9.89066 2.40325 10.2094 3.17282 10.2094 3.97525C10.2094 4.77769 9.89066 5.54726 9.32325 6.11466L8.71169 6.7258H8.71125ZM7.48898 7.94807L6.87741 8.55921C6.31001 9.12661 5.54044 9.44538 4.738 9.44538C3.93557 9.44538 3.166 9.12661 2.5986 8.55921C2.03119 7.9918 1.71242 7.22223 1.71242 6.4198C1.71242 5.61736 2.03119 4.8478 2.5986 4.28039L3.21016 3.66925L3.8213 4.28125L3.21016 4.89239C3.00805 5.09274 2.8475 5.33103 2.73773 5.5936C2.62797 5.85616 2.57114 6.13782 2.57052 6.42241C2.56989 6.70699 2.62549 6.9889 2.7341 7.25194C2.84272 7.51498 3.00223 7.75398 3.20346 7.95521C3.40469 8.15644 3.64369 8.31594 3.90673 8.42456C4.16977 8.53318 4.45168 8.58877 4.73626 8.58815C5.02084 8.58753 5.3025 8.5307 5.56507 8.42093C5.82763 8.31116 6.06593 8.15061 6.26628 7.9485L6.87741 7.33737L7.48898 7.9485V7.94807ZM7.18298 3.36368L7.79455 3.97525L4.73844 7.03093L4.12687 6.4198L7.18298 3.36412V3.36368Z" fill="black" fill-opacity="0.2"/>
</g>
<defs>
<clipPath id="clip0_9134_51864">
<rect width="10.3729" height="10.3729" fill="white" transform="translate(0.773438 0.0112305)"/>
</clipPath>
</defs>
</svg>
