<svg width="182" height="62" viewBox="0 0 182 62" fill="none" xmlns="http://www.w3.org/2000/svg">
<g clip-path="url(#clip0_1041_526)">
<path d="M61.6677 26.679C61.5622 23.3378 60.9258 20.0347 59.7824 16.8936C57.9156 11.8104 54.7342 7.31325 50.5626 3.86056C49.4353 2.92383 48.2445 2.06629 46.9987 1.2941C46.4133 0.932819 45.7421 0.734214 45.0543 0.718762C44.3666 0.703309 43.6871 0.871579 43.0861 1.2062C42.485 1.54082 41.984 2.02967 41.6348 2.6224C41.2856 3.21513 41.1009 3.89026 41.0995 4.57819C41.0989 5.2315 41.2664 5.87399 41.586 6.44382C41.9055 7.01366 42.3663 7.49167 42.924 7.83189C43.8751 8.41993 44.7835 9.07432 45.6425 9.79019C50.0253 13.4213 52.9071 18.5478 53.7311 24.1794C53.8589 25.0277 53.9381 25.8825 53.9683 26.7398C54.1747 32.4268 52.2756 37.99 48.6347 42.3636L46.1656 45.3254C45.8473 45.7316 45.4508 46.0698 44.9995 46.3199C44.5481 46.5701 44.0512 46.7271 43.5381 46.7817C43.0249 46.8363 42.5061 46.7873 42.0123 46.6377C41.5184 46.488 41.0596 46.2408 40.6631 45.9106C40.2665 45.5804 39.9403 45.174 39.7037 44.7154C39.4671 44.2568 39.3249 43.7554 39.2857 43.2409C39.2464 42.7264 39.3108 42.2092 39.4751 41.7201C39.6394 41.2309 39.9001 40.7797 40.242 40.3931L42.7051 37.4314C44.4368 35.3573 45.5906 32.8629 46.05 30.2003C46.4514 27.8624 46.312 25.4637 45.6425 23.1881C45.5452 22.8597 45.4357 22.5374 45.3141 22.2211C44.3822 19.6829 42.7935 17.4374 40.7103 15.7137C38.6346 13.9771 36.135 12.8228 33.467 12.3688C32.3444 12.1797 31.2043 12.1144 30.0674 12.1742C30.0536 9.8017 29.3098 7.49093 27.9372 5.55581C26.5645 3.62069 24.6294 2.155 22.3947 1.35787C20.1601 0.560734 17.7342 0.470803 15.4467 1.10026C13.1592 1.72971 11.1209 3.04806 9.60863 4.87621L7.17597 7.83798C3.702 11.9912 1.39336 16.9925 0.486131 22.3306C-0.418435 27.6681 0.0825173 33.1491 1.93966 38.2342C3.8071 43.3154 6.98596 47.8119 11.1534 51.2672C12.2817 52.2054 13.4746 53.063 14.7233 53.8336C15.589 54.3328 16.6147 54.4765 17.5842 54.2343C18.5537 53.9921 19.3913 53.3829 19.9205 52.5351C20.4496 51.6874 20.629 50.6673 20.4207 49.69C20.2125 48.7126 19.6329 47.8542 18.8041 47.2958C17.8526 46.7084 16.9442 46.054 16.0856 45.3375C11.7073 41.7035 8.82836 36.5781 8.0031 30.9483C7.8753 30.1001 7.7961 29.2452 7.76591 28.3879C7.54612 22.7044 9.43 17.1394 13.057 12.758L15.5261 9.79627C15.8443 9.39007 16.2409 9.05186 16.6922 8.80171C17.1435 8.55156 17.6405 8.39454 18.1536 8.33996C18.6667 8.28539 19.1855 8.33436 19.6794 8.48399C20.1732 8.63361 20.632 8.88084 21.0286 9.21103C21.4251 9.54121 21.7514 9.94763 21.988 10.4062C22.2246 10.8648 22.3667 11.3662 22.406 11.8807C22.4452 12.3952 22.3808 12.9124 22.2165 13.4016C22.0523 13.8908 21.7915 14.342 21.4497 14.7285L19.017 17.6903C17.275 19.7608 16.1125 22.2558 15.6477 24.9214C15.6477 25.0004 15.6477 25.0795 15.6112 25.1586C15.2076 27.7569 15.4735 30.4153 16.3836 32.8823C17.3206 35.4194 18.9086 37.6653 20.988 39.3946C23.0675 41.124 25.5653 42.2758 28.2307 42.7346C29.3557 42.9208 30.4975 42.9861 31.6365 42.9292C31.6502 45.3017 32.394 47.6125 33.7667 49.5476C35.1394 51.4827 37.0745 52.9484 39.3091 53.7455C41.5437 54.5427 43.9696 54.6326 46.2571 54.0031C48.5446 53.3737 50.583 52.0553 52.0952 50.2272L54.5279 47.2654C59.337 41.4942 61.8698 34.1637 61.6495 26.6547L61.6677 26.679ZM30.8398 35.2602C29.3182 35.2602 27.8307 34.809 26.5656 33.9637C25.3004 33.1183 24.3144 31.9168 23.7321 30.511C23.1498 29.1052 22.9974 27.5584 23.2943 26.066C23.5911 24.5737 24.3238 23.2028 25.3997 22.1269C26.4757 21.051 27.8465 20.3183 29.3389 20.0214C30.8312 19.7246 32.3781 19.8769 33.7839 20.4592C35.1896 21.0415 36.3911 22.0276 37.2365 23.2927C38.0818 24.5579 38.533 26.0453 38.533 27.5669C38.533 29.6073 37.7225 31.5641 36.2797 33.0069C34.837 34.4497 32.8801 35.2602 30.8398 35.2602Z" fill="#2A9FE8"/>
<path d="M92.4106 26.3323C85.4167 25.4626 83.732 24.2706 83.732 21.8866C83.732 19.3931 86.0674 17.5443 90.6773 17.5443C95.2872 17.5443 98.7051 18.5234 103.418 21.2359L106.514 15.2698C101.835 12.1652 96.3149 10.5749 90.7016 10.7146C82.7955 10.7146 75.1326 14.5643 75.242 21.9961C75.2968 28.2845 79.6877 31.1611 89.613 32.7302C97.209 33.8736 98.62 35.0656 98.62 37.5591C98.62 40.0525 96.7225 41.8162 91.5166 41.8162C86.0917 41.8162 81.5366 39.9188 77.6321 37.2611L74.3784 42.6798C78.3862 46.3714 85.3862 48.5365 91.5166 48.5365C100.031 48.5365 107.244 44.6868 107.189 37.2611C107.11 30.0725 101.338 27.4696 92.4106 26.3323Z" fill="#051128"/>
<path d="M147.152 11.2011V18.0308H160.319V48.0803H168.56V18.0308H182V11.2011H147.152Z" fill="#051128"/>
<path d="M75.1873 57.4583C75.1931 57.6056 75.2309 57.75 75.2981 57.8813C75.3653 58.0126 75.4603 58.1276 75.5765 58.2185C75.836 58.4477 76.1731 58.5694 76.5192 58.559C76.8328 58.5779 77.143 58.4853 77.3949 58.2975C77.5965 58.1345 77.7308 57.9028 77.772 57.6468C77.7901 57.5135 77.7752 57.3777 77.7285 57.2515C77.6819 57.1253 77.6049 57.0125 77.5044 56.9231C77.2817 56.7288 77.0106 56.5985 76.7199 56.546L75.9171 56.3453C74.9075 56.0899 74.4028 55.5486 74.4028 54.7276C74.3999 54.485 74.4533 54.2451 74.5589 54.0267C74.6644 53.8082 74.8191 53.6172 75.0109 53.4687C75.4071 53.1408 75.9078 52.966 76.4219 52.9761C76.9468 52.9576 77.4593 53.1379 77.8572 53.4809C78.043 53.6441 78.1902 53.8467 78.288 54.0739C78.3859 54.3011 78.4319 54.5473 78.4227 54.7945H77.5835C77.5878 54.655 77.5605 54.5163 77.5037 54.3889C77.4468 54.2614 77.3618 54.1485 77.2551 54.0586C77.0178 53.8679 76.72 53.7686 76.4158 53.7789C76.1229 53.7749 75.8367 53.8667 75.6008 54.0404C75.4926 54.1163 75.4046 54.2175 75.3442 54.3351C75.2838 54.4527 75.2529 54.5832 75.2542 54.7154C75.2542 55.1472 75.5461 55.4331 76.136 55.579L76.9449 55.7797C77.4462 55.878 77.905 56.1286 78.2585 56.4974C78.4016 56.6625 78.5068 56.857 78.5667 57.0671C78.6266 57.2772 78.6397 57.4979 78.6052 57.7137C78.5815 57.9401 78.5128 58.1595 78.4031 58.3589C78.2934 58.5584 78.1451 58.734 77.9666 58.8753C77.5583 59.1949 77.0495 59.3588 76.5314 59.3375C75.9628 59.355 75.4094 59.1524 74.9866 58.7719C74.7957 58.609 74.6426 58.4067 74.5375 58.1789C74.4325 57.951 74.3782 57.7031 74.3784 57.4522L75.1873 57.4583Z" fill="#051128"/>
<path d="M80.3996 55.0499V55.7068C80.5408 55.4658 80.7533 55.2745 81.0078 55.1594C81.2719 55.0267 81.5635 54.9579 81.8592 54.9587C82.1368 54.9528 82.4128 55.0037 82.6701 55.1082C82.9274 55.2128 83.1605 55.3689 83.3553 55.5669C83.5598 55.7771 83.7193 56.0268 83.8239 56.3008C83.9285 56.5748 83.9759 56.8673 83.9634 57.1603C83.9749 57.4504 83.9268 57.7398 83.8222 58.0107C83.7176 58.2816 83.5587 58.5282 83.3553 58.7354C83.1607 58.9337 82.9276 59.09 82.6703 59.1946C82.4129 59.2992 82.1369 59.3499 81.8592 59.3436C81.5608 59.3463 81.2657 59.2819 80.9956 59.155C80.7397 59.0481 80.526 58.8601 80.3874 58.6199V61.2958H79.5664V55.0499H80.3996ZM80.3996 57.1725C80.3906 57.3598 80.423 57.5469 80.4945 57.7203C80.5659 57.8937 80.6747 58.0493 80.8131 58.1759C81.0787 58.4139 81.4236 58.5441 81.7801 58.5408C81.9592 58.5454 82.1374 58.5143 82.3044 58.4496C82.4714 58.3849 82.6239 58.2877 82.7532 58.1637C82.8814 58.0334 82.9815 57.8783 83.0474 57.7078C83.1133 57.5373 83.1436 57.3551 83.1363 57.1725C83.144 56.9856 83.1134 56.7991 83.0465 56.6245C82.9795 56.4499 82.8777 56.2907 82.7471 56.1568C82.6222 56.0274 82.4717 55.9254 82.3052 55.8573C82.1388 55.7893 81.9599 55.7567 81.7801 55.7615C81.5997 55.7577 81.4203 55.7895 81.2523 55.8553C81.0842 55.921 80.9308 56.0194 80.801 56.1447C80.6689 56.2765 80.5656 56.4342 80.4976 56.608C80.4295 56.7817 80.3982 56.9677 80.4057 57.1542L80.3996 57.1725Z" fill="#051128"/>
<path d="M88.9326 57.1542C88.9326 57.3124 88.9326 57.4218 88.9326 57.4766H85.5269C85.5627 57.8023 85.7242 58.1012 85.9769 58.3098C86.2339 58.5194 86.5577 58.6294 86.8891 58.6199C87.1368 58.6229 87.3812 58.5644 87.6007 58.4496C87.8069 58.3419 87.9778 58.1772 88.0933 57.9752L88.4521 58.1151L88.7988 58.2428C88.6323 58.5953 88.3574 58.8851 88.0143 59.07C87.6609 59.2658 87.2627 59.3664 86.8587 59.3619C86.5755 59.3693 86.2936 59.3192 86.0302 59.2147C85.7668 59.1101 85.5273 58.9533 85.3261 58.7537C85.1216 58.5435 84.9621 58.2938 84.8575 58.0198C84.753 57.7458 84.7055 57.4533 84.718 57.1603C84.7035 56.8731 84.7488 56.5861 84.8512 56.3174C84.9535 56.0487 85.1106 55.8042 85.3125 55.5995C85.5144 55.3947 85.7566 55.2342 86.0238 55.1281C86.2911 55.022 86.5775 54.9726 86.8648 54.9831C87.1435 54.9763 87.4206 55.0268 87.679 55.1314C87.9374 55.236 88.1715 55.3925 88.367 55.5912C88.7542 56.0173 88.9575 56.579 88.9326 57.1542ZM85.5086 56.838H88.1237C88.1003 56.5195 87.9526 56.2231 87.7126 56.0126C87.4725 55.8021 87.1592 55.6945 86.8405 55.7129C86.5158 55.7044 86.1987 55.8123 85.9465 56.017C85.7085 56.2205 85.5582 56.5081 85.5269 56.8197L85.5086 56.838Z" fill="#051128"/>
<path d="M93.8461 57.1542C93.8461 57.3123 93.8461 57.4218 93.8461 57.4766H90.4343C90.4702 57.8023 90.6316 58.1012 90.8844 58.3097C91.1413 58.5193 91.4652 58.6294 91.7966 58.6199C92.0442 58.6229 92.2887 58.5644 92.5082 58.4496C92.7144 58.3419 92.8853 58.1772 93.0008 57.9752L93.3596 58.1151L93.7002 58.2428C93.5353 58.5943 93.2626 58.8841 92.9217 59.07C92.5681 59.265 92.1701 59.3656 91.7662 59.3619C91.4829 59.3692 91.2011 59.3192 90.9377 59.2146C90.6743 59.1101 90.4348 58.9533 90.2336 58.7537C90.0279 58.5444 89.8676 58.2948 89.763 58.0206C89.6583 57.7464 89.6115 57.4535 89.6255 57.1603C89.6117 56.869 89.6587 56.578 89.7634 56.3058C89.8681 56.0336 90.0282 55.7861 90.2336 55.579C90.436 55.3811 90.6757 55.2254 90.9388 55.121C91.2019 55.0166 91.4832 54.9656 91.7662 54.9709C92.0449 54.9641 92.322 55.0146 92.5804 55.1192C92.8387 55.2238 93.0729 55.3803 93.2684 55.579C93.4638 55.7905 93.6155 56.0386 93.7146 56.3089C93.8138 56.5793 93.8585 56.8665 93.8461 57.1542ZM90.4222 56.838H93.0312C93.0061 56.5207 92.8576 56.226 92.6176 56.0169C92.3775 55.8118 92.0697 55.7034 91.754 55.7129C91.4293 55.7044 91.1123 55.8122 90.8601 56.0169C90.6152 56.2174 90.4581 56.5054 90.4222 56.8197V56.838Z" fill="#051128"/>
<path d="M98.1158 59.2524V58.6016C97.9753 58.8431 97.7626 59.0345 97.5077 59.149C97.2378 59.2771 96.9428 59.3436 96.6441 59.3436C96.3646 59.3494 96.0869 59.2986 95.8277 59.194C95.5684 59.0895 95.3331 58.9335 95.1358 58.7354C94.7426 58.3014 94.5249 57.7367 94.5249 57.1511C94.5249 56.5655 94.7426 56.0009 95.1358 55.5669C95.3321 55.3693 95.5665 55.2135 95.8246 55.109C96.0828 55.0045 96.3595 54.9534 96.638 54.9587C96.9417 54.955 97.2425 55.0172 97.5198 55.1412C97.7721 55.2538 97.9842 55.4404 98.128 55.6764V52.7632H98.949V59.2524H98.1158ZM97.7023 58.1577C97.8391 58.0262 97.9462 57.867 98.0164 57.6908C98.0867 57.5146 98.1185 57.3254 98.1098 57.1359C98.119 56.9465 98.0856 56.7574 98.0119 56.5827C97.9382 56.4079 97.8261 56.252 97.684 56.1264C97.4185 55.8884 97.0736 55.7582 96.7171 55.7615C96.536 55.7573 96.3559 55.79 96.1879 55.8578C96.0199 55.9255 95.8675 56.0268 95.74 56.1554C95.6125 56.2841 95.5126 56.4374 95.4463 56.606C95.3801 56.7746 95.3489 56.9549 95.3547 57.1359C95.3494 57.3221 95.3817 57.5075 95.4497 57.681C95.5176 57.8544 95.6197 58.0124 95.7501 58.1455C95.875 58.2749 96.0255 58.3769 96.1919 58.4449C96.3584 58.513 96.5373 58.5457 96.7171 58.5408C97.0789 58.5444 97.4279 58.4069 97.6901 58.1577H97.7023Z" fill="#051128"/>
<path d="M105.723 57.6773H103.096L102.488 59.2524H101.594L103.953 53.0491H104.854L107.201 59.2524H106.325L105.723 57.6773ZM103.382 56.9232H105.431L104.41 54.1682L103.382 56.9232Z" fill="#051128"/>
<path d="M113.502 52.7632V53.5478H113.046C112.511 53.5478 112.25 53.9066 112.262 54.6242V55.0499H113.235V55.7432H112.262V59.2524H111.435V55.7432H109.002V59.2524H108.169V55.7432H107.36V55.0499H108.169V54.6242C108.141 54.1355 108.283 53.6523 108.57 53.2559C108.72 53.0841 108.908 52.95 109.12 52.8645C109.331 52.7789 109.559 52.7442 109.786 52.7632H110.249V53.5478H109.786C109.251 53.5478 108.996 53.9066 109.008 54.6242V55.0499H111.441V54.6242C111.414 54.1366 111.554 53.6543 111.836 53.2559C111.987 53.0853 112.175 52.952 112.386 52.8665C112.597 52.781 112.825 52.7457 113.052 52.7632H113.502Z" fill="#051128"/>
<path d="M117.455 58.7233C117.032 59.1196 116.475 59.3402 115.895 59.3402C115.316 59.3402 114.758 59.1196 114.335 58.7233C113.927 58.2967 113.7 57.7292 113.7 57.139C113.7 56.5488 113.927 55.9813 114.335 55.5547C114.763 55.1671 115.32 54.9525 115.898 54.9525C116.476 54.9525 117.033 55.1671 117.461 55.5547C117.667 55.7599 117.828 56.0062 117.933 56.2776C118.037 56.549 118.084 56.8394 118.069 57.1299C118.084 57.4237 118.037 57.7174 117.932 57.9919C117.826 58.2664 117.663 58.5156 117.455 58.7233ZM114.907 58.1577C115.103 58.356 115.354 58.4906 115.628 58.5438C115.902 58.5971 116.185 58.5666 116.441 58.4562C116.698 58.3459 116.914 58.1609 117.064 57.9254C117.213 57.6898 117.288 57.4147 117.279 57.1359C117.287 56.9507 117.255 56.7659 117.186 56.5939C117.116 56.4219 117.011 56.2666 116.877 56.1386C116.606 55.8962 116.256 55.7623 115.892 55.7623C115.528 55.7623 115.178 55.8962 114.907 56.1386C114.773 56.2666 114.667 56.4219 114.598 56.5939C114.529 56.7659 114.497 56.9507 114.505 57.1359C114.498 57.3248 114.529 57.5131 114.599 57.689C114.668 57.8649 114.773 58.0245 114.907 58.1577Z" fill="#051128"/>
<path d="M119.913 57.7198V59.2524H119.098V55.05H119.913V55.9927C120.119 55.3054 120.521 54.9588 121.086 54.9588C121.34 54.9405 121.594 54.9976 121.816 55.1229L121.688 55.8832C121.498 55.7941 121.291 55.7465 121.08 55.7433C120.899 55.7389 120.721 55.7879 120.567 55.8842C120.414 55.9804 120.292 56.1196 120.217 56.2846C120 56.731 119.895 57.2238 119.913 57.7198Z" fill="#051128"/>
<path d="M125.775 59.2524V58.6016C125.631 58.8411 125.42 59.0319 125.166 59.149C124.897 59.2777 124.602 59.3442 124.303 59.3436C124.023 59.3494 123.746 59.2986 123.486 59.194C123.227 59.0895 122.992 58.9335 122.795 58.7354C122.401 58.3014 122.184 57.7367 122.184 57.1511C122.184 56.5655 122.401 56.0009 122.795 55.5669C122.992 55.3688 123.227 55.2128 123.486 55.1083C123.746 55.0038 124.023 54.9529 124.303 54.9587C124.604 54.9557 124.903 55.0179 125.179 55.1412C125.43 55.2547 125.642 55.4412 125.787 55.6764V52.7632H126.602V59.2524H125.775ZM125.355 58.1577C125.492 58.0262 125.599 57.867 125.669 57.6908C125.739 57.5146 125.771 57.3254 125.762 57.1359C125.771 56.9471 125.738 56.7588 125.665 56.5843C125.593 56.4097 125.483 56.2534 125.343 56.1264C125.074 55.8895 124.728 55.7596 124.37 55.7615C124.189 55.7573 124.009 55.79 123.841 55.8578C123.673 55.9255 123.52 56.0268 123.393 56.1554C123.265 56.2841 123.165 56.4374 123.099 56.606C123.033 56.7746 123.002 56.9549 123.007 57.1359C123.002 57.3221 123.034 57.5075 123.102 57.681C123.17 57.8544 123.272 58.0124 123.403 58.1455C123.528 58.274 123.679 58.3754 123.845 58.4434C124.012 58.5114 124.19 58.5446 124.37 58.5408C124.736 58.5476 125.09 58.4099 125.355 58.1577Z" fill="#051128"/>
<path d="M131.2 59.2525V58.6017C131.059 58.8427 130.846 59.0339 130.592 59.1491C130.323 59.2784 130.027 59.3449 129.728 59.3437C129.449 59.3491 129.171 59.2981 128.912 59.1936C128.653 59.0891 128.418 58.9333 128.22 58.7355C127.822 58.3041 127.601 57.7384 127.601 57.1512C127.601 56.564 127.822 55.9984 128.22 55.567C128.418 55.3698 128.653 55.2143 128.913 55.1098C129.172 55.0054 129.449 54.954 129.728 54.9588C130.029 54.9562 130.326 55.0206 130.598 55.1473C130.85 55.257 131.063 55.4417 131.206 55.6764V55.0683H132.015V59.2707L131.2 59.2525ZM131.2 57.136C131.209 56.9472 131.176 56.7589 131.103 56.5843C131.031 56.4098 130.92 56.2535 130.781 56.1265C130.513 55.8886 130.166 55.7586 129.807 55.7616C129.625 55.7547 129.444 55.7856 129.274 55.8523C129.105 55.919 128.951 56.0201 128.822 56.1492C128.694 56.2783 128.593 56.4327 128.527 56.6025C128.461 56.7724 128.431 56.954 128.439 57.136C128.434 57.3222 128.466 57.5076 128.534 57.681C128.602 57.8545 128.704 58.0125 128.834 58.1456C128.962 58.2737 129.113 58.3748 129.281 58.4427C129.448 58.5107 129.627 58.5441 129.807 58.5409C130.174 58.5483 130.53 58.4131 130.799 58.1638C130.93 58.0315 131.032 57.8735 131.099 57.6997C131.166 57.526 131.196 57.3403 131.188 57.1543L131.2 57.136Z" fill="#051128"/>
<path d="M134.107 58.6016V59.2524H133.286V52.7632H134.107V55.6764C134.25 55.4404 134.463 55.2538 134.715 55.1412C135.109 54.9689 135.546 54.9169 135.97 54.9915C136.394 55.0662 136.787 55.2642 137.099 55.5608C137.496 55.9929 137.716 56.5583 137.716 57.1451C137.716 57.7319 137.496 58.2973 137.099 58.7294C136.9 58.9276 136.664 59.0836 136.404 59.1882C136.144 59.2927 135.865 59.3435 135.584 59.3375C135.288 59.3368 134.995 59.2704 134.727 59.1429C134.468 59.0322 134.251 58.8428 134.107 58.6016ZM134.107 57.1359C134.099 57.3263 134.131 57.5162 134.201 57.6932C134.271 57.8703 134.378 58.0306 134.514 58.1637C134.783 58.4136 135.139 58.5488 135.505 58.5408C135.685 58.5446 135.864 58.5114 136.03 58.4434C136.196 58.3754 136.347 58.274 136.472 58.1455C136.602 58.0121 136.703 57.8539 136.77 57.6804C136.837 57.507 136.868 57.3217 136.862 57.1359C136.869 56.955 136.839 56.7744 136.774 56.6054C136.709 56.4364 136.61 56.2827 136.482 56.1537C136.355 56.0248 136.203 55.9235 136.035 55.856C135.867 55.7885 135.686 55.7563 135.505 55.7615C135.147 55.7573 134.8 55.8875 134.532 56.1264C134.39 56.2554 134.278 56.4147 134.206 56.5926C134.133 56.7705 134.101 56.9624 134.113 57.1542L134.107 57.1359Z" fill="#051128"/>
<path d="M138.711 53.8762C138.655 53.8306 138.611 53.7729 138.582 53.7075C138.552 53.6421 138.538 53.5708 138.54 53.4991C138.539 53.4276 138.554 53.3568 138.583 53.2916C138.613 53.2264 138.656 53.1686 138.711 53.1221C138.821 53.0262 138.963 52.9734 139.109 52.9734C139.255 52.9734 139.397 53.0262 139.507 53.1221C139.562 53.1686 139.605 53.2264 139.635 53.2916C139.664 53.3568 139.679 53.4276 139.678 53.4991C139.68 53.5708 139.666 53.6421 139.636 53.7075C139.607 53.7729 139.563 53.8306 139.507 53.8762C139.397 53.972 139.255 54.0248 139.109 54.0248C138.963 54.0248 138.821 53.972 138.711 53.8762ZM139.513 59.2524V55.05H138.705V59.2524H139.513Z" fill="#051128"/>
<path d="M140.791 52.7632H141.612V59.2524H140.791V52.7632Z" fill="#051128"/>
<path d="M142.895 53.8762C142.841 53.8297 142.797 53.7718 142.768 53.7067C142.738 53.6415 142.724 53.5706 142.725 53.4991C142.725 53.4279 142.741 53.3575 142.77 53.2926C142.799 53.2277 142.842 53.1696 142.895 53.1221C143.006 53.0262 143.147 52.9734 143.293 52.9734C143.44 52.9734 143.581 53.0262 143.692 53.1221C143.746 53.1686 143.789 53.2264 143.819 53.2916C143.848 53.3568 143.863 53.4276 143.862 53.4991C143.864 53.5708 143.85 53.6421 143.821 53.7075C143.791 53.7729 143.747 53.8306 143.692 53.8762C143.581 53.972 143.44 54.0248 143.293 54.0248C143.147 54.0248 143.006 53.972 142.895 53.8762ZM143.698 59.2524V55.05H142.889V59.2524H143.698Z" fill="#051128"/>
<path d="M146.112 55.05H147V55.7433H146.112V59.2524H145.291V55.7433H144.519V55.05H145.273V53.4626H146.094L146.112 55.05Z" fill="#051128"/>
<path d="M148.971 61.2958H148.119L149.001 59.1247L147.316 55.0499H148.168L149.427 58.0908L150.686 55.0499H151.555L148.971 61.2958Z" fill="#051128"/>
<path d="M153.641 53.0491H158.251V53.8458H156.372V59.2524H155.526V53.8458H153.641V53.0491Z" fill="#051128"/>
<path d="M159.115 57.7198V59.2524H158.3V55.05H159.115V55.9927C159.322 55.3054 159.723 54.9588 160.289 54.9588C160.543 54.9405 160.797 54.9976 161.018 55.1229L160.891 55.8832C160.7 55.7941 160.493 55.7465 160.282 55.7433C160.101 55.7389 159.923 55.7879 159.769 55.8842C159.616 55.9804 159.494 56.1196 159.419 56.2846C159.202 56.731 159.097 57.2238 159.115 57.7198Z" fill="#051128"/>
<path d="M164.624 57.3184V55.0499H165.439V59.2524H164.624V58.6442C164.505 58.8795 164.31 59.0679 164.071 59.1794C163.839 59.3028 163.58 59.3676 163.317 59.3679C163.09 59.3835 162.864 59.3479 162.653 59.2636C162.442 59.1794 162.253 59.0487 162.1 58.8814C161.795 58.4888 161.648 57.9965 161.687 57.5009V55.0682H162.502V57.44C162.485 57.7336 162.571 58.0238 162.745 58.2611C162.826 58.36 162.93 58.4384 163.047 58.4902C163.164 58.5419 163.292 58.5655 163.42 58.5591C163.73 58.571 164.032 58.4644 164.265 58.2611C164.393 58.1418 164.492 57.9949 164.554 57.8314C164.617 57.668 164.641 57.4925 164.624 57.3184Z" fill="#051128"/>
<path d="M167.672 57.3975C167.334 57.3266 167.025 57.1573 166.784 56.9109C166.683 56.7897 166.61 56.6481 166.569 56.496C166.528 56.3438 166.52 56.1845 166.547 56.0291C166.565 55.8751 166.616 55.7268 166.697 55.5945C166.778 55.4622 166.886 55.349 167.015 55.2628C167.305 55.0586 167.652 54.9521 168.006 54.9588C168.36 54.9473 168.707 55.0496 168.998 55.2507C169.138 55.3549 169.253 55.4894 169.334 55.6442C169.415 55.799 169.46 55.97 169.466 56.1447H168.681C168.672 56.0747 168.647 56.0076 168.609 55.9478C168.571 55.888 168.521 55.837 168.463 55.798C168.333 55.7123 168.18 55.6678 168.025 55.6703C167.88 55.6683 167.738 55.7039 167.611 55.7737C167.558 55.8018 167.511 55.8406 167.473 55.8877C167.435 55.9348 167.408 55.9891 167.392 56.0474C167.352 56.1552 167.352 56.274 167.392 56.3818C167.448 56.4663 167.52 56.5386 167.605 56.594C167.69 56.6494 167.785 56.6869 167.885 56.7042L168.493 56.8562C168.793 56.8879 169.07 57.0299 169.272 57.2547C169.473 57.4794 169.583 57.7709 169.582 58.0726C169.584 58.2514 169.543 58.4282 169.462 58.5873C169.38 58.7464 169.26 58.8829 169.113 58.9848C168.774 59.2227 168.366 59.3443 167.952 59.3315C167.563 59.3341 167.185 59.2031 166.881 58.9605C166.728 58.8472 166.604 58.6996 166.518 58.5295C166.433 58.3595 166.388 58.1717 166.389 57.9813H167.137C167.149 58.0826 167.187 58.1792 167.246 58.2621C167.306 58.345 167.385 58.4116 167.477 58.4557C167.679 58.5747 167.913 58.6258 168.146 58.6017C168.313 58.596 168.473 58.5362 168.602 58.4314C168.657 58.3845 168.702 58.3268 168.733 58.2619C168.764 58.197 168.782 58.1263 168.785 58.0543C168.791 57.989 168.78 57.9233 168.755 57.8628C168.73 57.8024 168.69 57.7491 168.639 57.7076C168.515 57.6176 168.374 57.5535 168.225 57.5191L167.672 57.3975Z" fill="#051128"/>
<path d="M171.716 55.05H172.604V55.7433H171.716V59.2524H170.895V55.7433H170.141V55.05H170.895V53.4626H171.716V55.05Z" fill="#051128"/>
<path d="M135.871 14.99C135.362 13.7285 134.487 12.648 133.36 11.887C132.232 11.1261 130.903 10.7195 129.543 10.7195C128.182 10.7195 126.853 11.1261 125.726 11.887C124.598 12.648 123.724 13.7285 123.215 14.99L109.926 48.0804H119.146L121.633 41.0804H137.446L139.921 48.0804H149.141L135.871 14.99ZM124.048 34.3115L129.57 18.7789L135.044 34.3115H124.048Z" fill="#051128"/>
</g>
<defs>
<clipPath id="clip0_1041_526">
<rect width="182" height="60.5795" fill="white" transform="translate(0 0.710266)"/>
</clipPath>
</defs>
</svg>
