<svg width="70" height="24" viewBox="0 0 70 24" fill="none" xmlns="http://www.w3.org/2000/svg">
<g clip-path="url(#clip0_3334_14097)">
<path d="M23.7184 9.98806C23.6778 8.703 23.4331 7.43258 22.9933 6.22443C22.2753 4.26938 21.0517 2.5397 19.4472 1.21174C19.0136 0.851457 18.5556 0.521634 18.0765 0.224637C17.8513 0.0856842 17.5932 0.0092977 17.3286 0.00335432C17.0641 -0.00258905 16.8028 0.0621302 16.5716 0.19083C16.3404 0.319529 16.1477 0.507552 16.0134 0.735523C15.8791 0.963495 15.8081 1.22316 15.8076 1.48775C15.8073 1.73902 15.8718 1.98613 15.9946 2.2053C16.1175 2.42447 16.2948 2.60832 16.5093 2.73917C16.8751 2.96534 17.2245 3.21703 17.5549 3.49236C19.2406 4.88896 20.3489 6.86068 20.6659 9.02668C20.715 9.35293 20.7455 9.68172 20.7571 10.0114C20.8365 12.1987 20.106 14.3384 18.7057 16.0206L17.756 17.1597C17.6336 17.316 17.4811 17.4461 17.3075 17.5423C17.1339 17.6385 16.9428 17.6989 16.7455 17.7199C16.5481 17.7409 16.3485 17.722 16.1586 17.6645C15.9687 17.6069 15.7922 17.5118 15.6397 17.3848C15.4872 17.2578 15.3617 17.1015 15.2707 16.9251C15.1797 16.7488 15.125 16.5559 15.1099 16.358C15.0948 16.1601 15.1196 15.9612 15.1828 15.7731C15.246 15.5849 15.3462 15.4114 15.4777 15.2627L16.4251 14.1236C17.0911 13.3259 17.5349 12.3665 17.7116 11.3424C17.866 10.4432 17.8123 9.52064 17.5549 8.64541C17.5174 8.5191 17.4753 8.39513 17.4286 8.27349C17.0701 7.29727 16.4591 6.43361 15.6578 5.77065C14.8595 5.10272 13.8981 4.65875 12.872 4.48414C12.4402 4.4114 12.0017 4.38631 11.5644 4.4093C11.5591 3.49679 11.2731 2.60804 10.7451 1.86376C10.2171 1.11948 9.47287 0.555754 8.6134 0.249164C7.75393 -0.0574253 6.82091 -0.0920145 5.94109 0.150084C5.06127 0.392182 4.2773 0.899237 3.69567 1.60237L2.76003 2.74151C1.42389 4.33891 0.535953 6.2625 0.187017 8.31559C-0.160893 10.3685 0.0317809 12.4766 0.746066 14.4324C1.46431 16.3867 2.68695 18.1161 4.28981 19.445C4.72377 19.8059 5.18258 20.1357 5.66286 20.4321C5.99582 20.6242 6.39031 20.6794 6.7632 20.5862C7.13609 20.4931 7.45825 20.2588 7.66177 19.9327C7.86528 19.6067 7.93426 19.2143 7.85416 18.8384C7.77406 18.4625 7.55114 18.1324 7.23239 17.9176C6.86644 17.6917 6.51704 17.44 6.18682 17.1644C4.50286 15.7667 3.39557 13.7954 3.07816 11.6301C3.02901 11.3039 2.99854 10.9751 2.98693 10.6453C2.9024 8.45936 3.62697 6.31898 5.02195 4.63385L5.97163 3.49471C6.09402 3.33847 6.24653 3.20839 6.42012 3.11218C6.59371 3.01597 6.78484 2.95558 6.98219 2.93459C7.17955 2.91359 7.3791 2.93243 7.56904 2.98998C7.75898 3.04753 7.93544 3.14262 8.08796 3.26961C8.24048 3.39661 8.36595 3.55292 8.45695 3.72929C8.54795 3.90567 8.60262 4.09852 8.61772 4.29642C8.63283 4.49431 8.60805 4.69322 8.54487 4.88136C8.48169 5.06951 8.38139 5.24305 8.24991 5.39171L7.31427 6.53086C6.64428 7.32721 6.19716 8.28682 6.0184 9.31205C6.0184 9.34246 6.0184 9.37287 6.00436 9.40328C5.84914 10.4027 5.95139 11.4251 6.30143 12.3739C6.66183 13.3497 7.27257 14.2136 8.07237 14.8787C8.87216 15.5438 9.83285 15.9868 10.858 16.1633C11.2907 16.2349 11.7299 16.26 12.1679 16.2381C12.1732 17.1506 12.4593 18.0394 12.9872 18.7837C13.5152 19.528 14.2595 20.0917 15.1189 20.3983C15.9784 20.7049 16.9114 20.7394 17.7912 20.4973C18.6711 20.2552 19.455 19.7482 20.0367 19.0451L20.9723 17.9059C22.8219 15.6862 23.7961 12.8668 23.7114 9.9787L23.7184 9.98806ZM11.8615 13.2885C11.2763 13.2885 10.7042 13.115 10.2176 12.7899C9.73098 12.4647 9.35172 12.0026 9.12776 11.4619C8.9038 10.9212 8.84521 10.3263 8.95938 9.7523C9.07355 9.17832 9.35535 8.65108 9.76917 8.23726C10.183 7.82344 10.7102 7.54162 11.2842 7.42745C11.8582 7.31328 12.4532 7.37188 12.9938 7.59584C13.5345 7.8198 13.9966 8.19905 14.3218 8.68565C14.6469 9.17225 14.8204 9.74434 14.8204 10.3296C14.8204 11.1143 14.5087 11.867 13.9538 12.4219C13.3989 12.9768 12.6463 13.2885 11.8615 13.2885Z" fill="#2A9FE8"/>
<path d="M35.5426 9.85462C32.8526 9.52013 32.2047 9.06166 32.2047 8.14473C32.2047 7.1857 33.1029 6.47461 34.8759 6.47461C36.649 6.47461 37.9636 6.85121 39.7764 7.89445L40.967 5.59979C39.1675 4.40573 37.0443 3.79408 34.8853 3.8478C31.8445 3.8478 28.8972 5.32845 28.9393 8.18684C28.9604 10.6055 30.6492 11.7119 34.4666 12.3154C37.3881 12.7551 37.9308 13.2136 37.9308 14.1726C37.9308 15.1316 37.201 15.81 35.1987 15.81C33.1123 15.81 31.3603 15.0802 29.8586 14.058L28.6071 16.1421C30.1486 17.562 32.8409 18.3947 35.1987 18.3947C38.4735 18.3947 41.2477 16.914 41.2266 14.058C41.1962 11.2932 38.9764 10.292 35.5426 9.85462Z" fill="#051128"/>
<path d="M56.597 4.03497V6.66179H61.6612V18.2193H64.8306V6.66179H70.0001V4.03497H56.597Z" fill="#051128"/>
<path d="M28.9183 21.8261C28.9205 21.8828 28.935 21.9383 28.9609 21.9888C28.9867 22.0393 29.0233 22.0836 29.068 22.1185C29.1678 22.2067 29.2974 22.2535 29.4305 22.2495C29.5511 22.2568 29.6704 22.2211 29.7673 22.1489C29.8449 22.0862 29.8965 21.9971 29.9124 21.8986C29.9193 21.8474 29.9136 21.7952 29.8957 21.7466C29.8777 21.6981 29.8481 21.6547 29.8094 21.6203C29.7238 21.5456 29.6195 21.4955 29.5077 21.4753L29.1989 21.3981C28.8107 21.2998 28.6165 21.0917 28.6165 20.7759C28.6154 20.6826 28.636 20.5903 28.6765 20.5063C28.7171 20.4223 28.7767 20.3488 28.8504 20.2917C29.0028 20.1656 29.1954 20.0983 29.3931 20.1022C29.595 20.0951 29.7921 20.1645 29.9451 20.2964C30.0166 20.3591 30.0732 20.4371 30.1108 20.5245C30.1485 20.6119 30.1662 20.7065 30.1627 20.8016H29.8399C29.8415 20.7479 29.831 20.6946 29.8092 20.6456C29.7873 20.5966 29.7546 20.5531 29.7136 20.5186C29.6223 20.4452 29.5078 20.407 29.3908 20.411C29.2781 20.4095 29.168 20.4448 29.0773 20.5116C29.0357 20.5408 29.0018 20.5797 28.9786 20.6249C28.9554 20.6701 28.9435 20.7203 28.944 20.7712C28.944 20.9373 29.0563 21.0472 29.2832 21.1033L29.5943 21.1805C29.7871 21.2183 29.9635 21.3147 30.0995 21.4565C30.1545 21.5201 30.195 21.5949 30.218 21.6757C30.2411 21.7565 30.2461 21.8414 30.2328 21.9244C30.2237 22.0114 30.1973 22.0958 30.1551 22.1725C30.1129 22.2493 30.0559 22.3168 29.9872 22.3711C29.8302 22.4941 29.6345 22.5571 29.4352 22.5489C29.2165 22.5557 29.0037 22.4777 28.8411 22.3314C28.7677 22.2687 28.7087 22.1909 28.6684 22.1033C28.628 22.0156 28.6071 21.9203 28.6071 21.8238L28.9183 21.8261Z" fill="#051128"/>
<path d="M30.9229 20.8999V21.1526C30.9772 21.0599 31.0589 20.9863 31.1568 20.942C31.2584 20.891 31.3705 20.8646 31.4842 20.8649C31.591 20.8626 31.6972 20.8821 31.7961 20.9224C31.8951 20.9626 31.9848 21.0226 32.0597 21.0988C32.1383 21.1796 32.1997 21.2757 32.2399 21.381C32.2801 21.4864 32.2984 21.5989 32.2936 21.7116C32.298 21.8232 32.2795 21.9345 32.2393 22.0387C32.199 22.1429 32.1379 22.2378 32.0597 22.3174C31.9848 22.3937 31.8952 22.4538 31.7962 22.494C31.6972 22.5343 31.591 22.5538 31.4842 22.5513C31.3695 22.5524 31.256 22.5276 31.1521 22.4788C31.0537 22.4377 30.9715 22.3654 30.9182 22.273V23.3022H30.6024V20.8999H30.9229ZM30.9229 21.7163C30.9194 21.7884 30.9319 21.8603 30.9593 21.927C30.9868 21.9937 31.0287 22.0535 31.0819 22.1022C31.184 22.1938 31.3167 22.2439 31.4538 22.2426C31.5227 22.2443 31.5912 22.2324 31.6555 22.2075C31.7197 22.1826 31.7784 22.1453 31.8281 22.0976C31.8774 22.0474 31.9159 21.9878 31.9412 21.9222C31.9666 21.8566 31.9782 21.7865 31.9755 21.7163C31.9784 21.6444 31.9666 21.5727 31.9409 21.5055C31.9151 21.4384 31.876 21.3772 31.8257 21.3257C31.7777 21.2759 31.7198 21.2367 31.6558 21.2105C31.5918 21.1843 31.523 21.1718 31.4538 21.1736C31.3845 21.1721 31.3154 21.1844 31.2508 21.2097C31.1862 21.235 31.1272 21.2728 31.0772 21.321C31.0264 21.3717 30.9867 21.4324 30.9605 21.4992C30.9344 21.566 30.9223 21.6376 30.9252 21.7093L30.9229 21.7163Z" fill="#051128"/>
<path d="M34.2047 21.7092C34.2047 21.77 34.2047 21.8121 34.2047 21.8331H32.8948C32.9086 21.9584 32.9707 22.0734 33.0679 22.1536C33.1668 22.2342 33.2913 22.2765 33.4188 22.2729C33.514 22.274 33.6081 22.2515 33.6925 22.2074C33.7718 22.1659 33.8375 22.1026 33.8819 22.0249L34.02 22.0787L34.1533 22.1279C34.0893 22.2634 33.9835 22.3749 33.8515 22.446C33.7156 22.5213 33.5625 22.56 33.4071 22.5583C33.2982 22.5611 33.1897 22.5418 33.0884 22.5016C32.9871 22.4614 32.895 22.4011 32.8177 22.3243C32.739 22.2435 32.6776 22.1474 32.6374 22.0421C32.5972 21.9367 32.5789 21.8242 32.5837 21.7115C32.5782 21.6011 32.5956 21.4907 32.635 21.3873C32.6743 21.284 32.7348 21.1899 32.8124 21.1112C32.89 21.0324 32.9832 20.9707 33.086 20.9299C33.1888 20.8891 33.2989 20.8701 33.4095 20.8741C33.5166 20.8715 33.6232 20.8909 33.7226 20.9311C33.822 20.9714 33.912 21.0316 33.9872 21.108C34.1361 21.2719 34.2143 21.4879 34.2047 21.7092ZM32.8878 21.5875H33.8937C33.8846 21.465 33.8278 21.351 33.7355 21.2701C33.6432 21.1891 33.5227 21.1477 33.4001 21.1548C33.2752 21.1515 33.1533 21.193 33.0562 21.2717C32.9647 21.35 32.9069 21.4606 32.8948 21.5805L32.8878 21.5875Z" fill="#051128"/>
<path d="M36.0947 21.7092C36.0947 21.7701 36.0947 21.8122 36.0947 21.8332H34.7825C34.7963 21.9585 34.8584 22.0735 34.9556 22.1537C35.0544 22.2343 35.179 22.2766 35.3064 22.273C35.4017 22.2741 35.4957 22.2516 35.5801 22.2075C35.6594 22.166 35.7252 22.1027 35.7696 22.025L35.9076 22.0788L36.0386 22.1279C35.9752 22.2631 35.8703 22.3746 35.7392 22.4461C35.6032 22.5211 35.4501 22.5598 35.2948 22.5583C35.1858 22.5612 35.0774 22.5419 34.9761 22.5017C34.8748 22.4615 34.7827 22.4012 34.7053 22.3244C34.6262 22.2439 34.5645 22.1479 34.5243 22.0425C34.484 21.937 34.466 21.8243 34.4714 21.7116C34.4661 21.5995 34.4842 21.4876 34.5244 21.3829C34.5647 21.2782 34.6263 21.183 34.7053 21.1034C34.7831 21.0273 34.8753 20.9674 34.9765 20.9272C35.0777 20.8871 35.1859 20.8675 35.2948 20.8695C35.4019 20.8669 35.5085 20.8863 35.6079 20.9265C35.7073 20.9668 35.7973 21.027 35.8725 21.1034C35.9477 21.1847 36.006 21.2802 36.0441 21.3841C36.0823 21.4881 36.0995 21.5986 36.0947 21.7092ZM34.7778 21.5876H35.7813C35.7716 21.4656 35.7145 21.3522 35.6222 21.2718C35.5299 21.1929 35.4115 21.1512 35.2901 21.1549C35.1652 21.1516 35.0432 21.1931 34.9462 21.2718C34.8521 21.3489 34.7916 21.4597 34.7778 21.5806V21.5876Z" fill="#051128"/>
<path d="M37.7368 22.5162V22.2659C37.6827 22.3588 37.6009 22.4324 37.5029 22.4765C37.3991 22.5258 37.2857 22.5513 37.1708 22.5513C37.0633 22.5536 36.9564 22.534 36.8567 22.4938C36.757 22.4536 36.6665 22.3936 36.5906 22.3174C36.4394 22.1505 36.3557 21.9333 36.3557 21.7081C36.3557 21.4828 36.4394 21.2657 36.5906 21.0987C36.6662 21.0227 36.7563 20.9628 36.8556 20.9226C36.9549 20.8824 37.0613 20.8628 37.1684 20.8648C37.2852 20.8634 37.4009 20.8873 37.5076 20.935C37.6046 20.9783 37.6862 21.0501 37.7415 21.1408V20.0204H38.0573V22.5162H37.7368ZM37.5778 22.0952C37.6304 22.0446 37.6716 21.9834 37.6986 21.9156C37.7256 21.8479 37.7378 21.7751 37.7345 21.7022C37.738 21.6294 37.7252 21.5566 37.6968 21.4894C37.6685 21.4222 37.6254 21.3622 37.5707 21.3139C37.4686 21.2224 37.336 21.1723 37.1988 21.1736C37.1292 21.172 37.0599 21.1846 36.9953 21.2106C36.9307 21.2367 36.8721 21.2756 36.823 21.3251C36.774 21.3746 36.7356 21.4335 36.7101 21.4984C36.6846 21.5632 36.6726 21.6326 36.6749 21.7022C36.6728 21.7738 36.6852 21.8451 36.7114 21.9118C36.7375 21.9786 36.7768 22.0393 36.8269 22.0905C36.8749 22.1403 36.9328 22.1795 36.9969 22.2057C37.0609 22.2319 37.1297 22.2444 37.1988 22.2426C37.338 22.2439 37.4722 22.1911 37.5731 22.0952H37.5778Z" fill="#051128"/>
<path d="M40.6628 21.9104H39.6523L39.4184 22.5162H39.0746L39.9822 20.1303H40.3283L41.2312 22.5162H40.8944L40.6628 21.9104ZM39.7623 21.6203H40.5506L40.1576 20.5607L39.7623 21.6203Z" fill="#051128"/>
<path d="M43.6548 20.0204V20.3221H43.4794C43.2735 20.3221 43.1729 20.4601 43.1776 20.7361V20.8999H43.5519V21.1665H43.1776V22.5162H42.8595V21.1665H41.9238V22.5162H41.6034V21.1665H41.2923V20.8999H41.6034V20.7361C41.5928 20.5482 41.6473 20.3623 41.7578 20.2098C41.8154 20.1438 41.8878 20.0922 41.9691 20.0593C42.0504 20.0264 42.1382 20.0131 42.2256 20.0204H42.4034V20.3221H42.2256C42.0198 20.3221 41.9215 20.4601 41.9262 20.7361V20.8999H42.8618V20.7361C42.8517 20.5486 42.9053 20.3631 43.0139 20.2098C43.0719 20.1442 43.1443 20.093 43.2255 20.0601C43.3067 20.0272 43.3944 20.0136 43.4817 20.0204H43.6548Z" fill="#051128"/>
<path d="M45.1751 22.3127C45.0125 22.4651 44.798 22.55 44.5751 22.55C44.3522 22.55 44.1377 22.4651 43.9751 22.3127C43.8183 22.1486 43.7307 21.9303 43.7307 21.7033C43.7307 21.4763 43.8183 21.2581 43.9751 21.094C44.1398 20.9449 44.3541 20.8624 44.5763 20.8624C44.7984 20.8624 45.0127 20.9449 45.1774 21.094C45.2567 21.1729 45.3185 21.2677 45.3588 21.372C45.3991 21.4764 45.417 21.5881 45.4113 21.6998C45.4171 21.8128 45.3991 21.9258 45.3584 22.0314C45.3177 22.137 45.2552 22.2328 45.1751 22.3127ZM44.195 22.0951C44.2704 22.1714 44.3671 22.2232 44.4724 22.2437C44.5777 22.2642 44.6867 22.2524 44.7852 22.21C44.8837 22.1675 44.9672 22.0964 45.0246 22.0058C45.082 21.9152 45.1109 21.8094 45.1072 21.7022C45.1103 21.6309 45.0981 21.5598 45.0715 21.4937C45.0449 21.4275 45.0044 21.3678 44.9528 21.3186C44.8486 21.2254 44.7137 21.1738 44.5739 21.1738C44.4341 21.1738 44.2992 21.2254 44.195 21.3186C44.1434 21.3678 44.103 21.4275 44.0763 21.4937C44.0497 21.5598 44.0375 21.6309 44.0406 21.7022C44.0377 21.7748 44.0499 21.8472 44.0765 21.9149C44.103 21.9825 44.1434 22.0439 44.195 22.0951Z" fill="#051128"/>
<path d="M46.1202 21.9267V22.5161H45.8067V20.8998H46.1202V21.2624C46.1997 20.9981 46.3541 20.8647 46.5716 20.8647C46.6694 20.8577 46.767 20.8797 46.8523 20.9279L46.8032 21.2203C46.7299 21.186 46.6502 21.1677 46.5693 21.1665C46.4996 21.1648 46.431 21.1836 46.3719 21.2207C46.3129 21.2577 46.266 21.3112 46.2371 21.3747C46.1537 21.5464 46.1135 21.7359 46.1202 21.9267Z" fill="#051128"/>
<path d="M48.3749 22.5162V22.2659C48.3199 22.3581 48.2383 22.4314 48.141 22.4765C48.0373 22.526 47.9237 22.5516 47.8088 22.5513C47.7013 22.5536 47.5945 22.534 47.4948 22.4938C47.3951 22.4536 47.3046 22.3936 47.2287 22.3174C47.0775 22.1505 46.9937 21.9333 46.9937 21.7081C46.9937 21.4828 47.0775 21.2657 47.2287 21.0987C47.3046 21.0226 47.3951 20.9626 47.4948 20.9224C47.5945 20.8822 47.7013 20.8626 47.8088 20.8648C47.9248 20.8637 48.0397 20.8876 48.1456 20.935C48.2424 20.9787 48.3239 21.0504 48.3796 21.1408V20.0204H48.693V22.5162H48.3749ZM48.2135 22.0952C48.2661 22.0446 48.3073 21.9834 48.3343 21.9156C48.3613 21.8479 48.3736 21.7751 48.3702 21.7022C48.3735 21.6296 48.3608 21.5572 48.3329 21.49C48.305 21.4229 48.2626 21.3628 48.2088 21.3139C48.1055 21.2228 47.9723 21.1729 47.8345 21.1736C47.7649 21.172 47.6956 21.1846 47.631 21.2106C47.5664 21.2367 47.5078 21.2756 47.4588 21.3251C47.4097 21.3746 47.3713 21.4335 47.3458 21.4984C47.3203 21.5632 47.3083 21.6326 47.3106 21.7022C47.3086 21.7738 47.321 21.8451 47.3471 21.9118C47.3732 21.9786 47.4125 22.0393 47.4626 22.0905C47.5109 22.1399 47.5689 22.179 47.6328 22.2051C47.6968 22.2313 47.7654 22.244 47.8345 22.2426C47.9753 22.2452 48.1114 22.1922 48.2135 22.0952Z" fill="#051128"/>
<path d="M50.4616 22.5162V22.2659C50.4073 22.3586 50.3255 22.4322 50.2277 22.4764C50.124 22.5262 50.0105 22.5518 49.8955 22.5513C49.7881 22.5534 49.6813 22.5338 49.5816 22.4936C49.4819 22.4534 49.3914 22.3934 49.3154 22.3174C49.1622 22.1514 49.0771 21.9339 49.0771 21.708C49.0771 21.4822 49.1622 21.2646 49.3154 21.0987C49.3915 21.0229 49.4821 20.9631 49.5817 20.9229C49.6814 20.8827 49.7881 20.863 49.8955 20.8648C50.011 20.8638 50.1253 20.8886 50.23 20.9373C50.327 20.9795 50.4087 21.0505 50.4639 21.1408V20.9069H50.775V22.5232L50.4616 22.5162ZM50.4616 21.7022C50.4649 21.6296 50.4522 21.5571 50.4243 21.49C50.3964 21.4229 50.354 21.3627 50.3002 21.3139C50.1971 21.2224 50.0638 21.1724 49.9259 21.1736C49.8559 21.1709 49.7861 21.1828 49.7209 21.2085C49.6557 21.2341 49.5965 21.273 49.5471 21.3227C49.4976 21.3723 49.459 21.4317 49.4336 21.497C49.4083 21.5623 49.3967 21.6322 49.3996 21.7022C49.3976 21.7738 49.41 21.8451 49.4361 21.9118C49.4622 21.9785 49.5016 22.0393 49.5517 22.0905C49.6006 22.1398 49.6589 22.1786 49.7233 22.2048C49.7876 22.2309 49.8565 22.2438 49.9259 22.2425C50.067 22.2454 50.2037 22.1934 50.3072 22.0975C50.3576 22.0466 50.3969 21.9858 50.4226 21.919C50.4484 21.8522 50.4601 21.7808 50.4569 21.7092L50.4616 21.7022Z" fill="#051128"/>
<path d="M51.5796 22.2659V22.5162H51.2638V20.0204H51.5796V21.1408C51.6349 21.0501 51.7164 20.9783 51.8135 20.935C51.9653 20.8688 52.1332 20.8487 52.2963 20.8774C52.4594 20.9062 52.6104 20.9823 52.7304 21.0964C52.8831 21.2626 52.9679 21.48 52.9679 21.7057C52.9679 21.9314 52.8831 22.1489 52.7304 22.3151C52.6541 22.3913 52.5632 22.4513 52.4631 22.4915C52.363 22.5317 52.2558 22.5513 52.148 22.549C52.0338 22.5487 51.9212 22.5232 51.8182 22.4741C51.7187 22.4315 51.6352 22.3587 51.5796 22.2659ZM51.5796 21.7022C51.5765 21.7754 51.5888 21.8485 51.6158 21.9166C51.6428 21.9847 51.6839 22.0463 51.7363 22.0975C51.8397 22.1936 51.9764 22.2456 52.1176 22.2426C52.1867 22.244 52.2553 22.2313 52.3193 22.2051C52.3833 22.179 52.4412 22.1399 52.4895 22.0905C52.5393 22.0392 52.5782 21.9784 52.604 21.9116C52.6297 21.8449 52.6417 21.7737 52.6392 21.7022C52.6421 21.6326 52.6307 21.5632 52.6056 21.4982C52.5805 21.4332 52.5423 21.374 52.4934 21.3245C52.4444 21.2749 52.3858 21.2359 52.3211 21.2099C52.2565 21.184 52.1872 21.1716 52.1176 21.1736C51.9797 21.172 51.8461 21.222 51.7433 21.3139C51.6885 21.3635 51.6456 21.4248 51.6176 21.4932C51.5897 21.5617 51.5775 21.6355 51.5819 21.7092L51.5796 21.7022Z" fill="#051128"/>
<path d="M53.3503 20.4485C53.329 20.4309 53.312 20.4087 53.3007 20.3836C53.2893 20.3584 53.2839 20.331 53.2848 20.3034C53.2844 20.2759 53.29 20.2487 53.3014 20.2236C53.3127 20.1986 53.3294 20.1763 53.3503 20.1584C53.3928 20.1216 53.4472 20.1013 53.5035 20.1013C53.5598 20.1013 53.6142 20.1216 53.6567 20.1584C53.6776 20.1763 53.6943 20.1986 53.7056 20.2236C53.717 20.2487 53.7226 20.2759 53.7222 20.3034C53.7231 20.331 53.7177 20.3584 53.7063 20.3836C53.695 20.4087 53.678 20.4309 53.6567 20.4485C53.6142 20.4853 53.5598 20.5056 53.5035 20.5056C53.4472 20.5056 53.3928 20.4853 53.3503 20.4485ZM53.6591 22.5162V20.8999H53.348V22.5162H53.6591Z" fill="#051128"/>
<path d="M54.1502 20.0204H54.466V22.5162H54.1502V20.0204Z" fill="#051128"/>
<path d="M54.9596 20.4485C54.9387 20.4306 54.922 20.4083 54.9107 20.3833C54.8993 20.3582 54.8937 20.3309 54.8941 20.3034C54.8943 20.276 54.9002 20.249 54.9115 20.224C54.9228 20.199 54.9392 20.1767 54.9596 20.1584C55.0021 20.1216 55.0565 20.1013 55.1128 20.1013C55.1691 20.1013 55.2235 20.1216 55.266 20.1584C55.2869 20.1763 55.3036 20.1986 55.3149 20.2236C55.3263 20.2487 55.3319 20.2759 55.3315 20.3034C55.3324 20.331 55.327 20.3584 55.3156 20.3836C55.3043 20.4087 55.2873 20.4309 55.266 20.4485C55.2235 20.4853 55.1691 20.5056 55.1128 20.5056C55.0565 20.5056 55.0021 20.4853 54.9596 20.4485ZM55.2684 22.5162V20.8999H54.9573V22.5162H55.2684Z" fill="#051128"/>
<path d="M56.197 20.8999H56.5385V21.1666H56.197V22.5162H55.8812V21.1666H55.5841V20.8999H55.8742V20.2894H56.19L56.197 20.8999Z" fill="#051128"/>
<path d="M57.2963 23.3021H56.9689L57.308 22.4671L56.6601 20.8999H56.9876L57.4718 22.0694L57.956 20.8999H58.2904L57.2963 23.3021Z" fill="#051128"/>
<path d="M59.0927 20.1303H60.8657V20.4368H60.143V22.5162H59.8178V20.4368H59.0927V20.1303Z" fill="#051128"/>
<path d="M61.198 21.9267V22.5161H60.8846V20.8998H61.198V21.2624C61.2775 20.9981 61.4319 20.8647 61.6494 20.8647C61.7472 20.8577 61.8448 20.8797 61.9301 20.9279L61.881 21.2203C61.8077 21.186 61.728 21.1677 61.6471 21.1665C61.5774 21.1648 61.5088 21.1836 61.4498 21.2207C61.3907 21.2577 61.3438 21.3112 61.315 21.3747C61.2315 21.5464 61.1913 21.7359 61.198 21.9267Z" fill="#051128"/>
<path d="M63.317 21.7724V20.8999H63.6305V22.5162H63.317V22.2823C63.2711 22.3728 63.1962 22.4452 63.1042 22.4881C63.0149 22.5356 62.9153 22.5605 62.8141 22.5606C62.7271 22.5666 62.6398 22.5529 62.5588 22.5205C62.4778 22.4881 62.4052 22.4379 62.3463 22.3735C62.229 22.2225 62.1722 22.0332 62.1872 21.8425V20.9069H62.5007V21.8191C62.4944 21.9321 62.5275 22.0437 62.5942 22.1349C62.6256 22.173 62.6654 22.2031 62.7105 22.223C62.7556 22.2429 62.8047 22.252 62.8539 22.2495C62.9729 22.2541 63.0892 22.2131 63.179 22.1349C63.2282 22.0891 63.2662 22.0325 63.2902 21.9697C63.3141 21.9068 63.3233 21.8393 63.317 21.7724Z" fill="#051128"/>
<path d="M64.4891 21.8028C64.3593 21.7756 64.2404 21.7105 64.1476 21.6157C64.1089 21.5691 64.0807 21.5146 64.0649 21.4561C64.0492 21.3976 64.0462 21.3363 64.0563 21.2766C64.0632 21.2173 64.0829 21.1603 64.114 21.1094C64.1451 21.0585 64.1869 21.015 64.2365 20.9818C64.3479 20.9033 64.4814 20.8623 64.6177 20.8649C64.7536 20.8605 64.8872 20.8998 64.999 20.9771C65.053 21.0172 65.0972 21.069 65.1284 21.1285C65.1595 21.188 65.1769 21.2538 65.1791 21.321H64.8774C64.8736 21.2941 64.8641 21.2683 64.8496 21.2453C64.8351 21.2223 64.8159 21.2027 64.7932 21.1877C64.7433 21.1547 64.6846 21.1376 64.6248 21.1385C64.5692 21.1378 64.5144 21.1515 64.4657 21.1783C64.4452 21.1891 64.4271 21.204 64.4126 21.2221C64.3981 21.2403 64.3875 21.2612 64.3815 21.2836C64.3659 21.325 64.3659 21.3707 64.3815 21.4122C64.4029 21.4447 64.4308 21.4725 64.4634 21.4938C64.496 21.5151 64.5326 21.5295 64.571 21.5362L64.8049 21.5947C64.9202 21.6068 65.027 21.6615 65.1043 21.7479C65.1817 21.8344 65.2242 21.9465 65.2236 22.0625C65.2247 22.1313 65.2088 22.1993 65.1774 22.2604C65.146 22.3216 65.1 22.3742 65.0435 22.4134C64.9128 22.5048 64.7561 22.5516 64.5967 22.5467C64.4472 22.5477 64.3018 22.4973 64.185 22.404C64.1262 22.3604 64.0783 22.3037 64.0454 22.2382C64.0125 22.1728 63.9955 22.1006 63.9955 22.0274H64.2832C64.288 22.0664 64.3025 22.1035 64.3254 22.1354C64.3483 22.1673 64.3789 22.1929 64.4142 22.2099C64.4918 22.2556 64.582 22.2753 64.6715 22.266C64.7356 22.2638 64.7972 22.2408 64.847 22.2005C64.868 22.1825 64.8851 22.1603 64.8972 22.1353C64.9093 22.1104 64.9161 22.0832 64.9172 22.0555C64.9194 22.0303 64.9154 22.0051 64.9057 21.9818C64.8959 21.9586 64.8805 21.9381 64.861 21.9221C64.8134 21.8875 64.7593 21.8628 64.7019 21.8496L64.4891 21.8028Z" fill="#051128"/>
<path d="M66.0446 20.8999H66.3861V21.1666H66.0446V22.5162H65.7288V21.1666H65.4388V20.8999H65.7288V20.2894H66.0446V20.8999Z" fill="#051128"/>
<path d="M52.258 5.49222C52.0622 5.00704 51.7259 4.59144 51.2922 4.29877C50.8586 4.00611 50.3473 3.84973 49.8241 3.84973C49.3009 3.84973 48.7897 4.00611 48.356 4.29877C47.9224 4.59144 47.5861 5.00704 47.3903 5.49222L42.2794 18.2193H45.8254L46.7821 15.527H52.8638L53.8158 18.2193H57.3619L52.258 5.49222ZM47.7108 12.9236L49.8347 6.94948L51.9399 12.9236H47.7108Z" fill="#051128"/>
</g>
<defs>
<clipPath id="clip0_3334_14097">
<rect width="70" height="23.2998" fill="white"/>
</clipPath>
</defs>
</svg>
