<svg width="140" height="52" viewBox="0 0 140 52" fill="none" xmlns="http://www.w3.org/2000/svg">
<g clip-path="url(#clip0_12400_70027)">
<path d="M47.437 19.7188C47.3559 17.1817 46.8663 14.6736 45.9868 12.2884C44.5507 8.42859 42.1035 5.01374 38.8946 2.392C38.0275 1.68071 37.1115 1.02955 36.1532 0.443195C35.7029 0.168866 35.1865 0.0180587 34.6575 0.00632489C34.1284 -0.00540891 33.6058 0.122364 33.1434 0.376451C32.6811 0.630537 32.2957 1.00174 32.0271 1.45182C31.7585 1.9019 31.6164 2.41455 31.6153 2.93692C31.6149 3.433 31.7437 3.92086 31.9895 4.35355C32.2353 4.78625 32.5898 5.14922 33.0188 5.40756C33.7504 5.85407 34.4492 6.35097 35.1099 6.89456C38.4813 9.6518 40.698 13.5445 41.3319 17.8208C41.4302 18.4649 41.4912 19.114 41.5144 19.7649C41.6731 24.0833 40.2123 28.3076 37.4116 31.6286L35.5123 33.8776C35.2675 34.186 34.9624 34.4429 34.6153 34.6328C34.2681 34.8228 33.8858 34.942 33.4911 34.9834C33.0964 35.0249 32.6973 34.9877 32.3174 34.8741C31.9375 34.7604 31.5846 34.5727 31.2796 34.322C30.9746 34.0713 30.7236 33.7626 30.5416 33.4144C30.3596 33.0662 30.2503 32.6855 30.2201 32.2948C30.1898 31.9041 30.2394 31.5114 30.3658 31.14C30.4921 30.7685 30.6927 30.4259 30.9557 30.1324L32.8504 27.8834C34.1825 26.3085 35.07 24.4144 35.4234 22.3926C35.7321 20.6174 35.6249 18.796 35.1099 17.068C35.0351 16.8187 34.9509 16.5739 34.8573 16.3338C34.1404 14.4064 32.9184 12.7013 31.3159 11.3925C29.7192 10.0738 27.7965 9.19732 25.7442 8.85259C24.8806 8.70898 24.0036 8.65944 23.129 8.70482C23.1184 6.9033 22.5463 5.14866 21.4904 3.67926C20.4345 2.20985 18.946 1.09691 17.227 0.491619C15.5081 -0.11367 13.642 -0.181958 11.8824 0.296008C10.1228 0.773973 8.55481 1.77503 7.39156 3.16321L5.52027 5.41218C2.84799 8.56586 1.07212 12.3635 0.374247 16.4169C-0.321572 20.4698 0.0637753 24.6317 1.49235 28.493C2.92884 32.3513 5.37412 35.7657 8.57984 38.3894C9.44775 39.1018 10.3654 39.753 11.3259 40.3382C11.9918 40.7173 12.7808 40.8264 13.5266 40.6424C14.2724 40.4585 14.9167 39.9959 15.3237 39.3522C15.7308 38.7085 15.8687 37.9339 15.7085 37.1918C15.5483 36.4496 15.1025 35.7978 14.465 35.3738C13.7331 34.9277 13.0343 34.4308 12.3739 33.8868C9.00594 31.1274 6.79135 27.2355 6.15653 22.9606C6.05822 22.3165 5.9973 21.6674 5.97407 21.0164C5.80501 16.7007 7.25415 12.475 10.0441 9.14815L11.9435 6.89918C12.1883 6.59073 12.4933 6.33392 12.8404 6.14397C13.1876 5.95402 13.5699 5.83479 13.9646 5.79335C14.3593 5.75191 14.7584 5.7891 15.1383 5.90272C15.5182 6.01633 15.8711 6.20406 16.1761 6.45478C16.4812 6.7055 16.7321 7.0141 16.9141 7.36232C17.0961 7.71053 17.2055 8.09128 17.2357 8.48197C17.2659 8.87266 17.2163 9.26537 17.09 9.63681C16.9636 10.0083 16.763 10.3509 16.5 10.6444L14.6288 12.8933C13.2888 14.4656 12.3945 16.3601 12.037 18.3842C12.037 18.4442 12.037 18.5042 12.0089 18.5643C11.6985 20.5373 11.903 22.5559 12.6031 24.4291C13.3239 26.3556 14.5454 28.061 16.1449 29.3742C17.7445 30.6873 19.6659 31.562 21.7162 31.9103C22.5816 32.0518 23.4599 32.1013 24.336 32.0581C24.3466 33.8596 24.9187 35.6143 25.9747 37.0837C27.0306 38.5531 28.5191 39.666 30.2381 40.2713C31.957 40.8766 33.8231 40.9449 35.5827 40.4669C37.3423 39.9889 38.9103 38.9879 40.0735 37.5997L41.9448 35.3507C45.6441 30.9685 47.5925 25.4022 47.423 19.7003L47.437 19.7188ZM23.7232 26.2348C22.5527 26.2348 21.4086 25.8922 20.4354 25.2503C19.4622 24.6084 18.7036 23.696 18.2557 22.6286C17.8078 21.5611 17.6906 20.3865 17.919 19.2533C18.1473 18.1201 18.7109 17.0792 19.5386 16.2622C20.3662 15.4452 21.4207 14.8889 22.5687 14.6635C23.7166 14.4381 24.9065 14.5538 25.9879 14.9959C27.0692 15.4381 27.9935 16.1868 28.6438 17.1475C29.294 18.1082 29.6411 19.2376 29.6411 20.393C29.6411 21.9423 29.0176 23.4282 27.9078 24.5238C26.798 25.6193 25.2927 26.2348 23.7232 26.2348Z" fill="#2A9FE8"/>
<path d="M57.4924 46.0305H58.5362C58.5657 46.582 59.068 47.1433 59.8853 47.1433C60.6829 47.1433 61.0965 46.7198 61.1655 46.2176C61.2049 45.5874 60.7223 45.2624 60.0921 45.1147L59.2354 44.8981C57.7779 44.5042 57.5515 43.677 57.5515 43.0763C57.5515 41.9143 58.5953 41.1363 59.7868 41.1363C61.0473 41.1363 61.9927 41.9044 61.9927 43.1452H60.9488C60.9488 42.515 60.4762 42.1211 59.7671 42.1211C59.1369 42.1211 58.5953 42.5051 58.5953 43.0566C58.5953 43.3225 58.6938 43.7361 59.5013 43.9428L60.3678 44.1693C61.7465 44.5337 62.3078 45.2919 62.1995 46.2767C62.0911 47.3402 61.1753 48.0985 59.8853 48.0985C58.4771 48.0985 57.4924 47.1334 57.4924 46.0305ZM64.24 45.5283V48H63.2257V40.9H64.24V44.1004C64.5059 43.5391 65.2149 43.3028 65.6975 43.3028C66.8792 43.3028 67.5586 44.0709 67.5586 45.3806V48H66.5443V45.4397C66.5443 44.7208 66.1012 44.2974 65.5202 44.2974C64.9392 44.2974 64.24 44.6223 64.24 45.5283ZM69.7854 43.4012V48H68.7809V43.4012H69.7854ZM68.6037 41.5401C68.6037 41.1757 68.9188 40.9 69.2832 40.9C69.6672 40.9 69.9528 41.1757 69.9528 41.5401C69.9528 41.9044 69.6672 42.1802 69.2832 42.1802C68.9188 42.1802 68.6037 41.9044 68.6037 41.5401ZM72.0808 45.5283V48H71.0665V43.4012H72.0808V44.0906C72.3466 43.5686 72.9867 43.3028 73.489 43.3028C74.6017 43.3028 75.2418 44.0118 75.2418 45.3215V48H74.2275V45.4397C74.2275 44.7011 73.8533 44.2974 73.2625 44.2974C72.6618 44.2974 72.0808 44.6223 72.0808 45.5283ZM80.8497 45.6858C80.8497 45.7942 80.8497 45.9517 80.8399 46.0601H77.1864C77.2948 46.7691 77.8462 47.2122 78.5946 47.2122C79.1067 47.2122 79.6089 46.9759 79.8453 46.5524L80.6724 46.9168C80.2785 47.7341 79.4021 48.0985 78.5454 48.0985C77.2455 48.0985 76.182 47.1433 76.182 45.6858C76.182 44.2284 77.2455 43.3028 78.5454 43.3028C79.8453 43.3028 80.8497 44.2284 80.8497 45.6858ZM77.1864 45.3215H79.8551C79.7468 44.6026 79.2446 44.189 78.5454 44.189C77.8364 44.189 77.2948 44.6125 77.1864 45.3215ZM88.6453 48L87.9954 46.3062H85.2578L84.6079 48H83.4951L86.0555 41.2151H87.1879L89.7483 48H88.6453ZM86.6266 42.5248L85.6123 45.3707H87.6409L86.6266 42.5248ZM93.4177 45.8729V43.4012H94.432V48H93.4177V47.3304C93.1518 47.8523 92.5314 48.0985 92.0489 48.0985C90.9164 48.0985 90.2566 47.3895 90.2665 46.0797V43.4012H91.2808V45.9616C91.2808 46.7198 91.6845 47.1137 92.236 47.1137C92.8268 47.1137 93.4177 46.7888 93.4177 45.8729ZM97.0861 41.6582V43.4012H98.061V44.2383H97.0861V48H96.0718V44.2383H95.2446V43.4012H96.0718V41.6582H97.0861ZM100.908 47.1137C101.676 47.1137 102.306 46.5524 102.306 45.6858C102.306 44.8488 101.676 44.2974 100.908 44.2974C100.15 44.2974 99.5194 44.8488 99.5194 45.6858C99.5194 46.5524 100.15 47.1137 100.908 47.1137ZM100.908 48.0985C99.608 48.0985 98.515 47.1433 98.515 45.6858C98.515 44.2284 99.608 43.3028 100.908 43.3028C102.218 43.3028 103.321 44.2284 103.321 45.6858C103.321 47.1433 102.218 48.0985 100.908 48.0985ZM106.237 42.19V41.2151H111.299V42.19H109.3V48H108.236V42.19H106.237ZM112.307 46.3456V48H111.293V43.4012H112.307V44.4549C112.543 43.6277 112.986 43.3028 113.567 43.3028C113.892 43.3028 114.237 43.3717 114.385 43.48L114.217 44.4155C113.952 44.2875 113.735 44.258 113.538 44.258C112.671 44.258 112.307 45.1245 112.307 46.3456ZM118.576 48V47.3402C118.261 47.8424 117.621 48.0985 117.03 48.0985C115.799 48.0985 114.696 47.163 114.696 45.6957C114.696 44.2284 115.799 43.3028 117.03 43.3028C117.582 43.3028 118.261 43.5293 118.576 44.0512V43.4012H119.581V48H118.576ZM115.74 45.6858C115.74 46.5327 116.39 47.1137 117.149 47.1137C117.897 47.1137 118.567 46.5918 118.567 45.6858C118.567 44.7897 117.838 44.2875 117.149 44.2875C116.39 44.2875 115.74 44.839 115.74 45.6858ZM124.429 48V47.3304C124.144 47.8326 123.504 48.0985 122.873 48.0985C121.633 48.0985 120.579 47.1531 120.579 45.7055C120.579 44.2284 121.633 43.3028 122.873 43.3028C123.533 43.3028 124.144 43.5588 124.429 44.061V40.9H125.434V48H124.429ZM124.41 45.6858C124.41 44.7897 123.681 44.2875 123.001 44.2875C122.243 44.2875 121.623 44.839 121.623 45.6858C121.623 46.5327 122.243 47.1137 123.001 47.1137C123.75 47.1137 124.41 46.582 124.41 45.6858ZM127.722 43.4012V48H126.718V43.4012H127.722ZM126.541 41.5401C126.541 41.1757 126.856 40.9 127.22 40.9C127.604 40.9 127.89 41.1757 127.89 41.5401C127.89 41.9044 127.604 42.1802 127.22 42.1802C126.856 42.1802 126.541 41.9044 126.541 41.5401ZM130.018 45.5283V48H129.003V43.4012H130.018V44.0906C130.283 43.5686 130.924 43.3028 131.426 43.3028C132.539 43.3028 133.179 44.0118 133.179 45.3215V48H132.164V45.4397C132.164 44.7011 131.79 44.2974 131.199 44.2974C130.599 44.2974 130.018 44.6223 130.018 45.5283ZM137.989 45.7055C137.989 44.7897 137.329 44.2875 136.571 44.2875C135.803 44.2875 135.173 44.8685 135.173 45.7055C135.173 46.5721 135.803 47.1236 136.571 47.1236C137.26 47.1236 137.989 46.6115 137.989 45.7055ZM135.182 48.581C135.429 49.0635 135.97 49.3491 136.472 49.3491C137.408 49.3491 138.009 48.8272 138.009 47.5372V47.3008C137.753 47.8227 137.073 48.0985 136.453 48.0985C135.212 48.0985 134.129 47.1728 134.129 45.7154C134.129 44.258 135.212 43.3028 136.453 43.3028C137.083 43.3028 137.723 43.5785 138.009 44.0807V43.4012H139.003V47.3205C139.003 49.4377 138.018 50.2945 136.472 50.2945C135.576 50.2945 134.779 49.8316 134.345 49.0044C134.532 48.9257 134.995 48.6598 135.182 48.581Z" fill="#051128"/>
<path d="M71.0857 19.4556C65.7058 18.7953 64.4099 17.8901 64.4099 16.0799C64.4099 14.1865 66.2063 12.7826 69.7524 12.7826C73.2985 12.7826 75.9277 13.5261 79.5533 15.5857L81.9345 11.0555C78.3355 8.69808 74.0891 7.49052 69.7712 7.59658C63.6895 7.59658 57.795 10.5198 57.8792 16.163C57.9213 20.938 61.2989 23.1223 68.9337 24.3138C74.7768 25.182 75.8622 26.0871 75.8622 27.9805C75.8622 29.8739 74.4026 31.2131 70.398 31.2131C66.2251 31.2131 62.7211 29.7723 59.7177 27.7542L57.2148 31.8688C60.2978 34.672 65.6824 36.316 70.398 36.316C76.9475 36.316 82.4959 33.3928 82.4538 27.7542C82.393 22.2957 77.9533 20.3192 71.0857 19.4556Z" fill="#051128"/>
<path d="M113.194 7.96606V13.1521H123.323V35.9697H129.662V13.1521H140V7.96606H113.194Z" fill="#051128"/>
<path d="M104.516 10.8431C104.124 9.88524 103.452 9.06472 102.584 8.48693C101.717 7.90913 100.695 7.6004 99.6481 7.6004C98.6018 7.6004 97.5793 7.90913 96.7119 8.48693C95.8446 9.06472 95.172 9.88524 94.7805 10.8431L84.5586 35.9697H91.6508L93.5641 30.6544H105.727L107.632 35.9697H114.724L104.516 10.8431ZM95.4214 25.5145L99.6692 13.7201L103.88 25.5145H95.4214Z" fill="#051128"/>
</g>
<defs>
<clipPath id="clip0_12400_70027">
<rect width="140" height="52" fill="white"/>
</clipPath>
</defs>
</svg>
