<svg width="293" height="98" viewBox="0 0 293 98" fill="none" xmlns="http://www.w3.org/2000/svg">
<g clip-path="url(#clip0_681_14682)">
<path d="M99.52 42.1797C99.3511 36.8284 98.3318 31.538 96.5004 26.5069C93.5104 18.3655 88.415 11.1626 81.7335 5.63262C79.928 4.1323 78.0208 2.75883 76.0255 1.52204C75.0878 0.943406 74.0127 0.62531 72.9112 0.60056C71.8096 0.575811 70.7214 0.84532 69.7587 1.38126C68.796 1.9172 67.9937 2.70018 67.4344 3.64952C66.8751 4.59886 66.5792 5.68018 66.577 6.78201C66.576 7.82838 66.8444 8.85742 67.3561 9.77009C67.8679 10.6828 68.6059 11.4484 69.4992 11.9933C71.0225 12.9351 72.4775 13.9832 73.8533 15.1298C80.873 20.9456 85.4885 29.1564 86.8084 38.1763C87.0131 39.5349 87.1399 40.904 87.1883 42.2771C87.5188 51.3857 84.4771 60.2959 78.6457 67.3009L74.691 72.0447C74.1813 72.6953 73.5462 73.237 72.8233 73.6376C72.1005 74.0383 71.3045 74.2897 70.4827 74.3772C69.6608 74.4646 68.8299 74.3861 68.0389 74.1465C67.2479 73.9068 66.5131 73.5109 65.878 72.982C65.2428 72.4532 64.7203 71.8022 64.3414 71.0677C63.9624 70.3333 63.7347 69.5302 63.6719 68.7061C63.609 67.882 63.7121 67.0537 63.9752 66.2702C64.2383 65.4867 64.656 64.7641 65.2035 64.145L69.1486 59.4013C71.9222 56.0793 73.7702 52.0842 74.5059 47.8196C75.1488 44.0752 74.9255 40.2333 73.8533 36.5885C73.6974 36.0625 73.5221 35.5463 73.3273 35.0398C71.8346 30.9745 69.2902 27.378 65.9536 24.6172C62.6291 21.8358 58.6256 19.987 54.3524 19.2598C52.5543 18.9569 50.7283 18.8524 48.9074 18.9482C48.8853 15.1482 47.6941 11.4472 45.4955 8.34781C43.2969 5.24843 40.1976 2.90091 36.6185 1.62418C33.0394 0.347457 29.154 0.203417 25.4902 1.21158C21.8264 2.21975 18.5617 4.33127 16.1397 7.25933L12.2434 12.003C6.67932 18.6551 2.9817 26.6654 1.52863 35.2151C0.0798336 43.7639 0.882182 52.5426 3.85667 60.687C6.84765 68.8254 11.9391 76.0273 18.6138 81.5613C20.4209 83.064 22.3316 84.4376 24.3316 85.6719C25.7181 86.4715 27.3609 86.7016 28.9137 86.3136C30.4666 85.9256 31.8081 84.9499 32.6556 83.5922C33.5031 82.2344 33.7904 80.6006 33.4568 79.0352C33.1233 77.4698 32.195 76.095 30.8676 75.2006C29.3437 74.2597 27.8887 73.2116 26.5135 72.0642C19.501 66.2437 14.89 58.0346 13.5682 49.0177C13.3635 47.6591 13.2366 46.2899 13.1883 44.9169C12.8363 35.8138 15.8536 26.9006 21.6627 19.8833L25.6174 15.1395C26.1271 14.4889 26.7622 13.9473 27.485 13.5466C28.2079 13.1459 29.0038 12.8945 29.8257 12.807C30.6475 12.7196 31.4785 12.7981 32.2695 13.0377C33.0605 13.2774 33.7953 13.6733 34.4304 14.2022C35.0655 14.731 35.5881 15.382 35.967 16.1164C36.346 16.8509 36.5736 17.654 36.6365 18.4781C36.6994 19.3022 36.5962 20.1305 36.3331 20.914C36.07 21.6975 35.6524 22.4201 35.1048 23.0392L31.2086 27.7829C28.4185 31.0992 26.5566 35.0953 25.8122 39.3646C25.8122 39.4913 25.8122 39.6179 25.7537 39.7445C25.1073 43.9062 25.5331 48.164 26.9908 52.1152C28.4916 56.1787 31.0349 59.7759 34.3655 62.5457C37.6961 65.3155 41.6967 67.1603 45.9657 67.8951C47.7676 68.1935 49.5963 68.298 51.4205 68.2068C51.4426 72.0068 52.6338 75.7078 54.8323 78.8072C57.0309 81.9066 60.1303 84.2541 63.7094 85.5308C67.2885 86.8075 71.1738 86.9516 74.8376 85.9434C78.5014 84.9352 81.7661 82.8237 84.1882 79.8957L88.0845 75.1519C95.787 65.9085 99.8437 54.1676 99.4908 42.1408L99.52 42.1797ZM50.1445 55.9238C47.7074 55.9238 45.3251 55.2012 43.2987 53.8472C41.2724 52.4933 39.6931 50.5688 38.7604 48.3173C37.8278 46.0657 37.5838 43.5882 38.0593 41.198C38.5347 38.8077 39.7082 36.6121 41.4315 34.8889C43.1547 33.1656 45.3503 31.9921 47.7406 31.5166C50.1308 31.0412 52.6083 31.2852 54.8599 32.2178C57.1114 33.1505 59.0358 34.7298 60.3898 36.7561C61.7437 38.7824 62.4664 41.1648 62.4664 43.6019C62.4664 46.8698 61.1682 50.004 58.8574 52.3148C56.5466 54.6256 53.4125 55.9238 50.1445 55.9238Z" fill="#2A9FE8"/>
<path d="M148.759 41.6243C137.557 40.2314 134.859 38.3223 134.859 34.5039C134.859 30.5102 138.6 27.549 145.983 27.549C153.366 27.549 158.841 29.1173 166.39 33.4616L171.348 23.906C163.854 18.9336 155.012 16.3865 146.022 16.6102C133.359 16.6102 121.086 22.7761 121.261 34.6792C121.349 44.7511 128.382 49.3584 144.278 51.8715C156.444 53.7028 158.704 55.612 158.704 59.6057C158.704 63.5993 155.665 66.4242 147.327 66.4242C138.638 66.4242 131.343 63.3851 125.089 59.1284L119.878 67.8073C126.297 73.7199 137.509 77.1876 147.327 77.1876C160.964 77.1876 172.517 71.0218 172.429 59.1284C172.302 47.6149 163.058 43.4459 148.759 41.6243Z" fill="#051128"/>
<path d="M236.437 17.3887V28.3275H257.525V76.4562H270.724V28.3275H292.251V17.3887H236.437Z" fill="#051128"/>
<path d="M121.173 91.4768C121.183 91.7129 121.243 91.9441 121.351 92.1544C121.459 92.3646 121.611 92.5489 121.797 92.6944C122.213 93.0615 122.752 93.2566 123.307 93.2399C123.809 93.2701 124.306 93.1218 124.709 92.8211C125.032 92.5599 125.247 92.1888 125.313 91.7788C125.342 91.5653 125.318 91.3479 125.244 91.1458C125.169 90.9436 125.046 90.763 124.885 90.6197C124.528 90.3086 124.094 90.0999 123.628 90.0157L122.342 89.6943C120.725 89.2852 119.917 88.4183 119.917 87.1033C119.912 86.7148 119.998 86.3305 120.167 85.9806C120.336 85.6308 120.584 85.3249 120.891 85.087C121.525 84.5618 122.327 84.2818 123.151 84.298C123.992 84.2684 124.812 84.5572 125.45 85.1065C125.747 85.3679 125.983 85.6924 126.14 86.0563C126.296 86.4202 126.37 86.8145 126.356 87.2104H125.011C125.018 86.987 124.975 86.7649 124.883 86.5608C124.792 86.3567 124.656 86.1758 124.485 86.0318C124.105 85.7263 123.628 85.5673 123.141 85.5837C122.672 85.5774 122.214 85.7245 121.836 86.0026C121.663 86.1242 121.521 86.2863 121.425 86.4746C121.328 86.663 121.278 86.872 121.281 87.0838C121.281 87.7754 121.748 88.2332 122.693 88.4669L123.989 88.7884C124.791 88.9458 125.526 89.3472 126.092 89.9378C126.322 90.2023 126.49 90.5138 126.586 90.8503C126.682 91.1869 126.703 91.5404 126.648 91.8859C126.61 92.2485 126.5 92.5999 126.324 92.9194C126.148 93.2389 125.911 93.5201 125.625 93.7464C124.971 94.2584 124.156 94.5208 123.326 94.4867C122.416 94.5148 121.529 94.1902 120.852 93.5808C120.546 93.32 120.301 92.9959 120.133 92.631C119.965 92.2661 119.878 91.8689 119.878 91.4671L121.173 91.4768Z" fill="#051128"/>
<path d="M129.522 87.6195V88.6715C129.748 88.2856 130.088 87.9792 130.496 87.7948C130.919 87.5822 131.386 87.4722 131.86 87.4734C132.304 87.4639 132.746 87.5454 133.158 87.7129C133.571 87.8804 133.944 88.1304 134.256 88.4475C134.584 88.7841 134.839 89.1841 135.006 89.6229C135.174 90.0618 135.25 90.5302 135.23 90.9995C135.248 91.4643 135.171 91.9278 135.004 92.3616C134.836 92.7955 134.582 93.1905 134.256 93.5223C133.944 93.8399 133.571 94.0902 133.159 94.2578C132.747 94.4253 132.304 94.5065 131.86 94.4964C131.382 94.5008 130.909 94.3976 130.477 94.1944C130.067 94.0232 129.724 93.722 129.502 93.3373V97.6232H128.188V87.6195H129.522ZM129.522 91.019C129.508 91.3191 129.559 91.6187 129.674 91.8965C129.788 92.1743 129.963 92.4234 130.184 92.6262C130.61 93.0074 131.162 93.2159 131.733 93.2107C132.02 93.2179 132.305 93.1683 132.573 93.0646C132.84 92.961 133.085 92.8053 133.292 92.6067C133.497 92.398 133.657 92.1495 133.763 91.8764C133.868 91.6033 133.917 91.3116 133.905 91.019C133.918 90.7197 133.869 90.4211 133.761 90.1414C133.654 89.8617 133.491 89.6068 133.282 89.3923C133.082 89.185 132.841 89.0217 132.574 88.9127C132.307 88.8037 132.021 88.7514 131.733 88.7592C131.444 88.753 131.157 88.804 130.888 88.9094C130.619 89.0147 130.373 89.1722 130.165 89.3729C129.953 89.584 129.788 89.8366 129.679 90.1149C129.57 90.3932 129.52 90.6911 129.532 90.9898L129.522 91.019Z" fill="#051128"/>
<path d="M143.189 90.9899C143.189 91.2432 143.189 91.4185 143.189 91.5062H137.734C137.791 92.0279 138.05 92.5066 138.455 92.8407C138.866 93.1763 139.385 93.3526 139.916 93.3374C140.312 93.3422 140.704 93.2485 141.055 93.0647C141.386 92.8921 141.659 92.6284 141.844 92.3049L142.419 92.5289L142.974 92.7335C142.708 93.2979 142.267 93.7622 141.718 94.0582C141.152 94.372 140.514 94.5331 139.867 94.5258C139.413 94.5376 138.962 94.4574 138.54 94.29C138.118 94.1226 137.735 93.8714 137.412 93.5517C137.085 93.2151 136.829 92.8151 136.662 92.3762C136.494 91.9374 136.418 91.469 136.438 90.9996C136.415 90.5397 136.488 90.08 136.652 89.6496C136.816 89.2192 137.067 88.8277 137.391 88.4997C137.714 88.1718 138.102 87.9147 138.53 87.7447C138.958 87.5748 139.417 87.4957 139.877 87.5125C140.323 87.5016 140.767 87.5824 141.181 87.75C141.595 87.9175 141.97 88.1682 142.283 88.4865C142.903 89.1689 143.229 90.0686 143.189 90.9899ZM137.705 90.4834H141.893C141.856 89.9733 141.619 89.4986 141.235 89.1614C140.85 88.8243 140.348 88.6519 139.838 88.6814C139.318 88.6678 138.81 88.8405 138.406 89.1684C138.025 89.4945 137.784 89.955 137.734 90.4542L137.705 90.4834Z" fill="#051128"/>
<path d="M151.058 90.9896C151.058 91.2429 151.058 91.4182 151.058 91.5059H145.594C145.651 92.0276 145.91 92.5063 146.315 92.8404C146.726 93.1761 147.245 93.3523 147.776 93.3371C148.172 93.3419 148.564 93.2482 148.915 93.0644C149.246 92.8918 149.519 92.6281 149.704 92.3046L150.279 92.5286L150.825 92.7332C150.561 93.2962 150.124 93.7603 149.578 94.0579C149.011 94.3704 148.374 94.5314 147.727 94.5255C147.273 94.5373 146.822 94.4571 146.4 94.2897C145.978 94.1223 145.595 93.8711 145.272 93.5514C144.943 93.2162 144.686 92.8164 144.519 92.3772C144.351 91.938 144.276 91.4689 144.298 90.9994C144.276 90.5328 144.352 90.0667 144.519 89.6307C144.687 89.1947 144.943 88.7983 145.272 88.4667C145.596 88.1497 145.98 87.9004 146.402 87.7332C146.823 87.5659 147.274 87.4842 147.727 87.4927C148.173 87.4818 148.617 87.5627 149.031 87.7302C149.445 87.8978 149.82 88.1484 150.133 88.4667C150.446 88.8055 150.689 89.2028 150.848 89.6357C151.007 90.0687 151.078 90.5288 151.058 90.9896ZM145.574 90.4831H149.753C149.713 89.975 149.475 89.5029 149.091 89.1681C148.706 88.8396 148.213 88.666 147.708 88.6811C147.187 88.6675 146.68 88.8402 146.276 89.1681C145.884 89.4892 145.632 89.9504 145.574 90.4539V90.4831Z" fill="#051128"/>
<path d="M157.897 94.3508V93.3086C157.672 93.6953 157.331 94.0019 156.923 94.1852C156.491 94.3905 156.018 94.4969 155.54 94.4969C155.092 94.5062 154.647 94.4248 154.232 94.2574C153.817 94.0899 153.44 93.84 153.124 93.5228C152.494 92.8277 152.146 91.9233 152.146 90.9854C152.146 90.0475 152.494 89.1431 153.124 88.448C153.438 88.1315 153.814 87.882 154.227 87.7146C154.641 87.5472 155.084 87.4653 155.53 87.4739C156.016 87.4679 156.498 87.5676 156.942 87.7661C157.346 87.9464 157.686 88.2454 157.916 88.6233V83.9575H159.231V94.3508H157.897ZM157.235 92.5975C157.454 92.387 157.625 92.132 157.738 91.8498C157.85 91.5676 157.901 91.2645 157.887 90.961C157.902 90.6576 157.848 90.3548 157.73 90.0749C157.612 89.7951 157.433 89.5453 157.205 89.3441C156.78 88.9629 156.228 88.7545 155.657 88.7597C155.367 88.7529 155.078 88.8053 154.809 88.9138C154.54 89.0223 154.296 89.1845 154.092 89.3906C153.887 89.5966 153.727 89.8422 153.621 90.1122C153.515 90.3822 153.465 90.6711 153.475 90.961C153.466 91.2593 153.518 91.5561 153.627 91.834C153.735 92.1118 153.899 92.3648 154.108 92.578C154.308 92.7853 154.549 92.9486 154.816 93.0576C155.082 93.1666 155.369 93.2189 155.657 93.2112C156.236 93.2168 156.795 92.9968 157.215 92.5975H157.235Z" fill="#051128"/>
<path d="M170.081 91.8277H165.873L164.899 94.3506H163.467L167.247 84.415H168.688L172.448 94.3506H171.046L170.081 91.8277ZM166.331 90.6199H169.614L167.977 86.2074L166.331 90.6199Z" fill="#051128"/>
<path d="M182.541 83.9569V85.2134H181.81C180.953 85.2134 180.534 85.7881 180.554 86.9375V87.6193H182.112V88.7298H180.554V94.3502H179.229V88.7298H175.333V94.3502H173.998V88.7298H172.703V87.6193H173.998V86.9375C173.954 86.1548 174.181 85.3807 174.641 84.7458C174.881 84.4708 175.183 84.256 175.521 84.119C175.859 83.9819 176.225 83.9264 176.589 83.9569H177.329V85.2134H176.589C175.732 85.2134 175.323 85.7881 175.342 86.9375V87.6193H179.239V86.9375C179.196 86.1565 179.42 85.3841 179.872 84.7458C180.113 84.4726 180.415 84.2591 180.753 84.1222C181.091 83.9853 181.456 83.9287 181.82 83.9569H182.541Z" fill="#051128"/>
<path d="M188.872 93.5029C188.195 94.1378 187.301 94.491 186.373 94.491C185.445 94.491 184.552 94.1378 183.875 93.5029C183.221 92.8196 182.857 91.9107 182.857 90.9654C182.857 90.0202 183.221 89.1113 183.875 88.428C184.561 87.8072 185.453 87.4634 186.378 87.4634C187.303 87.4634 188.195 87.8072 188.881 88.428C189.212 88.7567 189.469 89.1511 189.637 89.5858C189.805 90.0204 189.879 90.4855 189.855 90.9509C189.879 91.4214 189.804 91.8918 189.635 92.3315C189.465 92.7711 189.205 93.1703 188.872 93.5029ZM184.79 92.597C185.104 92.9147 185.507 93.1302 185.945 93.2155C186.384 93.3008 186.838 93.2519 187.248 93.0752C187.658 92.8985 188.006 92.6022 188.245 92.2249C188.484 91.8477 188.604 91.407 188.589 90.9606C188.602 90.6638 188.551 90.3679 188.44 90.0924C188.329 89.8169 188.161 89.5682 187.946 89.3631C187.512 88.975 186.95 88.7604 186.368 88.7604C185.786 88.7604 185.224 88.975 184.79 89.3631C184.575 89.5682 184.407 89.8169 184.296 90.0924C184.185 90.3679 184.135 90.6638 184.147 90.9606C184.135 91.263 184.186 91.5647 184.297 91.8464C184.407 92.1281 184.575 92.3838 184.79 92.597Z" fill="#051128"/>
<path d="M192.808 91.8958V94.3505H191.502V87.6197H192.808V89.1295C193.139 88.0288 193.782 87.4736 194.688 87.4736C195.095 87.4444 195.501 87.5358 195.857 87.7365L195.652 88.9541C195.347 88.8115 195.015 88.7352 194.678 88.7301C194.388 88.7231 194.102 88.8016 193.856 88.9557C193.61 89.1099 193.415 89.3329 193.295 89.597C192.947 90.3121 192.78 91.1013 192.808 91.8958Z" fill="#051128"/>
<path d="M202.197 94.3508V93.3086C201.968 93.6921 201.628 93.9977 201.223 94.1852C200.791 94.3914 200.318 94.4979 199.84 94.4969C199.392 94.5062 198.947 94.4248 198.532 94.2574C198.117 94.0899 197.74 93.84 197.424 93.5228C196.794 92.8277 196.445 91.9233 196.445 90.9854C196.445 90.0475 196.794 89.1431 197.424 88.448C197.74 88.1308 198.117 87.8809 198.532 87.7135C198.947 87.5461 199.392 87.4646 199.84 87.4739C200.323 87.469 200.801 87.5687 201.242 87.7661C201.645 87.948 201.985 88.2466 202.216 88.6233V83.9575H203.521V94.3508H202.197ZM201.525 92.5975C201.744 92.387 201.915 92.132 202.028 91.8498C202.14 91.5676 202.191 91.2645 202.177 90.961C202.191 90.6586 202.138 90.357 202.022 90.0774C201.906 89.7979 201.729 89.5475 201.505 89.3441C201.075 88.9647 200.52 88.7567 199.947 88.7597C199.657 88.7529 199.368 88.8053 199.099 88.9138C198.83 89.0223 198.586 89.1845 198.382 89.3906C198.178 89.5966 198.017 89.8422 197.911 90.1122C197.805 90.3822 197.755 90.6711 197.765 90.961C197.756 91.2593 197.808 91.5561 197.917 91.834C198.025 92.1118 198.189 92.3648 198.398 92.578C198.599 92.7839 198.84 92.9463 199.107 93.0552C199.373 93.1641 199.659 93.2172 199.947 93.2112C200.533 93.222 201.1 93.0015 201.525 92.5975Z" fill="#051128"/>
<path d="M210.886 94.3501V93.3078C210.66 93.6938 210.32 94.0001 209.912 94.1845C209.481 94.3916 209.008 94.4982 208.529 94.4961C208.082 94.5049 207.637 94.4232 207.222 94.2558C206.807 94.0884 206.43 93.8388 206.113 93.5221C205.475 92.8311 205.121 91.9251 205.121 90.9846C205.121 90.0442 205.475 89.1382 206.113 88.4472C206.43 88.1314 206.807 87.8824 207.222 87.7151C207.637 87.5477 208.082 87.4655 208.529 87.4731C209.01 87.469 209.486 87.5721 209.922 87.7751C210.326 87.9507 210.666 88.2466 210.896 88.6225V87.6485H212.192V94.3793L210.886 94.3501ZM210.886 90.9603C210.9 90.6579 210.847 90.3562 210.731 90.0767C210.615 89.7972 210.438 89.5467 210.214 89.3433C209.785 88.9623 209.23 88.7541 208.656 88.7589C208.364 88.7479 208.073 88.7974 207.802 88.9042C207.53 89.0111 207.284 89.173 207.078 89.3798C206.872 89.5866 206.711 89.8338 206.606 90.1058C206.5 90.3778 206.452 90.6687 206.464 90.9603C206.456 91.2585 206.507 91.5554 206.616 91.8332C206.725 92.111 206.889 92.3641 207.097 92.5773C207.301 92.7825 207.544 92.9444 207.812 93.0532C208.08 93.162 208.367 93.2155 208.656 93.2104C209.243 93.2222 209.812 93.0057 210.243 92.6065C210.453 92.3945 210.617 92.1414 210.724 91.8632C210.831 91.5849 210.88 91.2875 210.867 90.9895L210.886 90.9603Z" fill="#051128"/>
<path d="M215.542 93.3086V94.3508H214.227V83.9575H215.542V88.6233C215.772 88.2454 216.112 87.9464 216.516 87.7661C217.148 87.4903 217.847 87.4069 218.526 87.5265C219.205 87.646 219.834 87.9632 220.334 88.4382C220.97 89.1302 221.323 90.0358 221.323 90.9756C221.323 91.9155 220.97 92.8211 220.334 93.5131C220.016 93.8306 219.638 94.0806 219.221 94.248C218.804 94.4154 218.358 94.4967 217.909 94.4872C217.433 94.4861 216.964 94.3796 216.535 94.1755C216.121 93.9981 215.773 93.6948 215.542 93.3086ZM215.542 90.961C215.529 91.2659 215.58 91.57 215.692 91.8536C215.805 92.1373 215.976 92.394 216.194 92.6072C216.625 93.0073 217.194 93.224 217.782 93.2112C218.07 93.2172 218.356 93.1641 218.622 93.0552C218.888 92.9463 219.13 92.7839 219.331 92.578C219.538 92.3644 219.7 92.111 219.807 91.8331C219.914 91.5553 219.964 91.2586 219.954 90.961C219.966 90.6712 219.919 90.382 219.814 90.1113C219.71 89.8407 219.551 89.5944 219.347 89.3879C219.143 89.1814 218.899 89.0191 218.63 88.911C218.36 88.8029 218.072 88.7514 217.782 88.7597C217.208 88.753 216.652 88.9614 216.223 89.3441C215.995 89.5507 215.816 89.8058 215.7 90.0908C215.584 90.3757 215.533 90.6831 215.551 90.9903L215.542 90.961Z" fill="#051128"/>
<path d="M222.916 85.7393C222.827 85.6663 222.756 85.5738 222.709 85.4691C222.662 85.3644 222.639 85.2503 222.643 85.1354C222.641 85.0209 222.665 84.9074 222.712 84.803C222.759 84.6986 222.829 84.6059 222.916 84.5315C223.093 84.378 223.319 84.2935 223.554 84.2935C223.788 84.2935 224.015 84.378 224.192 84.5315C224.279 84.6059 224.348 84.6986 224.396 84.803C224.443 84.9074 224.466 85.0209 224.465 85.1354C224.468 85.2503 224.446 85.3644 224.398 85.4691C224.351 85.5738 224.28 85.6663 224.192 85.7393C224.015 85.8929 223.788 85.9774 223.554 85.9774C223.319 85.9774 223.093 85.8929 222.916 85.7393ZM224.202 94.3501V87.6193H222.906V94.3501H224.202Z" fill="#051128"/>
<path d="M226.247 83.9575H227.562V94.3508H226.247V83.9575Z" fill="#051128"/>
<path d="M229.618 85.7393C229.531 85.6649 229.461 85.5722 229.414 85.4678C229.367 85.3634 229.343 85.2499 229.345 85.1354C229.346 85.0213 229.37 84.9086 229.417 84.8046C229.464 84.7006 229.533 84.6076 229.618 84.5315C229.795 84.378 230.021 84.2935 230.256 84.2935C230.49 84.2935 230.717 84.378 230.894 84.5315C230.981 84.6059 231.05 84.6986 231.097 84.803C231.144 84.9074 231.168 85.0209 231.166 85.1354C231.17 85.2503 231.148 85.3644 231.1 85.4691C231.053 85.5738 230.982 85.6663 230.894 85.7393C230.717 85.8929 230.49 85.9774 230.256 85.9774C230.021 85.9774 229.795 85.8929 229.618 85.7393ZM230.903 94.3501V87.6193H229.608V94.3501H230.903Z" fill="#051128"/>
<path d="M234.77 87.6195H236.192V88.7299H234.77V94.3503H233.455V88.7299H232.218V87.6195H233.426V85.0771H234.741L234.77 87.6195Z" fill="#051128"/>
<path d="M239.349 97.6233H237.985L239.397 94.1459L236.699 87.6196H238.063L240.079 92.49L242.096 87.6196H243.489L239.349 97.6233Z" fill="#051128"/>
<path d="M246.829 84.415H254.213V85.6911H251.203V94.3506H249.849V85.6911H246.829V84.415Z" fill="#051128"/>
<path d="M255.596 91.8958V94.3505H254.291V87.6197H255.596V89.1295C255.927 88.0288 256.57 87.4736 257.476 87.4736C257.883 87.4444 258.289 87.5358 258.645 87.7365L258.44 88.9541C258.135 88.8115 257.803 88.7352 257.466 88.7301C257.176 88.7231 256.89 88.8016 256.644 88.9557C256.398 89.1099 256.203 89.3329 256.083 89.597C255.735 90.3121 255.568 91.1013 255.596 91.8958Z" fill="#051128"/>
<path d="M264.42 91.2529V87.6196H265.725V94.3505H264.42V93.3764C264.229 93.7532 263.917 94.055 263.534 94.2336C263.162 94.4313 262.747 94.535 262.326 94.5356C261.963 94.5605 261.6 94.5034 261.263 94.3685C260.926 94.2336 260.623 94.0243 260.378 93.7563C259.889 93.1276 259.653 92.339 259.715 91.5452V87.6489H261.021V91.4477C260.995 91.9179 261.132 92.3827 261.41 92.7627C261.541 92.9212 261.707 93.0468 261.894 93.1297C262.082 93.2126 262.287 93.2504 262.492 93.24C262.987 93.2591 263.471 93.0884 263.845 92.7627C264.05 92.5718 264.209 92.3364 264.308 92.0746C264.408 91.8129 264.446 91.5318 264.42 91.2529Z" fill="#051128"/>
<path d="M269.301 91.3796C268.761 91.2661 268.266 90.9948 267.879 90.6003C267.718 90.4061 267.601 90.1794 267.535 89.9356C267.469 89.6918 267.457 89.4368 267.499 89.1879C267.528 88.9412 267.61 88.7037 267.739 88.4918C267.869 88.2799 268.043 88.0986 268.249 87.9606C268.713 87.6335 269.27 87.4629 269.837 87.4736C270.403 87.4552 270.959 87.6191 271.425 87.9411C271.649 88.108 271.834 88.3234 271.963 88.5714C272.093 88.8193 272.166 89.0933 272.175 89.373H270.918C270.903 89.2609 270.863 89.1534 270.803 89.0577C270.742 88.962 270.662 88.8802 270.568 88.8178C270.36 88.6806 270.115 88.6092 269.866 88.6132C269.635 88.61 269.407 88.6671 269.204 88.7788C269.118 88.8238 269.043 88.8859 268.983 88.9614C268.923 89.0368 268.878 89.1239 268.853 89.2171C268.788 89.3898 268.788 89.5802 268.853 89.7529C268.943 89.8882 269.059 90.0038 269.194 90.0926C269.33 90.1814 269.482 90.2415 269.642 90.2691L270.616 90.5127C271.097 90.5634 271.541 90.7908 271.863 91.1508C272.186 91.5108 272.363 91.9777 272.36 92.4608C272.365 92.7472 272.299 93.0303 272.168 93.2852C272.037 93.54 271.845 93.7587 271.61 93.9219C271.066 94.3028 270.413 94.4976 269.749 94.4771C269.127 94.4813 268.522 94.2715 268.035 93.8829C267.79 93.7015 267.591 93.4651 267.454 93.1927C267.317 92.9203 267.246 92.6196 267.246 92.3147H268.444C268.464 92.4769 268.524 92.6315 268.62 92.7643C268.715 92.8971 268.842 93.0038 268.99 93.0745C269.313 93.265 269.688 93.3469 270.061 93.3082C270.328 93.2992 270.584 93.2034 270.792 93.0355C270.879 92.9604 270.951 92.868 271.001 92.7641C271.051 92.6601 271.079 92.5469 271.084 92.4315C271.093 92.3269 271.077 92.2217 271.036 92.1249C270.995 92.0281 270.931 91.9427 270.85 91.8763C270.652 91.7321 270.427 91.6294 270.188 91.5744L269.301 91.3796Z" fill="#051128"/>
<path d="M275.778 87.6195H277.2V88.7299H275.778V94.3503H274.463V88.7299H273.255V87.6195H274.463V85.0771H275.778V87.6195Z" fill="#051128"/>
<path d="M218.367 23.4575C217.552 21.437 216.152 19.7063 214.346 18.4876C212.54 17.2689 210.411 16.6177 208.232 16.6177C206.053 16.6177 203.924 17.2689 202.118 18.4876C200.313 19.7063 198.912 21.437 198.097 23.4575L176.813 76.4566H191.58L195.564 65.245H220.89L224.855 76.4566H239.621L218.367 23.4575ZM199.431 54.4036L208.276 29.5259L217.043 54.4036H199.431Z" fill="#051128"/>
</g>
<defs>
<clipPath id="clip0_681_14682">
<rect width="291.5" height="97.027" fill="white" transform="translate(0.75 0.586426)"/>
</clipPath>
</defs>
</svg>
