<svg width="137" height="120" viewBox="0 0 137 120" fill="none" xmlns="http://www.w3.org/2000/svg">
<path d="M136.098 58.0725C135.865 50.693 134.459 43.3975 131.934 36.4597C127.811 25.2327 120.784 15.2999 111.57 7.67406C109.081 5.60512 106.451 3.7111 103.699 2.00558C102.406 1.20764 100.924 0.768984 99.4045 0.734854C97.8855 0.700724 96.3848 1.07238 95.0573 1.81144C93.7297 2.5505 92.6232 3.63023 91.852 4.93937C91.0807 6.24851 90.6726 7.73965 90.6697 9.25907C90.6683 10.702 91.0383 12.1211 91.7441 13.3796C92.4498 14.6382 93.4676 15.694 94.6994 16.4454C96.8 17.7442 98.8064 19.1895 100.704 20.7707C110.384 28.7907 116.749 40.1133 118.569 52.5517C118.851 54.4252 119.026 56.3133 119.093 58.2068C119.548 70.7675 115.354 83.0547 107.312 92.7146L101.859 99.2562C101.156 100.153 100.28 100.9 99.2833 101.453C98.2865 102.005 97.1889 102.352 96.0556 102.473C94.9223 102.593 93.7763 102.485 92.6856 102.155C91.5948 101.824 90.5815 101.278 89.7057 100.549C88.8298 99.8196 88.1093 98.9219 87.5867 97.909C87.0641 96.8962 86.7502 95.7888 86.6635 94.6523C86.5768 93.5159 86.719 92.3737 87.0818 91.2933C87.4447 90.2128 88.0206 89.2163 88.7757 88.3625L94.2159 81.821C98.0407 77.2399 100.589 71.7308 101.604 65.8498C102.49 60.6863 102.182 55.3883 100.704 50.3623C100.489 49.6369 100.247 48.925 99.9783 48.2265C97.9199 42.6205 94.4111 37.6609 89.81 33.8538C85.2255 30.0182 79.7047 27.4687 73.812 26.466C71.3324 26.0483 68.8144 25.9042 66.3033 26.0362C66.2728 20.7961 64.6301 15.6924 61.5983 11.4183C58.5665 7.14426 54.2925 3.90703 49.3569 2.14643C44.4213 0.385824 39.0634 0.187194 34.011 1.57745C28.9587 2.96771 24.4567 5.8795 21.1166 9.91729L15.7437 16.4589C8.07081 25.632 2.9718 36.6783 0.968015 48.4683C-1.02987 60.257 0.0765653 72.3628 4.17838 83.5941C8.30295 94.8168 15.324 104.748 24.5285 112.38C27.0205 114.452 29.6553 116.346 32.4133 118.048C34.3253 119.151 36.5907 119.468 38.7321 118.933C40.8734 118.398 42.7234 117.053 43.8921 115.18C45.0608 113.308 45.4569 111.055 44.9969 108.896C44.537 106.737 43.2569 104.842 41.4264 103.608C39.3249 102.311 37.3185 100.865 35.4222 99.2831C25.752 91.2567 19.3933 79.9364 17.5705 67.502C17.2883 65.6285 17.1133 63.7404 17.0466 61.847C16.5612 49.2939 20.7221 37.0026 28.7329 27.3257L34.1864 20.7841C34.8893 19.8869 35.7651 19.1399 36.7619 18.5874C37.7587 18.0349 38.8563 17.6881 39.9896 17.5676C41.123 17.447 42.2689 17.5552 43.3596 17.8857C44.4504 18.2162 45.4637 18.7622 46.3395 19.4915C47.2154 20.2208 47.9359 21.1184 48.4585 22.1312C48.9811 23.1441 49.295 24.2516 49.3817 25.388C49.4685 26.5244 49.3262 27.6666 48.9634 28.747C48.6006 29.8275 48.0246 30.824 47.2696 31.6778L41.8966 38.2193C38.0492 42.7925 35.4815 48.303 34.455 54.1905C34.455 54.3651 34.455 54.5398 34.3744 54.7144C33.483 60.4533 34.0702 66.3247 36.0803 71.7735C38.1499 77.3771 41.6571 82.3376 46.25 86.1572C50.8429 89.9767 56.3597 92.5207 62.2467 93.534C64.7315 93.9454 67.2533 94.0895 69.7689 93.9638C69.7993 99.2039 71.442 104.308 74.4738 108.582C77.5056 112.856 81.7796 116.093 86.7152 117.854C91.6508 119.614 97.0087 119.813 102.061 118.423C107.113 117.032 111.615 114.121 114.955 110.083L120.328 103.541C130.95 90.7944 136.544 74.6038 136.058 58.0187L136.098 58.0725ZM68.0092 77.0256C64.6485 77.0256 61.3633 76.029 58.569 74.1619C55.7747 72.2948 53.5967 69.641 52.3107 66.5362C51.0246 63.4313 50.6881 60.0147 51.3437 56.7186C51.9994 53.4225 53.6176 50.3948 55.994 48.0184C58.3704 45.6421 61.3981 44.0237 64.6942 43.3681C67.9904 42.7124 71.4069 43.049 74.5118 44.335C77.6166 45.6211 80.2704 47.799 82.1375 50.5933C84.0046 53.3876 85.0012 56.6729 85.0012 60.0336C85.0012 64.5402 83.211 68.8621 80.0243 72.0487C76.8377 75.2354 72.5158 77.0256 68.0092 77.0256Z" fill="white"/>
</svg>
