<svg width="12" height="11" viewBox="0 0 12 11" fill="none" xmlns="http://www.w3.org/2000/svg">
<g clip-path="url(#clip0_9134_51878)">
<path d="M10.2827 6.66537H9.41834V3.74281L5.99183 6.81146L2.50308 3.7333V8.82639H6.82512V9.6908H2.07088C1.95625 9.6908 1.84632 9.64526 1.76526 9.56421C1.68421 9.48316 1.63867 9.37322 1.63867 9.2586V2.34334C1.63867 2.22871 1.68421 2.11878 1.76526 2.03772C1.84632 1.95667 1.95625 1.91113 2.07088 1.91113H9.85054C9.96517 1.91113 10.0751 1.95667 10.1562 2.03772C10.2372 2.11878 10.2827 2.22871 10.2827 2.34334V6.66537ZM2.72394 2.77554L5.98707 5.65488L9.2031 2.77554H2.72394ZM8.98613 10.123L7.45786 8.59473L8.06943 7.98359L8.98613 8.90073L10.5144 7.37246L11.1255 7.98359L8.98613 10.123Z" fill="#2384C1"/>
<path d="M10.2827 6.66537H9.41834V3.74281L5.99183 6.81146L2.50308 3.7333V8.82639H6.82512V9.6908H2.07088C1.95625 9.6908 1.84632 9.64526 1.76526 9.56421C1.68421 9.48316 1.63867 9.37322 1.63867 9.2586V2.34334C1.63867 2.22871 1.68421 2.11878 1.76526 2.03772C1.84632 1.95667 1.95625 1.91113 2.07088 1.91113H9.85054C9.96517 1.91113 10.0751 1.95667 10.1562 2.03772C10.2372 2.11878 10.2827 2.22871 10.2827 2.34334V6.66537ZM2.72394 2.77554L5.98707 5.65488L9.2031 2.77554H2.72394ZM8.98613 10.123L7.45786 8.59473L8.06943 7.98359L8.98613 8.90073L10.5144 7.37246L11.1255 7.98359L8.98613 10.123Z" fill="black" fill-opacity="0.2"/>
</g>
<defs>
<clipPath id="clip0_9134_51878">
<rect width="10.3729" height="10.3729" fill="white" transform="translate(0.773438 0.614746)"/>
</clipPath>
</defs>
</svg>
