<svg width="12" height="12" viewBox="0 0 12 12" fill="none" xmlns="http://www.w3.org/2000/svg">
<path d="M5.96015 10.9646L3.2096 8.21407C2.66561 7.67007 2.29514 6.97697 2.14505 6.22241C1.99497 5.46786 2.072 4.68575 2.36641 3.97498C2.66083 3.26421 3.1594 2.6567 3.79908 2.22928C4.43876 1.80186 5.19081 1.57373 5.96015 1.57373C6.72948 1.57373 7.48154 1.80186 8.12122 2.22928C8.7609 2.6567 9.25947 3.26421 9.55388 3.97498C9.84829 4.68575 9.92533 5.46786 9.77524 6.22241C9.62516 6.97697 9.25469 7.67007 8.71069 8.21407L5.96015 10.9646ZM8.09956 7.60294C8.52264 7.17981 8.81075 6.64073 8.92746 6.05387C9.04417 5.467 8.98424 4.8587 8.75525 4.3059C8.52625 3.75309 8.13847 3.2806 7.64095 2.94818C7.14343 2.61575 6.55851 2.43832 5.96015 2.43832C5.36179 2.43832 4.77687 2.61575 4.27934 2.94818C3.78182 3.2806 3.39404 3.75309 3.16505 4.3059C2.93605 4.8587 2.87612 5.467 2.99283 6.05387C3.10954 6.64073 3.39766 7.17981 3.82074 7.60294L5.96015 9.74235L8.09956 7.60294ZM5.96015 6.32794C5.73089 6.32794 5.51103 6.23687 5.34892 6.07476C5.18681 5.91265 5.09574 5.69278 5.09574 5.46353C5.09574 5.23427 5.18681 5.01441 5.34892 4.8523C5.51103 4.69019 5.73089 4.59912 5.96015 4.59912C6.1894 4.59912 6.40927 4.69019 6.57138 4.8523C6.73348 5.01441 6.82455 5.23427 6.82455 5.46353C6.82455 5.69278 6.73348 5.91265 6.57138 6.07476C6.40927 6.23687 6.1894 6.32794 5.96015 6.32794Z" fill="#2384C1"/>
<path d="M5.96015 10.9646L3.2096 8.21407C2.66561 7.67007 2.29514 6.97697 2.14505 6.22241C1.99497 5.46786 2.072 4.68575 2.36641 3.97498C2.66083 3.26421 3.1594 2.6567 3.79908 2.22928C4.43876 1.80186 5.19081 1.57373 5.96015 1.57373C6.72948 1.57373 7.48154 1.80186 8.12122 2.22928C8.7609 2.6567 9.25947 3.26421 9.55388 3.97498C9.84829 4.68575 9.92533 5.46786 9.77524 6.22241C9.62516 6.97697 9.25469 7.67007 8.71069 8.21407L5.96015 10.9646ZM8.09956 7.60294C8.52264 7.17981 8.81075 6.64073 8.92746 6.05387C9.04417 5.467 8.98424 4.8587 8.75525 4.3059C8.52625 3.75309 8.13847 3.2806 7.64095 2.94818C7.14343 2.61575 6.55851 2.43832 5.96015 2.43832C5.36179 2.43832 4.77687 2.61575 4.27934 2.94818C3.78182 3.2806 3.39404 3.75309 3.16505 4.3059C2.93605 4.8587 2.87612 5.467 2.99283 6.05387C3.10954 6.64073 3.39766 7.17981 3.82074 7.60294L5.96015 9.74235L8.09956 7.60294ZM5.96015 6.32794C5.73089 6.32794 5.51103 6.23687 5.34892 6.07476C5.18681 5.91265 5.09574 5.69278 5.09574 5.46353C5.09574 5.23427 5.18681 5.01441 5.34892 4.8523C5.51103 4.69019 5.73089 4.59912 5.96015 4.59912C6.1894 4.59912 6.40927 4.69019 6.57138 4.8523C6.73348 5.01441 6.82455 5.23427 6.82455 5.46353C6.82455 5.69278 6.73348 5.91265 6.57138 6.07476C6.40927 6.23687 6.1894 6.32794 5.96015 6.32794Z" fill="black" fill-opacity="0.2"/>
</svg>
