<svg width="50" height="32" viewBox="0 0 50 32" fill="none" xmlns="http://www.w3.org/2000/svg">
<path d="M8.51225 7.39837C8.51225 5.80441 9.80441 4.51225 11.3984 4.51225H39.435C41.0289 4.51225 42.3211 5.80441 42.3211 7.39837V25.1899C42.3211 26.7838 41.0289 28.076 39.435 28.076H11.3984C9.80441 28.076 8.51225 26.7838 8.51225 25.1899V7.39837Z" fill="white"/>
<path d="M8.51225 7.39837C8.51225 5.80441 9.80441 4.51225 11.3984 4.51225H39.435C41.0289 4.51225 42.3211 5.80441 42.3211 7.39837V25.1899C42.3211 26.7838 41.0289 28.076 39.435 28.076H11.3984C9.80441 28.076 8.51225 26.7838 8.51225 25.1899V7.39837Z" stroke="#EAECF0" stroke-width="1.02451"/>
<path fill-rule="evenodd" clip-rule="evenodd" d="M25.5996 21.2418C24.3865 22.2644 22.8129 22.8817 21.0934 22.8817C17.2567 22.8817 14.1465 19.8085 14.1465 16.0175C14.1465 12.2265 17.2567 9.15325 21.0934 9.15325C22.8129 9.15325 24.3865 9.77057 25.5996 10.7932C26.8127 9.77057 28.3863 9.15325 30.1059 9.15325C33.9425 9.15325 37.0527 12.2265 37.0527 16.0175C37.0527 19.8085 33.9425 22.8817 30.1059 22.8817C28.3863 22.8817 26.8127 22.2644 25.5996 21.2418Z" fill="#ED0006"/>
<path fill-rule="evenodd" clip-rule="evenodd" d="M25.5996 21.2422C27.0935 19.9832 28.0408 18.1096 28.0408 16.0175C28.0408 13.9253 27.0935 12.0518 25.5996 10.7927C26.8126 9.7704 28.3861 9.15325 30.1054 9.15325C33.942 9.15325 37.0522 12.2265 37.0522 16.0175C37.0522 19.8085 33.942 22.8817 30.1054 22.8817C28.3861 22.8817 26.8126 22.2645 25.5996 21.2422Z" fill="#F9A000"/>
<path fill-rule="evenodd" clip-rule="evenodd" d="M25.6008 21.2418C27.0944 19.9827 28.0414 18.1094 28.0414 16.0175C28.0414 13.9255 27.0944 12.0522 25.6008 10.7931C24.1072 12.0522 23.1602 13.9255 23.1602 16.0175C23.1602 18.1094 24.1072 19.9827 25.6008 21.2418Z" fill="#FF5E00"/>
</svg>
