<svg width="116" height="43" viewBox="0 0 116 43" fill="none" xmlns="http://www.w3.org/2000/svg">
<g clip-path="url(#clip0_2732_33830)">
<path d="M39.9416 18.2867C39.8767 16.2293 39.4848 14.1954 38.7807 12.2613C37.6312 9.1313 35.6723 6.36215 33.1036 4.23614C32.4095 3.65935 31.6763 3.13131 30.9092 2.65583C30.5487 2.43338 30.1354 2.31109 29.7119 2.30157C29.2884 2.29206 28.87 2.39567 28.4999 2.60171C28.1298 2.80775 27.8213 3.10877 27.6063 3.47374C27.3913 3.83872 27.2775 4.25443 27.2767 4.67803C27.2763 5.0803 27.3795 5.47592 27.5762 5.82679C27.773 6.17767 28.0567 6.47201 28.4002 6.6815C28.9858 7.04359 29.5451 7.44653 30.0741 7.88733C32.7728 10.1232 34.5472 13.2799 35.0547 16.7475C35.1334 17.2699 35.1821 17.7962 35.2007 18.3241C35.3278 21.8259 34.1584 25.2514 31.9165 27.9445L30.3961 29.7682C30.2002 30.0184 29.956 30.2266 29.6781 30.3806C29.4002 30.5347 29.0942 30.6314 28.7782 30.665C28.4623 30.6986 28.1428 30.6684 27.8387 30.5763C27.5346 30.4841 27.2521 30.3319 27.008 30.1286C26.7638 29.9253 26.5629 29.675 26.4172 29.3927C26.2715 29.1103 26.184 28.8015 26.1598 28.4847C26.1356 28.1679 26.1753 27.8495 26.2765 27.5482C26.3776 27.247 26.5382 26.9692 26.7487 26.7312L28.2653 24.9075C29.3317 23.6303 30.0421 22.0944 30.325 20.4549C30.5721 19.0154 30.4863 17.5384 30.0741 16.1371C30.0142 15.9349 29.9468 15.7364 29.8719 15.5417C29.298 13.9788 28.3198 12.5961 27.037 11.5348C25.7589 10.4654 24.2198 9.75467 22.577 9.47512C21.8857 9.35867 21.1837 9.31849 20.4836 9.3553C20.4751 7.89442 20.0172 6.47156 19.1719 5.28C18.3267 4.08844 17.1351 3.18594 15.7592 2.6951C14.3832 2.20426 12.8895 2.14889 11.4809 2.53648C10.0724 2.92407 8.81725 3.73584 7.88609 4.86153L6.38817 6.68525C4.24906 9.24261 2.82751 12.3222 2.26888 15.6091C1.71189 18.8957 2.02035 22.2707 3.16389 25.4018C4.31378 28.5306 6.27117 31.2993 8.83728 33.4269C9.53203 34.0046 10.2666 34.5327 11.0355 35.0072C11.5685 35.3146 12.2001 35.4031 12.7971 35.2539C13.3941 35.1048 13.9098 34.7297 14.2356 34.2077C14.5615 33.6857 14.6719 33.0576 14.5437 32.4557C14.4154 31.8539 14.0585 31.3254 13.5482 30.9815C12.9624 30.6198 12.403 30.2169 11.8743 29.7757C9.17837 27.5381 7.40564 24.3821 6.89748 20.9155C6.81878 20.3932 6.77002 19.8668 6.75143 19.339C6.61609 15.8393 7.7761 12.4126 10.0094 9.7148L11.5298 7.89108C11.7257 7.64095 11.9699 7.43271 12.2478 7.27867C12.5257 7.12464 12.8317 7.02795 13.1477 6.99435C13.4636 6.96074 13.7831 6.9909 14.0872 7.08303C14.3913 7.17516 14.6738 7.3274 14.918 7.53071C15.1621 7.73402 15.363 7.98427 15.5087 8.26664C15.6544 8.54902 15.7419 8.85777 15.7661 9.17458C15.7903 9.4914 15.7506 9.80985 15.6495 10.1111C15.5483 10.4123 15.3877 10.6901 15.1772 10.9281L13.6793 12.7518C12.6067 14.0268 11.8909 15.563 11.6047 17.2044C11.6047 17.2531 11.6047 17.3018 11.5822 17.3505C11.3337 18.9504 11.4974 20.5873 12.0578 22.1064C12.6348 23.6686 13.6126 25.0515 14.893 26.1164C16.1734 27.1812 17.7115 27.8905 19.3527 28.1729C20.0454 28.2876 20.7485 28.3278 21.4498 28.2928C21.4583 29.7537 21.9162 31.1765 22.7615 32.3681C23.6067 33.5596 24.7983 34.4621 26.1742 34.953C27.5502 35.4438 29.044 35.4992 30.4525 35.1116C31.8611 34.724 33.1162 33.9122 34.0473 32.7865L35.5452 30.9628C38.5065 27.4092 40.0661 22.8954 39.9304 18.2717L39.9416 18.2867ZM20.9592 23.5706C20.0223 23.5706 19.1064 23.2928 18.3274 22.7722C17.5484 22.2517 16.9412 21.5118 16.5826 20.6462C16.2241 19.7806 16.1303 18.8281 16.3131 17.9092C16.4959 16.9903 16.947 16.1462 17.6095 15.4837C18.272 14.8212 19.1161 14.37 20.035 14.1872C20.954 14.0045 21.9065 14.0983 22.7721 14.4568C23.6377 14.8154 24.3775 15.4225 24.898 16.2016C25.4186 16.9806 25.6964 17.8965 25.6964 18.8334C25.6964 20.0898 25.1973 21.2947 24.3089 22.1831C23.4205 23.0715 22.2156 23.5706 20.9592 23.5706Z" fill="#2A9FE8"/>
<path d="M58.8714 18.073C54.5649 17.5375 53.5275 16.8036 53.5275 15.3356C53.5275 13.8002 54.9655 12.6618 57.8041 12.6618C60.6427 12.6618 62.7473 13.2647 65.6495 14.9349L67.5556 11.2612C64.6747 9.34961 61.2755 8.37038 57.8191 8.45639C52.9509 8.45639 48.2324 10.8268 48.2998 15.403C48.3335 19.2751 51.0372 21.0464 57.1488 22.0126C61.826 22.7166 62.6948 23.4506 62.6948 24.986C62.6948 26.5213 61.5264 27.6073 58.3209 27.6073C54.9805 27.6073 52.1757 26.4389 49.7715 24.8025L47.768 28.1391C50.2359 30.4122 54.5461 31.7453 58.3209 31.7453C63.5636 31.7453 68.005 29.3749 67.9713 24.8025C67.9226 20.3761 64.3688 18.7733 58.8714 18.073Z" fill="#051128"/>
<path d="M92.579 8.75562V12.961H100.686V31.4641H105.761V12.961H114.037V8.75562H92.579Z" fill="#051128"/>
<path d="M48.2661 37.2387C48.2697 37.3295 48.293 37.4184 48.3344 37.4992C48.3757 37.58 48.4342 37.6509 48.5058 37.7068C48.6656 37.848 48.8731 37.9229 49.0862 37.9165C49.2793 37.9282 49.4703 37.8711 49.6255 37.7555C49.7496 37.6551 49.8323 37.5124 49.8576 37.3548C49.8688 37.2727 49.8596 37.1892 49.8309 37.1115C49.8021 37.0337 49.7547 36.9643 49.6929 36.9092C49.5558 36.7896 49.3888 36.7094 49.2098 36.677L48.7155 36.5534C48.0938 36.3962 47.783 36.0629 47.783 35.5573C47.7813 35.408 47.8142 35.2602 47.8791 35.1257C47.9441 34.9912 48.0394 34.8736 48.1575 34.7821C48.4014 34.5802 48.7097 34.4726 49.0263 34.4788C49.3495 34.4675 49.6651 34.5785 49.9101 34.7896C50.0245 34.8902 50.1152 35.0149 50.1754 35.1548C50.2356 35.2947 50.264 35.4463 50.2583 35.5985H49.7416C49.7442 35.5126 49.7274 35.4272 49.6924 35.3488C49.6574 35.2703 49.6051 35.2007 49.5393 35.1454C49.3933 35.0279 49.2099 34.9668 49.0226 34.9731C48.8422 34.9707 48.666 35.0272 48.5207 35.1342C48.4541 35.1809 48.3999 35.2432 48.3627 35.3156C48.3255 35.3881 48.3065 35.4684 48.3073 35.5498C48.3073 35.8157 48.487 35.9917 48.8503 36.0816L49.3484 36.2052C49.657 36.2657 49.9395 36.42 50.1572 36.6471C50.2453 36.7487 50.3101 36.8685 50.347 36.9979C50.3839 37.1273 50.392 37.2632 50.3707 37.396C50.3561 37.5354 50.3138 37.6705 50.2462 37.7933C50.1787 37.9162 50.0874 38.0243 49.9775 38.1113C49.726 38.3081 49.4128 38.409 49.0937 38.3959C48.7436 38.4067 48.4029 38.2819 48.1425 38.0476C48.025 37.9473 47.9307 37.8228 47.866 37.6825C47.8014 37.5422 47.7679 37.3895 47.768 37.235L48.2661 37.2387Z" fill="#051128"/>
<path d="M51.4757 35.7562V36.1606C51.5626 36.0122 51.6935 35.8945 51.8502 35.8236C52.0128 35.7418 52.1924 35.6995 52.3744 35.7C52.5454 35.6963 52.7153 35.7277 52.8737 35.7921C53.0322 35.8565 53.1757 35.9526 53.2957 36.0745C53.4216 36.2039 53.5198 36.3577 53.5842 36.5264C53.6486 36.6951 53.6778 36.8752 53.6701 37.0556C53.6772 37.2343 53.6476 37.4125 53.5832 37.5793C53.5188 37.7461 53.4209 37.8979 53.2957 38.0255C53.1759 38.1476 53.0323 38.2438 52.8739 38.3082C52.7154 38.3727 52.5454 38.4039 52.3744 38.4C52.1907 38.4017 52.009 38.362 51.8427 38.2839C51.6851 38.2181 51.5535 38.1023 51.4682 37.9544V39.6021H50.9626V35.7562H51.4757ZM51.4757 37.0631C51.4701 37.1785 51.4901 37.2937 51.5341 37.4004C51.5781 37.5072 51.6451 37.603 51.7303 37.681C51.8938 37.8275 52.1062 37.9077 52.3258 37.9057C52.436 37.9085 52.5457 37.8894 52.6486 37.8495C52.7514 37.8097 52.8453 37.7498 52.9249 37.6735C53.0039 37.5933 53.0655 37.4977 53.1061 37.3927C53.1467 37.2877 53.1653 37.1756 53.1608 37.0631C53.1655 36.948 53.1467 36.8332 53.1055 36.7257C53.0643 36.6182 53.0016 36.5202 52.9212 36.4377C52.8443 36.358 52.7516 36.2952 52.6491 36.2533C52.5466 36.2114 52.4365 36.1913 52.3258 36.1943C52.2147 36.1919 52.1042 36.2116 52.0007 36.252C51.8972 36.2925 51.8028 36.3531 51.7228 36.4302C51.6415 36.5114 51.5779 36.6085 51.536 36.7155C51.4941 36.8225 51.4748 36.9371 51.4794 37.0519L51.4757 37.0631Z" fill="#051128"/>
<path d="M56.7298 37.0516C56.7298 37.149 56.7298 37.2164 56.7298 37.2501H54.6328C54.6548 37.4507 54.7543 37.6347 54.9099 37.7631C55.0681 37.8922 55.2675 37.96 55.4716 37.9541C55.6241 37.956 55.7746 37.9199 55.9097 37.8493C56.0367 37.7829 56.142 37.6815 56.2131 37.5572L56.434 37.6433L56.6475 37.7219C56.545 37.9389 56.3757 38.1174 56.1644 38.2312C55.9468 38.3518 55.7016 38.4138 55.4529 38.411C55.2784 38.4155 55.1049 38.3847 54.9427 38.3203C54.7805 38.256 54.633 38.1594 54.5092 38.0365C54.3832 37.9071 54.285 37.7533 54.2206 37.5846C54.1562 37.4159 54.127 37.2358 54.1347 37.0554C54.1258 36.8785 54.1537 36.7018 54.2167 36.5363C54.2797 36.3709 54.3765 36.2203 54.5008 36.0943C54.6251 35.9682 54.7742 35.8694 54.9388 35.804C55.1033 35.7387 55.2797 35.7083 55.4566 35.7147C55.6282 35.7105 55.7988 35.7416 55.9579 35.806C56.117 35.8704 56.2612 35.9668 56.3816 36.0892C56.62 36.3515 56.7452 36.6974 56.7298 37.0516ZM54.6215 36.8569H56.2318C56.2174 36.6608 56.1265 36.4783 55.9786 36.3487C55.8308 36.2191 55.6379 36.1528 55.4416 36.1641C55.2417 36.1589 55.0465 36.2253 54.8912 36.3513C54.7446 36.4767 54.652 36.6538 54.6328 36.8457L54.6215 36.8569Z" fill="#051128"/>
<path d="M59.7554 37.0518C59.7554 37.1492 59.7554 37.2166 59.7554 37.2503H57.6545C57.6766 37.4508 57.776 37.6349 57.9317 37.7633C58.0899 37.8924 58.2893 37.9602 58.4934 37.9543C58.6459 37.9561 58.7964 37.9201 58.9315 37.8494C59.0585 37.7831 59.1638 37.6817 59.2348 37.5573L59.4558 37.6435L59.6655 37.7221C59.564 37.9386 59.3961 38.117 59.1862 38.2314C58.9684 38.3515 58.7233 38.4135 58.4747 38.4112C58.3002 38.4157 58.1267 38.3849 57.9645 38.3205C57.8023 38.2562 57.6548 38.1596 57.531 38.0367C57.4043 37.9078 57.3056 37.7541 57.2412 37.5853C57.1767 37.4164 57.1479 37.2361 57.1565 37.0555C57.148 36.8762 57.177 36.697 57.2414 36.5294C57.3059 36.3618 57.4045 36.2094 57.531 36.0819C57.6556 35.96 57.8032 35.8641 57.9652 35.7999C58.1272 35.7356 58.3004 35.7041 58.4747 35.7074C58.6463 35.7032 58.8169 35.7343 58.976 35.7987C59.1351 35.8632 59.2793 35.9595 59.3996 36.0819C59.5199 36.2121 59.6133 36.3649 59.6744 36.5313C59.7355 36.6978 59.763 36.8747 59.7554 37.0518ZM57.6471 36.8571H59.2536C59.2381 36.6617 59.1467 36.4802 58.9989 36.3515C58.8511 36.2252 58.6615 36.1585 58.4672 36.1643C58.2672 36.1591 58.072 36.2255 57.9167 36.3515C57.7659 36.475 57.6692 36.6523 57.6471 36.8458V36.8571Z" fill="#051128"/>
<path d="M62.3845 38.3436V37.9429C62.2979 38.0916 62.1669 38.2095 62.01 38.2799C61.8438 38.3589 61.6622 38.3998 61.4782 38.3998C61.3061 38.4034 61.1351 38.372 60.9755 38.3077C60.8159 38.2433 60.671 38.1472 60.5495 38.0253C60.3074 37.758 60.1733 37.4104 60.1733 37.0498C60.1733 36.6892 60.3074 36.3415 60.5495 36.0743C60.6704 35.9526 60.8147 35.8567 60.9736 35.7923C61.1326 35.728 61.303 35.6965 61.4745 35.6998C61.6615 35.6975 61.8467 35.7358 62.0175 35.8121C62.1728 35.8814 62.3034 35.9964 62.3919 36.1417V34.3479H62.8975V38.3436H62.3845ZM62.1298 37.6695C62.214 37.5886 62.28 37.4906 62.3233 37.3821C62.3665 37.2736 62.3861 37.1571 62.3807 37.0404C62.3864 36.9238 62.3658 36.8073 62.3204 36.6997C62.2751 36.5921 62.2061 36.4961 62.1186 36.4188C61.9551 36.2722 61.7427 36.1921 61.5232 36.1941C61.4117 36.1915 61.3008 36.2116 61.1973 36.2534C61.0939 36.2951 61 36.3574 60.9215 36.4366C60.843 36.5159 60.7815 36.6103 60.7407 36.7141C60.6999 36.8179 60.6807 36.9289 60.6843 37.0404C60.681 37.155 60.7009 37.2692 60.7427 37.376C60.7846 37.4828 60.8475 37.5801 60.9277 37.662C61.0046 37.7417 61.0973 37.8045 61.1998 37.8464C61.3023 37.8883 61.4125 37.9085 61.5232 37.9055C61.7459 37.9076 61.9608 37.823 62.1223 37.6695H62.1298Z" fill="#051128"/>
<path d="M67.0687 37.3737H65.451L65.0765 38.3436H64.526L65.979 34.5239H66.5332L67.9787 38.3436H67.4395L67.0687 37.3737ZM65.627 36.9094H66.889L66.2598 35.213L65.627 36.9094Z" fill="#051128"/>
<path d="M71.8587 34.3476V34.8307H71.5779C71.2483 34.8307 71.0873 35.0516 71.0948 35.4935V35.7556H71.694V36.1825H71.0948V38.3433H70.5855V36.1825H69.0876V38.3433H68.5745V36.1825H68.0765V35.7556H68.5745V35.4935C68.5576 35.1926 68.6449 34.895 68.8217 34.6509C68.914 34.5452 69.0299 34.4626 69.16 34.4099C69.2901 34.3572 69.4308 34.3359 69.5707 34.3476H69.8553V34.8307H69.5707C69.2411 34.8307 69.0838 35.0516 69.0913 35.4935V35.7556H70.5892V35.4935C70.573 35.1932 70.6588 34.8963 70.8327 34.6509C70.9255 34.5459 71.0415 34.4638 71.1715 34.4112C71.3014 34.3585 71.4418 34.3368 71.5816 34.3476H71.8587Z" fill="#051128"/>
<path d="M74.2926 38.0177C74.0323 38.2618 73.6889 38.3976 73.3321 38.3976C72.9752 38.3976 72.6318 38.2618 72.3715 38.0177C72.1204 37.755 71.9803 37.4056 71.9803 37.0422C71.9803 36.6788 72.1204 36.3293 72.3715 36.0666C72.6352 35.828 72.9782 35.6958 73.3339 35.6958C73.6896 35.6958 74.0326 35.828 74.2964 36.0666C74.4233 36.193 74.5223 36.3447 74.5868 36.5118C74.6513 36.6789 74.6799 36.8577 74.6708 37.0366C74.6801 37.2175 74.6512 37.3983 74.5861 37.5673C74.5209 37.7364 74.4209 37.8898 74.2926 38.0177ZM72.7235 37.6694C72.8443 37.7916 72.999 37.8744 73.1676 37.9072C73.3362 37.94 73.5107 37.9212 73.6685 37.8533C73.8262 37.7853 73.9598 37.6714 74.0517 37.5264C74.1437 37.3813 74.1898 37.2119 74.184 37.0403C74.1889 36.9262 74.1694 36.8124 74.1268 36.7065C74.0842 36.6006 74.0194 36.505 73.9368 36.4262C73.77 36.2769 73.554 36.1944 73.3302 36.1944C73.1064 36.1944 72.8904 36.2769 72.7235 36.4262C72.641 36.505 72.5762 36.6006 72.5336 36.7065C72.4909 36.8124 72.4715 36.9262 72.4764 37.0403C72.4717 37.1566 72.4912 37.2725 72.5338 37.3808C72.5763 37.4892 72.641 37.5874 72.7235 37.6694Z" fill="#051128"/>
<path d="M75.8059 37.3999V38.3436H75.3041V35.756H75.8059V36.3364C75.9332 35.9133 76.1804 35.6998 76.5286 35.6998C76.6851 35.6886 76.8414 35.7237 76.978 35.8009L76.8994 36.269C76.782 36.2142 76.6544 36.1848 76.5249 36.1829C76.4133 36.1802 76.3035 36.2104 76.2089 36.2696C76.1144 36.3289 76.0393 36.4146 75.9931 36.5162C75.8595 36.7911 75.7952 37.0945 75.8059 37.3999Z" fill="#051128"/>
<path d="M79.4155 38.3436V37.9429C79.3274 38.0904 79.1969 38.2078 79.041 38.2799C78.875 38.3592 78.6933 38.4001 78.5093 38.3998C78.3372 38.4034 78.1662 38.372 78.0065 38.3077C77.8469 38.2433 77.702 38.1472 77.5806 38.0253C77.3385 37.758 77.2044 37.4104 77.2044 37.0498C77.2044 36.6892 77.3385 36.3415 77.5806 36.0743C77.702 35.9523 77.8469 35.8562 78.0065 35.7919C78.1662 35.7275 78.3372 35.6962 78.5093 35.6998C78.695 35.6979 78.879 35.7362 79.0485 35.8121C79.2035 35.882 79.3339 35.9968 79.423 36.1417V34.3479H79.9248V38.3436H79.4155ZM79.1571 37.6695C79.2413 37.5886 79.3073 37.4906 79.3505 37.3821C79.3938 37.2736 79.4134 37.1571 79.408 37.0404C79.4134 36.9241 79.393 36.8082 79.3483 36.7007C79.3037 36.5932 79.2358 36.497 79.1496 36.4188C78.9842 36.2729 78.771 36.1929 78.5504 36.1941C78.4389 36.1915 78.3281 36.2116 78.2246 36.2534C78.1212 36.2951 78.0273 36.3574 77.9488 36.4366C77.8703 36.5159 77.8088 36.6103 77.768 36.7141C77.7272 36.8179 77.708 36.9289 77.7116 37.0404C77.7084 37.155 77.7282 37.2692 77.77 37.376C77.8119 37.4828 77.8748 37.5801 77.955 37.662C78.0324 37.7412 78.1251 37.8036 78.2275 37.8455C78.3299 37.8874 78.4398 37.9078 78.5504 37.9055C78.7758 37.9096 78.9937 37.8249 79.1571 37.6695Z" fill="#051128"/>
<path d="M82.7562 38.3437V37.943C82.6692 38.0914 82.5384 38.2092 82.3817 38.2801C82.2158 38.3597 82.034 38.4007 81.8499 38.3999C81.6779 38.4033 81.5069 38.3718 81.3473 38.3075C81.1878 38.2431 81.0428 38.1472 80.9212 38.0254C80.6759 37.7598 80.5397 37.4115 80.5397 37.0499C80.5397 36.6883 80.6759 36.34 80.9212 36.0744C81.0431 35.953 81.1881 35.8572 81.3476 35.7929C81.5071 35.7286 81.6779 35.6969 81.8499 35.6999C82.0349 35.6983 82.2178 35.7379 82.3854 35.816C82.5408 35.8835 82.6716 35.9973 82.7599 36.1418V35.7673H83.258V38.355L82.7562 38.3437ZM82.7562 37.0405C82.7615 36.9243 82.7412 36.8083 82.6965 36.7008C82.6518 36.5934 82.584 36.4971 82.4978 36.4189C82.3328 36.2724 82.1193 36.1924 81.8986 36.1942C81.7865 36.19 81.6747 36.209 81.5704 36.2501C81.466 36.2912 81.3712 36.3534 81.2921 36.4329C81.2129 36.5124 81.1511 36.6075 81.1105 36.712C81.0698 36.8166 81.0513 36.9284 81.056 37.0405C81.0528 37.1552 81.0726 37.2693 81.1145 37.3761C81.1563 37.4829 81.2192 37.5802 81.2995 37.6622C81.3777 37.7411 81.4712 37.8033 81.5741 37.8451C81.6771 37.887 81.7875 37.9075 81.8986 37.9056C82.1245 37.9101 82.3433 37.8269 82.509 37.6734C82.5897 37.5919 82.6526 37.4946 82.6938 37.3876C82.7351 37.2807 82.7538 37.1663 82.7487 37.0518L82.7562 37.0405Z" fill="#051128"/>
<path d="M84.5459 37.9429V38.3436H84.0404V34.3479H84.5459V36.1417C84.6344 35.9964 84.765 35.8814 84.9204 35.8121C85.1634 35.7061 85.4322 35.674 85.6933 35.72C85.9544 35.7659 86.1962 35.8879 86.3883 36.0705C86.6328 36.3366 86.7685 36.6847 86.7685 37.046C86.7685 37.4073 86.6328 37.7555 86.3883 38.0216C86.2662 38.1436 86.1206 38.2397 85.9604 38.3041C85.8001 38.3684 85.6285 38.3997 85.4559 38.396C85.2732 38.3956 85.0929 38.3547 84.9279 38.2762C84.7687 38.208 84.635 38.0914 84.5459 37.9429ZM84.5459 37.0404C84.5409 37.1576 84.5607 37.2745 84.6039 37.3836C84.6472 37.4926 84.7129 37.5913 84.7968 37.6733C84.9623 37.8271 85.1813 37.9104 85.4072 37.9055C85.5178 37.9078 85.6277 37.8874 85.7302 37.8455C85.8326 37.8036 85.9253 37.7412 86.0026 37.662C86.0824 37.5799 86.1447 37.4825 86.1859 37.3757C86.2271 37.2689 86.2463 37.1548 86.2423 37.0404C86.247 36.929 86.2286 36.8178 86.1885 36.7137C86.1483 36.6097 86.0872 36.515 86.0088 36.4356C85.9305 36.3562 85.8366 36.2938 85.7331 36.2523C85.6296 36.2107 85.5187 36.1909 85.4072 36.1941C85.1864 36.1915 84.9727 36.2717 84.808 36.4188C84.7203 36.4982 84.6516 36.5963 84.6069 36.7058C84.5621 36.8154 84.5426 36.9335 84.5496 37.0516L84.5459 37.0404Z" fill="#051128"/>
<path d="M87.3809 35.0329C87.3468 35.0048 87.3196 34.9693 87.3014 34.929C87.2833 34.8888 87.2746 34.8449 87.2761 34.8007C87.2754 34.7567 87.2844 34.7131 87.3026 34.673C87.3207 34.6328 87.3475 34.5972 87.3809 34.5686C87.449 34.5095 87.5361 34.4771 87.6262 34.4771C87.7163 34.4771 87.8034 34.5095 87.8715 34.5686C87.905 34.5972 87.9317 34.6328 87.9498 34.673C87.9679 34.7131 87.977 34.7567 87.9763 34.8007C87.9778 34.8449 87.9691 34.8888 87.9509 34.929C87.9328 34.9693 87.9056 35.0048 87.8715 35.0329C87.8034 35.0919 87.7163 35.1244 87.6262 35.1244C87.5361 35.1244 87.449 35.0919 87.3809 35.0329ZM87.8752 38.3433V35.7557H87.3772V38.3433H87.8752Z" fill="#051128"/>
<path d="M88.6617 34.3479H89.1672V38.3436H88.6617V34.3479Z" fill="#051128"/>
<path d="M89.9574 35.0329C89.924 35.0043 89.8972 34.9687 89.8791 34.9285C89.861 34.8884 89.8519 34.8448 89.8526 34.8007C89.8529 34.7569 89.8624 34.7136 89.8804 34.6736C89.8985 34.6336 89.9247 34.5978 89.9574 34.5686C90.0255 34.5095 90.1126 34.4771 90.2027 34.4771C90.2928 34.4771 90.3799 34.5095 90.448 34.5686C90.4815 34.5972 90.5082 34.6328 90.5263 34.673C90.5445 34.7131 90.5535 34.7567 90.5528 34.8007C90.5543 34.8449 90.5456 34.8888 90.5274 34.929C90.5093 34.9693 90.4821 35.0048 90.448 35.0329C90.3799 35.0919 90.2928 35.1244 90.2027 35.1244C90.1126 35.1244 90.0255 35.0919 89.9574 35.0329ZM90.4517 38.3433V35.7557H89.9537V38.3433H90.4517Z" fill="#051128"/>
<path d="M91.9382 35.7557H92.4849V36.1826H91.9382V38.3434H91.4327V36.1826H90.9571V35.7557H91.4214V34.7783H91.927L91.9382 35.7557Z" fill="#051128"/>
<path d="M93.6986 39.6018H93.1743L93.7173 38.2649L92.68 35.7559H93.2042L93.9794 37.6283L94.7546 35.7559H95.2901L93.6986 39.6018Z" fill="#051128"/>
<path d="M96.5744 34.5239H99.413V35.0145H98.2558V38.3436H97.7353V35.0145H96.5744V34.5239Z" fill="#051128"/>
<path d="M99.9447 37.3999V38.3436H99.4429V35.756H99.9447V36.3364C100.072 35.9133 100.319 35.6998 100.667 35.6998C100.824 35.6886 100.98 35.7237 101.117 35.8009L101.038 36.269C100.921 36.2142 100.793 36.1848 100.664 36.1829C100.552 36.1802 100.442 36.2104 100.348 36.2696C100.253 36.3289 100.178 36.4146 100.132 36.5162C99.9984 36.7911 99.9341 37.0945 99.9447 37.3999Z" fill="#051128"/>
<path d="M103.337 37.1527V35.7559H103.839V38.3435H103.337V37.9691C103.264 38.1139 103.144 38.2299 102.997 38.2986C102.854 38.3746 102.694 38.4145 102.532 38.4147C102.393 38.4243 102.253 38.4023 102.123 38.3505C101.994 38.2986 101.877 38.2181 101.783 38.1151C101.595 37.8734 101.505 37.5702 101.529 37.265V35.7671H102.03V37.2276C102.02 37.4083 102.073 37.587 102.18 37.7331C102.23 37.794 102.294 37.8423 102.366 37.8742C102.438 37.9061 102.517 37.9206 102.596 37.9166C102.786 37.9239 102.972 37.8583 103.116 37.7331C103.195 37.6597 103.256 37.5692 103.294 37.4686C103.333 37.368 103.347 37.2599 103.337 37.1527Z" fill="#051128"/>
<path d="M105.214 37.2014C105.006 37.1578 104.816 37.0535 104.667 36.9018C104.605 36.8272 104.56 36.74 104.535 36.6463C104.51 36.5526 104.505 36.4545 104.521 36.3588C104.532 36.264 104.564 36.1727 104.613 36.0912C104.663 36.0097 104.73 35.9401 104.809 35.887C104.988 35.7613 105.202 35.6957 105.42 35.6998C105.637 35.6927 105.851 35.7557 106.03 35.8795C106.117 35.9437 106.187 36.0265 106.237 36.1218C106.287 36.2171 106.315 36.3225 106.319 36.43H105.835C105.829 36.3869 105.814 36.3456 105.791 36.3088C105.768 36.272 105.737 36.2405 105.701 36.2165C105.621 36.1638 105.527 36.1364 105.431 36.1379C105.342 36.1367 105.254 36.1586 105.176 36.2015C105.144 36.2188 105.115 36.2427 105.091 36.2717C105.068 36.3007 105.051 36.3342 105.042 36.3701C105.017 36.4364 105.017 36.5096 105.042 36.576C105.076 36.6281 105.121 36.6725 105.173 36.7067C105.225 36.7408 105.283 36.7639 105.345 36.7745L105.719 36.8681C105.904 36.8876 106.075 36.9751 106.199 37.1135C106.323 37.2519 106.391 37.4314 106.39 37.6171C106.392 37.7272 106.366 37.836 106.316 37.934C106.266 38.032 106.192 38.1161 106.101 38.1788C105.892 38.3253 105.641 38.4001 105.386 38.3923C105.147 38.3939 104.914 38.3132 104.727 38.1638C104.633 38.0941 104.556 38.0032 104.504 37.8985C104.451 37.7938 104.424 37.6781 104.424 37.5609H104.884C104.892 37.6233 104.915 37.6827 104.952 37.7338C104.988 37.7848 105.037 37.8258 105.094 37.853C105.218 37.9263 105.363 37.9577 105.506 37.9429C105.608 37.9394 105.707 37.9026 105.787 37.838C105.821 37.8092 105.848 37.7736 105.867 37.7337C105.887 37.6937 105.897 37.6502 105.899 37.6058C105.903 37.5656 105.896 37.5252 105.881 37.488C105.865 37.4507 105.841 37.4179 105.809 37.3924C105.733 37.337 105.646 37.2975 105.555 37.2763L105.214 37.2014Z" fill="#051128"/>
<path d="M107.704 35.7557H108.251V36.1826H107.704V38.3434H107.198V36.1826H106.734V35.7557H107.198V34.7783H107.704V35.7557Z" fill="#051128"/>
<path d="M85.6323 11.0888C85.3189 10.312 84.7804 9.64667 84.0862 9.17812C83.3919 8.70958 82.5734 8.45923 81.7358 8.45923C80.8982 8.45923 80.0797 8.70958 79.3854 9.17812C78.6911 9.64667 78.1527 10.312 77.8393 11.0888L69.6569 31.4643H75.334L76.8657 27.154H86.6022L88.1263 31.4643H93.8034L85.6323 11.0888ZM78.3524 22.986L81.7526 13.4218L85.1229 22.986H78.3524Z" fill="#051128"/>
</g>
<defs>
<clipPath id="clip0_2732_33830">
<rect width="111.921" height="37.9238" fill="white" transform="translate(1.84993 2.02271)"/>
</clipPath>
</defs>
</svg>
