<svg width="24" height="24" viewBox="0 0 24 24" fill="none" xmlns="http://www.w3.org/2000/svg">
<path d="M19.7385 6.98285C19.0466 6.32413 18.0434 6.10991 17.1428 6.42859C16.8881 6.5137 16.7026 6.73448 16.6628 7L16.4628 8.37431C16.1595 10.4501 14.3834 11.9916 12.2856 12H9.42843C9.10058 12.0001 8.81491 12.2233 8.73555 12.5414L6.5927 21.1129C6.49721 21.4956 6.73011 21.8833 7.11288 21.9788C7.16933 21.9928 7.22732 22 7.28551 22H10.8569C11.1848 21.9999 11.4704 21.7767 11.5498 21.4586L12.8427 16.2857H15.6284C17.7668 16.2928 19.6323 14.8353 20.1427 12.7586L20.6698 10.6457C21.0409 9.34609 20.6852 7.94741 19.7385 6.98285Z" fill="#03A9F4"/>
<path d="M17.3801 3.23569C16.6938 2.4496 15.7009 1.999 14.6573 2H6.57156C6.22609 2 5.93017 2.24723 5.8687 2.58714L3.01154 18.3014C2.94129 18.6896 3.1991 19.0612 3.58729 19.1314C3.62921 19.139 3.6718 19.1428 3.71439 19.1428H8.00011C8.32796 19.1427 8.61363 18.9195 8.69299 18.6014L9.98727 13.4285H12.2858C15.0955 13.4175 17.4741 11.3518 17.8787 8.57141L18.2358 6.12996C18.3831 5.08685 18.0709 4.0311 17.3801 3.23569Z" fill="#283593"/>
</svg>
