<svg width="12" height="11" viewBox="0 0 12 11" fill="none" xmlns="http://www.w3.org/2000/svg">
<path d="M4.82172 4.92956C5.22727 5.64204 5.81731 6.23208 6.52979 6.63763L6.91186 6.10256C6.9733 6.01653 7.06415 5.956 7.16721 5.93242C7.27027 5.90885 7.37839 5.92386 7.47113 5.97463C8.0824 6.30869 8.75746 6.5096 9.45192 6.56416C9.56031 6.57275 9.66147 6.62187 9.73525 6.70174C9.80903 6.7816 9.84999 6.88634 9.84998 6.99507V8.92356C9.85 9.03057 9.81033 9.13378 9.73863 9.21323C9.66693 9.29267 9.56831 9.34269 9.46186 9.3536C9.23279 9.37737 9.002 9.38904 8.76947 9.38904C5.06981 9.38904 2.07031 6.38955 2.07031 2.68988C2.07031 2.45736 2.08198 2.22656 2.10575 1.99749C2.11667 1.89104 2.16669 1.79242 2.24613 1.72073C2.32557 1.64903 2.42878 1.60935 2.5358 1.60938H4.46429C4.57301 1.60936 4.67775 1.65033 4.75762 1.7241C4.83748 1.79788 4.88661 1.89905 4.8952 2.00743C4.94975 2.7019 5.15066 3.37695 5.48472 3.98822C5.53549 4.08096 5.55051 4.18909 5.52693 4.29215C5.50336 4.39521 5.44283 4.48605 5.35679 4.5475L4.82172 4.92956ZM3.7317 4.64561L4.55289 4.05911C4.31984 3.55606 4.16017 3.02218 4.07876 2.47378H2.93904C2.93645 2.54553 2.93515 2.61771 2.93515 2.68988C2.93472 5.9124 5.54696 8.52463 8.76947 8.52463C8.84165 8.52463 8.91383 8.52334 8.98557 8.52031V7.38059C8.43717 7.29918 7.90329 7.13951 7.40025 6.90646L6.81375 7.72765C6.57762 7.6359 6.34827 7.52758 6.12741 7.4035L6.10234 7.38923C5.25461 6.90677 4.55258 6.20475 4.07012 5.35701L4.05586 5.33195C3.93177 5.11109 3.82345 4.88174 3.7317 4.64561Z" fill="#2384C1"/>
<path d="M4.82172 4.92956C5.22727 5.64204 5.81731 6.23208 6.52979 6.63763L6.91186 6.10256C6.9733 6.01653 7.06415 5.956 7.16721 5.93242C7.27027 5.90885 7.37839 5.92386 7.47113 5.97463C8.0824 6.30869 8.75746 6.5096 9.45192 6.56416C9.56031 6.57275 9.66147 6.62187 9.73525 6.70174C9.80903 6.7816 9.84999 6.88634 9.84998 6.99507V8.92356C9.85 9.03057 9.81033 9.13378 9.73863 9.21323C9.66693 9.29267 9.56831 9.34269 9.46186 9.3536C9.23279 9.37737 9.002 9.38904 8.76947 9.38904C5.06981 9.38904 2.07031 6.38955 2.07031 2.68988C2.07031 2.45736 2.08198 2.22656 2.10575 1.99749C2.11667 1.89104 2.16669 1.79242 2.24613 1.72073C2.32557 1.64903 2.42878 1.60935 2.5358 1.60938H4.46429C4.57301 1.60936 4.67775 1.65033 4.75762 1.7241C4.83748 1.79788 4.88661 1.89905 4.8952 2.00743C4.94975 2.7019 5.15066 3.37695 5.48472 3.98822C5.53549 4.08096 5.55051 4.18909 5.52693 4.29215C5.50336 4.39521 5.44283 4.48605 5.35679 4.5475L4.82172 4.92956ZM3.7317 4.64561L4.55289 4.05911C4.31984 3.55606 4.16017 3.02218 4.07876 2.47378H2.93904C2.93645 2.54553 2.93515 2.61771 2.93515 2.68988C2.93472 5.9124 5.54696 8.52463 8.76947 8.52463C8.84165 8.52463 8.91383 8.52334 8.98557 8.52031V7.38059C8.43717 7.29918 7.90329 7.13951 7.40025 6.90646L6.81375 7.72765C6.57762 7.6359 6.34827 7.52758 6.12741 7.4035L6.10234 7.38923C5.25461 6.90677 4.55258 6.20475 4.07012 5.35701L4.05586 5.33195C3.93177 5.11109 3.82345 4.88174 3.7317 4.64561Z" fill="black" fill-opacity="0.2"/>
</svg>
