<svg width="51" height="51" viewBox="0 0 51 51" fill="none" xmlns="http://www.w3.org/2000/svg">
<g clip-path="url(#clip0_10260_90248)">
<path d="M33.5625 35.3574H14.8125" stroke="#0E354D" stroke-width="2" stroke-linecap="round" stroke-linejoin="round"/>
<path d="M8.56251 35.3574H5.43751C4.60871 35.3574 3.81385 35.0282 3.2278 34.4421C2.64175 33.8561 2.31251 33.0612 2.31251 32.2324V24.7491C2.31018 23.5161 2.6726 22.3099 3.35418 21.2824L8.56251 11.9199H24.0958C25.0906 11.9199 26.0709 12.1573 26.9554 12.6125C27.8399 13.0676 28.603 13.7272 29.1813 14.5366L35.125 22.8574H42.3313C43.8107 22.8575 45.2422 23.3825 46.371 24.3388C47.4998 25.2952 48.2527 26.621 48.4958 28.0803L49.1875 32.2324C49.1875 33.0612 48.8583 33.8561 48.2722 34.4421C47.6862 35.0282 46.8913 35.3574 46.0625 35.3574H39.8125" stroke="#0E354D" stroke-width="2" stroke-linecap="round" stroke-linejoin="round"/>
<path d="M33.5625 35.3574C33.5625 36.1862 33.8917 36.9811 34.4778 37.5671C35.0638 38.1532 35.8587 38.4824 36.6875 38.4824C37.5163 38.4824 38.3112 38.1532 38.8972 37.5671C39.4833 36.9811 39.8125 36.1862 39.8125 35.3574C39.8125 34.5286 39.4833 33.7338 38.8972 33.1477C38.3112 32.5617 37.5163 32.2324 36.6875 32.2324C35.8587 32.2324 35.0638 32.5617 34.4778 33.1477C33.8917 33.7338 33.5625 34.5286 33.5625 35.3574Z" stroke="#0368A0" stroke-width="2" stroke-linecap="round" stroke-linejoin="round"/>
<path d="M8.5625 35.3574C8.5625 36.1862 8.89174 36.9811 9.47779 37.5671C10.0638 38.1532 10.8587 38.4824 11.6875 38.4824C12.5163 38.4824 13.3112 38.1532 13.8972 37.5671C14.4833 36.9811 14.8125 36.1862 14.8125 35.3574C14.8125 34.5286 14.4833 33.7338 13.8972 33.1477C13.3112 32.5617 12.5163 32.2324 11.6875 32.2324C10.8587 32.2324 10.0638 32.5617 9.47779 33.1477C8.89174 33.7338 8.5625 34.5286 8.5625 35.3574Z" stroke="#0368A0" stroke-width="2" stroke-linecap="round" stroke-linejoin="round"/>
<path d="M35.1241 22.8574H2.60742" stroke="#0E354D" stroke-width="2" stroke-linecap="round" stroke-linejoin="round"/>
<path d="M14.8125 11.9199V22.8574" stroke="#0E354D" stroke-width="2" stroke-linecap="round" stroke-linejoin="round"/>
<path d="M8.5625 11.9199H3.875" stroke="#0E354D" stroke-width="2" stroke-linecap="round" stroke-linejoin="round"/>
</g>
<defs>
<clipPath id="clip0_10260_90248">
<rect width="50" height="50" fill="white" transform="translate(0.75 0.982422)"/>
</clipPath>
</defs>
</svg>
