<svg width="41" height="41" viewBox="0 0 41 41" fill="none" xmlns="http://www.w3.org/2000/svg">
<rect x="0.26416" y="0.0780029" width="40" height="40" rx="20" fill="#353C4D"/>
<path d="M20.2642 25.078C23.9262 25.078 27.1292 26.653 28.8712 29.003L27.0292 29.874C25.6112 28.194 23.1112 27.078 20.2642 27.078C17.4172 27.078 14.9172 28.194 13.4992 29.874L11.6582 29.002C13.4002 26.652 16.6022 25.078 20.2642 25.078ZM20.2642 10.078C21.5903 10.078 22.8621 10.6048 23.7997 11.5425C24.7374 12.4802 25.2642 13.7519 25.2642 15.078V18.078C25.2642 19.4041 24.7374 20.6759 23.7997 21.6135C22.8621 22.5512 21.5903 23.078 20.2642 23.078C18.9381 23.078 17.6664 22.5512 16.7287 21.6135C15.791 20.6759 15.2642 19.4041 15.2642 18.078V15.078C15.2642 13.7519 15.791 12.4802 16.7287 11.5425C17.6664 10.6048 18.9381 10.078 20.2642 10.078Z" fill="white"/>
</svg>
