<svg width="51" height="51" viewBox="0 0 51 51" fill="none" xmlns="http://www.w3.org/2000/svg">
<g clip-path="url(#clip0_10260_90247)">
<path d="M33.0285 43.0923C39.0419 43.0923 43.9167 38.2177 43.9167 32.2043C43.9167 26.1912 39.0419 21.3164 33.0285 21.3164C27.0154 21.3164 22.1406 26.1912 22.1406 32.2043C22.1406 38.2177 27.0154 43.0923 33.0285 43.0923Z" stroke="#0368A0" stroke-width="2.5" stroke-linecap="round" stroke-linejoin="round"/>
<path d="M48.5836 47.7584L40.7773 39.9521" stroke="#0368A0" stroke-width="2.5" stroke-linecap="round" stroke-linejoin="round"/>
<path d="M6.48633 15.318L10.1136 7.23395C10.4476 6.34395 11.0454 5.57714 11.827 5.03606C12.6086 4.49498 13.5368 4.20539 14.4874 4.20606H32.9077C33.8585 4.20481 34.7871 4.49416 35.5687 5.03531C36.3504 5.57648 36.9481 6.34362 37.2817 7.23395L40.9131 15.3221" stroke="#0E354D" stroke-width="2.5" stroke-linecap="round" stroke-linejoin="round"/>
<path d="M3.47656 28.6787V32.2043C3.47656 33.0293 3.80431 33.8206 4.38771 34.4039C4.9711 34.9875 5.76237 35.3152 6.58742 35.3152C7.41246 35.3152 8.20373 34.9875 8.78712 34.4039C9.37052 33.8206 9.69827 33.0293 9.69827 32.2043V29.0935" stroke="#0E354D" stroke-width="2.5" stroke-linecap="round" stroke-linejoin="round"/>
<path d="M44.6382 18.2056C44.092 17.2592 43.3059 16.4734 42.3592 15.9273C41.4128 15.3812 40.339 15.094 39.2461 15.0947H8.1377C6.48762 15.0947 4.9051 15.7502 3.73831 16.917C2.57152 18.0838 1.91602 19.6663 1.91602 21.3164V25.9828C1.91602 26.8078 2.24376 27.599 2.82716 28.1824C3.41056 28.7659 4.20181 29.0936 5.02685 29.0936H15.919" stroke="#0E354D" stroke-width="2.5" stroke-linecap="round" stroke-linejoin="round"/>
<path d="M8.92029 22.8718C8.49077 22.8718 8.14258 22.5237 8.14258 22.0941C8.14258 21.6646 8.49077 21.3164 8.92029 21.3164" stroke="#0E354D" stroke-width="2.5"/>
<path d="M8.91992 22.8718C9.34944 22.8718 9.69763 22.5237 9.69763 22.0941C9.69763 21.6646 9.34944 21.3164 8.91992 21.3164" stroke="#0E354D" stroke-width="2.5"/>
</g>
<defs>
<clipPath id="clip0_10260_90247">
<rect width="50" height="50" fill="white" transform="translate(0.25 0.982422)"/>
</clipPath>
</defs>
</svg>
