<svg width="18" height="18" viewBox="0 0 18 18" fill="none" xmlns="http://www.w3.org/2000/svg">
<path d="M4.00054 3.40807C4.77058 2.71828 5.67505 2.19531 6.65704 1.87207C6.93782 2.22384 7.29428 2.50779 7.69992 2.70282C8.10557 2.89785 8.54995 2.99894 9.00004 2.99857C9.45013 2.99894 9.89451 2.89785 10.3001 2.70282C10.7058 2.50779 11.0623 2.22384 11.343 1.87207C12.325 2.19531 13.2295 2.71828 13.9995 3.40807C13.8357 3.82691 13.7682 4.27727 13.8023 4.72574C13.8363 5.1742 13.9709 5.60924 14.196 5.99857C14.4207 6.38864 14.7305 6.72303 15.1022 6.97689C15.474 7.23074 15.8982 7.39752 16.3433 7.46482C16.5537 8.4765 16.5537 9.52064 16.3433 10.5323C15.4733 10.6658 14.6708 11.1773 14.196 11.9986C13.9707 12.388 13.8361 12.8232 13.8021 13.2718C13.7681 13.7204 13.8355 14.1709 13.9995 14.5898C13.2294 15.2793 12.325 15.802 11.343 16.1251C11.0622 15.7734 10.7057 15.4896 10.3 15.2947C9.89441 15.0998 9.45007 14.9989 9.00004 14.9993C8.54995 14.999 8.10557 15.1 7.69992 15.2951C7.29428 15.4901 6.93782 15.7741 6.65704 16.1258C5.67511 15.8028 4.77065 15.2801 4.00054 14.5906C4.16453 14.1716 4.23202 13.7211 4.198 13.2725C4.16398 12.8239 4.02932 12.3887 3.80404 11.9993C3.57925 11.6094 3.26947 11.2751 2.89772 11.0214C2.52597 10.7677 2.10182 10.601 1.65679 10.5338C1.44627 9.5219 1.44627 8.47749 1.65679 7.46557C2.10189 7.39827 2.52609 7.23149 2.89784 6.97764C3.26959 6.72378 3.57934 6.38939 3.80404 5.99932C4.02921 5.60999 4.1638 5.17495 4.19782 4.72649C4.23184 4.27802 4.16441 3.82766 4.00054 3.40882V3.40807ZM10.125 10.9471C10.383 10.8004 10.6094 10.6042 10.7912 10.3697C10.973 10.1351 11.1066 9.86699 11.1844 9.58063C11.2621 9.29426 11.2824 8.99535 11.2442 8.7011C11.2059 8.40684 11.1099 8.12306 10.9615 7.86608C10.8131 7.60911 10.6154 7.38402 10.3797 7.20378C10.144 7.02353 9.87494 6.89169 9.58807 6.81585C9.30119 6.74 9.00215 6.72165 8.70816 6.76185C8.41416 6.80205 8.13102 6.9 7.87504 7.05007C7.36247 7.35056 6.98957 7.84159 6.8377 8.416C6.68584 8.99042 6.76734 9.60159 7.06442 10.1161C7.3615 10.6307 7.85005 11.0068 8.42344 11.1625C8.99684 11.3182 9.60853 11.2407 10.125 10.9471Z" fill="#1C6A9B"/>
</svg>
