<svg width="12" height="11" viewBox="0 0 12 11" fill="none" xmlns="http://www.w3.org/2000/svg">
<path d="M5.96071 9.91556C3.57365 9.91556 1.63867 7.98058 1.63867 5.59352C1.63867 3.20646 3.57365 1.27148 5.96071 1.27148C8.34777 1.27148 10.2827 3.20646 10.2827 5.59352C10.2827 7.98058 8.34777 9.91556 5.96071 9.91556ZM5.96071 9.05115C6.87773 9.05115 7.75719 8.68687 8.40562 8.03843C9.05405 7.39 9.41834 6.51054 9.41834 5.59352C9.41834 4.6765 9.05405 3.79704 8.40562 3.14861C7.75719 2.50018 6.87773 2.13589 5.96071 2.13589C5.04369 2.13589 4.16423 2.50018 3.5158 3.14861C2.86736 3.79704 2.50308 4.6765 2.50308 5.59352C2.50308 6.51054 2.86736 7.39 3.5158 8.03843C4.16423 8.68687 5.04369 9.05115 5.96071 9.05115ZM6.39291 5.59352H8.12173V6.45793H5.52851V3.4325H6.39291V5.59352Z" fill="#2384C1"/>
<path d="M5.96071 9.91556C3.57365 9.91556 1.63867 7.98058 1.63867 5.59352C1.63867 3.20646 3.57365 1.27148 5.96071 1.27148C8.34777 1.27148 10.2827 3.20646 10.2827 5.59352C10.2827 7.98058 8.34777 9.91556 5.96071 9.91556ZM5.96071 9.05115C6.87773 9.05115 7.75719 8.68687 8.40562 8.03843C9.05405 7.39 9.41834 6.51054 9.41834 5.59352C9.41834 4.6765 9.05405 3.79704 8.40562 3.14861C7.75719 2.50018 6.87773 2.13589 5.96071 2.13589C5.04369 2.13589 4.16423 2.50018 3.5158 3.14861C2.86736 3.79704 2.50308 4.6765 2.50308 5.59352C2.50308 6.51054 2.86736 7.39 3.5158 8.03843C4.16423 8.68687 5.04369 9.05115 5.96071 9.05115ZM6.39291 5.59352H8.12173V6.45793H5.52851V3.4325H6.39291V5.59352Z" fill="black" fill-opacity="0.2"/>
</svg>
