<svg width="51" height="51" viewBox="0 0 51 51" fill="none" xmlns="http://www.w3.org/2000/svg">
<path d="M46.81 32.6159C46.81 40.9083 36.8591 47.5423 36.8591 47.5423C36.8591 47.5423 26.9082 40.9083 26.9082 32.6159C26.9082 27.1202 31.3634 22.665 36.8591 22.665C42.355 22.665 46.81 27.1202 46.81 32.6159Z" stroke="#2384C1" stroke-width="2" stroke-linecap="round" stroke-linejoin="round"/>
<path d="M46.81 32.6159C46.81 40.9083 36.8591 47.5423 36.8591 47.5423C36.8591 47.5423 26.9082 40.9083 26.9082 32.6159C26.9082 27.1202 31.3634 22.665 36.8591 22.665C42.355 22.665 46.81 27.1202 46.81 32.6159Z" stroke="black" stroke-opacity="0.2" stroke-width="2" stroke-linecap="round" stroke-linejoin="round"/>
<path d="M36.8597 34.275C37.7755 34.275 38.5181 33.5324 38.5181 32.6165C38.5181 31.7005 37.7755 30.958 36.8597 30.958C35.9438 30.958 35.2012 31.7005 35.2012 32.6165C35.2012 33.5324 35.9438 34.275 36.8597 34.275Z" stroke="#2384C1" stroke-width="2" stroke-linecap="round" stroke-linejoin="round"/>
<path d="M36.8597 34.275C37.7755 34.275 38.5181 33.5324 38.5181 32.6165C38.5181 31.7005 37.7755 30.958 36.8597 30.958C35.9438 30.958 35.2012 31.7005 35.2012 32.6165C35.2012 33.5324 35.9438 34.275 36.8597 34.275Z" stroke="black" stroke-opacity="0.2" stroke-width="2" stroke-linecap="round" stroke-linejoin="round"/>
<path d="M30.2246 7.73926V16.0317" stroke="#0E354D" stroke-width="2" stroke-linecap="round" stroke-linejoin="round"/>
<path d="M16.957 4.42188V40.9085" stroke="#0E354D" stroke-width="2" stroke-linecap="round" stroke-linejoin="round"/>
<path d="M43.493 16.0312V8.67018C43.493 6.51226 41.465 4.92886 39.3717 5.45224L30.2252 7.73884L16.9573 4.42188L6.20192 7.11071C4.72533 7.47988 3.68945 8.8066 3.68945 10.3287V39.9771C3.68945 42.1351 5.71741 43.7186 7.81091 43.1952L16.9573 40.9085L22.7345 42.3527" stroke="#0E354D" stroke-width="2" stroke-linecap="round" stroke-linejoin="round"/>
</svg>
