<svg width="32" height="33" viewBox="0 0 32 33" fill="none" xmlns="http://www.w3.org/2000/svg">
<rect y="0.335938" width="32" height="32" rx="16" fill="black"/>
<g clip-path="url(#clip0_2732_34584)">
<g clip-path="url(#clip1_2732_34584)">
<path d="M15.989 24.5213C13.89 24.5213 11.7908 24.5213 9.69137 24.5213C8.55873 24.5213 7.81494 23.775 7.81494 22.6385C7.81494 18.4397 7.81494 14.2413 7.81494 10.0433C7.81494 8.88764 8.5549 8.15088 9.71311 8.15088H22.3122C23.4442 8.15088 24.1886 8.89787 24.1886 10.0331C24.1886 14.2319 24.1886 18.4316 24.1886 22.6321C24.1886 23.7833 23.4474 24.5239 22.2898 24.5245C20.1887 24.5233 18.0884 24.5222 15.989 24.5213ZM10.4281 10.6374C11.8991 12.7806 13.3349 14.8706 14.777 16.9689L10.4281 22.029C10.7537 22.029 10.9992 22.0431 11.2423 22.022C11.3522 22.0083 11.454 21.9567 11.5301 21.8762C12.059 21.2776 12.5764 20.6694 13.0976 20.0637L15.2081 17.6117C15.304 17.746 15.3859 17.856 15.4639 17.9685C16.3446 19.2476 17.2271 20.5267 18.1001 21.8129C18.1405 21.8851 18.2008 21.9443 18.2738 21.9834C18.3468 22.0225 18.4294 22.0399 18.512 22.0335C19.4387 22.0233 20.3667 22.0297 21.2927 22.0277C21.3784 22.0229 21.4638 22.0135 21.5485 21.9996C21.4808 21.8966 21.436 21.825 21.388 21.7553C20.0023 19.7386 18.6147 17.7225 17.2252 15.7071C17.0903 15.5152 17.0973 15.4027 17.2553 15.2255C18.4781 13.8205 19.6932 12.4045 20.9084 10.9911C20.9947 10.8907 21.074 10.7852 21.1917 10.6374C20.9698 10.6374 20.808 10.6547 20.6551 10.6336C20.35 10.5927 20.1435 10.7071 19.9516 10.9463C19.518 11.4855 19.0562 12.0022 18.6047 12.5267C17.953 13.2839 17.2994 14.0405 16.6317 14.8149C16.546 14.6973 16.4776 14.6058 16.413 14.5124C15.5752 13.2935 14.7335 12.0771 13.9034 10.853C13.8627 10.7804 13.802 10.7211 13.7285 10.6821C13.655 10.6431 13.5719 10.626 13.489 10.633C12.8821 10.6445 12.2739 10.6374 11.6676 10.6374H10.4281Z" fill="white"/>
<path d="M11.7715 11.3642C12.255 11.3642 12.67 11.3546 13.0838 11.3706C13.139 11.3751 13.1928 11.3905 13.242 11.416C13.2912 11.4415 13.3348 11.4765 13.3703 11.519C15.6326 14.7435 17.8896 17.9709 20.1412 21.201C20.1608 21.2398 20.1768 21.2803 20.1892 21.3219C19.7153 21.3219 19.2612 21.3353 18.8103 21.311C18.7176 21.3059 18.614 21.171 18.5468 21.075C16.9454 18.7906 15.3465 16.5049 13.7502 14.2178C13.1653 13.38 12.5792 12.5427 11.9921 11.7057C11.9282 11.6142 11.8693 11.5158 11.7715 11.3642Z" fill="white"/>
</g>
</g>
<defs>
<clipPath id="clip0_2732_34584">
<rect width="16" height="16" fill="white" transform="translate(8 8.33594)"/>
</clipPath>
<clipPath id="clip1_2732_34584">
<rect width="16.3711" height="16.3711" fill="white" transform="translate(7.81445 8.15039)"/>
</clipPath>
</defs>
</svg>
