<svg width="32" height="33" viewBox="0 0 32 33" fill="none" xmlns="http://www.w3.org/2000/svg">
<rect y="0.335938" width="32" height="32" rx="16" fill="#FE0000"/>
<path d="M25.543 10.8339C26 12.6159 26 16.3359 26 16.3359C26 16.3359 26 20.0559 25.543 21.8379C25.289 22.8229 24.546 23.5979 23.605 23.8599C21.896 24.3359 16 24.3359 16 24.3359C16 24.3359 10.107 24.3359 8.395 23.8599C7.45 23.5939 6.708 22.8199 6.457 21.8379C6 20.0559 6 16.3359 6 16.3359C6 16.3359 6 12.6159 6.457 10.8339C6.711 9.84894 7.454 9.07394 8.395 8.81194C10.107 8.33594 16 8.33594 16 8.33594C16 8.33594 21.896 8.33594 23.605 8.81194C24.55 9.07794 25.292 9.85194 25.543 10.8339ZM14 19.8359L20 16.3359L14 12.8359V19.8359Z" fill="white"/>
</svg>
