<svg width="18" height="18" viewBox="0 0 18 18" fill="none" xmlns="http://www.w3.org/2000/svg">
<path d="M8.17501 1.57471L15.5993 2.63596L16.6598 10.061L9.76576 16.955C9.62511 17.0956 9.43438 17.1745 9.23551 17.1745C9.03664 17.1745 8.84591 17.0956 8.70526 16.955L1.28026 9.52996C1.13966 9.38931 1.06067 9.19858 1.06067 8.99971C1.06067 8.80083 1.13966 8.6101 1.28026 8.46946L8.17501 1.57471ZM10.296 7.93921C10.4353 8.07847 10.6007 8.18894 10.7827 8.26429C10.9647 8.33964 11.1598 8.37841 11.3568 8.37837C11.5538 8.37834 11.7488 8.3395 11.9308 8.26409C12.1128 8.18867 12.2781 8.07815 12.4174 7.93883C12.5567 7.79952 12.6671 7.63413 12.7425 7.45213C12.8178 7.27012 12.8566 7.07505 12.8565 6.87807C12.8565 6.68108 12.8177 6.48603 12.7423 6.30405C12.6668 6.12207 12.5563 5.95672 12.417 5.81746C12.2777 5.67819 12.1123 5.56773 11.9303 5.49238C11.7483 5.41702 11.5532 5.37826 11.3562 5.37829C10.9584 5.37836 10.5769 5.53647 10.2956 5.81783C10.0144 6.09919 9.8564 6.48076 9.85647 6.8786C9.85654 7.27643 10.0146 7.65794 10.296 7.93921Z" fill="#1C6A9B"/>
</svg>
