<svg width="18" height="18" viewBox="0 0 18 18" fill="none" xmlns="http://www.w3.org/2000/svg">
<path d="M14.25 15H3.75V15.75C3.75 15.9489 3.67098 16.1397 3.53033 16.2803C3.38968 16.421 3.19891 16.5 3 16.5H2.25C2.05109 16.5 1.86032 16.421 1.71967 16.2803C1.57902 16.1397 1.5 15.9489 1.5 15.75V9L3.38475 3.9735C3.49195 3.68752 3.68389 3.44108 3.93492 3.26711C4.18594 3.09315 4.48409 2.99996 4.7895 3H13.2105C13.5159 2.99996 13.8141 3.09315 14.0651 3.26711C14.3161 3.44108 14.508 3.68752 14.6152 3.9735L16.5 9V15.75C16.5 15.9489 16.421 16.1397 16.2803 16.2803C16.1397 16.421 15.9489 16.5 15.75 16.5H15C14.8011 16.5 14.6103 16.421 14.4697 16.2803C14.329 16.1397 14.25 15.9489 14.25 15.75V15ZM3.102 9H14.898L13.2105 4.5H4.7895L3.102 9ZM4.875 12.75C5.17337 12.75 5.45952 12.6315 5.6705 12.4205C5.88147 12.2095 6 11.9234 6 11.625C6 11.3266 5.88147 11.0405 5.6705 10.8295C5.45952 10.6185 5.17337 10.5 4.875 10.5C4.57663 10.5 4.29048 10.6185 4.0795 10.8295C3.86853 11.0405 3.75 11.3266 3.75 11.625C3.75 11.9234 3.86853 12.2095 4.0795 12.4205C4.29048 12.6315 4.57663 12.75 4.875 12.75ZM13.125 12.75C13.4234 12.75 13.7095 12.6315 13.9205 12.4205C14.1315 12.2095 14.25 11.9234 14.25 11.625C14.25 11.3266 14.1315 11.0405 13.9205 10.8295C13.7095 10.6185 13.4234 10.5 13.125 10.5C12.8266 10.5 12.5405 10.6185 12.3295 10.8295C12.1185 11.0405 12 11.3266 12 11.625C12 11.9234 12.1185 12.2095 12.3295 12.4205C12.5405 12.6315 12.8266 12.75 13.125 12.75Z" fill="#1C6A9B"/>
</svg>
