<svg width="18" height="18" viewBox="0 0 18 18" fill="none" xmlns="http://www.w3.org/2000/svg">
<path fill-rule="evenodd" clip-rule="evenodd" d="M15 8.25C15 4.524 11.976 1.5 8.25 1.5C4.524 1.5 1.5 4.524 1.5 8.25C1.5 11.976 4.524 15 8.25 15C11.976 15 15 11.976 15 8.25ZM16.7355 15.6743L14.6138 13.5533L13.5533 14.6138L15.6743 16.7355L16.7355 15.6743ZM12 8.25C12 10.3211 10.3211 12 8.25 12C6.17887 12 4.5 10.3211 4.5 8.25C4.5 6.17888 6.17887 4.5 8.25 4.5C10.3211 4.5 12 6.17888 12 8.25ZM6.12868 10.3713C6.69129 10.9339 7.45435 11.25 8.25 11.25C9.04565 11.25 9.80871 10.9339 10.3713 10.3713C10.9339 9.80871 11.25 9.04565 11.25 8.25C11.25 7.45435 10.9339 6.69129 10.3713 6.12868C9.80871 5.56607 9.04565 5.25 8.25 5.25C7.45435 5.25 6.69129 5.56607 6.12868 6.12868C5.56607 6.69129 5.25 7.45435 5.25 8.25C5.25 9.04565 5.56607 9.80871 6.12868 10.3713ZM7.5 9H9.5625V9.75H8.625V10.5H7.875V9.75H7.5C7.25136 9.75 7.0129 9.65123 6.83709 9.47541C6.66127 9.2996 6.5625 9.06114 6.5625 8.8125C6.5625 8.56386 6.66127 8.3254 6.83709 8.14959C7.0129 7.97377 7.25136 7.875 7.5 7.875H9C9.04973 7.875 9.09742 7.85525 9.13258 7.82008C9.16775 7.78492 9.1875 7.73723 9.1875 7.6875C9.1875 7.63777 9.16775 7.59008 9.13258 7.55492C9.09742 7.51975 9.04973 7.5 9 7.5H6.9375V6.75H7.875V6H8.625V6.75H9C9.24864 6.75 9.4871 6.84877 9.66291 7.02459C9.83873 7.2004 9.9375 7.43886 9.9375 7.6875C9.9375 7.93614 9.83873 8.1746 9.66291 8.35041C9.4871 8.52623 9.24864 8.625 9 8.625H7.5C7.45027 8.625 7.40258 8.64475 7.36742 8.67992C7.33225 8.71508 7.3125 8.76277 7.3125 8.8125C7.3125 8.86223 7.33225 8.90992 7.36742 8.94508C7.40258 8.98025 7.45027 9 7.5 9Z" fill="#1C6A9B"/>
</svg>
