<svg width="18" height="18" viewBox="0 0 18 18" fill="none" xmlns="http://www.w3.org/2000/svg">
<path d="M10.629 2.25C11.0265 2.25 11.4083 2.4075 11.6895 2.6895L15.3105 6.3105C15.5917 6.59175 15.75 6.9735 15.75 7.371V12.75H17.25V14.25H11.1555C10.8217 15.5445 9.648 16.5 8.25 16.5C6.852 16.5 5.6775 15.5445 5.3445 14.25H2.25C1.836 14.25 1.5 13.914 1.5 13.5V3.75C1.5 2.92125 2.17125 2.25 3 2.25H10.629ZM8.25 12C7.42125 12 6.75 12.6713 6.75 13.5C6.75 14.3287 7.42125 15 8.25 15C9.07875 15 9.75 14.3287 9.75 13.5C9.75 12.6713 9.07875 12 8.25 12ZM10.5 5.25H4.5V9.75H10.5V5.25ZM9 6.75V8.25H6V6.75H9Z" fill="#1C6A9B"/>
</svg>
