<svg width="18" height="18" viewBox="0 0 18 18" fill="none" xmlns="http://www.w3.org/2000/svg">
<g clip-path="url(#clip0_3801_15705)">
<g clip-path="url(#clip1_3801_15705)">
<path d="M14.8799 2.14328C16.3653 2.04237 17.0272 2.54691 17.2286 3.57617C17.4919 4.92077 17.7331 6.26941 17.9854 7.61654C18.0358 7.90059 17.9521 8.14428 17.7765 8.37335C16.4065 10.153 15.039 11.9347 13.6741 13.7185L10.6297 17.6867C10.2598 18.1685 9.78456 18.2306 9.30323 17.8612L3.58376 13.4717C3.10141 13.1014 3.03532 12.6276 3.40464 12.1463C5.78473 9.04001 8.16532 5.93406 10.5464 2.82844C10.7447 2.56961 10.9889 2.4455 11.3143 2.42178C12.663 2.3239 14.0111 2.2124 14.8799 2.14328ZM9.83451 14.0898C9.79415 13.7366 9.67205 13.4465 9.40565 13.2356C8.94299 12.8683 8.4778 12.503 7.9995 12.1569C7.77264 11.992 7.49078 11.9213 7.21296 11.9596C6.93514 11.9979 6.6829 12.1422 6.50908 12.3622C6.34208 12.5666 6.18315 12.778 6.02573 12.9894C5.88295 13.1801 5.90263 13.3279 6.09132 13.4778C6.30777 13.6493 6.52927 13.8153 6.74723 13.9823C7.36546 14.4573 7.98386 14.9317 8.60243 15.4056C8.78406 15.5439 8.95056 15.5494 9.07064 15.4006C9.2775 15.1559 9.46876 14.8984 9.64329 14.6297C9.7437 14.4722 9.77447 14.2714 9.83552 14.0898H9.83451ZM8.29264 11.0252C8.54793 10.6912 8.79718 10.3693 9.04239 10.0429C9.19022 9.84863 9.18467 9.68011 9.03229 9.56255C8.87992 9.44499 8.71544 9.48283 8.5661 9.67658C8.2664 10.0647 7.96788 10.4539 7.67054 10.8441C7.51262 11.052 7.53229 11.1973 7.73714 11.3587C7.97023 11.5404 8.20535 11.719 8.43996 11.8986C9.03902 12.3584 9.63774 12.8175 10.2361 13.276C10.4178 13.4142 10.5752 13.4304 10.6902 13.2876C11.0397 12.8503 11.3803 12.4065 11.7119 11.9561C11.8128 11.8224 11.773 11.6776 11.6468 11.5686C11.5207 11.4596 11.3582 11.4758 11.2402 11.5999C11.1819 11.6658 11.1274 11.7349 11.0767 11.8067L10.4208 12.6574L9.59839 12.0252C9.78053 11.7861 9.95157 11.5711 10.1135 11.3441C10.2104 11.2079 10.1912 11.0666 10.0681 10.9536C10.0211 10.9055 9.95796 10.8765 9.89085 10.872C9.82375 10.8675 9.75734 10.8879 9.70434 10.9294C9.64587 10.9762 9.59484 11.0317 9.55298 11.0938C9.40717 11.2795 9.26489 11.4672 9.11857 11.6579L8.29264 11.0252ZM13.6201 9.41068C13.6166 9.25579 13.5247 9.16951 13.39 9.12108C12.3315 8.74166 11.272 8.36275 10.2114 7.98435C10.0671 7.93389 9.93492 7.94701 9.83704 8.07315C9.73916 8.19928 9.75732 8.33046 9.84511 8.4571C10.4865 9.38243 11.1283 10.3074 11.7704 11.2321C11.888 11.4016 12.0681 11.4384 12.2109 11.336C12.3537 11.2336 12.3759 11.0585 12.2614 10.8819C12.1388 10.6993 12.0045 10.5237 11.89 10.336C11.8762 10.3061 11.8695 10.2734 11.8705 10.2405C11.8714 10.2076 11.88 10.1753 11.8956 10.1463C12.0429 9.9349 12.2104 9.73763 12.3597 9.52723C12.4248 9.43591 12.4859 9.43187 12.5812 9.46871C12.7916 9.55095 13.0045 9.62915 13.22 9.69676C13.4354 9.76437 13.6271 9.62562 13.6211 9.41119L13.6201 9.41068ZM13.8491 8.18768C13.7644 8.1241 13.6978 8.07617 13.6347 8.02723C12.9307 7.48906 12.227 6.94953 11.5237 6.40867C11.3476 6.27446 11.168 6.28606 11.0565 6.43086C10.945 6.57567 10.9854 6.75226 11.1574 6.88495C11.3456 7.03177 11.5363 7.17607 11.726 7.32188C12.3695 7.81532 13.0131 8.30893 13.6569 8.80271C13.8491 8.94953 14 8.96114 14.1236 8.80675C14.4687 8.37385 14.8042 7.93389 15.1327 7.4899C15.1553 7.45917 15.1713 7.42414 15.1798 7.38697C15.1884 7.3498 15.1892 7.31128 15.1822 7.27379C15.1753 7.2363 15.1607 7.20062 15.1394 7.16898C15.1182 7.13733 15.0906 7.11038 15.0585 7.0898C14.9198 6.99646 14.7846 7.01058 14.665 7.12764C14.6265 7.16915 14.5908 7.21314 14.558 7.25932C14.3275 7.56558 14.0944 7.86931 13.8502 8.18818L13.8491 8.18768ZM15.724 4.58324C15.7225 4.37696 15.6407 4.17939 15.4959 4.03244C15.3511 3.8855 15.1548 3.80074 14.9485 3.79615C14.739 3.79614 14.5379 3.8789 14.3891 4.0264C14.2403 4.1739 14.1558 4.37421 14.1539 4.58374C14.1556 4.78997 14.2375 4.98743 14.3824 5.1342C14.5273 5.28097 14.7237 5.36549 14.9299 5.36981C15.1395 5.37089 15.341 5.28871 15.4901 5.14132C15.6392 4.99393 15.7237 4.79338 15.725 4.58374L15.724 4.58324Z" fill="#1C6A9B"/>
<path d="M14.6343 1.55692L11.708 1.78598C11.5132 1.80112 11.3184 1.8102 11.1247 1.83139C10.6797 1.88184 10.3396 2.10233 10.0692 2.45601C8.45921 4.55995 6.84014 6.65934 5.23722 8.76732C5.09544 8.95349 4.95518 9.01959 4.7241 9.01706C3.47183 9.00496 2.21855 8.99587 0.966277 9.01706C0.377478 9.02715 -0.00546957 8.61696 -0.00143324 8.04481C0.0162257 5.65278 0.00563156 3.26025 0.0061361 0.867717C0.0061361 0.233509 0.336609 -0.0964607 0.972835 -0.0969652C4.86285 -0.0969652 8.75302 -0.0978055 12.6434 -0.0994873C12.9809 -0.0994873 13.2488 0.00394322 13.4744 0.262773C13.8442 0.691128 14.2281 1.10536 14.6343 1.55692ZM6.28717 2.14875C6.20846 2.06449 6.1469 1.95298 6.05356 1.90859C5.90674 1.83896 5.77707 1.90859 5.68071 2.04279C4.60233 3.54633 3.52346 5.04919 2.44408 6.55137C2.3129 6.73452 2.33257 6.90859 2.48646 7.01555C2.64034 7.12251 2.80281 7.08215 2.93752 6.89496C4.01387 5.3985 5.08922 3.90085 6.16355 2.40203C6.21098 2.32078 6.2523 2.23612 6.28717 2.14875ZM2.99705 2.11242C2.79065 2.11067 2.59195 2.19075 2.44445 2.33513C2.29694 2.47952 2.21263 2.67646 2.20997 2.88285C2.2097 2.98664 2.22994 3.08947 2.26952 3.18542C2.30911 3.28136 2.36725 3.36855 2.44062 3.44196C2.51398 3.51538 2.60113 3.57358 2.69705 3.61322C2.79298 3.65286 2.89579 3.67316 2.99958 3.67297C3.20592 3.67032 3.40299 3.5868 3.54838 3.44037C3.69378 3.29393 3.7759 3.09628 3.77707 2.88992C3.77588 2.68379 3.69318 2.4865 3.54704 2.34111C3.40091 2.19573 3.20319 2.11406 2.99705 2.11393V2.11242ZM4.83459 6.00092C4.8304 6.10296 4.8464 6.20483 4.88166 6.30068C4.91693 6.39653 4.97077 6.48448 5.0401 6.55948C5.10942 6.63448 5.19287 6.69505 5.28566 6.73773C5.37845 6.78041 5.47875 6.80435 5.58081 6.80818C5.68447 6.81216 5.7879 6.79554 5.88509 6.75928C5.98229 6.72302 6.07133 6.66784 6.14707 6.59694C6.2228 6.52604 6.28372 6.44083 6.3263 6.34623C6.36888 6.25163 6.39228 6.14952 6.39514 6.04582C6.40029 5.8399 6.32346 5.64037 6.18155 5.49107C6.03963 5.34178 5.84424 5.25494 5.63833 5.24966C5.53584 5.24513 5.43348 5.26113 5.33726 5.29672C5.24104 5.3323 5.15291 5.38676 5.07803 5.45689C5.00315 5.52702 4.94305 5.6114 4.90124 5.70509C4.85944 5.79877 4.83678 5.89987 4.83459 6.00243V6.00092Z" fill="#1C6A9B"/>
<path d="M8.79114 14.7872L6.66147 13.154C6.77398 13.0087 6.87136 12.871 6.98135 12.7443C7.16702 12.5299 7.43089 12.485 7.65693 12.6515C8.11808 12.9905 8.57216 13.3397 9.01919 13.6949C9.221 13.8563 9.2533 14.1202 9.12262 14.3427C9.09624 14.3855 9.06743 14.4268 9.03634 14.4663C8.95662 14.5708 8.8764 14.6737 8.79114 14.7872Z" fill="#1C6A9B"/>
<path d="M10.9228 8.88141L11.8486 9.21239L11.4586 9.72349L10.8971 8.91622L10.9228 8.88141Z" fill="#1C6A9B"/>
</g>
</g>
<defs>
<clipPath id="clip0_3801_15705">
<rect width="18" height="18" fill="white"/>
</clipPath>
<clipPath id="clip1_3801_15705">
<rect width="18" height="18.1963" fill="white" transform="translate(0 -0.0981445)"/>
</clipPath>
</defs>
</svg>
