<svg width="32" height="22" viewBox="0 0 32 22" fill="none" xmlns="http://www.w3.org/2000/svg">
<g clip-path="url(#clip0_1134_5114)">
<path d="M0 0H32V21.3333H0V0Z" fill="#10338C"/>
<path d="M13.8603 10.648C13.879 10.6292 13.8915 10.6105 13.9102 10.5918C13.8978 10.6105 13.879 10.6292 13.8603 10.648ZM11.727 13.2616L12.4132 14.6901L13.9539 14.3345L13.2677 15.7567L14.5091 16.7423L12.9621 17.0916L12.9683 18.676L11.727 17.6842L10.4919 18.676L10.4982 17.0916L8.95117 16.7423L10.1925 15.7567L9.5001 14.3345L11.0471 14.6901L11.727 13.2616ZM24.0716 15.0394L24.396 15.7193L25.1321 15.5509L24.8015 16.2308L25.3941 16.6986L24.658 16.8608V17.6218L24.0716 17.1478L23.479 17.6218L23.4853 16.8608L22.7492 16.6986L23.3418 16.2308L23.0112 15.5509L23.7473 15.7193L24.0716 15.0394ZM21.0401 7.80351L21.3644 8.48343L22.1005 8.31501L21.7699 8.99493L22.3625 9.46277L21.6264 9.63119V10.386L21.0401 9.91189L20.4475 10.386L20.4537 9.63119L19.7114 9.46277L20.304 8.99493L19.9734 8.31501L20.7095 8.48343L21.0401 7.80351ZM24.0716 3.67407L24.396 4.35399L25.1321 4.18557L24.8015 4.8655L25.3941 5.33333L24.658 5.50175V6.25653L24.0716 5.78245L23.479 6.25653L23.4853 5.50175L22.7492 5.33333L23.3418 4.8655L23.0112 4.18557L23.7473 4.35399L24.0716 3.67407ZM26.7227 6.77427L27.0471 7.45419L27.7831 7.28577L27.4525 7.96569L28.0451 8.43353L27.3091 8.59571V9.35672L26.7227 8.88265L26.1301 9.35672V8.59571L25.3941 8.43353L25.9867 7.96569L25.656 7.28577L26.3921 7.45419L26.7227 6.77427ZM24.8264 10.386L25.0822 11.1782H25.9118L25.2381 11.6647L25.5001 12.4569L24.8264 11.9641L24.1527 12.4569L24.4085 11.6647L23.741 11.1782H24.5707L24.8264 10.386Z" fill="white"/>
<path d="M15.8941 0V1.90877L13.0808 3.47446H15.8941V7.17349H12.2076L15.8941 9.21949V10.648H14.2286L9.64381 8.09669V10.648H6.17559V7.61637L0.723734 10.648H-0.074707V8.73918L2.74479 7.17349H-0.074707V3.47446H3.61184L-0.074707 1.42222V0H1.59079L6.17559 2.54503V0H9.64381V3.03158L15.1019 0H15.8941Z" fill="white"/>
<path d="M8.90775 0H6.91165V4.32281H-0.074707V6.31891H6.91165V10.648H8.90775V6.31891H15.8941V4.32281H8.90775V0Z" fill="#D80027"/>
<path d="M9.64355 7.17349L15.8938 10.648V9.66238L11.4151 7.17349H9.64355Z" fill="#0052B4"/>
<path d="M9.64355 7.17349L15.8938 10.648V9.66238L11.4151 7.17349H9.64355Z" fill="white"/>
<path d="M9.64381 7.17349L15.8941 10.648V9.66238L11.4154 7.17349H9.64381ZM4.41028 7.17349L-0.074707 9.66238V10.648L6.17559 7.17349H4.41028Z" fill="#D80027"/>
<path d="M6.17559 3.47446L-0.074707 0V0.979337L4.41028 3.47446H6.17559Z" fill="#0052B4"/>
<path d="M6.17559 3.47446L-0.074707 0V0.979337L4.41028 3.47446H6.17559Z" fill="white"/>
<path d="M6.17559 3.47446L-0.074707 0V0.979337L4.41028 3.47446H6.17559ZM11.4154 3.47446L15.8941 0.979337V0L9.64381 3.47446H11.4154Z" fill="#D80027"/>
</g>
<defs>
<clipPath id="clip0_1134_5114">
<rect width="32" height="21.3333" fill="white"/>
</clipPath>
</defs>
</svg>
