<svg width="58" height="38" viewBox="0 0 58 38" fill="none" xmlns="http://www.w3.org/2000/svg">
<g clip-path="url(#clip0_1278_7373)">
<rect width="56.4444" height="37.0417" transform="translate(0.61377 0.819336)" fill="white"/>
<g clip-path="url(#clip1_1278_7373)">
<path d="M0.61377 0.819336H57.0582V38.4489H0.61377V0.819336Z" fill="white"/>
<path d="M16.2047 17.8407C16.2047 17.8407 16.2268 25.2236 24.4239 25.0256L24.919 26.555H25.8982C25.8982 26.555 25.084 22.0328 32.5109 21.9888C32.5109 21.9888 32.5109 18.952 35.5477 18.952H40.1139C40.1139 18.952 32.852 13.2526 46.5945 5.96871L46.7926 4.52734C46.7926 4.52734 32.4999 12.3393 24.908 10.8209C24.908 10.8209 26.0853 15.4971 23.7197 15.4971C22.5314 15.4971 22.6524 14.6059 20.1658 14.6059C18.1082 14.6059 18.2623 16.7735 17.272 16.7515C16.2928 16.7295 15.2035 15.3981 15.1155 15.6292C15.0385 15.8602 16.2047 17.8407 16.2047 17.8407Z" fill="#DB7D00"/>
<path d="M26.7124 34.7188C27.4716 34.1686 28.1428 33.9926 29.177 33.8055C30.2113 33.6185 31.3116 33.3214 31.8837 33.1674C32.4559 33.0133 29.9362 33.8936 29.2981 34.0806C28.6599 34.2567 26.7124 34.7188 26.7124 34.7188ZM30.8825 33.1014C30.6734 31.792 31.1906 30.4277 32.3679 29.8775C32.6429 30.8238 31.7957 32.4302 30.8825 33.1014ZM32.885 32.4192C32.2468 31.3409 33.3251 29.9326 34.1063 29.2504C34.4694 29.9106 33.8312 31.8581 32.885 32.4192ZM34.7445 31.583C34.0623 30.6587 34.8655 29.0303 35.7127 28.3922C36.0538 29.2944 35.7237 30.9448 34.7445 31.583ZM36.6039 30.4167C35.9878 29.5365 36.4169 28.1721 37.2971 27.2919C37.9353 28.0181 37.3961 29.6025 36.6039 30.4167ZM38.0893 29.2394C37.5722 28.4142 38.2103 26.4447 39.0356 25.8945C39.3987 26.6207 39.1236 28.6892 38.0893 29.2394ZM39.2776 28.9313C39.1236 27.743 41.1921 26.4337 42.0503 26.4667C41.9513 27.4459 41.0711 28.5132 39.2776 28.9313ZM38.1223 30.2737C39.0906 29.2724 40.9831 29.2724 41.6542 29.4814C41.4672 30.0646 39.2446 31.3409 38.1223 30.2737Z" fill="#006651"/>
<path d="M36.78 31.2749C38.1443 30.9118 39.0356 30.6037 39.8498 31.462C39.2776 32.1881 37.0551 31.9791 36.78 31.2749ZM34.8325 32.1551C36.1418 31.4509 37.7262 32.4852 37.9683 33.1014C36.5049 33.7065 34.8105 32.3092 34.8325 32.1551ZM33.039 33.1674C34.2273 32.7163 35.5917 33.3214 36.1418 33.9926C35.5037 34.2897 33.8312 34.6198 33.039 33.1674ZM31.3996 33.6845C32.764 33.5305 34.0843 34.5647 34.3704 35.1589C32.6209 35.3239 31.9498 34.8068 31.3996 33.6845ZM30.9595 34.7188C30.2003 34.1686 29.5291 33.9926 28.4949 33.8055C27.4606 33.6185 26.3603 33.3214 25.7882 33.1674C25.205 33.0133 27.7357 33.8936 28.3738 34.0806C29.012 34.2567 30.9595 34.7188 30.9595 34.7188ZM26.7894 33.1014C26.9985 31.792 26.4814 30.4277 25.3041 29.8775C25.029 30.8238 25.8762 32.4302 26.7894 33.1014ZM24.7869 32.4192C25.4251 31.3409 24.3468 29.9326 23.5656 29.2504C23.2025 29.9106 23.8407 31.8581 24.7869 32.4192ZM22.9275 31.583C23.6096 30.6587 22.8064 29.0303 21.9592 28.3922C21.6181 29.2944 21.9482 30.9448 22.9275 31.583ZM21.068 30.4167C21.6841 29.5365 21.255 28.1721 20.3748 27.2919C19.7366 28.0181 20.2758 29.6025 21.068 30.4167ZM19.5826 29.2394C20.0997 28.4142 19.4616 26.4447 18.6364 25.8945C18.2733 26.6207 18.5483 28.6892 19.5826 29.2394ZM18.3943 28.9313C18.5483 27.743 16.4798 26.4337 15.6216 26.4667C15.7206 27.4459 16.6008 28.5132 18.3943 28.9313ZM19.5496 30.2737C18.5813 29.2724 16.6889 29.2724 16.0177 29.4814C16.2047 30.0646 18.4273 31.3409 19.5496 30.2737Z" fill="#006651"/>
<path d="M20.8921 31.2748C19.5277 30.9117 18.6365 30.6036 17.8223 31.4618C18.3944 32.188 20.617 31.9789 20.8921 31.2748ZM22.8395 32.155C21.5302 31.4508 19.9458 32.4851 19.7037 33.1012C21.1671 33.7064 22.8616 32.309 22.8395 32.155ZM24.633 33.1672C23.4447 32.7161 22.0804 33.3213 21.5302 33.9924C22.1684 34.2895 23.8408 34.6196 24.633 33.1672ZM26.2724 33.6844C24.9081 33.5303 23.5877 34.5646 23.3017 35.1587C25.0511 35.3238 25.7223 34.8067 26.2724 33.6844Z" fill="#006651"/>
</g>
</g>
<defs>
<clipPath id="clip0_1278_7373">
<rect width="56.4444" height="37.0417" fill="white" transform="translate(0.61377 0.819336)"/>
</clipPath>
<clipPath id="clip1_1278_7373">
<rect width="56.4444" height="37.6296" fill="white" transform="translate(0.61377 0.819336)"/>
</clipPath>
</defs>
</svg>
