<svg width="57" height="38" viewBox="0 0 57 38" fill="none" xmlns="http://www.w3.org/2000/svg">
<g clip-path="url(#clip0_1278_7384)">
<rect width="56.4444" height="37.0417" transform="translate(0.54541 0.819336)" fill="white"/>
<g clip-path="url(#clip1_1278_7384)">
<path d="M0.54541 0.819336H56.9899V38.4489H0.54541V0.819336Z" fill="white"/>
<path d="M0.54541 24.5459H23.8618V38.4475H0.54541V24.5459Z" fill="#D80027"/>
<path d="M0.54541 0.819336H23.8618V14.732H0.54541V0.819336Z" fill="#0052B4"/>
<path d="M33.6733 0.819336H56.9897V14.732H33.6733V0.819336Z" fill="#D80027"/>
<path d="M33.6733 24.5459H56.9897V38.4475H33.6733V24.5459Z" fill="#0052B4"/>
<path d="M28.7672 15.1523H23.2661V20.5983C23.2661 20.5983 25.4159 21.2598 28.7672 21.2598V15.1523Z" fill="#0052B4"/>
<path fill-rule="evenodd" clip-rule="evenodd" d="M22.9912 14.8774H29.0425V21.535H28.7674C27.0738 21.535 25.6827 21.3679 24.7132 21.2003C24.2284 21.1165 23.8488 21.0325 23.5893 20.9691C23.4595 20.9374 23.3597 20.9108 23.2918 20.892C23.2578 20.8826 23.2318 20.8752 23.214 20.87C23.2051 20.8673 23.1983 20.8653 23.1935 20.8639L23.1879 20.8622L23.1862 20.8617L23.1855 20.8615C23.1855 20.8614 23.1854 20.8614 23.2663 20.5985L23.1854 20.8614L22.9912 20.8017V14.8774ZM23.5414 20.3895C23.5915 20.4027 23.6511 20.4179 23.7198 20.4347C23.9681 20.4953 24.3354 20.5767 24.8069 20.6582C25.6975 20.8122 26.959 20.9666 28.4923 20.9834V15.4276H23.5414V20.3895Z" fill="white"/>
<path d="M23.2661 20.5986V21.2601C23.2661 24.2918 25.7245 26.7612 28.7672 26.7612V21.2601C25.4159 21.2601 23.2661 20.5986 23.2661 20.5986Z" fill="#D80027"/>
<path fill-rule="evenodd" clip-rule="evenodd" d="M23.5414 20.9573V21.26C23.5414 24.0481 25.7302 26.3357 28.4923 26.4789V21.5336C26.9229 21.5168 25.6297 21.3588 24.7132 21.2003C24.2284 21.1165 23.8488 21.0325 23.5893 20.9691C23.5728 20.9651 23.5568 20.9611 23.5414 20.9573ZM23.3472 20.3356L23.3478 20.3358L23.3516 20.3369C23.3552 20.338 23.3608 20.3397 23.3685 20.3419C23.3838 20.3464 23.4072 20.3531 23.4386 20.3618C23.5013 20.3792 23.5957 20.4043 23.7198 20.4346C23.9681 20.4953 24.3354 20.5767 24.8069 20.6582C25.7502 20.8213 27.1097 20.9849 28.7674 20.9849H29.0425V27.0362H28.7674C25.5724 27.0362 22.9912 24.4432 22.9912 21.26V20.2261L23.3472 20.3356Z" fill="white"/>
<path d="M28.7676 26.7612C31.7993 26.7612 34.2687 24.3028 34.2687 21.2601V20.5986C34.2687 20.5986 32.119 21.2601 28.7676 21.2601V26.7612Z" fill="#0052B4"/>
<path fill-rule="evenodd" clip-rule="evenodd" d="M34.5435 20.2261V21.26C34.5435 24.4549 31.9505 27.0362 28.7673 27.0362V26.7611H28.4922V20.9849H28.7673C30.425 20.9849 31.7845 20.8213 32.7277 20.6582C33.1993 20.5767 33.5666 20.4953 33.8149 20.4346C33.939 20.4043 34.0333 20.3792 34.0961 20.3618C34.1274 20.3531 34.1509 20.3464 34.1662 20.3419C34.1739 20.3397 34.1795 20.338 34.183 20.3369L34.1868 20.3358L34.1875 20.3356L34.1876 20.3356L34.5435 20.2261ZM29.0423 26.4789C31.7953 26.3358 33.9933 24.0578 33.9933 21.26V20.9573C33.9778 20.9611 33.9618 20.9651 33.9454 20.9691C33.6859 21.0325 33.3063 21.1165 32.8215 21.2003C31.905 21.3588 30.6118 21.5168 29.0423 21.5336V26.4789Z" fill="white"/>
<path d="M28.7676 15.1523V21.2598C32.119 21.2598 34.2687 20.5983 34.2687 20.5983V15.1523H28.7676Z" fill="#D80027"/>
<path fill-rule="evenodd" clip-rule="evenodd" d="M28.4922 14.8774H34.5435V20.8017L34.3493 20.8614L34.2684 20.5985C34.3493 20.8614 34.3492 20.8614 34.3491 20.8615L34.3484 20.8617L34.3468 20.8622L34.3412 20.8639C34.3364 20.8653 34.3296 20.8673 34.3206 20.8699C34.3028 20.8752 34.2768 20.8826 34.2429 20.892C34.1749 20.9108 34.0752 20.9374 33.9454 20.9691C33.6859 21.0325 33.3063 21.1165 32.8215 21.2003C31.852 21.3679 30.4609 21.535 28.7673 21.535H28.4922V14.8774ZM33.9933 20.3895V15.4276H29.0423V20.9834C30.5756 20.9666 31.8372 20.8122 32.7277 20.6582C33.1993 20.5767 33.5666 20.4953 33.8149 20.4346C33.8836 20.4179 33.9432 20.4027 33.9933 20.3895Z" fill="white"/>
</g>
</g>
<defs>
<clipPath id="clip0_1278_7384">
<rect width="56.4444" height="37.0417" fill="white" transform="translate(0.54541 0.819336)"/>
</clipPath>
<clipPath id="clip1_1278_7384">
<rect width="56.4444" height="37.6296" fill="white" transform="translate(0.54541 0.819336)"/>
</clipPath>
</defs>
</svg>
