<svg width="57" height="38" viewBox="0 0 57 38" fill="none" xmlns="http://www.w3.org/2000/svg">
<g clip-path="url(#clip0_1278_7403)">
<rect width="56.4444" height="37.0417" transform="translate(0.477051 0.819336)" fill="white"/>
<g clip-path="url(#clip1_1278_7403)">
<path d="M0.477051 0.819336H56.9215V38.4489H0.477051V0.819336Z" fill="#2E52B2"/>
<path d="M28.6993 0.819336V3.31107L23.6171 6.69586H28.6993V13.7521H23.6171L28.6993 17.1369V19.6397H26.2078L18.1159 14.2372V19.6397H11.0604V14.2372L2.96854 19.6397H0.477051V17.1369L5.55926 13.7521H0.477051V6.69586H5.55926L0.477051 3.31107V0.819336H2.96854L11.0604 6.21074V0.819336H18.1159V6.21074L26.2078 0.819336H28.6993Z" fill="white"/>
<path d="M16.3521 0.819336H12.8243V8.45992H0.477051V11.988H12.8243V19.6397H16.3521V11.988H28.6993V8.45992H16.3521V0.819336Z" fill="#D80027"/>
<path d="M0.477051 0.819336V2.48417L6.805 6.69586H9.2965L0.477051 0.819336ZM28.6993 0.819336V2.48417L22.3713 6.69586H19.8798L28.6993 0.819336Z" fill="#D80027"/>
<path d="M0.477051 0.819336V2.48417L6.805 6.69586H9.2965L0.477051 0.819336ZM28.6993 0.819336V2.48417L22.3713 6.69586H19.8798L28.6993 0.819336ZM0.477051 19.6397V17.9748L6.805 13.7521H9.2965L0.477051 19.6397ZM28.6993 19.6397V17.9748L22.3713 13.7521H19.8798L28.6993 19.6397Z" fill="#D80027"/>
<path d="M34.3325 14.8323V24.9746C34.3325 31.7656 43.2071 33.8492 43.2071 33.8492C43.2071 33.8492 52.0706 31.7545 52.0706 24.9636V14.8212L43.1961 12.2856L34.3325 14.8323Z" fill="#F3F3F3"/>
<path d="M52.0706 15.4606V11.6572H34.3325V15.4606H41.9393V23.0674H34.3325V25.603H41.9393V33.4523C42.7 33.7279 43.2071 33.8381 43.2071 33.8381C43.2071 33.8381 43.7142 33.7168 44.4749 33.4523V25.603H52.0817V23.0674H44.4749V15.4606H52.0706Z" fill="#D80027"/>
</g>
</g>
<defs>
<clipPath id="clip0_1278_7403">
<rect width="56.4444" height="37.0417" fill="white" transform="translate(0.477051 0.819336)"/>
</clipPath>
<clipPath id="clip1_1278_7403">
<rect width="56.4444" height="37.6296" fill="white" transform="translate(0.477051 0.819336)"/>
</clipPath>
</defs>
</svg>
