<svg width="24" height="16" viewBox="0 0 24 16" fill="none" xmlns="http://www.w3.org/2000/svg">
<g clip-path="url(#clip0_1187_5817)">
<path d="M0.629333 0.358521H23.3956V15.5362H0.629333V0.358521Z" fill="white"/>
<path d="M0.629333 0.358521H23.3956V4.38615H0.629333V0.358521Z" fill="black"/>
<path d="M0.629333 11.5085H23.3956V15.5357H0.629333V11.5085Z" fill="#496E2D"/>
<path d="M0.629333 5.39539H23.3956V10.5H0.629333V5.39539Z" fill="#A2001D"/>
<path d="M15.0034 2.78065L13.8659 2.25555L12.0124 6.45228L10.159 2.25555L9.02148 2.78065L11.3225 7.94712L9.02148 13.1136L10.159 13.6387L12.0124 9.442L13.8659 13.6387L15.0034 13.1136L12.7024 7.94712L15.0034 2.78065Z" fill="white"/>
<path d="M12.7851 3.27551C12.3447 2.79457 12.0124 2.51813 12.0124 2.51813C12.0124 2.51813 11.6802 2.79452 11.2398 3.27546V12.6188C11.6802 13.0998 12.0124 13.3763 12.0124 13.3763C12.0124 13.3763 12.3447 13.0999 12.7851 12.6189V3.27551Z" fill="white"/>
<path d="M9.92438 5.06722V10.827C10.3897 11.6515 10.9593 12.3274 11.386 12.7754V3.11884C10.9592 3.56687 10.3897 4.2427 9.92438 5.06722V5.06722ZM14.1006 5.06722C13.6352 4.2427 13.0657 3.56687 12.6389 3.11884V12.7755C13.0657 12.3274 13.6352 11.6516 14.1006 10.8271V5.06722Z" fill="#A2001D"/>
<path d="M14.1005 5.0672V10.827C14.5716 9.99223 14.9358 9.00514 14.9358 7.94713C14.9358 6.88912 14.5716 5.90204 14.1005 5.0672V5.0672ZM9.92435 5.0672V10.827C9.45328 9.99223 9.08911 9.00514 9.08911 7.94713C9.08911 6.88912 9.45328 5.90204 9.92435 5.0672V5.0672Z" fill="black"/>
</g>
<defs>
<clipPath id="clip0_1187_5817">
<rect width="22.7663" height="15.1775" fill="white" transform="translate(0.629333 0.358643)"/>
</clipPath>
</defs>
</svg>
