<svg width="32" height="22" viewBox="0 0 32 22" fill="none" xmlns="http://www.w3.org/2000/svg">
<g clip-path="url(#clip0_1134_2755)">
<path d="M0 0H32V21.3333H0V0Z" fill="white"/>
<path d="M0 0H32V7.11111H0V0Z" fill="#0052B4"/>
<path d="M0 14.1973H32V21.3084H0V14.1973Z" fill="#6DA544"/>
<path d="M15.2951 10.6667L15.7754 9.22572C15.9001 8.85769 16.0935 8.85146 16.2183 9.22572L16.6986 10.6667L17.9087 12.4819C18.0148 12.644 17.9898 12.8748 17.8339 12.9809C17.8339 12.9809 17.4035 13.4799 15.9937 13.4799C14.584 13.4799 14.1535 12.9809 14.1535 12.9809C14.0038 12.8561 13.9727 12.644 14.0787 12.4819L15.2951 10.6667Z" fill="black"/>
<path d="M16.0001 10.6667C15.2204 10.6667 14.5903 10.0366 14.5903 9.25691C14.5903 8.47719 15.2204 7.84717 16.0001 7.84717C16.7798 7.84717 17.4098 8.47719 17.4098 9.25691C17.4098 10.0366 16.7736 10.6667 16.0001 10.6667ZM16.0001 10.6667C16.3868 10.6667 16.705 9.6499 16.705 9.25691C16.705 8.87017 16.3868 8.55204 16.0001 8.55204C15.6133 8.55204 15.2952 8.87017 15.2952 9.25691C15.2952 9.6499 15.6071 10.6667 16.0001 10.6667Z" fill="black"/>
</g>
<defs>
<clipPath id="clip0_1134_2755">
<rect width="32" height="21.3333" fill="white"/>
</clipPath>
</defs>
</svg>
