<svg width="32" height="22" viewBox="0 0 32 22" fill="none" xmlns="http://www.w3.org/2000/svg">
<g clip-path="url(#clip0_1134_3317)">
<path d="M0 0.333344H32V21.6667H0V0.333344Z" fill="#095FAD"/>
<path d="M21.3333 0.333344H32V21.6667H21.3333V0.333344ZM0 0.333344H10.6667V21.6667H0V0.333344Z" fill="#BE1229"/>
<path d="M6.75556 10.7068H7.67875V15.3353H6.75556V10.7068ZM3.05029 10.7068H3.97349V15.3353H3.05029V10.7068Z" fill="#FFDA44"/>
<path d="M5.3646 13.9443C5.87447 13.9443 6.2878 13.5309 6.2878 13.0211C6.2878 12.5112 5.87447 12.0979 5.3646 12.0979C4.85474 12.0979 4.44141 12.5112 4.44141 13.0211C4.44141 13.5309 4.85474 13.9443 5.3646 13.9443Z" fill="#FFDA44"/>
<path d="M4.44141 14.4121H6.29404V15.3353H4.44141V14.4121ZM4.44141 10.7068H6.29404V11.63H4.44141V10.7068Z" fill="#FFDA44"/>
<path d="M5.3646 10.239C5.87447 10.239 6.2878 9.82567 6.2878 9.31581C6.2878 8.80594 5.87447 8.39261 5.3646 8.39261C4.85474 8.39261 4.44141 8.80594 4.44141 9.31581C4.44141 9.82567 4.85474 10.239 5.3646 10.239Z" fill="#FFDA44"/>
<path d="M4.75928 8.062H5.97565L5.36435 7.0889L4.75928 8.062Z" fill="#FFDA44"/>
</g>
<defs>
<clipPath id="clip0_1134_3317">
<rect width="32" height="21.3333" fill="white" transform="translate(0 0.333344)"/>
</clipPath>
</defs>
</svg>
