<svg width="32" height="22" viewBox="0 0 32 22" fill="none" xmlns="http://www.w3.org/2000/svg">
<g clip-path="url(#clip0_1041_564)">
<path d="M24.5944 5.65735L25.6889 6.83704L27.149 6.16072L26.3652 7.56616L27.4598 8.74591L25.8809 8.43479L25.0972 9.84029L24.9051 8.24254L23.3262 7.93141L24.7864 7.25516L24.5944 5.65735Z" fill="white"/>
<path d="M0 0.333862H32V21.6667H0V0.333862Z" fill="white"/>
<path d="M8 0.333252H32V21.6668H8V0.333252Z" fill="#01411C"/>
<path d="M22.6194 13.6746C20.6796 15.0762 17.9708 14.64 16.5692 12.7001C15.1675 10.7602 15.6038 8.05141 17.5437 6.64985C18.1485 6.21285 18.8281 5.95454 19.5195 5.86466C18.1893 5.66572 16.7835 5.96547 15.6072 6.81535C13.2197 8.54047 12.6827 11.8743 14.4077 14.2619C16.1328 16.6493 19.4667 17.1864 21.8543 15.4612C23.0305 14.6113 23.7565 13.3707 23.9853 12.0453C23.6828 12.6734 23.2243 13.2375 22.6194 13.6746ZM22.5363 5.8056L23.6291 6.98322L25.0867 6.3081L24.3043 7.71104L25.397 8.88879L23.8208 8.57829L23.0383 9.98141L22.8467 8.38635L21.2704 8.07579L22.7281 7.40066L22.5363 5.8056Z" fill="white"/>
</g>
<defs>
<clipPath id="clip0_1041_564">
<rect width="32" height="21.3333" fill="white" transform="translate(0 0.333374)"/>
</clipPath>
</defs>
</svg>
