<svg width="32" height="22" viewBox="0 0 32 22" fill="none" xmlns="http://www.w3.org/2000/svg">
<g clip-path="url(#clip0_1134_152)">
<path d="M0 0H32V21.3333H0V0Z" fill="white"/>
<path d="M0 0H32V1.64055H0V0ZM0 3.28109H32V4.92164H0V3.28109ZM0 6.56218H32V8.20273H0V6.56218ZM0 9.84328H32V11.4838H0V9.84328ZM0 13.1306H32V14.7712H0V13.1306ZM0 16.4117H32V18.0522H0V16.4117ZM0 19.6928H32V21.3333H0V19.6928Z" fill="#D80027"/>
<path d="M0 0H16V11.4838H0V0Z" fill="#2E52B2"/>
<path d="M2.98165 8.66433L2.73213 7.86589L2.45767 8.66433H1.63428L2.30172 9.14464L2.05221 9.94308L2.73213 9.45029L3.39334 9.94308L3.13759 9.14464L3.81751 8.66433H2.98165ZM6.49354 8.66433L6.23779 7.86589L5.9758 8.66433H5.15241L5.81985 9.14464L5.57034 9.94308L6.23779 9.45029L6.91147 9.94308L6.66196 9.14464L7.3294 8.66433H6.49354ZM10.0179 8.66433L9.74968 7.86589L9.50016 8.66433H8.65806L9.34422 9.14464L9.08223 9.94308L9.74968 9.45029L10.4358 9.94308L10.1738 9.14464L10.8413 8.66433H10.0179ZM13.5236 8.66433L13.274 7.86589L13.0121 8.66433H12.1824L12.8561 9.14464L12.6066 9.94308L13.274 9.45029L13.9477 9.94308L13.6795 9.14464L14.3657 8.66433H13.5236ZM6.23779 4.69708L5.9758 5.49552H5.15241L5.81985 5.98831L5.57034 6.77427L6.23779 6.28772L6.91147 6.77427L6.66196 5.98831L7.3294 5.49552H6.49354L6.23779 4.69708ZM2.73213 4.69708L2.45767 5.49552H1.63428L2.30172 5.98831L2.05221 6.77427L2.73213 6.28772L3.39334 6.77427L3.13759 5.98831L3.81751 5.49552H2.98165L2.73213 4.69708ZM9.74968 4.69708L9.50016 5.49552H8.65806L9.34422 5.98831L9.08223 6.77427L9.74968 6.28772L10.4358 6.77427L10.1738 5.98831L10.8413 5.49552H10.0179L9.74968 4.69708ZM13.274 4.69708L13.0121 5.49552H12.1824L12.8561 5.98831L12.6066 6.77427L13.274 6.28772L13.9477 6.77427L13.6795 5.98831L14.3657 5.49552H13.5236L13.274 4.69708ZM2.73213 1.54074L2.45767 2.32671H1.63428L2.30172 2.81949L2.05221 3.6117L2.73213 3.11891L3.39334 3.6117L3.13759 2.81949L3.81751 2.32671H2.98165L2.73213 1.54074ZM6.23779 1.54074L5.9758 2.32671H5.15241L5.81985 2.81949L5.57034 3.6117L6.23779 3.11891L6.91147 3.6117L6.66196 2.81949L7.3294 2.32671H6.49354L6.23779 1.54074ZM9.74968 1.54074L9.50016 2.32671H8.65806L9.34422 2.81949L9.08223 3.6117L9.74968 3.11891L10.4358 3.6117L10.1738 2.81949L10.8413 2.32671H10.0179L9.74968 1.54074ZM13.274 1.54074L13.0121 2.32671H12.1824L12.8561 2.81949L12.6066 3.6117L13.274 3.11891L13.9477 3.6117L13.6795 2.81949L14.3657 2.32671H13.5236L13.274 1.54074Z" fill="white"/>
</g>
<defs>
<clipPath id="clip0_1134_152">
<rect width="32" height="21.3333" fill="white"/>
</clipPath>
</defs>
</svg>
