<svg width="32" height="22" viewBox="0 0 32 22" fill="none" xmlns="http://www.w3.org/2000/svg">
<g clip-path="url(#clip0_1134_3128)">
<path d="M0 0.333344H32V21.6669H0V0.333344Z" fill="black"/>
<path d="M0 3.38728H32V6.44153H0V3.38728ZM0 15.6043H32V18.6585H0V15.6043Z" fill="#FFDA44"/>
<path d="M0 0.333344H32V3.38759H0V0.333344Z" fill="#057F44"/>
<path d="M0 6.44185H32V9.4961H0V6.44185ZM0 12.5504H32V15.6047H0V12.5504Z" fill="#D80027"/>
<path d="M0 18.6589H32V21.6669H0V18.6589Z" fill="#057F44"/>
<path d="M17.312 10.9998L6.64556 21.6662H0V0.333344H6.64556L17.312 10.9998Z" fill="white"/>
<path d="M16.0001 10.9998L5.3335 21.6664H6.64518L17.3119 10.9998L6.64518 0.33316H5.3335L16.0001 10.9998Z" fill="black"/>
<path d="M6.40407 7.66066L7.23275 10.2114H9.91507L7.74519 11.788L8.57394 14.3389L6.40407 12.7624L4.23407 14.3389L5.06294 11.788L2.89307 10.2114H5.57525L6.40407 7.66066Z" fill="#D80027"/>
<path d="M8.68389 11.2085L6.52395 10.4433C6.52395 10.4433 6.36439 8.9461 6.3547 8.89541C6.28139 8.50916 5.94201 8.21722 5.53451 8.21722C5.07351 8.21722 4.6997 8.59097 4.6997 9.05204C4.6997 9.12847 4.71082 9.20216 4.73007 9.27254L4.12451 9.88222H5.20132C5.20132 10.9998 4.36732 10.9998 4.36732 12.1129L4.82995 13.226H7.61257L8.07645 12.1129H8.0762C8.12148 12.009 8.15059 11.8987 8.16251 11.786C8.56233 11.6242 8.68389 11.2085 8.68389 11.2085Z" fill="#FFDA44"/>
</g>
<defs>
<clipPath id="clip0_1134_3128">
<rect width="32" height="21.3333" fill="white" transform="translate(0 0.333344)"/>
</clipPath>
</defs>
</svg>
