<svg width="21" height="26" viewBox="0 0 21 26" fill="none" xmlns="http://www.w3.org/2000/svg">
<path d="M19.6663 19.7781L20.1329 20.4C20.1979 20.4866 20.2375 20.5897 20.2472 20.6976C20.257 20.8055 20.2365 20.914 20.188 21.0109C20.1396 21.1077 20.0651 21.1892 19.9729 21.2462C19.8808 21.3031 19.7746 21.3333 19.6663 21.3333H0.999593C0.891261 21.3333 0.78507 21.3031 0.692917 21.2462C0.600764 21.1892 0.526292 21.1077 0.477844 21.0109C0.429397 20.914 0.408888 20.8055 0.418617 20.6976C0.428346 20.5897 0.467927 20.4866 0.532927 20.4L0.999593 19.7781V9.66665C0.999593 7.19129 1.98292 4.81732 3.73326 3.06698C5.4836 1.31664 7.85757 0.333313 10.3329 0.333313C12.8083 0.333313 15.1823 1.31664 16.9326 3.06698C18.6829 4.81732 19.6663 7.19129 19.6663 9.66665V19.7781ZM7.41626 22.5H13.2496C13.2496 23.2735 12.9423 24.0154 12.3953 24.5624C11.8483 25.1094 11.1065 25.4166 10.3329 25.4166C9.55938 25.4166 8.81751 25.1094 8.27053 24.5624C7.72355 24.0154 7.41626 23.2735 7.41626 22.5Z" fill="#353C4D"/>
</svg>
