<svg width="19" height="19" viewBox="0 0 19 19" fill="none" xmlns="http://www.w3.org/2000/svg">
<path d="M18.25 13.6949V17.2309C18.2501 17.4841 18.1542 17.7279 17.9816 17.9131C17.809 18.0983 17.5726 18.2112 17.32 18.2289C16.883 18.2589 16.526 18.2749 16.25 18.2749C7.413 18.2749 0.25 11.1119 0.25 2.2749C0.25 1.9989 0.265 1.6419 0.296 1.2049C0.313722 0.952346 0.426581 0.715913 0.611804 0.543311C0.797026 0.370709 1.04082 0.274788 1.294 0.274903H4.83C4.95404 0.274777 5.0737 0.320761 5.16573 0.403923C5.25776 0.487084 5.3156 0.601485 5.328 0.724903C5.351 0.954903 5.372 1.1379 5.392 1.2769C5.59073 2.66383 5.998 4.01273 6.6 5.2779C6.695 5.4779 6.633 5.7169 6.453 5.8449L4.295 7.3869C5.61445 10.4614 8.06455 12.9114 11.139 14.2309L12.679 12.0769C12.7419 11.9889 12.8338 11.9258 12.9385 11.8986C13.0432 11.8713 13.1542 11.8817 13.252 11.9279C14.517 12.5288 15.8656 12.935 17.252 13.1329C17.391 13.1529 17.574 13.1749 17.802 13.1969C17.9252 13.2095 18.0394 13.2675 18.1224 13.3595C18.2053 13.4515 18.2512 13.571 18.251 13.6949H18.25Z" fill="#080E1B"/>
</svg>
