<svg width="24" height="24" viewBox="0 0 24 24" fill="none" xmlns="http://www.w3.org/2000/svg">
<g clip-path="url(#clip0_569_3971)">
<path d="M18.4625 4.46345C20.0951 4.35254 20.8227 4.9071 21.0439 6.03839C21.3334 7.51628 21.5985 8.9986 21.8758 10.4793C21.9312 10.7915 21.8392 11.0593 21.6462 11.3111C20.1404 13.2672 18.6374 15.2255 17.1371 17.186L13.7909 21.5476C13.3844 22.0772 12.862 22.1454 12.333 21.7395L6.04658 16.9149C5.51642 16.5078 5.44378 15.9871 5.84971 15.458C8.46573 12.0438 11.0823 8.63001 13.6994 5.21654C13.9174 4.93205 14.1858 4.79563 14.5435 4.76957C16.0258 4.66198 17.5076 4.53943 18.4625 4.46345ZM12.917 17.5942C12.8726 17.206 12.7384 16.8871 12.4456 16.6553C11.9371 16.2516 11.4258 15.8501 10.9 15.4697C10.6507 15.2885 10.3409 15.2108 10.0355 15.2528C9.73017 15.2949 9.45293 15.4535 9.26188 15.6954C9.07833 15.92 8.90364 16.1523 8.73062 16.3847C8.57368 16.5943 8.59531 16.7568 8.80271 16.9215C9.04062 17.1101 9.28406 17.2925 9.52363 17.4761C10.2031 17.9981 10.8828 18.5196 11.5627 19.0405C11.7624 19.1924 11.9454 19.1985 12.0774 19.0349C12.3047 18.7659 12.5149 18.4829 12.7068 18.1876C12.8171 18.0145 12.851 17.7938 12.9181 17.5942H12.917ZM11.2222 14.2258C11.5028 13.8587 11.7768 13.5049 12.0463 13.1461C12.2088 12.9326 12.2027 12.7474 12.0352 12.6182C11.8677 12.489 11.6869 12.5306 11.5228 12.7435C11.1934 13.1701 10.8653 13.5979 10.5385 14.0267C10.3649 14.2552 10.3865 14.4149 10.6117 14.5924C10.8679 14.792 11.1263 14.9883 11.3842 15.1858C12.0426 15.6911 12.7007 16.1958 13.3584 16.6997C13.558 16.8516 13.731 16.8694 13.8575 16.7124C14.2416 16.2318 14.6159 15.744 14.9804 15.249C15.0914 15.102 15.0475 14.9429 14.9089 14.8231C14.7703 14.7033 14.5917 14.721 14.4619 14.8575C14.3979 14.9299 14.338 15.0058 14.2823 15.0848L13.5613 16.0198L12.6574 15.325C12.8576 15.0621 13.0456 14.8259 13.2236 14.5763C13.3301 14.4266 13.309 14.2713 13.1737 14.1471C13.122 14.0943 13.0526 14.0623 12.9789 14.0574C12.9051 14.0525 12.8321 14.075 12.7739 14.1205C12.7096 14.172 12.6535 14.2329 12.6075 14.3012C12.4472 14.5053 12.2909 14.7116 12.13 14.9212L11.2222 14.2258ZM17.0778 12.4513C17.0739 12.281 16.973 12.1862 16.8249 12.1329C15.6614 11.7159 14.4969 11.2994 13.3312 10.8835C13.1726 10.8281 13.0273 10.8425 12.9197 10.9811C12.8121 11.1198 12.8321 11.264 12.9286 11.4031C13.6336 12.4202 14.339 13.4369 15.0448 14.4532C15.174 14.6395 15.372 14.68 15.5289 14.5674C15.6858 14.4549 15.7102 14.2624 15.5844 14.0683C15.4496 13.8676 15.3021 13.6746 15.1762 13.4683C15.161 13.4354 15.1537 13.3995 15.1547 13.3633C15.1558 13.3272 15.1652 13.2917 15.1823 13.2598C15.3442 13.0274 15.5283 12.8106 15.6925 12.5794C15.764 12.479 15.8311 12.4745 15.9359 12.515C16.1672 12.6054 16.4012 12.6914 16.638 12.7657C16.8748 12.84 17.0855 12.6875 17.0789 12.4518L17.0778 12.4513ZM17.3295 11.107C17.2364 11.0371 17.1632 10.9845 17.0939 10.9307C16.3201 10.3391 15.5466 9.74614 14.7736 9.15166C14.5801 9.00415 14.3826 9.0169 14.2601 9.17606C14.1375 9.33521 14.1819 9.52931 14.371 9.67515C14.5778 9.83653 14.7875 9.99513 14.996 10.1554C15.7032 10.6978 16.4106 11.2403 17.1183 11.783C17.3295 11.9444 17.4954 11.9571 17.6312 11.7875C18.0105 11.3116 18.3793 10.8281 18.7403 10.3401C18.7651 10.3063 18.7828 10.2678 18.7921 10.2269C18.8015 10.1861 18.8024 10.1437 18.7948 10.1025C18.7871 10.0613 18.7711 10.0221 18.7477 9.98734C18.7244 9.95255 18.6941 9.92293 18.6588 9.90031C18.5063 9.79771 18.3577 9.81324 18.2263 9.9419C18.1839 9.98752 18.1447 10.0359 18.1087 10.0866C17.8553 10.4232 17.5991 10.7571 17.3306 11.1076L17.3295 11.107ZM19.3903 7.14528C19.3886 6.91855 19.2986 6.7014 19.1395 6.53989C18.9804 6.37837 18.7646 6.28522 18.5379 6.28018C18.3076 6.28017 18.0866 6.37112 17.923 6.53324C17.7595 6.69537 17.6665 6.91554 17.6645 7.14583C17.6663 7.37251 17.7564 7.58954 17.9157 7.75086C18.0749 7.91218 18.2908 8.00507 18.5174 8.00983C18.7478 8.01101 18.9693 7.92068 19.1332 7.75868C19.297 7.59668 19.3899 7.37626 19.3914 7.14583L19.3903 7.14528Z" fill="#0C1529"/>
<path d="M18.192 3.81897L14.9756 4.07074C14.7615 4.08737 14.5475 4.09735 14.3345 4.12065C13.8454 4.1761 13.4716 4.41844 13.1744 4.80718C11.4048 7.11968 9.62526 9.42718 7.86344 11.7441C7.70761 11.9487 7.55344 12.0214 7.29946 12.0186C5.92305 12.0053 4.54554 11.9953 3.16914 12.0186C2.52197 12.0297 2.10107 11.5788 2.1055 10.95C2.12491 8.32084 2.11327 5.69114 2.11382 3.06145C2.11382 2.36437 2.47705 2.00169 3.17635 2.00114C7.45196 2.00114 11.7278 2.00022 16.0037 1.99837C16.3747 1.99837 16.6692 2.11205 16.9171 2.39654C17.3236 2.86735 17.7456 3.32264 18.192 3.81897ZM9.01747 4.46946C8.93096 4.37685 8.8633 4.25429 8.76071 4.20549C8.59933 4.12896 8.45681 4.20549 8.35089 4.353C7.16563 6.00558 5.9798 7.65741 4.79343 9.3085C4.64924 9.50981 4.67087 9.70113 4.84001 9.81869C5.00915 9.93626 5.18772 9.89189 5.33578 9.68615C6.51883 8.04135 7.70077 6.39524 8.8816 4.74785C8.93373 4.65855 8.97915 4.5655 9.01747 4.46946ZM5.40122 4.42953C5.17436 4.42761 4.95596 4.51562 4.79383 4.67432C4.6317 4.83302 4.53904 5.04948 4.53612 5.27634C4.53582 5.39042 4.55807 5.50343 4.60157 5.60889C4.64508 5.71435 4.70898 5.81017 4.78963 5.89087C4.87027 5.97156 4.96605 6.03553 5.07148 6.0791C5.17691 6.12267 5.28991 6.14499 5.40399 6.14477C5.63079 6.14187 5.84739 6.05007 6.0072 5.88911C6.16701 5.72816 6.25727 5.51091 6.25856 5.2841C6.25724 5.05754 6.16635 4.84069 6.00573 4.6809C5.8451 4.5211 5.62779 4.43134 5.40122 4.4312V4.42953ZM7.42091 8.70348C7.4163 8.81564 7.43388 8.92761 7.47265 9.03296C7.51141 9.13832 7.57058 9.23498 7.64678 9.31741C7.72298 9.39985 7.8147 9.46643 7.91669 9.51333C8.01867 9.56024 8.12892 9.58656 8.24109 9.59077C8.35503 9.59514 8.46871 9.57687 8.57554 9.53702C8.68237 9.49716 8.78024 9.43652 8.86348 9.35859C8.94672 9.28066 9.01368 9.187 9.06048 9.08302C9.10728 8.97904 9.133 8.86682 9.13614 8.75284C9.1418 8.52651 9.05736 8.30719 8.90138 8.1431C8.7454 7.979 8.53064 7.88356 8.30431 7.87775C8.19166 7.87278 8.07916 7.89036 7.9734 7.92948C7.86765 7.96859 7.77077 8.02845 7.68848 8.10553C7.60618 8.18261 7.54011 8.27536 7.49417 8.37833C7.44822 8.4813 7.42331 8.59241 7.42091 8.70515V8.70348Z" fill="#0C1529"/>
<path d="M11.7705 18.3607L9.42969 16.5656C9.55335 16.4059 9.66038 16.2545 9.78127 16.1153C9.98535 15.8796 10.2754 15.8303 10.5238 16.0133C11.0307 16.3859 11.5298 16.7697 12.0211 17.1601C12.2429 17.3376 12.2784 17.6276 12.1348 17.8721C12.1058 17.9192 12.0741 17.9646 12.04 18.008C11.9524 18.1228 11.8642 18.2359 11.7705 18.3607Z" fill="#0C1529"/>
<path d="M14.1132 11.8698L15.1309 12.2336L14.7022 12.7953L14.085 11.9081L14.1132 11.8698Z" fill="#0C1529"/>
</g>
<defs>
<clipPath id="clip0_569_3971">
<rect width="19.7843" height="20" fill="white" transform="translate(2.10742 2)"/>
</clipPath>
</defs>
</svg>
