<svg width="21" height="21" viewBox="0 0 21 21" fill="none" xmlns="http://www.w3.org/2000/svg">
<path fill-rule="evenodd" clip-rule="evenodd" d="M3 9C3 4.032 7.032 0 12 0C16.968 0 21 4.032 21 9C21 13.968 16.968 18 12 18C7.032 18 3 13.968 3 9ZM0.686001 18.899L3.515 16.071L4.929 17.485L2.101 20.314L0.686001 18.899ZM7 9C7 11.7615 9.2385 14 12 14C14.7615 14 17 11.7615 17 9C17 6.2385 14.7615 4 12 4C9.2385 4 7 6.2385 7 9ZM14.8284 11.8284C14.0783 12.5786 13.0609 13 12 13C10.9391 13 9.92172 12.5786 9.17157 11.8284C8.42143 11.0783 8 10.0609 8 9C8 7.93913 8.42143 6.92172 9.17157 6.17157C9.92172 5.42143 10.9391 5 12 5C13.0609 5 14.0783 5.42143 14.8284 6.17157C15.5786 6.92172 16 7.93913 16 9C16 10.0609 15.5786 11.0783 14.8284 11.8284ZM13 10H10.25V11H11.5V12H12.5V11H13C13.3315 11 13.6495 10.8683 13.8839 10.6339C14.1183 10.3995 14.25 10.0815 14.25 9.75C14.25 9.41848 14.1183 9.10054 13.8839 8.86612C13.6495 8.6317 13.3315 8.5 13 8.5H11C10.9337 8.5 10.8701 8.47366 10.8232 8.42678C10.7763 8.37989 10.75 8.3163 10.75 8.25C10.75 8.1837 10.7763 8.12011 10.8232 8.07322C10.8701 8.02634 10.9337 8 11 8H13.75V7H12.5V6H11.5V7H11C10.6685 7 10.3505 7.1317 10.1161 7.36612C9.8817 7.60054 9.75 7.91848 9.75 8.25C9.75 8.58152 9.8817 8.89946 10.1161 9.13388C10.3505 9.3683 10.6685 9.5 11 9.5H13C13.0663 9.5 13.1299 9.52634 13.1768 9.57322C13.2237 9.62011 13.25 9.6837 13.25 9.75C13.25 9.81631 13.2237 9.87989 13.1768 9.92678C13.1299 9.97366 13.0663 10 13 10Z" fill="#0C1529"/>
</svg>
