<svg width="12" height="12" viewBox="0 0 12 12" fill="none" xmlns="http://www.w3.org/2000/svg">
<path d="M0.590332 6C1.06033 3.44 3.30383 1.5 5.99983 1.5C8.69583 1.5 10.9388 3.44 11.4093 6C10.9393 8.56 8.69583 10.5 5.99983 10.5C3.30383 10.5 1.06083 8.56 0.590332 6V6ZM5.99983 8.5C6.66287 8.5 7.29876 8.23661 7.7676 7.76777C8.23644 7.29893 8.49983 6.66304 8.49983 6C8.49983 5.33696 8.23644 4.70107 7.7676 4.23223C7.29876 3.76339 6.66287 3.5 5.99983 3.5C5.33679 3.5 4.70091 3.76339 4.23207 4.23223C3.76322 4.70107 3.49983 5.33696 3.49983 6C3.49983 6.66304 3.76322 7.29893 4.23207 7.76777C4.70091 8.23661 5.33679 8.5 5.99983 8.5ZM5.99983 7.5C5.60201 7.5 5.22048 7.34196 4.93917 7.06066C4.65787 6.77936 4.49983 6.39782 4.49983 6C4.49983 5.60218 4.65787 5.22064 4.93917 4.93934C5.22048 4.65804 5.60201 4.5 5.99983 4.5C6.39766 4.5 6.77919 4.65804 7.06049 4.93934C7.3418 5.22064 7.49983 5.60218 7.49983 6C7.49983 6.39782 7.3418 6.77936 7.06049 7.06066C6.77919 7.34196 6.39766 7.5 5.99983 7.5Z" fill="#2F2B43"/>
</svg>
