<svg width="13" height="8" viewBox="0 0 13 8" fill="none" xmlns="http://www.w3.org/2000/svg">
<path d="M4.8587 7.21968L3.79313 6.93384L4.22742 5.31204C3.57736 5.07229 2.9732 4.72289 2.44118 4.27903L1.25311 5.46765L0.472284 4.68683L1.6609 3.49876C0.989932 2.69518 0.539102 1.73115 0.352539 0.701033L1.43852 0.50293C1.85735 2.82168 3.88584 4.58088 6.32543 4.58088C8.76448 4.58088 10.7935 2.82168 11.2123 0.50293L12.2983 0.700481C12.112 1.73074 11.6614 2.69496 10.9905 3.49876L12.1786 4.68683L11.3978 5.46765L10.2097 4.27903C9.67767 4.72289 9.07351 5.07229 8.42345 5.31204L8.85774 6.93439L7.79217 7.21968L7.35734 5.59733C6.67438 5.71436 5.97649 5.71436 5.29353 5.59733L4.8587 7.21968Z" fill="#7A7493"/>
</svg>
