<svg width="14" height="15" viewBox="0 0 14 15" fill="none" xmlns="http://www.w3.org/2000/svg">
<g clip-path="url(#clip0_1202_4857)">
<path d="M3.60109 8.84184L3.1401 10.5628L1.45518 10.5984C0.951634 9.66447 0.666016 8.5959 0.666016 7.46036C0.666016 6.3623 0.933062 5.32681 1.40642 4.41504H1.40678L2.90683 4.69005L3.56395 6.1811C3.42642 6.58206 3.35145 7.01248 3.35145 7.46036C3.35151 7.94644 3.43956 8.41217 3.60109 8.84184Z" fill="#FBBB00"/>
<path d="M13.7937 6.22339C13.8697 6.62396 13.9094 7.03764 13.9094 7.46043C13.9094 7.93451 13.8595 8.39695 13.7646 8.84302C13.4422 10.3609 12.5999 11.6864 11.4331 12.6244L11.4327 12.624L9.54335 12.5276L9.27594 10.8583C10.0502 10.4043 10.6552 9.69367 10.974 8.84302H7.43311V6.22339H11.0256H13.7937Z" fill="#518EF8"/>
<path d="M11.4329 12.624L11.4333 12.6244C10.2985 13.5365 8.85697 14.0822 7.28775 14.0822C4.766 14.0822 2.57352 12.6728 1.45508 10.5985L3.60099 8.84192C4.1602 10.3344 5.59991 11.3968 7.28775 11.3968C8.01323 11.3968 8.6929 11.2007 9.27611 10.8583L11.4329 12.624Z" fill="#28B446"/>
<path d="M11.5144 2.36309L9.36919 4.11933C8.76559 3.74204 8.05209 3.52409 7.28768 3.52409C5.56163 3.52409 4.095 4.63524 3.5638 6.1812L1.40661 4.41514H1.40625C2.50832 2.29033 4.72845 0.838623 7.28768 0.838623C8.89438 0.838623 10.3676 1.41095 11.5144 2.36309Z" fill="#F14336"/>
</g>
<defs>
<clipPath id="clip0_1202_4857">
<rect width="13.2437" height="13.2437" fill="white" transform="translate(0.666016 0.838623)"/>
</clipPath>
</defs>
</svg>
