<svg width="32" height="32" viewBox="0 0 32 32" fill="none" xmlns="http://www.w3.org/2000/svg">
<path d="M21.9998 4C26.0505 4 29.3332 7.33333 29.3332 12C29.3332 21.3333 19.3332 26.6667 15.9998 28.6667C12.6665 26.6667 2.6665 21.3333 2.6665 12C2.6665 7.33333 5.99984 4 9.99984 4C12.4798 4 14.6665 5.33333 15.9998 6.66667C17.3332 5.33333 19.5198 4 21.9998 4ZM17.2452 24.8053C18.4198 24.064 19.4798 23.3267 20.4718 22.5373C24.4465 19.3773 26.6665 15.924 26.6665 12C26.6665 8.85333 24.6172 6.66667 21.9998 6.66667C20.5652 6.66667 19.0132 7.42667 17.8852 8.552L15.9998 10.4373L14.1145 8.552C12.9865 7.42667 11.4345 6.66667 9.99984 6.66667C7.41317 6.66667 5.33317 8.87467 5.33317 12C5.33317 15.9253 7.5545 19.3773 11.5265 22.5373C12.5198 23.3267 13.5798 24.064 14.7545 24.804C15.1532 25.056 15.5478 25.2973 15.9998 25.5667C16.4518 25.2973 16.8465 25.056 17.2452 24.8053Z" fill="#5D6370"/>
</svg>
