<svg width="25" height="25" viewBox="0 0 25 25" fill="none" xmlns="http://www.w3.org/2000/svg">
<g clip-path="url(#clip0_681_14285)">
<path d="M9.83 11.6001H12C13.1935 11.6001 14.3381 12.0742 15.182 12.9181C16.0259 13.762 16.5 14.9066 16.5 16.1001H9.499L9.5 17.1001H17.5V16.1001C17.4968 15.0361 17.1894 13.9951 16.614 13.1001H19.5C20.4453 13.0998 21.3712 13.3675 22.1705 13.8721C22.9698 14.3767 23.6097 15.0976 24.016 15.9511C21.651 19.0721 17.822 21.1001 13.5 21.1001C10.739 21.1001 8.4 20.5101 6.5 19.4751V10.1711C7.71661 10.3454 8.86547 10.8384 9.83 11.6001ZM5.5 19.1001C5.5 19.3653 5.39464 19.6197 5.20711 19.8072C5.01957 19.9947 4.76522 20.1001 4.5 20.1001H2.5C2.23478 20.1001 1.98043 19.9947 1.79289 19.8072C1.60536 19.6197 1.5 19.3653 1.5 19.1001V10.1001C1.5 9.83488 1.60536 9.58053 1.79289 9.39299C1.98043 9.20545 2.23478 9.1001 2.5 9.1001H4.5C4.76522 9.1001 5.01957 9.20545 5.20711 9.39299C5.39464 9.58053 5.5 9.83488 5.5 10.1001V19.1001ZM18.5 5.1001C19.2956 5.1001 20.0587 5.41617 20.6213 5.97878C21.1839 6.54139 21.5 7.30445 21.5 8.1001C21.5 8.89575 21.1839 9.65881 20.6213 10.2214C20.0587 10.784 19.2956 11.1001 18.5 11.1001C17.7044 11.1001 16.9413 10.784 16.3787 10.2214C15.8161 9.65881 15.5 8.89575 15.5 8.1001C15.5 7.30445 15.8161 6.54139 16.3787 5.97878C16.9413 5.41617 17.7044 5.1001 18.5 5.1001ZM11.5 2.1001C12.2956 2.1001 13.0587 2.41617 13.6213 2.97878C14.1839 3.54139 14.5 4.30445 14.5 5.1001C14.5 5.89575 14.1839 6.65881 13.6213 7.22142C13.0587 7.78403 12.2956 8.1001 11.5 8.1001C10.7044 8.1001 9.94129 7.78403 9.37868 7.22142C8.81607 6.65881 8.5 5.89575 8.5 5.1001C8.5 4.30445 8.81607 3.54139 9.37868 2.97878C9.94129 2.41617 10.7044 2.1001 11.5 2.1001Z" fill="#080E1B"/>
</g>
<defs>
<clipPath id="clip0_681_14285">
<rect width="24" height="24" fill="white" transform="translate(0.5 0.100098)"/>
</clipPath>
</defs>
</svg>
