<svg width="24" height="24" viewBox="0 0 24 24" fill="none" xmlns="http://www.w3.org/2000/svg">
<path d="M12 14V22H20C20 19.8783 19.1571 17.8434 17.6569 16.3431C16.1566 14.8429 14.1217 14 12 14ZM12 13C15.315 13 18 10.315 18 7C18 3.685 15.315 1 12 1C8.685 1 6 3.685 6 7C6 10.315 8.685 13 12 13ZM2.554 20.032L1.05 21.536L2.464 22.95L3.968 21.446C4.80666 21.9405 5.79688 22.1121 6.75304 21.9288C7.7092 21.7454 8.56566 21.2196 9.16187 20.4499C9.75808 19.6802 10.0531 18.7195 9.99166 17.7479C9.93021 16.7762 9.5165 15.8604 8.82807 15.1719C8.13964 14.4835 7.22376 14.0698 6.25211 14.0083C5.28047 13.9469 4.31977 14.2419 3.55009 14.8381C2.78041 15.4343 2.25461 16.2908 2.07123 17.247C1.88786 18.2031 2.05951 19.1933 2.554 20.032ZM6 20C5.46957 20 4.96086 19.7893 4.58579 19.4142C4.21071 19.0391 4 18.5304 4 18C4 17.4696 4.21071 16.9609 4.58579 16.5858C4.96086 16.2107 5.46957 16 6 16C6.53043 16 7.03914 16.2107 7.41421 16.5858C7.78929 16.9609 8 17.4696 8 18C8 18.5304 7.78929 19.0391 7.41421 19.4142C7.03914 19.7893 6.53043 20 6 20Z" fill="#0C1529"/>
</svg>
