<svg width="20" height="18" viewBox="0 0 20 18" fill="none" xmlns="http://www.w3.org/2000/svg">
<path d="M3 16H17V17C17 17.2652 17.1054 17.5196 17.2929 17.7071C17.4804 17.8946 17.7348 18 18 18H19C19.2652 18 19.5196 17.8946 19.7071 17.7071C19.8946 17.5196 20 17.2652 20 17V8L17.487 1.298C17.3441 0.916693 17.0881 0.588102 16.7534 0.356153C16.4187 0.124204 16.0212 -5.06984e-05 15.614 1.55178e-08H4.386C3.97878 -5.06984e-05 3.58125 0.124204 3.24656 0.356153C2.91186 0.588102 2.65593 0.916693 2.513 1.298L0 8V17C0 17.2652 0.105356 17.5196 0.292892 17.7071C0.480429 17.8946 0.734783 18 1 18H2C2.26522 18 2.51957 17.8946 2.70711 17.7071C2.89464 17.5196 3 17.2652 3 17V16ZM17.864 8H2.136L4.386 2H15.614L17.864 8ZM15.5 13C15.1022 13 14.7206 12.842 14.4393 12.5607C14.158 12.2794 14 11.8978 14 11.5C14 11.1022 14.158 10.7206 14.4393 10.4393C14.7206 10.158 15.1022 10 15.5 10C15.8978 10 16.2794 10.158 16.5607 10.4393C16.842 10.7206 17 11.1022 17 11.5C17 11.8978 16.842 12.2794 16.5607 12.5607C16.2794 12.842 15.8978 13 15.5 13ZM4.5 13C4.10218 13 3.72065 12.842 3.43934 12.5607C3.15804 12.2794 3 11.8978 3 11.5C3 11.1022 3.15804 10.7206 3.43934 10.4393C3.72065 10.158 4.10218 10 4.5 10C4.89782 10 5.27936 10.158 5.56066 10.4393C5.84196 10.7206 6 11.1022 6 11.5C6 11.8978 5.84196 12.2794 5.56066 12.5607C5.27936 12.842 4.89782 13 4.5 13Z" fill="#0C1529"/>
</svg>
