<svg width="25" height="25" viewBox="0 0 25 25" fill="none" xmlns="http://www.w3.org/2000/svg">
<g clip-path="url(#clip0_681_14168)">
<path d="M18.614 18.2345L12.25 24.5985L5.886 18.2345C4.62734 16.9759 3.77019 15.3722 3.42293 13.6264C3.07567 11.8806 3.25391 10.071 3.9351 8.42643C4.61629 6.7819 5.76984 5.3763 7.24988 4.38737C8.72992 3.39844 10.47 2.87061 12.25 2.87061C14.03 2.87061 15.7701 3.39844 17.2501 4.38737C18.7302 5.3763 19.8837 6.7819 20.5649 8.42643C21.2461 10.071 21.4243 11.8806 21.0771 13.6264C20.7298 15.3722 19.8727 16.9759 18.614 18.2345ZM12.25 13.8705C12.7804 13.8705 13.2891 13.6598 13.6642 13.2847C14.0393 12.9097 14.25 12.401 14.25 11.8705C14.25 11.3401 14.0393 10.8314 13.6642 10.4563C13.2891 10.0812 12.7804 9.87053 12.25 9.87053C11.7196 9.87053 11.2109 10.0812 10.8358 10.4563C10.4607 10.8314 10.25 11.3401 10.25 11.8705C10.25 12.401 10.4607 12.9097 10.8358 13.2847C11.2109 13.6598 11.7196 13.8705 12.25 13.8705Z" fill="#080E1B"/>
</g>
<defs>
<clipPath id="clip0_681_14168">
<rect width="24" height="24" fill="white" transform="translate(0.25 0.870605)"/>
</clipPath>
</defs>
</svg>
