<svg width="21" height="21" viewBox="0 0 21 21" fill="none" xmlns="http://www.w3.org/2000/svg">
<path d="M0.493 6.12938L9.74 0.585381C9.89542 0.49213 10.0733 0.442871 10.2545 0.442871C10.4357 0.442871 10.6136 0.49213 10.769 0.585381L20.007 6.13038C20.0811 6.1748 20.1425 6.23766 20.1851 6.31285C20.2276 6.38803 20.25 6.47297 20.25 6.55938V19.2754C20.25 19.5406 20.1446 19.795 19.9571 19.9825C19.7696 20.17 19.5152 20.2754 19.25 20.2754H1.25C0.984784 20.2754 0.73043 20.17 0.542893 19.9825C0.355357 19.795 0.25 19.5406 0.25 19.2754V6.55838C0.249982 6.47197 0.272358 6.38703 0.314945 6.31185C0.357533 6.23666 0.418879 6.1738 0.493 6.12938ZM16.596 7.51938L10.311 12.9584L3.897 7.51338L2.603 9.03738L10.323 15.5924L17.904 9.03238L16.596 7.51938Z" fill="#080E1B"/>
</svg>
