<svg width="41" height="41" viewBox="0 0 41 41" fill="none" xmlns="http://www.w3.org/2000/svg">
<rect x="0.448242" y="0.448242" width="40" height="40" rx="20" fill="#FFC42E"/>
<path d="M15.4486 17.9483H27.0636L27.4802 16.2817H17.1152V14.615H28.5486C28.6752 14.615 28.8002 14.6439 28.9141 14.6994C29.0279 14.755 29.1276 14.8358 29.2055 14.9356C29.2834 15.0355 29.3376 15.1518 29.3638 15.2757C29.39 15.3997 29.3877 15.5279 29.3569 15.6508L27.2736 23.9842C27.2284 24.1644 27.1244 24.3243 26.9779 24.4386C26.8315 24.5529 26.651 24.615 26.4652 24.615H14.6152C14.3942 24.615 14.1823 24.5272 14.026 24.3709C13.8697 24.2146 13.7819 24.0027 13.7819 23.7817V13.7817H12.1152V12.115H14.6152C14.8362 12.115 15.0482 12.2028 15.2045 12.3591C15.3608 12.5153 15.4486 12.7273 15.4486 12.9483V17.9483ZM15.4486 29.615C15.0065 29.615 14.5826 29.4394 14.2701 29.1268C13.9575 28.8143 13.7819 28.3904 13.7819 27.9483C13.7819 27.5063 13.9575 27.0824 14.2701 26.7698C14.5826 26.4573 15.0065 26.2817 15.4486 26.2817C15.8906 26.2817 16.3145 26.4573 16.6271 26.7698C16.9396 27.0824 17.1152 27.5063 17.1152 27.9483C17.1152 28.3904 16.9396 28.8143 16.6271 29.1268C16.3145 29.4394 15.8906 29.615 15.4486 29.615ZM25.4486 29.615C25.0065 29.615 24.5826 29.4394 24.2701 29.1268C23.9575 28.8143 23.7819 28.3904 23.7819 27.9483C23.7819 27.5063 23.9575 27.0824 24.2701 26.7698C24.5826 26.4573 25.0065 26.2817 25.4486 26.2817C25.8906 26.2817 26.3145 26.4573 26.6271 26.7698C26.9396 27.0824 27.1152 27.5063 27.1152 27.9483C27.1152 28.3904 26.9396 28.8143 26.6271 29.1268C26.3145 29.4394 25.8906 29.615 25.4486 29.615Z" fill="white"/>
</svg>
