<svg width="18" height="18" viewBox="0 0 18 18" fill="none" xmlns="http://www.w3.org/2000/svg">
<path d="M8.1665 8.03076V4.69743H9.83317V8.03076H13.1665V9.69743H9.83317V13.0308H8.1665V9.69743H4.83317V8.03076H8.1665ZM8.99984 17.1974C4.39734 17.1974 0.666504 13.4666 0.666504 8.8641C0.666504 4.2616 4.39734 0.530762 8.99984 0.530762C13.6023 0.530762 17.3332 4.2616 17.3332 8.8641C17.3332 13.4666 13.6023 17.1974 8.99984 17.1974ZM8.99984 15.5308C10.7679 15.5308 12.4636 14.8284 13.7139 13.5781C14.9641 12.3279 15.6665 10.6322 15.6665 8.8641C15.6665 7.09599 14.9641 5.40029 13.7139 4.15005C12.4636 2.89981 10.7679 2.19743 8.99984 2.19743C7.23173 2.19743 5.53604 2.89981 4.28579 4.15005C3.03555 5.40029 2.33317 7.09599 2.33317 8.8641C2.33317 10.6322 3.03555 12.3279 4.28579 13.5781C5.53604 14.8284 7.23173 15.5308 8.99984 15.5308Z" fill="#2A9FE8"/>
</svg>
