<svg width="41" height="41" viewBox="0 0 41 41" fill="none" xmlns="http://www.w3.org/2000/svg">
<rect x="0.448242" y="0.827637" width="40" height="40" rx="20" fill="#FBBC55"/>
<path d="M27.1146 29.161H13.7812V27.4943C13.7812 26.3893 14.2202 25.3295 15.0016 24.5481C15.783 23.7667 16.8428 23.3277 17.9479 23.3277H22.9479C24.053 23.3277 25.1128 23.7667 25.8942 24.5481C26.6756 25.3295 27.1146 26.3893 27.1146 27.4943V29.161ZM20.4479 21.661C19.7913 21.661 19.1411 21.5317 18.5345 21.2804C17.9279 21.0291 17.3767 20.6608 16.9124 20.1965C16.4481 19.7323 16.0798 19.1811 15.8285 18.5744C15.5772 17.9678 15.4479 17.3176 15.4479 16.661C15.4479 16.0044 15.5772 15.3542 15.8285 14.7476C16.0798 14.141 16.4481 13.5898 16.9124 13.1255C17.3767 12.6612 17.9279 12.2929 18.5345 12.0416C19.1411 11.7903 19.7913 11.661 20.4479 11.661C21.774 11.661 23.0458 12.1878 23.9835 13.1255C24.9211 14.0632 25.4479 15.3349 25.4479 16.661C25.4479 17.9871 24.9211 19.2589 23.9835 20.1965C23.0458 21.1342 21.774 21.661 20.4479 21.661Z" fill="white"/>
</svg>
