<svg width="16" height="16" viewBox="0 0 16 16" fill="none" xmlns="http://www.w3.org/2000/svg">
<path d="M12.3983 11.4628L15.6105 14.6742L14.5492 15.7355L11.3378 12.5233C10.1428 13.4812 8.6565 14.0022 7.125 14C3.399 14 0.375 10.976 0.375 7.25C0.375 3.524 3.399 0.5 7.125 0.5C10.851 0.5 13.875 3.524 13.875 7.25C13.8772 8.7815 13.3562 10.2678 12.3983 11.4628ZM10.8937 10.9062C11.8456 9.92741 12.3772 8.61532 12.375 7.25C12.375 4.349 10.0253 2 7.125 2C4.224 2 1.875 4.349 1.875 7.25C1.875 10.1503 4.224 12.5 7.125 12.5C8.49032 12.5022 9.80241 11.9706 10.7812 11.0187L10.8937 10.9062Z" fill="white"/>
</svg>
