<svg width="41" height="41" viewBox="0 0 41 41" fill="none" xmlns="http://www.w3.org/2000/svg">
<path d="M30.6661 27.9723L37.8044 35.1089L35.4461 37.4673L28.3094 30.3289C25.654 32.4576 22.3511 33.6154 18.9478 33.6106C10.6678 33.6106 3.94775 26.8906 3.94775 18.6106C3.94775 10.3306 10.6678 3.6106 18.9478 3.6106C27.2278 3.6106 33.9478 10.3306 33.9478 18.6106C33.9526 22.0139 32.7948 25.3168 30.6661 27.9723ZM27.3228 26.7356C29.4379 24.5604 30.6192 21.6446 30.6144 18.6106C30.6144 12.1639 25.3928 6.94393 18.9478 6.94393C12.5011 6.94393 7.28109 12.1639 7.28109 18.6106C7.28109 25.0556 12.5011 30.2773 18.9478 30.2773C21.9818 30.282 24.8976 29.1008 27.0728 26.9856L27.3228 26.7356ZM20.9111 12.2373C20.4196 12.4593 19.9894 12.7972 19.6572 13.222C19.3251 13.6469 19.101 14.1459 19.0042 14.6764C18.9073 15.2069 18.9406 15.753 19.1012 16.2678C19.2619 16.7826 19.545 17.2508 19.9263 17.6321C20.3076 18.0134 20.7757 18.2965 21.2905 18.4571C21.8053 18.6177 22.3514 18.651 22.8819 18.5542C23.4124 18.4574 23.9115 18.2332 24.3363 17.9011C24.7612 17.569 25.0991 17.1387 25.3211 16.6473C25.7591 18.07 25.7083 19.5983 25.1769 20.9888C24.6454 22.3794 23.6639 23.552 22.3887 24.3199C21.1134 25.0879 19.6179 25.4069 18.1403 25.2262C16.6627 25.0455 15.2881 24.3755 14.2355 23.3229C13.1829 22.2703 12.5129 20.8957 12.3322 19.4181C12.1515 17.9405 12.4705 16.4449 13.2384 15.1697C14.0064 13.8944 15.179 12.9129 16.5695 12.3815C17.96 11.85 19.4884 11.7993 20.9111 12.2373Z" fill="#2A9FE8"/>
</svg>
