<svg width="41" height="41" viewBox="0 0 41 41" fill="none" xmlns="http://www.w3.org/2000/svg">
<path d="M18.9476 3.83862L31.1109 7.63862C31.4502 7.74453 31.7467 7.95609 31.9571 8.24244C32.1676 8.52878 32.2811 8.87491 32.2809 9.23029V12.172H35.6143C36.0563 12.172 36.4802 12.3476 36.7928 12.6601C37.1053 12.9727 37.2809 13.3966 37.2809 13.8386V17.172H15.6143V13.8386C15.6143 13.3966 15.7899 12.9727 16.1024 12.6601C16.415 12.3476 16.8389 12.172 17.2809 12.172H28.9476V10.4553L18.9476 7.32862L8.94759 10.4553V22.7953C8.94735 23.8157 9.18134 24.8225 9.63153 25.7382C10.0817 26.6539 10.7361 27.454 11.5443 28.077L11.8593 28.3036L18.9476 33.1386L25.2509 28.8386H17.2809C16.8389 28.8386 16.415 28.663 16.1024 28.3505C15.7899 28.0379 15.6143 27.614 15.6143 27.172V20.5053H37.2809V27.172C37.2809 27.614 37.1053 28.0379 36.7928 28.3505C36.4802 28.663 36.0563 28.8386 35.6143 28.8386L30.2476 28.8403C29.6026 29.6903 28.8193 30.4403 27.9143 31.057L18.9476 37.172L9.98092 31.0586C8.63513 30.141 7.53384 28.9086 6.77282 27.4685C6.0118 26.0284 5.61409 24.4241 5.61426 22.7953V9.23029C5.61446 8.87519 5.72807 8.52944 5.93853 8.24343C6.14899 7.95742 6.44529 7.74611 6.78426 7.64029L18.9476 3.83862Z" fill="#2A9FE8"/>
</svg>
