<svg width="41" height="41" viewBox="0 0 41 41" fill="none" xmlns="http://www.w3.org/2000/svg">
<g clip-path="url(#clip0_878_17508)">
<path d="M15.6141 7.40015H24.6908C24.9734 7.40015 25.2515 7.47204 25.4987 7.60907C25.7459 7.74611 25.9543 7.94377 26.1041 8.18348L31.8641 17.4001H39.2108C39.3555 17.4 39.4977 17.4376 39.6235 17.5092C39.7493 17.5808 39.8542 17.6838 39.9281 17.8083C40.0019 17.9328 40.0421 18.0743 40.0446 18.219C40.0471 18.3637 40.0119 18.5065 39.9424 18.6335L33.3808 30.6618C31.9131 30.8585 30.4194 30.6599 29.0541 30.0865C27.6888 29.5132 26.5013 28.5858 25.6141 27.4001C24.8386 28.4359 23.8322 29.2765 22.6749 29.8551C21.5176 30.4338 20.2413 30.7345 18.9474 30.7335C17.6535 30.7345 16.3772 30.4338 15.2199 29.8551C14.0626 29.2765 13.0563 28.4359 12.2808 27.4001C11.4123 28.5606 10.2557 29.4739 8.92554 30.0498C7.59542 30.6257 6.13793 30.8442 4.69743 30.6835L2.63743 19.3651C2.59372 19.1249 2.60333 18.878 2.66557 18.642C2.72781 18.4059 2.84116 18.1863 2.99761 17.9989C3.15406 17.8114 3.34978 17.6606 3.57093 17.5572C3.79209 17.4537 4.03327 17.4001 4.27743 17.4001H5.61409V9.06681C5.61409 8.62479 5.78969 8.20086 6.10225 7.8883C6.41481 7.57574 6.83873 7.40015 7.28076 7.40015H8.94743V2.40015H15.6141V7.40015ZM8.94743 17.4001H27.9341L23.7674 10.7335H8.94743V17.4001ZM5.61409 34.0668C8.07454 34.0702 10.4492 33.1631 12.2808 31.5201C14.1123 33.1631 16.487 34.0702 18.9474 34.0668C21.4079 34.0702 23.7826 33.1631 25.6141 31.5201C27.4456 33.1631 29.8203 34.0702 32.2808 34.0668H35.6141V37.4001H32.2808C29.9402 37.404 27.6402 36.7887 25.6141 35.6168C23.588 36.7887 21.288 37.404 18.9474 37.4001C16.6068 37.404 14.3068 36.7887 12.2808 35.6168C10.2547 36.7887 7.95469 37.404 5.61409 37.4001H2.28076V34.0668H5.61409Z" fill="#2A9FE8"/>
</g>
<defs>
<clipPath id="clip0_878_17508">
<rect width="40" height="40" fill="white" transform="translate(0.614258 0.733398)"/>
</clipPath>
</defs>
</svg>
