<svg width="41" height="41" viewBox="0 0 41 41" fill="none" xmlns="http://www.w3.org/2000/svg">
<rect x="0.448242" y="0.241333" width="40" height="40" rx="20" fill="#2A9FE8"/>
<g clip-path="url(#clip0_1398_6725)">
<path d="M17.9479 13.5747H22.4862C22.6276 13.5747 22.7666 13.6107 22.8902 13.6792C23.0138 13.7477 23.118 13.8465 23.1929 13.9664L26.0729 18.5747H29.7462C29.8186 18.5747 29.8897 18.5934 29.9526 18.6292C30.0155 18.665 30.068 18.7166 30.1049 18.7788C30.1418 18.841 30.1619 18.9118 30.1632 18.9841C30.1644 19.0565 30.1468 19.1279 30.1121 19.1914L26.8312 25.2055C26.0974 25.3039 25.3506 25.2046 24.6679 24.9179C23.9853 24.6312 23.3915 24.1675 22.9479 23.5747C22.5602 24.0926 22.057 24.5129 21.4783 24.8022C20.8997 25.0915 20.2615 25.2419 19.6146 25.2414C18.9676 25.2419 18.3295 25.0915 17.7508 24.8022C17.1722 24.5129 16.669 24.0926 16.2812 23.5747C15.847 24.1549 15.2687 24.6116 14.6036 24.8996C13.9386 25.1875 13.2098 25.2967 12.4896 25.2164L11.4596 19.5572C11.4377 19.4371 11.4425 19.3137 11.4737 19.1956C11.5048 19.0776 11.5615 18.9678 11.6397 18.8741C11.7179 18.7803 11.8158 18.705 11.9263 18.6532C12.0369 18.6015 12.1575 18.5747 12.2796 18.5747H12.9479V14.408C12.9479 14.187 13.0357 13.9751 13.192 13.8188C13.3483 13.6625 13.5602 13.5747 13.7812 13.5747H14.6146V11.0747H17.9479V13.5747ZM14.6146 18.5747H24.1079L22.0246 15.2414H14.6146V18.5747ZM12.9479 26.908C14.1781 26.9097 15.3655 26.4562 16.2812 25.6347C17.197 26.4562 18.3844 26.9097 19.6146 26.908C20.8448 26.9097 22.0321 26.4562 22.9479 25.6347C23.8637 26.4562 25.051 26.9097 26.2812 26.908H27.9479V28.5747H26.2812C25.1109 28.5766 23.961 28.269 22.9479 27.683C21.9349 28.269 20.7849 28.5766 19.6146 28.5747C18.4443 28.5766 17.2943 28.269 16.2812 27.683C15.2682 28.269 14.1182 28.5766 12.9479 28.5747H11.2812V26.908H12.9479Z" fill="white"/>
</g>
<defs>
<clipPath id="clip0_1398_6725">
<rect width="20" height="20" fill="white" transform="translate(10.4482 10.2413)"/>
</clipPath>
</defs>
</svg>
