<svg width="25" height="25" viewBox="0 0 25 25" fill="none" xmlns="http://www.w3.org/2000/svg">
<path d="M17.45 12.0502C18.2971 11.2038 18.9128 10.1541 19.2381 9.00168C19.5634 7.84924 19.5875 6.63257 19.308 5.46817L21.803 4.39817C21.8791 4.36555 21.9621 4.35233 22.0445 4.35971C22.127 4.36708 22.2063 4.39481 22.2754 4.44041C22.3445 4.48601 22.4012 4.54805 22.4404 4.62096C22.4796 4.69388 22.5001 4.77538 22.5 4.85817V19.1002L15.5 22.1002L9.5 19.1002L3.197 21.8012C3.12091 21.8338 3.03792 21.847 2.95547 21.8396C2.87301 21.8322 2.79368 21.8045 2.72459 21.7589C2.6555 21.7133 2.59881 21.6513 2.55961 21.5784C2.52041 21.5055 2.49993 21.4239 2.5 21.3412V7.10017L5.629 5.75917C5.40884 6.88474 5.46891 8.0472 5.80391 9.14409C6.1389 10.241 6.73855 11.2386 7.55 12.0492L12.5 17.0002L17.45 12.0502ZM16.036 10.6362L12.5 14.1702L8.964 10.6352C8.26487 9.93585 7.7888 9.04493 7.59598 8.07506C7.40316 7.1052 7.50225 6.09993 7.88073 5.18638C8.25921 4.27282 8.90007 3.49201 9.72229 2.94266C10.5445 2.39331 11.5111 2.1001 12.5 2.1001C13.4889 2.1001 14.4555 2.39331 15.2777 2.94266C16.0999 3.49201 16.7408 4.27282 17.1193 5.18638C17.4977 6.09993 17.5968 7.1052 17.404 8.07506C17.2112 9.04493 16.7351 9.93585 16.036 10.6352V10.6362Z" fill="#080E1B"/>
</svg>
