<svg width="32" height="32" viewBox="0 0 32 32" fill="none" xmlns="http://www.w3.org/2000/svg">
<path d="M16.0001 22.6667C20.8827 22.6667 25.1534 24.7667 27.4761 27.9L25.0201 29.0614C23.1294 26.8214 19.7961 25.3334 16.0001 25.3334C12.2041 25.3334 8.87072 26.8214 6.98006 29.0614L4.52539 27.8987C6.84806 24.7654 11.1174 22.6667 16.0001 22.6667ZM16.0001 2.66669C17.7682 2.66669 19.4639 3.36907 20.7141 4.61931C21.9643 5.86955 22.6667 7.56524 22.6667 9.33335V13.3334C22.6666 15.0513 22.0033 16.7029 20.8152 17.9437C19.627 19.1845 18.0057 19.9188 16.2894 19.9934L16.0001 20C14.2319 20 12.5363 19.2976 11.286 18.0474C10.0358 16.7972 9.33339 15.1015 9.33339 13.3334V9.33335C9.33349 7.6154 9.99678 5.96381 11.1849 4.72298C12.3731 3.48216 13.9944 2.74791 15.7107 2.67335L16.0001 2.66669ZM16.0001 5.33335C14.9798 5.3333 13.998 5.72312 13.2557 6.42307C12.5134 7.12301 12.0666 8.08016 12.0067 9.09869L12.0001 9.33335V13.3334C11.9991 14.3746 12.4041 15.3751 13.1291 16.1224C13.8541 16.8698 14.8419 17.3049 15.8827 17.3355C16.9234 17.366 17.9351 16.9896 18.7027 16.2861C19.4703 15.5826 19.9333 14.6075 19.9934 13.568L20.0001 13.3334V9.33335C20.0001 8.27249 19.5786 7.25507 18.8285 6.50493C18.0783 5.75478 17.0609 5.33335 16.0001 5.33335Z" fill="#5D6370"/>
</svg>
