<svg width="31" height="24" viewBox="0 0 31 24" fill="none" xmlns="http://www.w3.org/2000/svg">
<path fill-rule="evenodd" clip-rule="evenodd" d="M28.5365 13.4289C28.4945 13.3554 28.4945 13.3134 28.3423 13.2976C28.2333 12.9635 28.1054 12.6358 27.9591 12.3162C27.864 12.1076 27.7181 11.9262 27.5347 11.7887C27.3513 11.6512 27.1363 11.5618 26.9094 11.5289C25.0411 11.069 23.1439 10.7359 21.2307 10.5317C19.7349 9.81794 18.2863 8.89422 16.696 8.39562C15.1058 7.89702 12.9906 7.99149 11.2167 7.99149C10.6557 8.02973 10.1138 8.21037 9.64215 8.51634C8.86974 8.87954 8.1212 9.2915 7.40108 9.74971C7.1747 9.92874 6.91385 10.0592 6.63481 10.1328C6.10997 10.2851 4.44097 10.516 3.31256 10.8624C3.15702 10.8951 3.01448 10.9727 2.90255 11.0856C2.79062 11.1984 2.7142 11.3416 2.68275 11.4974C2.60402 12.1902 2.56728 12.7676 2.5253 13.4394C2.5253 13.5338 2.26287 13.5338 2.26287 13.6493C2.26287 14.0902 2.22089 14.9404 2.50955 15.2238C2.68931 15.3333 2.89268 15.3981 3.10262 15.4128C3.42802 15.4705 3.8269 15.4915 4.18904 15.5282C4.6509 15.586 4.74538 15.6279 4.71389 15.0296V14.6465C4.71389 13.9616 4.98594 13.3048 5.4702 12.8206C5.95446 12.3363 6.61126 12.0643 7.29611 12.0643C7.98096 12.0643 8.63775 12.3363 9.12201 12.8206C9.60628 13.3048 9.87833 13.9616 9.87833 14.6465C9.88883 14.8318 9.88883 15.0175 9.87833 15.2028C9.8206 15.8589 9.76286 15.7592 10.3192 15.8379H21.3409C21.913 15.7959 21.8657 15.9114 21.745 15.355C21.7111 15.1258 21.7006 14.8936 21.7135 14.6622C21.6964 14.3223 21.7466 13.9824 21.8613 13.662C21.976 13.3415 22.1529 13.047 22.3818 12.7951C22.6107 12.5433 22.8872 12.3392 23.1953 12.1946C23.5034 12.05 23.837 11.9678 24.177 11.9525C24.517 11.9373 24.8566 11.9895 25.1764 12.106C25.4962 12.2225 25.7898 12.401 26.0403 12.6314C26.2908 12.8617 26.4933 13.1393 26.6362 13.4482C26.779 13.7571 26.8594 14.0912 26.8727 14.4313C26.878 14.5082 26.878 14.5853 26.8727 14.6622V14.9352C26.836 15.5492 26.794 15.46 27.3503 15.5282H27.8752C28.0304 15.5126 28.1796 15.4605 28.3108 15.376C28.4183 15.2761 28.5009 15.1523 28.5519 15.0147C28.6029 14.8771 28.621 14.7294 28.6047 14.5835C28.6047 14.3736 28.6414 14.1584 28.6414 13.9484C28.6468 13.7695 28.6109 13.5917 28.5365 13.4289ZM12.2034 10.9673L9.75762 10.8571C9.07007 10.8151 9.18554 10.3323 9.50569 10.0279C10.062 9.45055 11.4214 8.54783 11.7048 8.54783H12.1089C12.2821 8.54783 12.3188 8.62655 12.3346 8.75776C12.3766 9.06742 12.4501 9.50829 12.5865 10.6419C12.6233 11.0093 12.6023 10.9673 12.2034 10.9673ZM18.5015 11.1825L13.7254 10.9883C13.4368 10.9883 13.379 10.9096 13.3213 10.6262C13.2058 10.0279 13.0956 9.18289 13.0169 8.72102C13.0169 8.58457 13.0169 8.52683 13.1481 8.52683L14.5284 8.58457C15.1979 8.61222 15.8627 8.70896 16.5123 8.87323C17.5135 9.30294 18.4788 9.81191 19.399 10.3953C19.399 10.3953 18.5645 11.1825 18.491 11.1825H18.5015Z" fill="#353C4D"/>
<path d="M7.3697 12.6311C6.97423 12.628 6.58671 12.7423 6.25616 12.9594C5.92561 13.1765 5.66687 13.4868 5.51266 13.851C5.35844 14.2152 5.31568 14.6169 5.38979 15.0054C5.46389 15.3939 5.65152 15.7517 5.92896 16.0335C6.20641 16.3154 6.56119 16.5086 6.94846 16.5888C7.33573 16.669 7.73809 16.6326 8.10465 16.4841C8.47122 16.3357 8.78553 16.0819 9.00784 15.7548C9.23015 15.4277 9.35048 15.042 9.3536 14.6465C9.35641 14.1166 9.14929 13.6071 8.77753 13.2295C8.40577 12.8518 7.89961 12.6367 7.3697 12.6311Z" stroke="#353C4D" stroke-width="0.451424"/>
<path d="M24.3378 12.6311C23.9423 12.629 23.5551 12.7443 23.2251 12.9623C22.8951 13.1803 22.6372 13.4912 22.4839 13.8558C22.3307 14.2204 22.289 14.6222 22.3641 15.0105C22.4392 15.3988 22.6278 15.7561 22.906 16.0372C23.1842 16.3184 23.5395 16.5107 23.9269 16.5899C24.3144 16.6691 24.7167 16.6316 25.0829 16.4822C25.449 16.3327 25.7627 16.0781 25.9841 15.7504C26.2056 15.4227 26.3249 15.0367 26.327 14.6412C26.327 14.1117 26.1181 13.6036 25.7456 13.2272C25.3732 12.8509 24.8673 12.6366 24.3378 12.6311Z" stroke="#353C4D" stroke-width="0.451424"/>
<path d="M7.35386 15.9009C8.05532 15.9009 8.62397 15.3323 8.62397 14.6308C8.62397 13.9293 8.05532 13.3607 7.35386 13.3607C6.65239 13.3607 6.08374 13.9293 6.08374 14.6308C6.08374 15.3323 6.65239 15.9009 7.35386 15.9009Z" fill="#353C4D"/>
<path d="M24.3116 15.9009C25.0131 15.9009 25.5817 15.3323 25.5817 14.6308C25.5817 13.9293 25.0131 13.3607 24.3116 13.3607C23.6102 13.3607 23.0415 13.9293 23.0415 14.6308C23.0415 15.3323 23.6102 15.9009 24.3116 15.9009Z" fill="#353C4D"/>
</svg>
