<svg width="31" height="24" viewBox="0 0 31 24" fill="none" xmlns="http://www.w3.org/2000/svg">
<g clip-path="url(#clip0_997_11516)">
<g clip-path="url(#clip1_997_11516)">
<path d="M2.18692 10.8919C2.18692 11.1718 2.20103 11.4529 2.18312 11.7312C2.16196 12.0638 2.27318 12.1918 2.59815 12.1207C2.75758 12.0912 2.90616 12.0195 3.02838 11.9129C3.38808 11.557 3.73367 11.1843 4.06298 10.8029C4.25232 10.5859 4.20892 10.4091 3.95448 10.2767C3.43799 10.0054 2.9036 9.84265 2.31713 10.077C2.4316 9.70268 2.58839 9.59255 3.02241 9.5269C3.12549 9.51171 3.25516 9.46125 3.31104 9.38313C3.88557 8.57313 4.59195 7.9145 5.46759 7.44087C5.51208 7.417 5.55114 7.38337 5.63035 7.32749L5.07317 7.23091C5.05038 7.0432 5.04008 6.89672 5.29832 6.87122C6.36765 6.76271 7.43426 6.62274 8.50521 6.53973C9.54958 6.4589 10.5988 6.43123 11.6459 6.38457C12.3317 6.3531 13.018 6.3173 13.7043 6.2994C13.8562 6.2956 14.0092 6.36233 14.1627 6.39271C14.5164 6.4627 14.868 6.5354 15.2244 6.59833C17.4114 6.98841 19.4393 7.79189 21.2199 9.11403C22.2133 9.85025 22.1162 9.78352 23.3564 9.84753C25.3046 9.94899 27.1639 10.4877 28.9445 11.2684C29.7257 11.6108 30.0713 12.2992 30.0876 13.1222C30.099 13.7163 30.023 14.312 29.9926 14.9077C29.9845 15.0678 30.0111 15.2294 30.004 15.3895C29.9991 15.4915 29.9926 15.6168 29.934 15.6889C29.6351 16.0557 29.3128 16.4062 28.811 16.4832C28.3092 16.5602 27.7975 16.6216 27.2377 16.6964C27.5339 15.5647 27.3619 14.612 26.5779 13.821C26.3381 13.5739 26.0506 13.378 25.7329 13.245C25.4152 13.1121 25.0739 13.0448 24.7295 13.0474C22.9229 13.0392 21.6013 14.6798 22.0749 16.5472L8.24426 16.2901C8.54862 14.2556 7.09627 13.0349 5.70142 12.9692C4.35541 12.9069 2.79184 13.9664 2.87268 16.0074C2.60412 15.8278 2.36758 15.6895 2.15545 15.5191C2.00263 15.3909 1.86533 15.2453 1.74638 15.0851C1.68 15.0025 1.64196 14.9007 1.63788 14.7949C1.65361 14.1086 1.68074 13.4223 1.71383 12.736C1.72631 12.4772 1.72523 12.2108 1.96611 12.0209C2.02036 11.9786 2.02525 11.8581 2.02742 11.7703C2.03447 11.474 2.02742 11.1778 2.02742 10.8816L2.18692 10.8919ZM7.76303 9.98534L13.1937 10.1117C12.9805 9.13845 12.7624 8.18143 12.5655 7.21952C12.5232 7.01228 12.4337 6.96996 12.24 6.96779C10.9577 6.95225 9.6766 7.04937 8.41135 7.25804C7.63608 7.38716 7.77931 7.29439 7.76466 7.99534C7.75273 8.6518 7.76303 9.3088 7.76303 9.98534ZM13.3017 6.94066C13.5692 8.03386 13.8139 9.04893 14.0732 10.0597C14.0878 10.1177 14.2159 10.1758 14.2956 10.1834C15.5093 10.2919 16.724 10.3966 17.9387 10.5002C18.1959 10.5224 18.453 10.5403 18.6917 10.5588C18.7341 10.3711 18.7758 10.217 18.8002 10.0602C18.8236 9.92674 18.8643 9.78243 18.8377 9.65548C18.7389 9.18782 18.6272 8.72179 18.4932 8.26281C18.4471 8.1353 18.3534 8.03065 18.2317 7.97092C17.2665 7.5445 16.2438 7.31447 15.2092 7.14791C14.6098 7.0508 13.9978 7.0139 13.3017 6.94066ZM4.2762 9.35112C5.27879 9.79762 6.27976 9.86652 7.28941 9.9989C7.33606 9.14279 7.38001 8.32845 7.42558 7.50001C6.13708 7.71485 5.11549 8.30187 4.2762 9.35112ZM29.0698 12.7148C29.3481 12.8358 29.4588 12.5862 29.627 12.4359C29.7686 12.3095 29.7534 12.2189 29.6373 12.0752C29.443 11.8343 29.1609 11.78 28.9065 11.6547C28.1507 11.2809 27.3505 11.0975 26.5193 11.0406C26.4423 11.0351 26.3609 11.0894 26.2817 11.116C26.323 11.1898 26.3474 11.2831 26.4076 11.333C26.745 11.6173 27.0993 11.882 27.4324 12.1717C27.8995 12.5792 28.4426 12.7436 29.0698 12.7137V12.7148ZM21.1179 10.8653C21.1237 10.8295 21.1261 10.7931 21.125 10.7568C20.9682 9.84482 20.6123 9.07497 19.7003 8.67187C19.3862 8.53353 19.0883 8.35883 18.7189 8.16786L19.1616 9.7412C19.9141 9.77429 20.1479 9.96852 20.3096 10.6564C20.3197 10.6907 20.3377 10.722 20.3621 10.7481C20.3865 10.7742 20.4166 10.7943 20.4501 10.8067C20.6709 10.8376 20.8944 10.8463 21.1196 10.8642L21.1179 10.8653Z" fill="#353C4D"/>
<path d="M5.51339 18.0081C4.88751 18.0035 4.28905 17.7507 3.84949 17.3051C3.40993 16.8596 3.16521 16.2577 3.16911 15.6319C3.17598 15.0059 3.43025 14.4081 3.87639 13.969C4.32253 13.5298 4.92429 13.2851 5.55027 13.2881C5.86248 13.2906 6.17109 13.3551 6.45818 13.4779C6.74528 13.6006 7.00515 13.7791 7.22272 14.003C7.44029 14.2269 7.61123 14.4918 7.72562 14.7823C7.84002 15.0728 7.89559 15.3832 7.88912 15.6953C7.87897 16.3165 7.62342 16.9084 7.17828 17.3417C6.73314 17.7751 6.13459 18.0147 5.51339 18.0081ZM6.44002 16.0778L7.18166 16.5042C7.25165 16.2373 7.31186 16.0084 7.37914 15.7528H6.5366C6.50513 15.8586 6.47475 15.9601 6.44002 16.0778ZM4.65673 16.0621C4.55853 15.9378 4.49397 15.7718 4.39794 15.7528C4.18419 15.71 3.95524 15.7393 3.67475 15.7393C3.75125 16.0105 3.81689 16.2438 3.88905 16.5015L4.65673 16.0621ZM6.38686 14.0005L5.62732 13.8052V14.6325L5.96911 14.7247L6.38686 14.0005ZM6.37655 17.3039C6.24308 17.0685 6.14217 16.8672 6.0163 16.6827C5.98822 16.6548 5.95393 16.6338 5.91623 16.6215C5.87853 16.6093 5.83846 16.6061 5.79929 16.6122C5.73039 16.6258 5.62732 16.7023 5.62244 16.7587C5.60236 16.9876 5.61375 17.2193 5.61375 17.5068L6.37655 17.3039ZM6.55232 14.0699L6.12319 14.8078L6.35864 15.085L7.11818 14.6325L6.55232 14.0699ZM5.42929 14.6124V13.7987L4.68223 14.0048C4.78205 14.1806 4.87211 14.3059 4.928 14.4448C5.03216 14.703 5.19166 14.7551 5.42929 14.6124ZM4.9459 14.811C4.80213 14.5685 4.67463 14.3493 4.52489 14.0981L3.92811 14.6287L4.68765 15.0627L4.9459 14.811ZM4.50428 17.2594L4.95566 16.4793L4.69688 16.2389L3.99159 16.6469L4.50428 17.2594ZM6.38089 16.2455L6.10963 16.4847L6.54365 17.2329L7.1133 16.6762L6.38089 16.2455ZM5.43363 16.597C5.29094 16.6247 5.1195 16.6068 5.05386 16.6811C4.91117 16.8477 4.82274 17.0609 4.68386 17.3034L5.43146 17.4944L5.43363 16.597ZM7.18546 14.8067C6.98689 14.9195 6.84638 15.0193 6.69067 15.0834C6.42375 15.1919 6.43514 15.3546 6.55613 15.5472H7.38131C7.31458 15.2955 7.25653 15.0741 7.18546 14.8061V14.8067ZM3.87603 14.8018C3.80659 15.0812 3.75016 15.308 3.69048 15.5505H4.57807C4.54443 15.3986 4.55745 15.2309 4.48204 15.1647C4.32253 15.0253 4.11745 14.9407 3.87494 14.8012L3.87603 14.8018Z" fill="#353C4D"/>
<path d="M27.0375 15.7346C27.0391 16.3605 26.7922 16.9615 26.351 17.4055C25.9098 17.8495 25.3105 18.1003 24.6846 18.1027C24.0585 18.1036 23.4577 17.8561 23.0139 17.4146C22.57 16.9731 22.3194 16.3736 22.317 15.7476C22.3161 15.4377 22.3763 15.1306 22.4942 14.8439C22.612 14.5573 22.7852 14.2966 23.0038 14.0769C23.2224 13.8572 23.4822 13.6827 23.7682 13.5634C24.0543 13.4441 24.3611 13.3823 24.671 13.3816C24.981 13.3805 25.2881 13.4405 25.5748 13.5582C25.8616 13.6758 26.1223 13.8489 26.3421 14.0674C26.5619 14.286 26.7365 14.5457 26.8558 14.8318C26.9751 15.1178 27.0369 15.4246 27.0375 15.7346ZM25.0736 16.6081C24.9585 16.6987 24.7936 16.7638 24.7768 16.856C24.7356 17.0795 24.7632 17.3155 24.7632 17.6014L25.5228 17.3844L25.0736 16.6081ZM26.5319 15.8328C26.3149 15.8328 26.1434 15.8501 25.979 15.8284C25.7127 15.7932 25.5993 15.9033 25.6069 16.1822L26.3263 16.5977L26.5319 15.8328ZM26.3322 14.8937C26.1331 15.0081 25.9996 15.1047 25.8521 15.1649C25.5998 15.2702 25.5651 15.4259 25.7034 15.6472H26.527L26.3322 14.8937ZM25.1175 14.8161C25.2558 14.5703 25.3812 14.3484 25.5271 14.0886L24.7768 13.8949V14.7222L25.1175 14.8161ZM23.0233 14.898L22.834 15.6472H23.7167C23.6896 15.5002 23.7102 15.325 23.6353 15.2599C23.4704 15.1172 23.2577 15.0309 23.0233 14.8969V14.898ZM25.5076 16.3254L25.2444 16.5543L25.6736 17.2933L26.2454 16.7556L25.5076 16.3254ZM24.2429 16.6759L23.8274 17.3942L24.5918 17.5933C24.5918 17.3812 24.5744 17.2184 24.5956 17.0611C24.6309 16.8012 24.5402 16.6694 24.2413 16.6759H24.2429ZM24.5685 14.7228V13.8878L23.8257 14.0989L24.2402 14.8096L24.5685 14.7228ZM24.0992 16.5717L23.8409 16.3287L23.128 16.7421L23.6749 17.303L24.0992 16.5717ZM22.8172 15.8431C22.8958 16.1106 22.9615 16.3357 23.0342 16.5912C23.2148 16.4871 23.3407 16.3954 23.4801 16.339C23.7427 16.2305 23.7921 16.0758 23.6331 15.8431H22.8172ZM25.6855 14.171L25.2699 14.9002L25.506 15.1666L26.253 14.7325L25.6855 14.171ZM23.6825 14.203L23.0743 14.7195L23.7661 15.1177L24.0878 14.9007L23.6825 14.203Z" fill="#353C4D"/>
</g>
</g>
<defs>
<clipPath id="clip0_997_11516">
<rect width="29.8807" height="22.7663" fill="white" transform="translate(0.862488 0.923431)"/>
</clipPath>
<clipPath id="clip1_997_11516">
<rect width="28.4578" height="11.8016" fill="white" transform="translate(1.63361 6.30092)"/>
</clipPath>
</defs>
</svg>
