<svg width="31" height="24" viewBox="0 0 31 24" fill="none" xmlns="http://www.w3.org/2000/svg">
<path fill-rule="evenodd" clip-rule="evenodd" d="M2.49046 15.9348C2.25396 15.9063 2.02502 15.8332 1.81579 15.7194C1.48696 15.4359 1.572 14.4494 1.62303 13.9618C1.62303 13.8314 1.92918 13.8314 1.92918 13.718C1.97453 12.9527 2.30337 11.558 2.38841 10.7699C2.40819 10.5669 2.47882 10.3722 2.59377 10.2037C2.70872 10.0353 2.86428 9.89852 3.04607 9.80609C3.98653 9.21683 4.95736 8.67748 5.95452 8.19028C6.36839 8.01453 6.27768 7.97484 6.71423 7.90681C8.98203 7.57798 13.8861 7.20946 16.0916 7.90681C17.8609 8.50241 19.5484 9.31762 21.1147 10.3333C24.0232 10.8323 26.3817 11.2518 27.7821 11.643C28.0369 11.6929 28.2764 11.802 28.4813 11.9616C28.6861 12.1211 28.8506 12.3266 28.9613 12.5615C29.1824 12.998 29.2902 13.2588 29.3979 13.5253C29.6417 13.5253 29.704 13.7861 29.704 14.0922C29.7394 14.5419 29.7108 14.9943 29.619 15.4359C29.5654 15.6111 29.4535 15.7629 29.302 15.8659C29.1505 15.969 28.9683 16.0173 28.7856 16.0028H28.1109C27.7594 15.9348 27.6744 15.9575 27.697 15.4983V15.022C27.697 14.2401 27.3864 13.4903 26.8335 12.9374C26.2807 12.3845 25.5308 12.0739 24.7489 12.0739C23.967 12.0739 23.2171 12.3845 22.6642 12.9374C22.1114 13.4903 21.8008 14.2401 21.8008 15.022C21.7894 15.2392 21.7894 15.4568 21.8008 15.674C21.8404 16.394 22.0842 16.3317 21.3812 16.3544H9.56032C9.05573 16.2863 8.92534 16.3544 8.99337 15.6513C9.00474 15.4342 9.00474 15.2165 8.99337 14.9993C9.02795 14.2167 8.75022 13.4524 8.22126 12.8745C7.6923 12.2966 6.95544 11.9526 6.1728 11.918C5.39015 11.8834 4.62582 12.1611 4.04795 12.6901C3.47008 13.219 3.12601 13.9559 3.09143 14.7385C3.08575 14.8254 3.08575 14.9125 3.09143 14.9993V15.4359C3.08009 15.9348 3.21615 16.0709 2.49046 15.9348ZM11.9528 10.5601C11.7771 9.07472 11.7771 8.6325 11.607 8.29233C11.5812 8.24282 11.5431 8.2007 11.4965 8.16995C11.4499 8.1392 11.3962 8.12083 11.3405 8.11658C10.2343 8.10883 9.12964 8.20372 8.04089 8.40005C7.52932 8.71249 7.08274 9.12057 6.72557 9.60198C6.67455 9.70971 6.1076 10.3333 6.20398 10.4524C6.23233 10.5017 6.27388 10.5422 6.32395 10.5692C6.37403 10.5963 6.43064 10.6088 6.48745 10.6055C8.10326 10.6508 9.88915 10.8209 11.5106 10.8436C11.9755 10.8436 11.9982 10.957 11.9528 10.5601ZM18.0759 11.0874C18.0759 11.0194 19.1021 10.0839 19.2552 10.1689C18.1856 9.44986 17.0243 8.87779 15.8024 8.46809C14.7459 8.19577 13.6555 8.07738 12.5652 8.11658C12.3894 8.11658 12.3894 8.17894 12.4121 8.33202C12.4801 8.79125 12.6559 9.81743 12.7636 10.4978C12.8089 10.8266 12.894 10.9116 13.2228 10.9116C14.5551 10.8663 18.0929 11.1271 18.0646 11.0647L18.0759 11.0874Z" fill="#353C4D"/>
<path d="M5.84677 13.0209C5.45418 13.0254 5.07169 13.1459 4.74744 13.3673C4.42318 13.5886 4.17165 13.901 4.02451 14.2649C3.87736 14.6289 3.84117 15.0283 3.9205 15.4128C3.99982 15.7974 4.19112 16.1498 4.47031 16.4259C4.74949 16.7019 5.1041 16.8892 5.48949 16.9642C5.87487 17.0391 6.27383 16.9984 6.63613 16.8471C6.99844 16.6959 7.3079 16.4408 7.52558 16.1141C7.74325 15.7873 7.85942 15.4035 7.85944 15.0109C7.85946 14.7477 7.80724 14.487 7.70582 14.2441C7.6044 14.0012 7.45579 13.7808 7.26859 13.5957C7.08139 13.4106 6.85934 13.2645 6.61527 13.1658C6.37121 13.0672 6.11 13.0179 5.84677 13.0209Z" stroke="#353C4D" stroke-width="0.481601" stroke-miterlimit="10"/>
<path d="M24.579 13.0208C24.1854 13.0208 23.8007 13.1375 23.4734 13.3562C23.1461 13.5748 22.8911 13.8856 22.7405 14.2492C22.5899 14.6129 22.5504 15.013 22.6272 15.399C22.704 15.785 22.8935 16.1396 23.1718 16.4179C23.4502 16.6962 23.8047 16.8857 24.1908 16.9625C24.5768 17.0393 24.9769 16.9999 25.3405 16.8493C25.7041 16.6987 26.0149 16.4436 26.2336 16.1164C26.4523 15.7891 26.569 15.4044 26.569 15.0108C26.566 14.4839 26.3554 13.9795 25.9828 13.6069C25.6103 13.2344 25.1058 13.0238 24.579 13.0208Z" stroke="#353C4D" stroke-width="0.481601" stroke-miterlimit="10"/>
<path d="M5.86945 16.3828C6.6272 16.3828 7.24147 15.7685 7.24147 15.0108C7.24147 14.253 6.6272 13.6388 5.86945 13.6388C5.11171 13.6388 4.49744 14.253 4.49744 15.0108C4.49744 15.7685 5.11171 16.3828 5.86945 16.3828Z" fill="#353C4D"/>
<path d="M24.5788 16.3828C25.3365 16.3828 25.9508 15.7685 25.9508 15.0108C25.9508 14.253 25.3365 13.6388 24.5788 13.6388C23.8211 13.6388 23.2068 14.253 23.2068 15.0108C23.2068 15.7685 23.8211 16.3828 24.5788 16.3828Z" fill="#353C4D"/>
</svg>
