<svg width="31" height="24" viewBox="0 0 31 24" fill="none" xmlns="http://www.w3.org/2000/svg">
<path fill-rule="evenodd" clip-rule="evenodd" d="M5.16983 16.0331C4.71265 16.0024 4.25786 15.9428 3.8082 15.8546C3.6033 15.8334 3.40783 15.7577 3.24213 15.6353C2.96674 15.3446 2.98714 14.4522 3.00754 13.9779C3.00754 13.8657 3.26253 13.8657 3.26253 13.7382C3.27991 13.0136 3.37046 12.2926 3.53281 11.5861C3.68004 11.1119 3.88924 10.6592 4.15498 10.2398C4.45243 9.41724 4.86818 8.64243 5.38912 7.93981C5.42854 7.88804 5.45701 7.82878 5.47279 7.76566C5.48857 7.70253 5.49134 7.63685 5.48092 7.57262C5.48092 7.26154 5.51661 7.30234 5.8073 7.28194C6.09799 7.26154 6.68446 7.28194 7.42902 7.28194L16.1343 7.36353C16.5177 7.36794 16.9007 7.39177 17.2817 7.43493C19.2349 7.58282 21.5706 9.22494 23.228 10.2245C24.1613 10.556 25.5841 11.0812 26.8233 11.5402C27.0066 11.5928 27.1748 11.6882 27.314 11.8185C27.4532 11.9489 27.5595 12.1104 27.624 12.2899C27.7325 12.5557 27.8178 12.8304 27.879 13.1109C27.9272 13.302 27.9885 13.4894 28.0626 13.6719C28.2105 13.6719 28.2105 13.6719 28.2462 13.7484C28.2819 13.8249 28.2462 13.9677 28.2819 14.1309C28.3121 14.5142 28.2932 14.8998 28.2258 15.2783C28.2033 15.4924 28.1079 15.6923 27.9555 15.8444C27.8533 15.9361 27.7248 15.9932 27.5883 16.0076H26.9865C26.5837 15.9719 26.5684 16.0433 26.6398 15.5486C26.6505 15.435 26.6505 15.3206 26.6398 15.2069C26.6398 14.5537 26.3802 13.9271 25.9183 13.4652C25.4564 13.0033 24.8299 12.7438 24.1766 12.7438C23.5233 12.7438 22.8968 13.0033 22.4348 13.4652C21.9729 13.9271 21.7134 14.5537 21.7134 15.2069C21.715 15.4394 21.7458 15.6707 21.8052 15.8954C21.948 16.3697 21.8766 16.2983 21.4941 16.334H10.6572C10.2543 16.2983 10.0911 16.385 10.239 15.8597C10.3282 15.5222 10.3444 15.1695 10.2867 14.8251C10.229 14.4808 10.0985 14.1527 9.90407 13.8628C9.70963 13.5728 9.45565 13.3275 9.15902 13.1434C8.8624 12.9592 8.52995 12.8404 8.18381 12.7947C7.83767 12.7491 7.48577 12.7777 7.15155 12.8787C6.81734 12.9797 6.50846 13.1507 6.2455 13.3803C5.98254 13.61 5.77152 13.8931 5.62649 14.2107C5.48147 14.5283 5.40576 14.8731 5.40442 15.2222C5.40617 15.3674 5.4181 15.5122 5.44012 15.6557C5.51661 15.8903 5.44012 16.0331 5.16983 16.0331ZM15.2367 10.454C15.2006 9.66315 15.0982 8.87674 14.9307 8.103C14.9081 8.06978 14.8777 8.04263 14.8421 8.02395C14.8066 8.00527 14.7669 7.99564 14.7268 7.9959H11.3711C11.1518 7.9959 11.0243 7.9959 11.0243 8.28659L10.9478 10.2398C10.9478 10.4948 10.9121 10.6019 11.1875 10.6223C12.539 10.6733 13.5232 10.7141 14.8695 10.7294C15.2571 10.7294 15.2775 10.8212 15.2367 10.454ZM20.7139 10.913L21.5706 10.0715C20.4028 9.10765 18.4139 8.0316 16.9349 8.0316H15.7518C15.6039 8.0316 15.6039 8.103 15.6243 8.23049C15.7314 8.68947 15.8232 9.76041 15.8946 10.403C15.9303 10.7141 16.0068 10.7855 16.2771 10.7855C17.4092 10.7651 20.7292 10.9844 20.7139 10.9334V10.913ZM10.3308 10.3112C10.3665 9.67372 10.3869 9.03115 10.4226 8.37838C10.4212 8.29225 10.4092 8.20661 10.3869 8.1234C10.3685 8.0905 10.3419 8.06289 10.3098 8.04324C10.2776 8.02358 10.2409 8.01255 10.2033 8.0112C9.45362 8.0112 9.7494 8.0112 8.99974 8.0112C8.32465 8.08146 7.6716 8.29162 7.08224 8.62827C6.61263 9.02191 6.1976 9.47639 5.8481 9.9797C5.7359 10.199 5.792 10.3469 6.06229 10.3673C7.41372 10.4183 8.63766 10.5458 9.98909 10.5662C10.3308 10.5815 10.3155 10.6937 10.3308 10.3112Z" fill="#353C4D"/>
<path d="M7.88819 17.099C8.93594 17.099 9.7853 16.2496 9.7853 15.2019C9.7853 14.1541 8.93594 13.3048 7.88819 13.3048C6.84045 13.3048 5.99109 14.1541 5.99109 15.2019C5.99109 16.2496 6.84045 17.099 7.88819 17.099Z" stroke="#353C4D" stroke-width="0.432906" stroke-miterlimit="10"/>
<path d="M24.1967 17.099C25.2445 17.099 26.0938 16.2496 26.0938 15.2019C26.0938 14.1541 25.2445 13.3048 24.1967 13.3048C23.149 13.3048 22.2996 14.1541 22.2996 15.2019C22.2996 16.2496 23.149 17.099 24.1967 17.099Z" stroke="#353C4D" stroke-width="0.432906" stroke-miterlimit="10"/>
<path d="M7.88813 16.4359C8.56973 16.4359 9.12227 15.8834 9.12227 15.2018C9.12227 14.5202 8.56973 13.9677 7.88813 13.9677C7.20653 13.9677 6.65399 14.5202 6.65399 15.2018C6.65399 15.8834 7.20653 16.4359 7.88813 16.4359Z" fill="#353C4D"/>
<path d="M24.1969 16.4359C24.8785 16.4359 25.431 15.8834 25.431 15.2018C25.431 14.5202 24.8785 13.9677 24.1969 13.9677C23.5153 13.9677 22.9628 14.5202 22.9628 15.2018C22.9628 15.8834 23.5153 16.4359 24.1969 16.4359Z" fill="#353C4D"/>
</svg>
