<svg width="31" height="24" viewBox="0 0 31 24" fill="none" xmlns="http://www.w3.org/2000/svg">
<path d="M25.0274 16.4537C24.623 16.4277 24.2355 16.2847 23.9136 16.0426C23.5917 15.8006 23.3499 15.4704 23.2184 15.0935C23.087 14.7166 23.0719 14.31 23.1751 13.9247C23.2782 13.5394 23.4949 13.1927 23.798 12.9283C24.1011 12.6638 24.477 12.4934 24.8784 12.4385C25.2798 12.3836 25.6887 12.4467 26.0537 12.6197C26.4187 12.7928 26.7235 13.0681 26.9297 13.411C27.136 13.754 27.2344 14.1493 27.2126 14.5471C27.1973 14.8136 27.1285 15.0745 27.0102 15.3148C26.892 15.5551 26.7265 15.7701 26.5234 15.9473C26.3203 16.1245 26.0836 16.2604 25.8269 16.3473C25.5701 16.4343 25.2984 16.4704 25.0274 16.4537Z" stroke="#353C4D" stroke-width="0.474784" stroke-miterlimit="10"/>
<path d="M7.55731 12.4418C7.96562 12.4375 8.36596 12.553 8.70719 12.7735C9.04842 12.994 9.31506 13.3095 9.47306 13.6797C9.63106 14.0498 9.67324 14.4579 9.59423 14.8518C9.51522 15.2456 9.3186 15.6074 9.02947 15.8908C8.74034 16.1743 8.37183 16.3667 7.971 16.4433C7.57017 16.5199 7.1552 16.4773 6.7791 16.321C6.40299 16.1647 6.08281 15.9017 5.85945 15.5656C5.63609 15.2296 5.51968 14.8357 5.52508 14.4343C5.53218 13.9071 5.74874 13.4035 6.12848 13.0312C6.50822 12.6589 7.02102 12.4473 7.55731 12.4418Z" stroke="#353C4D" stroke-width="0.474784" stroke-miterlimit="10"/>
<path d="M2.24696 13.2636C2.24696 13.1455 2.52557 13.1455 2.52557 13.0488C2.56381 12.3667 2.60205 11.6094 2.68399 10.9005C2.79325 10.0788 4.51955 10.0358 5.61214 9.70824C6.38242 9.4773 6.99427 8.97245 7.98307 8.5428C8.9372 8.03205 9.99151 7.72806 11.0751 7.65127C12.9107 7.65127 15.6367 7.43645 17.3575 7.96277C19.0783 8.4891 20.4933 9.39674 22.0393 10.111C24.0217 10.3253 25.9873 10.6698 27.9229 11.1422C28.1582 11.1739 28.3817 11.2633 28.5726 11.4022C28.7636 11.5411 28.9159 11.7251 29.0155 11.9371C29.2121 12.3237 29.3105 12.6943 29.4143 12.9253C29.5672 12.9253 29.5672 12.9253 29.6109 12.9843C29.6546 13.0434 29.6109 13.1992 29.6492 13.3549C29.6812 13.7139 29.6609 14.0756 29.5891 14.429C29.5559 14.6359 29.4518 14.8254 29.2941 14.9661C29.1795 15.0517 29.0437 15.1055 28.9008 15.1219H28.1796C27.7645 15.0467 27.8464 14.9876 27.8628 14.4827V14.2464C27.8628 13.5513 27.5819 12.8847 27.082 12.3932C26.582 11.9017 25.9039 11.6256 25.1969 11.6256C24.4898 11.6256 23.8117 11.9017 23.3118 12.3932C22.8118 12.8847 22.5309 13.5513 22.5309 14.2464C22.52 14.3895 22.52 14.5331 22.5309 14.6761C22.5856 15.5515 22.6675 15.3958 21.859 15.4334H10.6545C10.0645 15.3582 10.1082 15.4334 10.1628 14.6976C10.1737 14.5492 10.1737 14.4002 10.1628 14.2518C10.1317 13.5765 9.83696 12.939 9.3399 12.472C8.84283 12.0049 8.18172 11.7443 7.49413 11.7443C6.80655 11.7443 6.14544 12.0049 5.64837 12.472C5.1513 12.939 4.85656 13.5765 4.82547 14.2518C4.81455 14.3733 4.81455 14.4955 4.82547 14.617C4.86372 15.2185 4.70529 15.1541 4.27918 15.1541C3.85565 15.1412 3.43376 15.0963 3.01723 15.0198C2.80288 14.9931 2.59543 14.9275 2.40538 14.8265C2.20871 14.5902 2.24696 13.6933 2.24696 13.2636ZM14.0961 8.34946C14.2492 8.98918 14.3551 9.63893 14.413 10.2936C14.4512 10.5837 14.5332 10.6642 14.8282 10.6642C16.0136 10.6642 19.1985 10.8952 19.1985 10.8361C19.3187 10.777 19.7448 10.299 20.1272 10.0197C19.2114 9.36822 18.2074 8.84579 17.1445 8.46761C16.472 8.29953 15.7836 8.20054 15.0904 8.17223H14.1999C14.0579 8.14537 14.0415 8.2313 14.0961 8.34946ZM7.95575 9.75657C8.01688 9.93584 8.10331 10.1058 8.21251 10.2614C8.23833 10.3055 8.27589 10.3417 8.32113 10.3663C8.36638 10.391 8.4176 10.403 8.46927 10.401L9.92788 10.4548C11.0751 10.5138 12.2988 10.5944 13.3095 10.6105C13.7246 10.6105 13.741 10.7072 13.7028 10.3581C13.6632 9.65708 13.5571 8.96125 13.3859 8.27964C13.3859 8.22593 13.2494 8.18297 13.1674 8.18297H11.6105C11.1267 8.1951 10.6469 8.27282 10.1846 8.41391C10.0477 8.45024 9.91564 8.50252 9.79131 8.56966L9.51816 8.68781C8.99924 8.90249 8.50783 9.17649 8.05409 9.50415C7.91751 9.61156 7.91751 9.64916 7.95575 9.75657Z" fill="#353C4D"/>
<path d="M7.55727 15.7344C8.28741 15.7344 8.8793 15.1525 8.8793 14.4347C8.8793 13.7169 8.28741 13.135 7.55727 13.135C6.82713 13.135 6.23523 13.7169 6.23523 14.4347C6.23523 15.1525 6.82713 15.7344 7.55727 15.7344Z" fill="#353C4D"/>
<path d="M25.1586 15.7344C25.8888 15.7344 26.4807 15.1525 26.4807 14.4347C26.4807 13.7169 25.8888 13.135 25.1586 13.135C24.4285 13.135 23.8366 13.7169 23.8366 14.4347C23.8366 15.1525 24.4285 15.7344 25.1586 15.7344Z" fill="#353C4D"/>
</svg>
