<svg width="31" height="24" viewBox="0 0 31 24" fill="none" xmlns="http://www.w3.org/2000/svg">
<path fill-rule="evenodd" clip-rule="evenodd" d="M2.94868 15.1771H2.89405C2.52803 15.1073 2.34775 15.1771 2.31498 14.6937C2.2822 14.2104 2.31498 13.2705 2.24396 12.9429C2.24396 12.7012 2.24396 12.4971 2.51164 12.4434C2.64822 12.4058 2.80664 12.3897 2.80664 12.3199C2.84373 11.6152 2.96661 10.9174 3.17266 10.2415C3.48501 9.20214 3.89466 8.19352 4.39636 7.22853C4.71321 6.63776 4.60942 6.63776 5.41247 6.63776C8.3734 6.63776 11.4873 6.63776 14.481 6.68072C16.4914 6.71295 18.4362 6.72906 19.272 6.98685C20.3646 7.57225 21.3752 9.01695 22.1291 9.62384C24.1684 9.76609 26.196 10.0406 28.1985 10.4455C28.8977 10.6174 29.1272 10.6389 29.2474 11.3586C29.3184 11.7721 29.3348 12.234 29.3894 12.4757H29.5096C29.6188 12.4757 29.6352 12.5992 29.6352 12.7173C29.6735 13.3487 29.6735 13.9818 29.6352 14.6132C29.6282 14.7709 29.5595 14.9198 29.4434 15.0288C29.3274 15.1379 29.173 15.1987 29.0125 15.1986H28.1821C27.6358 15.1986 27.7287 15.1502 27.674 14.6185C27.6286 13.8911 27.3027 13.208 26.7626 12.7086C26.2226 12.2093 25.5091 11.9313 24.7677 11.9313C24.0264 11.9313 23.3129 12.2093 22.7728 12.7086C22.2328 13.208 21.9068 13.8911 21.8614 14.6185C21.8287 15.1878 21.9325 15.2039 21.3151 15.2039H9.84293C9.16006 15.2039 9.29664 15.1717 9.20923 14.5165C9.15618 13.7876 8.82211 13.1061 8.27522 12.6112C7.72833 12.1162 7.00989 11.8452 6.26661 11.8534C5.52333 11.8616 4.81127 12.1485 4.27586 12.6554C3.74044 13.1623 3.42206 13.8511 3.38572 14.5809C3.34748 14.9086 3.45673 15.1986 3.1071 15.1986H2.94868V15.1771ZM19.8183 9.99978C19.9549 9.88163 20.3646 9.46272 20.6541 9.2103C20.6924 9.1727 20.7251 9.14048 20.6924 9.10288C20.2173 8.50956 19.6665 7.97886 19.0535 7.52391C17.9661 7.38963 16.8716 7.31969 15.7757 7.31446H14.8634C14.705 7.31446 14.6722 7.38428 14.7268 7.52391C14.8142 7.96968 14.9508 8.88269 15.0601 9.50031C15.1092 9.81181 15.1802 9.98367 15.4971 9.96219C16.7372 9.99978 19.8347 10.1287 19.8183 9.99978ZM9.43867 9.51642C9.5482 8.87798 9.71642 8.25062 9.94127 7.64207C10.0123 7.43798 10.0833 7.24464 10.3073 7.24464C11.4818 7.28223 12.5471 7.24464 13.7052 7.29835C13.7486 7.29871 13.7914 7.30798 13.8309 7.32555C13.8704 7.34312 13.9058 7.36861 13.9347 7.40039C14.0984 8.10741 14.208 8.82551 14.2625 9.54865C14.3171 9.92459 14.2625 9.9783 13.8637 9.96219C12.935 9.96219 11.165 9.96219 9.90849 9.92459C9.54247 9.92459 9.39497 9.96756 9.45506 9.51642H9.43867ZM7.83256 9.55402C8.02377 9.12437 8.33516 8.39933 8.63562 7.74411C8.81043 7.36816 8.81043 7.24464 8.35701 7.20705H5.13386C5.03497 7.22878 4.94418 7.27713 4.87164 7.34668C4.53693 8.0189 4.25566 8.71559 4.03034 9.43049C3.89377 9.81181 3.95933 9.96756 4.22155 9.92997H7.26988C7.39576 9.94295 7.52232 9.91256 7.62793 9.84399C7.73355 9.77543 7.81167 9.67293 7.84895 9.55402H7.83256Z" fill="#353C4D"/>
<path d="M24.8278 17.4864C26.1131 17.4864 27.155 16.4621 27.155 15.1985C27.155 13.9349 26.1131 12.9106 24.8278 12.9106C23.5425 12.9106 22.5006 13.9349 22.5006 15.1985C22.5006 16.4621 23.5425 17.4864 24.8278 17.4864Z" stroke="#353C4D" stroke-width="0.474795" stroke-miterlimit="10"/>
<path d="M6.35752 12.9805C5.89748 12.9816 5.44807 13.1167 5.06608 13.3687C4.68409 13.6208 4.38666 13.9785 4.21135 14.3966C4.03605 14.8148 3.99074 15.2746 4.08115 15.7181C4.17156 16.1615 4.39364 16.5687 4.71932 16.8881C5.04501 17.2075 5.45969 17.4249 5.91098 17.5128C6.36226 17.6006 6.82991 17.555 7.25483 17.3817C7.67976 17.2083 8.0429 16.9151 8.29838 16.539C8.55385 16.1628 8.69021 15.7207 8.69021 15.2684C8.69021 14.9675 8.62983 14.6696 8.51254 14.3917C8.39524 14.1137 8.22333 13.8613 8.00665 13.6487C7.78997 13.4362 7.53277 13.2678 7.24979 13.1531C6.96681 13.0385 6.6636 12.9798 6.35752 12.9805Z" stroke="#353C4D" stroke-width="0.474795" stroke-miterlimit="10"/>
<path d="M6.352 16.5678C7.08214 16.5678 7.67404 15.9859 7.67404 15.2681C7.67404 14.5503 7.08214 13.9684 6.352 13.9684C5.62186 13.9684 5.02997 14.5503 5.02997 15.2681C5.02997 15.9859 5.62186 16.5678 6.352 16.5678Z" fill="#353C4D"/>
<path d="M24.8275 16.5678C25.5577 16.5678 26.1496 15.9859 26.1496 15.2681C26.1496 14.5503 25.5577 13.9684 24.8275 13.9684C24.0974 13.9684 23.5055 14.5503 23.5055 15.2681C23.5055 15.9859 24.0974 16.5678 24.8275 16.5678Z" fill="#353C4D"/>
</svg>
