<svg width="31" height="24" viewBox="0 0 31 24" fill="none" xmlns="http://www.w3.org/2000/svg">
<g clip-path="url(#clip0_997_11552)">
<path fill-rule="evenodd" clip-rule="evenodd" d="M28.6096 10.7334L27.2784 7.22682C26.9311 6.55155 24.5773 6.48402 23.82 6.48402H20.5739C20.5011 6.48144 20.4284 6.49325 20.3601 6.51877C20.2918 6.54429 20.2293 6.58302 20.1759 6.63274C20.1226 6.68246 20.0797 6.74221 20.0494 6.80856C20.0192 6.87491 20.0024 6.94656 19.9999 7.01941V13.6998H2.12456C1.98513 13.6998 1.8514 13.7552 1.7528 13.8538C1.65421 13.9524 1.59882 14.0861 1.59882 14.2255L1.59882 16.8253C1.59882 16.9647 1.65421 17.0985 1.7528 17.1971C1.8514 17.2957 1.98513 17.351 2.12456 17.351H5.54915C5.68201 16.9021 5.95646 16.5082 6.33154 16.228C6.70663 15.9479 7.16226 15.7965 7.63043 15.7965C8.0986 15.7965 8.55422 15.9479 8.92931 16.228C9.3044 16.5082 9.57885 16.9021 9.71171 17.351H20.8923L21.4614 17.38C21.5945 16.9074 21.8838 16.494 22.2821 16.207C22.6804 15.9201 23.1643 15.7767 23.6546 15.8002C24.145 15.8237 24.6129 16.0127 24.982 16.3365C25.351 16.6602 25.5994 17.0995 25.6867 17.5826L27.071 17.6501H29.092C29.883 17.6501 30.0566 17.0086 30.0566 16.2031V13.7432C30.0566 10.7961 29.5743 12.5759 28.6096 10.7334ZM21.2974 11.2591V7.64645H24.3217C24.8956 7.64645 25.6867 7.59339 25.9568 8.12879C26.4391 9.79285 26.9215 11.2399 26.9215 11.2399L21.2974 11.2591Z" fill="#353C4D"/>
<path d="M5.45771 17.9682C5.45771 17.5389 5.58501 17.1193 5.82351 16.7623C6.062 16.4054 6.40099 16.1272 6.7976 15.9629C7.19421 15.7986 7.63063 15.7557 8.05167 15.8394C8.4727 15.9232 8.85945 16.1299 9.163 16.4334C9.46655 16.737 9.67328 17.1237 9.75703 17.5448C9.84078 17.9658 9.79779 18.4022 9.63351 18.7988C9.46923 19.1954 9.19103 19.5344 8.83409 19.7729C8.47715 20.0114 8.05751 20.1387 7.62822 20.1387C7.34301 20.1394 7.06048 20.0837 6.79685 19.9748C6.53322 19.8659 6.2937 19.7061 6.09202 19.5044C5.89034 19.3027 5.73049 19.0632 5.62163 18.7996C5.51278 18.536 5.45707 18.2534 5.45771 17.9682Z" stroke="#353C4D" stroke-width="0.836995" stroke-miterlimit="10"/>
<path d="M21.3749 17.9682C21.3749 17.5389 21.5022 17.1193 21.7407 16.7623C21.9792 16.4054 22.3182 16.1272 22.7148 15.9629C23.1114 15.7986 23.5478 15.7557 23.9688 15.8394C24.3899 15.9232 24.7766 16.1299 25.0802 16.4334C25.3837 16.737 25.5905 17.1237 25.6742 17.5448C25.7579 17.9658 25.715 18.4022 25.5507 18.7988C25.3864 19.1954 25.1082 19.5344 24.7513 19.7729C24.3943 20.0114 23.9747 20.1387 23.5454 20.1387C23.2602 20.1394 22.9777 20.0837 22.714 19.9748C22.4504 19.8659 22.2109 19.7061 22.0092 19.5044C21.8075 19.3027 21.6477 19.0632 21.5388 18.7996C21.43 18.536 21.3742 18.2534 21.3749 17.9682Z" stroke="#353C4D" stroke-width="0.836995" stroke-miterlimit="10"/>
<path d="M18.9629 3.98047H2.56347C2.16389 3.98047 1.83997 4.30439 1.83997 4.70397V12.4213C1.83997 12.8209 2.16389 13.1449 2.56347 13.1449H18.9629C19.3625 13.1449 19.6864 12.8209 19.6864 12.4213V4.70397C19.6864 4.30439 19.3625 3.98047 18.9629 3.98047Z" fill="#353C4D"/>
<path d="M7.62825 19.1355C8.27291 19.1355 8.7955 18.6129 8.7955 17.9683C8.7955 17.3236 8.27291 16.801 7.62825 16.801C6.9836 16.801 6.461 17.3236 6.461 17.9683C6.461 18.6129 6.9836 19.1355 7.62825 19.1355Z" fill="#353C4D"/>
<path d="M23.5455 19.1355C24.1901 19.1355 24.7127 18.6129 24.7127 17.9683C24.7127 17.3236 24.1901 16.801 23.5455 16.801C22.9008 16.801 22.3782 17.3236 22.3782 17.9683C22.3782 18.6129 22.9008 19.1355 23.5455 19.1355Z" fill="#353C4D"/>
</g>
<defs>
<clipPath id="clip0_997_11552">
<rect width="29.8807" height="22.7663" fill="white" transform="translate(0.88739 0.923492)"/>
</clipPath>
</defs>
</svg>
