<svg width="31" height="24" viewBox="0 0 31 24" fill="none" xmlns="http://www.w3.org/2000/svg">
<g clip-path="url(#clip0_997_11541)">
<path d="M23.3595 14.4804C23.7922 14.4804 24.2152 14.6058 24.575 14.8406C24.9348 15.0755 25.2153 15.4092 25.3809 15.7997C25.5465 16.1903 25.5898 16.62 25.5054 17.0345C25.421 17.4491 25.2126 17.8299 24.9066 18.1288C24.6006 18.4277 24.2108 18.6312 23.7863 18.7137C23.3619 18.7962 22.922 18.7538 22.5222 18.5921C22.1224 18.4303 21.7807 18.1564 21.5403 17.805C21.2999 17.4535 21.1716 17.0403 21.1716 16.6176C21.1746 16.0517 21.4061 15.5099 21.8158 15.1097C22.2254 14.7095 22.7802 14.4834 23.3595 14.4804Z" stroke="#353C4D" stroke-width="0.839901" stroke-miterlimit="10"/>
<path d="M7.64825 14.4804C8.08098 14.4804 8.504 14.6058 8.8638 14.8406C9.2236 15.0755 9.50403 15.4092 9.66963 15.7997C9.83523 16.1903 9.87856 16.62 9.79414 17.0345C9.70972 17.4491 9.50134 17.8299 9.19535 18.1288C8.88936 18.4277 8.49951 18.6312 8.0751 18.7137C7.65068 18.7962 7.21076 18.7538 6.81097 18.5921C6.41118 18.4303 6.06947 18.1564 5.82906 17.805C5.58865 17.4535 5.46033 17.0403 5.46033 16.6176C5.46033 16.0508 5.69084 15.5072 6.10116 15.1064C6.51147 14.7056 7.06798 14.4804 7.64825 14.4804Z" stroke="#353C4D" stroke-width="0.839901" stroke-miterlimit="10"/>
<path d="M29.8244 13.3779C29.8544 12.8348 29.7713 12.2915 29.58 11.7807C29.289 11.3033 24.9248 6.92093 24.9248 6.92093C23.5341 5.78414 6.04233 6.03992 4.5585 5.95466C3.07466 5.8694 3.0863 6.15928 3.0863 6.15928C0.805274 11.9853 1.73631 13.8383 1.73631 13.8383L1.44536 13.9577C1.20096 15.9527 1.77704 15.9925 1.8585 15.9527L4.83781 16.271C4.83781 16.271 4.87854 13.9122 7.61345 13.9122C10.3484 13.9122 10.3484 16.6234 10.3484 16.6234H20.5548C20.5548 16.6234 20.9214 13.952 23.3304 14.0316C26.0246 14.0714 26.0653 16.3847 26.0653 16.3847L28.3522 16.2654C28.3522 16.2654 30.3539 15.9073 30.4761 14.7136C30.5983 13.52 29.8244 13.3779 29.8244 13.3779ZM10.2669 9.67197C10.2677 9.75482 10.2517 9.83701 10.22 9.91385C10.1882 9.99068 10.1413 10.0607 10.0818 10.1198C10.0224 10.1789 9.95162 10.226 9.87354 10.2584C9.79547 10.2908 9.71163 10.3078 9.6268 10.3086H3.89514C3.76019 10.318 3.62692 10.2748 3.52444 10.1886C3.42195 10.1023 3.35857 9.97993 3.34816 9.84817C3.33639 9.79 3.33639 9.73014 3.34816 9.67197L3.79621 7.75647C3.84393 7.57467 3.95211 7.4135 4.10378 7.29827C4.25545 7.18304 4.442 7.12029 4.63414 7.11987H9.61517C9.69999 7.11912 9.78413 7.1347 9.86279 7.16572C9.94145 7.19673 10.0131 7.24258 10.0736 7.30064C10.1341 7.3587 10.1823 7.42783 10.2155 7.50409C10.2487 7.58036 10.2661 7.66225 10.2669 7.74511V9.67197ZM18.9197 9.63218C18.9205 9.71648 18.9039 9.80007 18.8711 9.87803C18.8383 9.95599 18.7898 10.0267 18.7285 10.0861C18.6672 10.1454 18.5943 10.1922 18.5142 10.2235C18.4341 10.2549 18.3484 10.2703 18.2621 10.2688H11.7333C11.6484 10.2695 11.5643 10.254 11.4856 10.2229C11.407 10.1919 11.3353 10.1461 11.2748 10.088C11.2143 10.03 11.1661 9.96082 11.1329 9.88456C11.0998 9.8083 11.0823 9.7264 11.0815 9.64355V7.75647C11.0808 7.67362 11.0967 7.59143 11.1285 7.5146C11.1602 7.43776 11.2072 7.36779 11.2666 7.30868C11.326 7.24956 11.3968 7.20246 11.4749 7.17007C11.553 7.13767 11.6368 7.12061 11.7216 7.11987H18.2621C18.3469 7.11912 18.4311 7.1347 18.5098 7.16572C18.5884 7.19673 18.66 7.24258 18.7206 7.30064C18.7811 7.3587 18.8293 7.42783 18.8625 7.50409C18.8956 7.58036 18.9131 7.66225 18.9138 7.74511V9.63218H18.9197ZM27.7005 11.2237H26.6356C26.5949 11.1839 25.8617 11.2635 25.658 10.7064C25.4543 10.1494 24.599 10.1381 24.599 10.1381L20.7585 9.9789L20.677 7.09145L24.0811 7.18808C24.9423 7.30744 27.6772 10.5985 27.6772 10.5985C28.1543 11.2237 27.7005 11.1839 27.7005 11.2237Z" fill="#353C4D"/>
<path d="M1.6489 11.8661C1.59763 12.1951 1.58396 12.5287 1.60817 12.8608H2.19007V12.5027L1.6489 11.8661Z" fill="#F6F6F6"/>
<path d="M20.9619 11.5021C20.9619 11.5257 20.9691 11.5488 20.9825 11.5684C20.9959 11.5881 21.015 11.6034 21.0374 11.6124C21.0597 11.6214 21.0842 11.6238 21.108 11.6192C21.1317 11.6146 21.1534 11.6032 21.1705 11.5865C21.1876 11.5698 21.1992 11.5485 21.204 11.5254C21.2087 11.5022 21.2063 11.4782 21.197 11.4564C21.1878 11.4346 21.1721 11.416 21.152 11.4029C21.1319 11.3897 21.1083 11.3827 21.0841 11.3827C21.0434 11.343 20.9619 11.4225 20.9619 11.5021Z" fill="#F6F6F6"/>
<path d="M20.6769 13.4975H27.8633C27.9173 13.4975 27.9691 13.4765 28.0073 13.4392C28.0455 13.4019 28.0669 13.3513 28.0669 13.2985C28.0669 13.2458 28.0455 13.1952 28.0073 13.1579C27.9691 13.1206 27.9173 13.0996 27.8633 13.0996H20.6769V13.4975Z" fill="#F6F6F6"/>
<path d="M20.5954 14.85H20.514V15.2479H20.5954V14.85Z" fill="#F6F6F6"/>
<path d="M20.6771 12.133V11.3827C20.6787 11.3581 20.6752 11.3334 20.667 11.31C20.6588 11.2867 20.6459 11.2651 20.6292 11.2467C20.6124 11.2282 20.5921 11.2131 20.5694 11.2023C20.5466 11.1915 20.5219 11.1852 20.4967 11.1838H20.3105V12.2637H20.4734C20.5178 12.2695 20.5628 12.2594 20.6002 12.2354C20.6376 12.2114 20.6649 12.1751 20.6771 12.133Z" fill="#F6F6F6"/>
<path d="M20.392 14.85H20.3105V15.2479H20.392V14.85Z" fill="#F6F6F6"/>
<path d="M20.229 14.85H20.1475V15.2479H20.229V14.85Z" fill="#F6F6F6"/>
<path d="M20.0252 14.85H19.9437V15.2479H20.0252V14.85Z" fill="#F6F6F6"/>
<path d="M19.8215 14.85H19.74V15.2479H19.8215V14.85Z" fill="#F6F6F6"/>
<path d="M19.6179 14.85H19.5364V15.2479H19.6179V14.85Z" fill="#F6F6F6"/>
<path d="M19.455 14.85H19.3735V15.2479H19.455V14.85Z" fill="#F6F6F6"/>
<path d="M20.0603 12.8606H19.5308C19.3733 12.8606 19.2457 12.9853 19.2457 13.1391V13.5767C19.2457 13.7306 19.3733 13.8553 19.5308 13.8553H20.0603C20.2178 13.8553 20.3454 13.7306 20.3454 13.5767V13.1391C20.3454 12.9853 20.2178 12.8606 20.0603 12.8606Z" fill="#F6F6F6"/>
<path d="M2.75459 13.4972H18.9196V13.0596H2.75459C2.72937 13.058 2.70408 13.0614 2.68017 13.0694C2.65627 13.0774 2.63423 13.09 2.6153 13.1064C2.59638 13.1227 2.58096 13.1426 2.56991 13.1648C2.55886 13.187 2.55241 13.2111 2.55093 13.2358V13.2699C2.54421 13.3225 2.55865 13.3756 2.59121 13.418C2.62378 13.4604 2.67192 13.4888 2.7255 13.4972H2.75459Z" fill="#F6F6F6"/>
<path d="M1.89928 13.8385H2.22514V12.9404H1.64325C1.67207 13.2525 1.75883 13.5568 1.89928 13.8385Z" fill="#F6F6F6"/>
<path d="M7.64836 18.0216C8.42608 18.0216 9.05655 17.4057 9.05655 16.6461C9.05655 15.8864 8.42608 15.2705 7.64836 15.2705C6.87064 15.2705 6.24017 15.8864 6.24017 16.6461C6.24017 17.4057 6.87064 18.0216 7.64836 18.0216Z" fill="#353C4D"/>
<path d="M23.3595 18.0216C24.1373 18.0216 24.7677 17.4057 24.7677 16.6461C24.7677 15.8864 24.1373 15.2705 23.3595 15.2705C22.5818 15.2705 21.9514 15.8864 21.9514 16.6461C21.9514 17.4057 22.5818 18.0216 23.3595 18.0216Z" fill="#353C4D"/>
</g>
<defs>
<clipPath id="clip0_997_11541">
<rect width="29.8807" height="22.7663" fill="white" transform="translate(0.88739 0.97702)"/>
</clipPath>
</defs>
</svg>
