<svg width="38" height="38" viewBox="0 0 38 38" fill="none" xmlns="http://www.w3.org/2000/svg">
<g clip-path="url(#clip0_5617_125)">
<rect x="0.230469" y="0.141602" width="37.0468" height="37.0468" rx="18.5234" fill="#F14B6A"/>
<path d="M25.5221 20.7439L23.8302 20.0726C22.567 19.5742 21.7745 19.3351 21.7745 18.6628C21.7745 18.0343 22.3309 17.7087 23.2306 17.7087C24.2585 17.7087 25.0723 18.0558 26.0148 18.7276L27.8561 16.3872C26.5716 15.1079 24.8152 14.5012 23.2303 14.5012C21.8465 14.5012 20.6524 14.9126 19.7581 15.5845C19.9725 14.8714 20.1854 14.1623 20.397 13.457C20.792 12.1195 21.1803 10.8032 21.5564 9.52937L22.6213 5.85039C22.9534 4.67884 23.2673 3.57194 23.5573 2.54877C24.1341 0.503292 24.5852 -1.21067 24.9151 -2.40686C25.0802 -3.00495 25.1981 -3.47773 25.2836 -3.79885L25.4122 -4.29199C25.4122 -4.29199 25.3543 -4.12453 25.2452 -3.81081C25.1362 -3.4971 24.9727 -3.03799 24.7775 -2.44972C24.387 -1.27319 23.8087 0.401189 23.1512 2.42189C22.8235 3.43295 22.4688 4.52761 22.0932 5.68563C21.7421 6.79025 21.3724 7.95354 20.9901 9.15414H17.272L15.8583 15.3099C15.4943 16.8052 15.2157 18.2577 14.8312 19.7754H14.7453C14.3598 18.258 14.1028 16.8059 13.7175 15.3099L12.2606 9.15414H8.36328L12.4752 23.2435H16.6875C16.4876 23.9253 16.2913 24.5996 16.0958 25.2609C15.3488 27.81 14.6666 30.1941 14.095 32.2414C13.5173 34.2869 13.0679 36.0008 12.7376 37.197C12.5727 37.7951 12.4548 38.2679 12.3695 38.5889C12.2843 38.9098 12.2408 39.0822 12.2408 39.0822C12.2408 39.0822 12.2989 38.9147 12.4081 38.601C12.5172 38.2873 12.6807 37.8283 12.8759 37.2399C13.2665 36.0634 13.8457 34.3893 14.5028 32.3686C15.166 30.3497 15.9238 27.9895 16.721 25.4559C17.1158 24.1885 17.5357 22.8815 17.941 21.5473C18.0627 21.1509 18.1858 20.7499 18.3084 20.35C18.7616 21.551 19.7546 22.3588 20.8535 22.8036L22.5883 23.5404C23.7659 24.0172 24.4728 24.2341 24.4728 24.9059C24.4728 25.5345 24.0017 25.9027 22.8878 25.9027C21.8596 25.9027 20.6178 25.3395 19.6323 24.5372L17.5338 27.0954C19.033 28.4609 21.0459 29.1109 22.802 29.1109C26.2719 29.1109 28.2421 26.9867 28.2421 24.6025C28.2421 22.6515 27.2572 21.4376 25.5221 20.7439Z" fill="white"/>
</g>
<defs>
<clipPath id="clip0_5617_125">
<rect x="0.230469" y="0.141602" width="37.0468" height="37.0468" rx="18.5234" fill="white"/>
</clipPath>
</defs>
</svg>
