<svg width="31" height="24" viewBox="0 0 31 24" fill="none" xmlns="http://www.w3.org/2000/svg">
<g clip-path="url(#clip0_997_11563)">
<path d="M30.1063 13.1856C30.0624 13.0979 29.6018 12.9937 29.6018 12.9937C29.3551 11.3872 29.0535 11.283 29.0535 11.283C27.6114 10.5592 21.2894 10.1151 21.2894 10.1151C20.0941 9.16649 18.9261 7.81763 18.2627 7.57638C17.1222 7.19804 3.49659 7.20352 3.23889 7.42833C2.98118 7.65314 2.3561 8.98554 1.89003 11.2665C1.84792 11.7215 1.86081 12.1799 1.92841 12.6318C1.59943 12.736 1.59943 12.9115 1.59943 13.1801C1.59253 13.3795 1.65884 13.5746 1.78585 13.7285C1.85713 13.8162 2.04356 13.8162 2.41093 13.8436C2.7783 13.871 2.88248 14.3919 3.00859 14.4303C3.13471 14.4687 5.16347 14.6496 5.79951 14.6496H6.54522C6.55052 14.0969 6.77077 13.5679 7.15933 13.1747C7.54561 12.7802 8.07267 12.5552 8.62475 12.549C9.17682 12.5428 9.70878 12.756 10.1038 13.1418L10.1367 13.1747C10.5355 13.5771 10.7584 14.1214 10.7563 14.688V14.8361H11.0469C12.0722 14.8361 21.0317 14.9841 21.8925 14.9841C22.1929 14.9868 22.4931 14.9722 22.7918 14.9402C22.7863 14.8544 22.7863 14.7683 22.7918 14.6825C22.794 14.1178 23.014 13.5758 23.4059 13.1692C23.7922 12.7747 24.3192 12.5497 24.8713 12.5435C25.4234 12.5373 25.9553 12.7505 26.3503 13.1363L26.3832 13.1692C26.7657 13.5552 26.9856 14.0734 26.9973 14.6167H27.1399C28.1044 14.5167 29.0583 14.3332 29.9911 14.0684C30.1392 13.9916 30.1337 13.712 30.1337 13.5969C30.1548 13.4594 30.1454 13.319 30.1063 13.1856ZM10.5534 8.08631L10.0544 10.0109C10.0544 10.0109 10.0051 10.1699 9.87897 10.1699L2.99214 10.1206C2.90441 10.1206 2.81668 9.99444 2.87151 9.84091C2.92635 9.68738 3.41983 8.19597 3.6556 8.08631C3.84673 8.00899 4.0532 7.97708 4.25875 7.99309L10.4218 7.95471C10.5534 7.95471 10.5644 8.02599 10.5534 8.08631ZM14.7973 10.2083L10.7618 10.1589L11.2772 8.13017C12.1874 8.05341 14.408 8.06437 14.7973 8.06437V10.2083ZM15.6527 10.2083L15.406 8.06437C15.406 8.06437 17.7747 8.06437 18.1201 8.27822C18.7552 8.88104 19.3368 9.53782 19.8583 10.2412L15.6527 10.2083Z" fill="#353C4D"/>
<path d="M7.08297 14.8896C7.09504 14.5689 7.20063 14.2588 7.38675 13.9973C7.57287 13.7359 7.83138 13.5346 8.13046 13.4182C8.42955 13.3019 8.75614 13.2755 9.07003 13.3424C9.38391 13.4092 9.67139 13.5664 9.89706 13.7946C10.1227 14.0228 10.2767 14.3119 10.3401 14.6265C10.4035 14.9411 10.3735 15.2673 10.2538 15.5651C10.1341 15.8628 9.92991 16.1191 9.66641 16.3022C9.40291 16.4854 9.09158 16.5876 8.77076 16.5961C8.54698 16.598 8.32509 16.555 8.1182 16.4697C7.91132 16.3844 7.72364 16.2585 7.56629 16.0994C7.40893 15.9403 7.28507 15.7512 7.20206 15.5434C7.11904 15.3356 7.07855 15.1133 7.08297 14.8896Z" stroke="#353C4D" stroke-width="0.629686" stroke-miterlimit="10"/>
<path d="M22.9842 14.8896C22.9962 14.5689 23.1018 14.2588 23.2879 13.9973C23.474 13.7359 23.7326 13.5346 24.0316 13.4182C24.3307 13.3019 24.6573 13.2755 24.9712 13.3424C25.2851 13.4092 25.5726 13.5664 25.7982 13.7946C26.0239 14.0228 26.1779 14.3119 26.2413 14.6265C26.3047 14.9411 26.2747 15.2673 26.155 15.5651C26.0353 15.8628 25.8311 16.1191 25.5676 16.3022C25.3041 16.4854 24.9928 16.5876 24.6719 16.5961C24.4482 16.598 24.2263 16.555 24.0194 16.4697C23.8125 16.3844 23.6248 16.2585 23.4675 16.0994C23.3101 15.9403 23.1863 15.7512 23.1032 15.5434C23.0202 15.3356 22.9797 15.1133 22.9842 14.8896Z" stroke="#353C4D" stroke-width="0.629686" stroke-miterlimit="10"/>
<path d="M8.72779 16.048C9.33344 16.048 9.82442 15.557 9.82442 14.9514C9.82442 14.3457 9.33344 13.8548 8.72779 13.8548C8.12214 13.8548 7.63116 14.3457 7.63116 14.9514C7.63116 15.557 8.12214 16.048 8.72779 16.048Z" fill="#353C4D"/>
<path d="M24.629 16.0476C25.2346 16.0476 25.7256 15.5566 25.7256 14.951C25.7256 14.3453 25.2346 13.8543 24.629 13.8543C24.0233 13.8543 23.5323 14.3453 23.5323 14.951C23.5323 15.5566 24.0233 16.0476 24.629 16.0476Z" fill="#353C4D"/>
</g>
<defs>
<clipPath id="clip0_997_11563">
<rect width="29.8807" height="22.7663" fill="white" transform="translate(0.88739 0.86998)"/>
</clipPath>
</defs>
</svg>
