<svg width="20" height="20" viewBox="0 0 20 20" fill="none" xmlns="http://www.w3.org/2000/svg">
<path d="M14.9016 16.0805C13.436 17.0101 11.7356 17.5024 9.99996 17.4996C5.50663 17.4996 1.7683 14.2663 0.984131 9.99965C1.34249 8.05858 2.31882 6.28539 3.76746 4.94465L1.15996 2.33965L2.33913 1.16048L18.8383 17.6605L17.6591 18.8388L14.9008 16.0805H14.9016ZM4.9458 6.12465C3.8133 7.15431 3.02439 8.50697 2.6858 9.99965C2.94604 11.1384 3.46852 12.2006 4.21163 13.1018C4.95475 14.003 5.89799 14.7183 6.96626 15.1907C8.03453 15.6632 9.19834 15.8797 10.365 15.8231C11.5317 15.7665 12.6691 15.4383 13.6866 14.8646L11.9966 13.1746C11.2772 13.6278 10.4251 13.8231 9.58016 13.7283C8.73519 13.6336 7.9475 13.2546 7.34627 12.6533C6.74505 12.0521 6.36599 11.2644 6.27127 10.4194C6.17654 9.57448 6.37178 8.72241 6.82496 8.00298L4.9458 6.12465ZM10.7616 11.9396L8.05996 9.23798C7.91168 9.61543 7.87679 10.0279 7.95955 10.4249C8.04232 10.8219 8.23914 11.1861 8.5259 11.4729C8.81265 11.7596 9.17685 11.9565 9.57384 12.0392C9.97083 12.122 10.3834 12.0871 10.7608 11.9388L10.7616 11.9396ZM17.3391 13.8263L16.1466 12.6346C16.7037 11.8407 17.1003 10.9456 17.3141 9.99965C17.0877 9.00775 16.6618 8.07227 16.0626 7.25006C15.4633 6.42785 14.7031 5.73609 13.8282 5.21682C12.9533 4.69755 11.9819 4.36162 10.9731 4.22945C9.96428 4.09728 8.93913 4.17163 7.95996 4.44798L6.64496 3.13298C7.68413 2.72465 8.81663 2.49965 9.99996 2.49965C14.4933 2.49965 18.2316 5.73298 19.0158 9.99965C18.7605 11.3877 18.1865 12.6976 17.3391 13.8263ZM9.76913 6.25631C10.2996 6.22353 10.8309 6.30387 11.3279 6.49199C11.8249 6.68012 12.2763 6.97174 12.6521 7.34752C13.0279 7.72331 13.3195 8.17467 13.5076 8.67169C13.6957 9.16872 13.7761 9.70006 13.7433 10.2305L9.7683 6.25631H9.76913Z" fill="#AEB1B8"/>
</svg>
