<svg width="116" height="43" viewBox="0 0 116 43" fill="none" xmlns="http://www.w3.org/2000/svg">
<g clip-path="url(#clip0_5540_51680)">
<path d="M39.9416 18.5267C39.8767 16.4693 39.4848 14.4354 38.7807 12.5013C37.6312 9.37129 35.6723 6.60214 33.1036 4.47613C32.4095 3.89934 31.6763 3.3713 30.9092 2.89582C30.5487 2.67337 30.1354 2.55108 29.7119 2.54156C29.2884 2.53205 28.87 2.63566 28.4999 2.8417C28.1298 3.04774 27.8213 3.34876 27.6063 3.71373C27.3913 4.07871 27.2775 4.49442 27.2767 4.91802C27.2763 5.32029 27.3795 5.71591 27.5762 6.06678C27.773 6.41766 28.0567 6.712 28.4002 6.92149C28.9858 7.28358 29.5451 7.68652 30.0741 8.12732C32.7728 10.3632 34.5472 13.5198 35.0547 16.9875C35.1334 17.5098 35.1821 18.0362 35.2007 18.5641C35.3278 22.0659 34.1584 25.4914 31.9165 28.1845L30.3961 30.0082C30.2002 30.2583 29.956 30.4666 29.6781 30.6206C29.4002 30.7747 29.0942 30.8713 28.7782 30.9049C28.4623 30.9386 28.1428 30.9084 27.8387 30.8163C27.5346 30.7241 27.2521 30.5719 27.008 30.3686C26.7638 30.1653 26.5629 29.915 26.4172 29.6326C26.2715 29.3503 26.184 29.0415 26.1598 28.7247C26.1356 28.4079 26.1753 28.0894 26.2765 27.7882C26.3776 27.487 26.5382 27.2092 26.7487 26.9712L28.2653 25.1475C29.3317 23.8703 30.0421 22.3344 30.325 20.6949C30.5721 19.2554 30.4863 17.7783 30.0741 16.3771C30.0142 16.1749 29.9468 15.9764 29.8719 15.7817C29.298 14.2188 28.3198 12.8361 27.037 11.7748C25.7589 10.7054 24.2198 9.99466 22.577 9.71511C21.8857 9.59866 21.1837 9.55848 20.4836 9.59529C20.4751 8.13441 20.0172 6.71155 19.1719 5.51999C18.3267 4.32843 17.1351 3.42593 15.7592 2.93509C14.3832 2.44425 12.8895 2.38888 11.4809 2.77647C10.0724 3.16406 8.81725 3.97583 7.88609 5.10152L6.38817 6.92524C4.24906 9.4826 2.82751 12.5622 2.26888 15.8491C1.71189 19.1357 2.02035 22.5106 3.16389 25.6418C4.31378 28.7706 6.27117 31.5393 8.83728 33.6669C9.53203 34.2446 10.2666 34.7727 11.0355 35.2472C11.5685 35.5546 12.2001 35.6431 12.7971 35.4939C13.3941 35.3448 13.9098 34.9697 14.2356 34.4477C14.5615 33.9257 14.6719 33.2976 14.5437 32.6957C14.4154 32.0939 14.0585 31.5654 13.5482 31.2215C12.9624 30.8598 12.403 30.4569 11.8743 30.0157C9.17837 27.7781 7.40564 24.6221 6.89748 21.1555C6.81878 20.6332 6.77002 20.1068 6.75143 19.5789C6.61609 16.0793 7.7761 12.6526 10.0094 9.95479L11.5298 8.13107C11.7257 7.88094 11.9699 7.6727 12.2478 7.51866C12.5257 7.36463 12.8317 7.26794 13.1477 7.23434C13.4636 7.20073 13.7831 7.23089 14.0872 7.32302C14.3913 7.41515 14.6738 7.56739 14.918 7.7707C15.1621 7.97401 15.363 8.22426 15.5087 8.50663C15.6544 8.78901 15.7419 9.09776 15.7661 9.41457C15.7903 9.73139 15.7506 10.0498 15.6495 10.351C15.5483 10.6523 15.3877 10.9301 15.1772 11.1681L13.6793 12.9918C12.6067 14.2668 11.8909 15.803 11.6047 17.4444C11.6047 17.4931 11.6047 17.5418 11.5822 17.5905C11.3337 19.1904 11.4974 20.8273 12.0578 22.3463C12.6348 23.9086 13.6126 25.2915 14.893 26.3563C16.1734 27.4212 17.7115 28.1304 19.3527 28.4129C20.0454 28.5276 20.7485 28.5678 21.4498 28.5328C21.4583 29.9936 21.9162 31.4165 22.7615 32.6081C23.6067 33.7996 24.7983 34.7021 26.1742 35.193C27.5502 35.6838 29.044 35.7392 30.4525 35.3516C31.8611 34.964 33.1162 34.1522 34.0473 33.0265L35.5452 31.2028C38.5065 27.6492 40.0661 23.1354 39.9304 18.5117L39.9416 18.5267ZM20.9592 23.8106C20.0223 23.8106 19.1064 23.5327 18.3274 23.0122C17.5484 22.4917 16.9412 21.7518 16.5826 20.8862C16.2241 20.0206 16.1303 19.0681 16.3131 18.1492C16.4959 17.2303 16.947 16.3862 17.6095 15.7237C18.272 15.0612 19.1161 14.61 20.035 14.4272C20.954 14.2444 21.9065 14.3383 22.7721 14.6968C23.6377 15.0554 24.3775 15.6625 24.898 16.4415C25.4186 17.2206 25.6964 18.1365 25.6964 19.0734C25.6964 20.3298 25.1973 21.5347 24.3089 22.4231C23.4205 23.3115 22.2156 23.8106 20.9592 23.8106Z" fill="#2A9FE8"/>
<path d="M58.8714 18.313C54.5649 17.7775 53.5275 17.0435 53.5275 15.5756C53.5275 14.0402 54.9655 12.9018 57.8041 12.9018C60.6427 12.9018 62.7473 13.5047 65.6495 15.1749L67.5556 11.5012C64.6747 9.5896 61.2755 8.61037 57.8191 8.69638C52.9509 8.69638 48.2324 11.0668 48.2998 15.643C48.3335 19.5151 51.0372 21.2864 57.1488 22.2526C61.826 22.9566 62.6948 23.6906 62.6948 25.2259C62.6948 26.7613 61.5264 27.8473 58.3209 27.8473C54.9805 27.8473 52.1757 26.6789 49.7715 25.0425L47.768 28.3791C50.2359 30.6522 54.5461 31.9853 58.3209 31.9853C63.5636 31.9853 68.005 29.6149 67.9713 25.0425C67.9226 20.6161 64.3688 19.0133 58.8714 18.313Z" fill="white"/>
<path d="M92.579 8.99561V13.201H100.686V31.7041H105.761V13.201H114.037V8.99561H92.579Z" fill="white"/>
<path d="M48.2661 37.4787C48.2697 37.5695 48.293 37.6584 48.3344 37.7392C48.3757 37.82 48.4342 37.8909 48.5058 37.9468C48.6656 38.088 48.8731 38.1629 49.0862 38.1565C49.2793 38.1681 49.4703 38.1111 49.6255 37.9955C49.7496 37.8951 49.8323 37.7524 49.8576 37.5948C49.8688 37.5127 49.8596 37.4291 49.8309 37.3514C49.8021 37.2737 49.7547 37.2043 49.6929 37.1492C49.5558 37.0296 49.3888 36.9494 49.2098 36.917L48.7155 36.7934C48.0938 36.6361 47.783 36.3029 47.783 35.7973C47.7813 35.648 47.8142 35.5002 47.8791 35.3657C47.9441 35.2312 48.0394 35.1136 48.1575 35.0221C48.4014 34.8202 48.7097 34.7126 49.0263 34.7188C49.3495 34.7075 49.6651 34.8185 49.9101 35.0296C50.0245 35.1302 50.1152 35.2549 50.1754 35.3948C50.2356 35.5347 50.264 35.6863 50.2583 35.8385H49.7416C49.7442 35.7526 49.7274 35.6672 49.6924 35.5888C49.6574 35.5103 49.6051 35.4407 49.5393 35.3854C49.3933 35.2679 49.2099 35.2068 49.0226 35.2131C48.8422 35.2107 48.666 35.2672 48.5207 35.3742C48.4541 35.4209 48.3999 35.4832 48.3627 35.5556C48.3255 35.628 48.3065 35.7084 48.3073 35.7898C48.3073 36.0557 48.487 36.2317 48.8503 36.3216L49.3484 36.4452C49.657 36.5057 49.9395 36.66 50.1572 36.887C50.2453 36.9887 50.3101 37.1085 50.347 37.2379C50.3839 37.3673 50.392 37.5032 50.3707 37.636C50.3561 37.7754 50.3138 37.9105 50.2462 38.0333C50.1787 38.1561 50.0874 38.2642 49.9775 38.3513C49.726 38.5481 49.4128 38.649 49.0937 38.6359C48.7436 38.6467 48.4029 38.5219 48.1425 38.2876C48.025 38.1873 47.9307 38.0627 47.866 37.9224C47.8014 37.7821 47.7679 37.6295 47.768 37.475L48.2661 37.4787Z" fill="white"/>
<path d="M51.4757 35.9961V36.4006C51.5626 36.2522 51.6935 36.1345 51.8502 36.0635C52.0128 35.9818 52.1924 35.9395 52.3744 35.94C52.5454 35.9363 52.7153 35.9677 52.8737 36.0321C53.0322 36.0964 53.1757 36.1926 53.2957 36.3145C53.4216 36.4439 53.5198 36.5976 53.5842 36.7664C53.6486 36.9351 53.6778 37.1152 53.6701 37.2956C53.6772 37.4743 53.6476 37.6525 53.5832 37.8193C53.5188 37.9861 53.4209 38.1379 53.2957 38.2655C53.1759 38.3876 53.0323 38.4838 52.8739 38.5482C52.7154 38.6126 52.5454 38.6439 52.3744 38.64C52.1907 38.6417 52.009 38.602 51.8427 38.5239C51.6851 38.4581 51.5535 38.3423 51.4682 38.1943V39.8421H50.9626V35.9961H51.4757ZM51.4757 37.3031C51.4701 37.4185 51.4901 37.5336 51.5341 37.6404C51.5781 37.7472 51.6451 37.843 51.7303 37.921C51.8938 38.0675 52.1062 38.1477 52.3258 38.1457C52.436 38.1485 52.5457 38.1294 52.6486 38.0895C52.7514 38.0497 52.8453 37.9898 52.9249 37.9135C53.0039 37.8332 53.0655 37.7377 53.1061 37.6327C53.1467 37.5277 53.1653 37.4156 53.1608 37.3031C53.1655 37.188 53.1467 37.0732 53.1055 36.9657C53.0643 36.8582 53.0016 36.7602 52.9212 36.6777C52.8443 36.598 52.7516 36.5352 52.6491 36.4933C52.5466 36.4514 52.4365 36.4313 52.3258 36.4343C52.2147 36.4319 52.1042 36.4515 52.0007 36.492C51.8972 36.5325 51.8028 36.5931 51.7228 36.6702C51.6415 36.7514 51.5779 36.8485 51.536 36.9555C51.4941 37.0625 51.4748 37.177 51.4794 37.2919L51.4757 37.3031Z" fill="white"/>
<path d="M56.7298 37.2916C56.7298 37.389 56.7298 37.4564 56.7298 37.4901H54.6328C54.6548 37.6907 54.7543 37.8747 54.9099 38.0031C55.0681 38.1322 55.2675 38.2 55.4716 38.1941C55.6241 38.1959 55.7746 38.1599 55.9097 38.0893C56.0367 38.0229 56.142 37.9215 56.2131 37.7971L56.434 37.8833L56.6475 37.9619C56.545 38.1789 56.3757 38.3574 56.1644 38.4712C55.9468 38.5918 55.7016 38.6538 55.4529 38.651C55.2784 38.6555 55.1049 38.6247 54.9427 38.5603C54.7805 38.496 54.633 38.3994 54.5092 38.2765C54.3832 38.1471 54.285 37.9933 54.2206 37.8246C54.1562 37.6559 54.127 37.4758 54.1347 37.2954C54.1258 37.1185 54.1537 36.9418 54.2167 36.7763C54.2797 36.6109 54.3765 36.4603 54.5008 36.3343C54.6251 36.2082 54.7742 36.1093 54.9388 36.044C55.1033 35.9787 55.2797 35.9483 55.4566 35.9547C55.6282 35.9505 55.7988 35.9816 55.9579 36.046C56.117 36.1104 56.2612 36.2068 56.3816 36.3292C56.62 36.5915 56.7452 36.9374 56.7298 37.2916ZM54.6215 37.0969H56.2318C56.2174 36.9008 56.1265 36.7183 55.9786 36.5887C55.8308 36.459 55.6379 36.3927 55.4416 36.4041C55.2417 36.3989 55.0465 36.4653 54.8912 36.5913C54.7446 36.7167 54.652 36.8938 54.6328 37.0856L54.6215 37.0969Z" fill="white"/>
<path d="M59.7554 37.2918C59.7554 37.3892 59.7554 37.4566 59.7554 37.4903H57.6545C57.6766 37.6908 57.776 37.8749 57.9317 38.0033C58.0899 38.1324 58.2893 38.2001 58.4934 38.1943C58.6459 38.1961 58.7964 38.1601 58.9315 38.0894C59.0585 38.0231 59.1638 37.9217 59.2348 37.7973L59.4558 37.8835L59.6655 37.9621C59.564 38.1785 59.3961 38.357 59.1862 38.4714C58.9684 38.5915 58.7233 38.6534 58.4747 38.6512C58.3002 38.6557 58.1267 38.6249 57.9645 38.5605C57.8023 38.4961 57.6548 38.3996 57.531 38.2767C57.4043 38.1478 57.3056 37.9941 57.2412 37.8253C57.1767 37.6564 57.1479 37.4761 57.1565 37.2955C57.148 37.1162 57.177 36.937 57.2414 36.7694C57.3059 36.6017 57.4045 36.4494 57.531 36.3219C57.6556 36.2 57.8032 36.1041 57.9652 36.0398C58.1272 35.9756 58.3004 35.9441 58.4747 35.9474C58.6463 35.9432 58.8169 35.9743 58.976 36.0387C59.1351 36.1031 59.2793 36.1995 59.3996 36.3219C59.5199 36.4521 59.6133 36.6048 59.6744 36.7713C59.7355 36.9378 59.763 37.1146 59.7554 37.2918ZM57.6471 37.0971H59.2536C59.2381 36.9017 59.1467 36.7202 58.9989 36.5915C58.8511 36.4652 58.6615 36.3985 58.4672 36.4043C58.2672 36.3991 58.072 36.4655 57.9167 36.5915C57.7659 36.7149 57.6692 36.8923 57.6471 37.0858V37.0971Z" fill="white"/>
<path d="M62.3845 38.5836V38.1829C62.2979 38.3316 62.1669 38.4495 62.01 38.5199C61.8438 38.5988 61.6622 38.6398 61.4782 38.6398C61.3061 38.6433 61.1351 38.612 60.9755 38.5477C60.8159 38.4833 60.671 38.3872 60.5495 38.2653C60.3074 37.998 60.1733 37.6503 60.1733 37.2898C60.1733 36.9292 60.3074 36.5815 60.5495 36.3142C60.6704 36.1926 60.8147 36.0967 60.9736 36.0323C61.1326 35.9679 61.303 35.9365 61.4745 35.9398C61.6615 35.9375 61.8467 35.9758 62.0175 36.0521C62.1728 36.1214 62.3034 36.2364 62.3919 36.3816V34.5879H62.8975V38.5836H62.3845ZM62.1298 37.9095C62.214 37.8286 62.28 37.7306 62.3233 37.6221C62.3665 37.5136 62.3861 37.3971 62.3807 37.2804C62.3864 37.1637 62.3658 37.0473 62.3204 36.9397C62.2751 36.8321 62.2061 36.7361 62.1186 36.6588C61.9551 36.5122 61.7427 36.4321 61.5232 36.4341C61.4117 36.4315 61.3008 36.4516 61.1973 36.4933C61.0939 36.5351 61 36.5974 60.9215 36.6766C60.843 36.7558 60.7815 36.8503 60.7407 36.9541C60.6999 37.0579 60.6807 37.1689 60.6843 37.2804C60.681 37.395 60.7009 37.5092 60.7427 37.616C60.7846 37.7228 60.8475 37.8201 60.9277 37.902C61.0046 37.9817 61.0973 38.0445 61.1998 38.0864C61.3023 38.1283 61.4125 38.1484 61.5232 38.1455C61.7459 38.1476 61.9608 38.063 62.1223 37.9095H62.1298Z" fill="white"/>
<path d="M67.0687 37.6137H65.451L65.0765 38.5836H64.526L65.979 34.7639H66.5332L67.9787 38.5836H67.4395L67.0687 37.6137ZM65.627 37.1494H66.889L66.2598 35.453L65.627 37.1494Z" fill="white"/>
<path d="M71.8587 34.5876V35.0707H71.5779C71.2483 35.0707 71.0873 35.2916 71.0948 35.7335V35.9956H71.694V36.4225H71.0948V38.5833H70.5855V36.4225H69.0876V38.5833H68.5745V36.4225H68.0765V35.9956H68.5745V35.7335C68.5576 35.4326 68.6449 35.135 68.8217 34.8909C68.914 34.7852 69.0299 34.7026 69.16 34.6499C69.2901 34.5972 69.4308 34.5759 69.5707 34.5876H69.8553V35.0707H69.5707C69.2411 35.0707 69.0838 35.2916 69.0913 35.7335V35.9956H70.5892V35.7335C70.573 35.4332 70.6588 35.1363 70.8327 34.8909C70.9255 34.7859 71.0415 34.7038 71.1715 34.6512C71.3014 34.5985 71.4418 34.5768 71.5816 34.5876H71.8587Z" fill="white"/>
<path d="M74.2926 38.2577C74.0323 38.5018 73.6889 38.6376 73.3321 38.6376C72.9752 38.6376 72.6318 38.5018 72.3715 38.2577C72.1204 37.995 71.9803 37.6456 71.9803 37.2822C71.9803 36.9187 72.1204 36.5693 72.3715 36.3066C72.6352 36.068 72.9782 35.9358 73.3339 35.9358C73.6896 35.9358 74.0326 36.068 74.2964 36.3066C74.4233 36.433 74.5223 36.5846 74.5868 36.7517C74.6513 36.9188 74.6799 37.0977 74.6708 37.2766C74.6801 37.4575 74.6512 37.6383 74.5861 37.8073C74.5209 37.9764 74.4209 38.1298 74.2926 38.2577ZM72.7235 37.9094C72.8443 38.0315 72.999 38.1144 73.1676 38.1472C73.3362 38.18 73.5107 38.1612 73.6685 38.0933C73.8262 38.0253 73.9598 37.9114 74.0517 37.7664C74.1437 37.6213 74.1898 37.4519 74.184 37.2803C74.1889 37.1662 74.1694 37.0524 74.1268 36.9465C74.0842 36.8406 74.0194 36.745 73.9368 36.6661C73.77 36.5169 73.554 36.4344 73.3302 36.4344C73.1064 36.4344 72.8904 36.5169 72.7235 36.6661C72.641 36.745 72.5762 36.8406 72.5336 36.9465C72.4909 37.0524 72.4715 37.1662 72.4764 37.2803C72.4717 37.3966 72.4912 37.5125 72.5338 37.6208C72.5763 37.7291 72.641 37.8274 72.7235 37.9094Z" fill="white"/>
<path d="M75.8059 37.6399V38.5836H75.3041V35.9959H75.8059V36.5764C75.9332 36.1532 76.1804 35.9398 76.5286 35.9398C76.6851 35.9286 76.8414 35.9637 76.978 36.0409L76.8994 36.509C76.782 36.4542 76.6544 36.4248 76.5249 36.4229C76.4133 36.4202 76.3035 36.4503 76.2089 36.5096C76.1144 36.5689 76.0393 36.6546 75.9931 36.7562C75.8595 37.031 75.7952 37.3345 75.8059 37.6399Z" fill="white"/>
<path d="M79.4155 38.5836V38.1829C79.3274 38.3303 79.1969 38.4478 79.041 38.5199C78.875 38.5992 78.6933 38.6401 78.5093 38.6398C78.3372 38.6433 78.1662 38.612 78.0065 38.5477C77.8469 38.4833 77.702 38.3872 77.5806 38.2653C77.3385 37.998 77.2044 37.6503 77.2044 37.2898C77.2044 36.9292 77.3385 36.5815 77.5806 36.3142C77.702 36.1923 77.8469 36.0962 78.0065 36.0319C78.1662 35.9675 78.3372 35.9362 78.5093 35.9398C78.695 35.9379 78.879 35.9762 79.0485 36.0521C79.2035 36.122 79.3339 36.2368 79.423 36.3816V34.5879H79.9248V38.5836H79.4155ZM79.1571 37.9095C79.2413 37.8286 79.3073 37.7306 79.3505 37.6221C79.3938 37.5136 79.4134 37.3971 79.408 37.2804C79.4134 37.1641 79.393 37.0482 79.3483 36.9407C79.3037 36.8332 79.2358 36.737 79.1496 36.6588C78.9842 36.5129 78.771 36.4329 78.5504 36.4341C78.4389 36.4315 78.3281 36.4516 78.2246 36.4933C78.1212 36.5351 78.0273 36.5974 77.9488 36.6766C77.8703 36.7558 77.8088 36.8503 77.768 36.9541C77.7272 37.0579 77.708 37.1689 77.7116 37.2804C77.7084 37.395 77.7282 37.5092 77.77 37.616C77.8119 37.7228 77.8748 37.8201 77.955 37.902C78.0324 37.9812 78.1251 38.0436 78.2275 38.0855C78.3299 38.1273 78.4398 38.1478 78.5504 38.1455C78.7758 38.1496 78.9937 38.0648 79.1571 37.9095Z" fill="white"/>
<path d="M82.7562 38.5837V38.183C82.6692 38.3314 82.5384 38.4492 82.3817 38.5201C82.2158 38.5997 82.034 38.6407 81.8499 38.6399C81.6779 38.6433 81.5069 38.6118 81.3473 38.5475C81.1878 38.4831 81.0428 38.3872 80.9212 38.2654C80.6759 37.9997 80.5397 37.6515 80.5397 37.2899C80.5397 36.9283 80.6759 36.58 80.9212 36.3144C81.0431 36.1929 81.1881 36.0972 81.3476 36.0329C81.5071 35.9686 81.6779 35.9369 81.8499 35.9399C82.0349 35.9383 82.2178 35.9779 82.3854 36.056C82.5408 36.1235 82.6716 36.2373 82.7599 36.3818V36.0073H83.258V38.5949L82.7562 38.5837ZM82.7562 37.2805C82.7615 37.1643 82.7412 37.0483 82.6965 36.9408C82.6518 36.8334 82.584 36.7371 82.4978 36.6589C82.3328 36.5124 82.1193 36.4323 81.8986 36.4342C81.7865 36.43 81.6747 36.449 81.5704 36.4901C81.466 36.5311 81.3712 36.5934 81.2921 36.6729C81.2129 36.7524 81.1511 36.8474 81.1105 36.952C81.0698 37.0566 81.0513 37.1684 81.056 37.2805C81.0528 37.3952 81.0726 37.5093 81.1145 37.6161C81.1563 37.7229 81.2192 37.8202 81.2995 37.9022C81.3777 37.9811 81.4712 38.0433 81.5741 38.0851C81.6771 38.127 81.7875 38.1475 81.8986 38.1456C82.1245 38.1501 82.3433 38.0669 82.509 37.9134C82.5897 37.8319 82.6526 37.7346 82.6938 37.6276C82.7351 37.5207 82.7538 37.4063 82.7487 37.2918L82.7562 37.2805Z" fill="white"/>
<path d="M84.5459 38.1829V38.5836H84.0404V34.5879H84.5459V36.3816C84.6344 36.2364 84.765 36.1214 84.9204 36.0521C85.1634 35.9461 85.4322 35.914 85.6933 35.96C85.9544 36.0059 86.1962 36.1279 86.3883 36.3105C86.6328 36.5765 86.7685 36.9247 86.7685 37.286C86.7685 37.6473 86.6328 37.9955 86.3883 38.2615C86.2662 38.3836 86.1206 38.4797 85.9604 38.5441C85.8001 38.6084 85.6285 38.6397 85.4559 38.636C85.2732 38.6356 85.0929 38.5947 84.9279 38.5162C84.7687 38.448 84.635 38.3314 84.5459 38.1829ZM84.5459 37.2804C84.5409 37.3976 84.5607 37.5145 84.6039 37.6236C84.6472 37.7326 84.7129 37.8313 84.7968 37.9133C84.9623 38.0671 85.1813 38.1504 85.4072 38.1455C85.5178 38.1478 85.6277 38.1273 85.7302 38.0855C85.8326 38.0436 85.9253 37.9812 86.0026 37.902C86.0824 37.8199 86.1447 37.7225 86.1859 37.6157C86.2271 37.5088 86.2463 37.3948 86.2423 37.2804C86.247 37.1689 86.2286 37.0578 86.1885 36.9537C86.1483 36.8497 86.0872 36.755 86.0088 36.6756C85.9305 36.5962 85.8366 36.5338 85.7331 36.4922C85.6296 36.4507 85.5187 36.4309 85.4072 36.4341C85.1864 36.4315 84.9727 36.5116 84.808 36.6588C84.7203 36.7382 84.6516 36.8363 84.6069 36.9458C84.5621 37.0553 84.5426 37.1735 84.5496 37.2916L84.5459 37.2804Z" fill="white"/>
<path d="M87.3809 35.2729C87.3468 35.2448 87.3196 35.2093 87.3014 35.169C87.2833 35.1288 87.2746 35.0849 87.2761 35.0407C87.2754 34.9967 87.2844 34.9531 87.3026 34.9129C87.3207 34.8728 87.3475 34.8372 87.3809 34.8086C87.449 34.7495 87.5361 34.717 87.6262 34.717C87.7163 34.717 87.8034 34.7495 87.8715 34.8086C87.905 34.8372 87.9317 34.8728 87.9498 34.9129C87.9679 34.9531 87.977 34.9967 87.9763 35.0407C87.9778 35.0849 87.9691 35.1288 87.9509 35.169C87.9328 35.2093 87.9056 35.2448 87.8715 35.2729C87.8034 35.3319 87.7163 35.3644 87.6262 35.3644C87.5361 35.3644 87.449 35.3319 87.3809 35.2729ZM87.8752 38.5833V35.9957H87.3772V38.5833H87.8752Z" fill="white"/>
<path d="M88.6617 34.5879H89.1672V38.5836H88.6617V34.5879Z" fill="white"/>
<path d="M89.9574 35.2729C89.924 35.2443 89.8972 35.2087 89.8791 35.1685C89.861 35.1284 89.8519 35.0848 89.8526 35.0407C89.8529 34.9969 89.8624 34.9535 89.8804 34.9136C89.8985 34.8736 89.9247 34.8378 89.9574 34.8086C90.0255 34.7495 90.1126 34.717 90.2027 34.717C90.2928 34.717 90.3799 34.7495 90.448 34.8086C90.4815 34.8372 90.5082 34.8728 90.5263 34.9129C90.5445 34.9531 90.5535 34.9967 90.5528 35.0407C90.5543 35.0849 90.5456 35.1288 90.5274 35.169C90.5093 35.2093 90.4821 35.2448 90.448 35.2729C90.3799 35.3319 90.2928 35.3644 90.2027 35.3644C90.1126 35.3644 90.0255 35.3319 89.9574 35.2729ZM90.4517 38.5833V35.9957H89.9537V38.5833H90.4517Z" fill="white"/>
<path d="M91.9382 35.9957H92.4849V36.4226H91.9382V38.5834H91.4327V36.4226H90.9571V35.9957H91.4214V35.0183H91.927L91.9382 35.9957Z" fill="white"/>
<path d="M93.6986 39.8418H93.1743L93.7173 38.5049L92.68 35.9958H93.2042L93.9794 37.8683L94.7546 35.9958H95.2901L93.6986 39.8418Z" fill="white"/>
<path d="M96.5744 34.7639H99.413V35.2545H98.2558V38.5836H97.7353V35.2545H96.5744V34.7639Z" fill="white"/>
<path d="M99.9447 37.6399V38.5836H99.4429V35.9959H99.9447V36.5764C100.072 36.1532 100.319 35.9398 100.667 35.9398C100.824 35.9286 100.98 35.9637 101.117 36.0409L101.038 36.509C100.921 36.4542 100.793 36.4248 100.664 36.4229C100.552 36.4202 100.442 36.4503 100.348 36.5096C100.253 36.5689 100.178 36.6546 100.132 36.7562C99.9984 37.031 99.9341 37.3345 99.9447 37.6399Z" fill="white"/>
<path d="M103.337 37.3927V35.9958H103.839V38.5835H103.337V38.209C103.264 38.3539 103.144 38.4699 102.997 38.5386C102.854 38.6146 102.694 38.6544 102.532 38.6547C102.393 38.6643 102.253 38.6423 102.123 38.5904C101.994 38.5386 101.877 38.4581 101.783 38.3551C101.595 38.1134 101.505 37.8102 101.529 37.505V36.0071H102.03V37.4676C102.02 37.6483 102.073 37.827 102.18 37.9731C102.23 38.034 102.294 38.0823 102.366 38.1142C102.438 38.1461 102.517 38.1606 102.596 38.1566C102.786 38.1639 102.972 38.0983 103.116 37.9731C103.195 37.8997 103.256 37.8092 103.294 37.7086C103.333 37.6079 103.347 37.4999 103.337 37.3927Z" fill="white"/>
<path d="M105.214 37.4414C105.006 37.3978 104.816 37.2935 104.667 37.1418C104.605 37.0672 104.56 36.98 104.535 36.8863C104.51 36.7926 104.505 36.6945 104.521 36.5988C104.532 36.504 104.564 36.4127 104.613 36.3312C104.663 36.2497 104.73 36.1801 104.809 36.127C104.988 36.0012 105.202 35.9357 105.42 35.9397C105.637 35.9327 105.851 35.9957 106.03 36.1195C106.117 36.1836 106.187 36.2665 106.237 36.3618C106.287 36.4571 106.315 36.5625 106.319 36.67H105.835C105.829 36.6269 105.814 36.5856 105.791 36.5488C105.768 36.512 105.737 36.4805 105.701 36.4565C105.621 36.4038 105.527 36.3764 105.431 36.3779C105.342 36.3767 105.254 36.3986 105.176 36.4415C105.144 36.4588 105.115 36.4827 105.091 36.5117C105.068 36.5407 105.051 36.5742 105.042 36.6101C105.017 36.6764 105.017 36.7496 105.042 36.816C105.076 36.868 105.121 36.9125 105.173 36.9466C105.225 36.9808 105.283 37.0039 105.345 37.0145L105.719 37.1081C105.904 37.1276 106.075 37.2151 106.199 37.3535C106.323 37.4919 106.391 37.6714 106.39 37.8571C106.392 37.9672 106.366 38.076 106.316 38.174C106.266 38.272 106.192 38.3561 106.101 38.4188C105.892 38.5653 105.641 38.6401 105.386 38.6323C105.147 38.6339 104.914 38.5532 104.727 38.4038C104.633 38.3341 104.556 38.2432 104.504 38.1385C104.451 38.0338 104.424 37.9181 104.424 37.8009H104.884C104.892 37.8633 104.915 37.9227 104.952 37.9738C104.988 38.0248 105.037 38.0658 105.094 38.093C105.218 38.1662 105.363 38.1977 105.506 38.1829C105.608 38.1794 105.707 38.1426 105.787 38.078C105.821 38.0491 105.848 38.0136 105.867 37.9737C105.887 37.9337 105.897 37.8902 105.899 37.8458C105.903 37.8056 105.896 37.7652 105.881 37.7279C105.865 37.6907 105.841 37.6579 105.809 37.6324C105.733 37.5769 105.646 37.5375 105.555 37.5163L105.214 37.4414Z" fill="white"/>
<path d="M107.704 35.9957H108.251V36.4226H107.704V38.5834H107.198V36.4226H106.734V35.9957H107.198V35.0183H107.704V35.9957Z" fill="white"/>
<path d="M85.6323 11.3288C85.3189 10.552 84.7804 9.88666 84.0862 9.41811C83.3919 8.94957 82.5734 8.69922 81.7358 8.69922C80.8982 8.69922 80.0797 8.94957 79.3854 9.41811C78.6911 9.88666 78.1527 10.552 77.8393 11.3288L69.6569 31.7043H75.334L76.8657 27.394H86.6022L88.1263 31.7043H93.8034L85.6323 11.3288ZM78.3524 23.226L81.7526 13.6618L85.1229 23.226H78.3524Z" fill="white"/>
</g>
<defs>
<clipPath id="clip0_5540_51680">
<rect width="111.921" height="37.9238" fill="white" transform="translate(1.84993 2.2627)"/>
</clipPath>
</defs>
</svg>
