<svg width="24" height="24" viewBox="0 0 24 24" fill="none" xmlns="http://www.w3.org/2000/svg">
<g clip-path="url(#clip0_2362_30272)">
<path d="M18.832 19.5721C20.7281 17.8284 21.8201 15.2591 21.8201 12.2069C21.8206 11.5196 21.7595 10.8337 21.6378 10.1573H12.2004V14.0331H17.5933C17.482 14.6465 17.2472 15.2309 16.9033 15.751C16.5598 16.2716 16.1141 16.7169 15.5932 17.0601C15.4597 17.1499 15.3194 17.233 15.1728 17.3118L18.3785 19.9641C18.5344 19.8376 18.6855 19.7069 18.832 19.5721Z" fill="#518DF7"/>
<path d="M15.1749 17.3097C14.3483 17.7569 13.3471 18.0149 12.2005 18.0149C9.62539 18.0149 7.44606 16.3022 6.62992 13.9847L3.29443 16.5734C3.76837 17.4935 4.38212 18.3345 5.11379 19.0665C6.0445 19.9969 7.14932 20.7349 8.36519 21.2385C9.5815 21.7419 10.8851 22.0007 12.2015 22C14.6683 22 16.7735 21.2542 18.3801 19.962L15.1749 17.3097Z" fill="#28B346"/>
<path d="M6.59627 13.8833C6.38932 13.2699 6.28284 12.6272 6.28096 11.9798C6.28273 11.3688 6.3779 10.7617 6.56316 10.1794L3.26446 7.44669C3.25921 7.45772 3.2529 7.46823 3.24765 7.47874C2.54555 8.87521 2.18054 10.4168 2.18189 11.9798C2.18133 13.2963 2.44027 14.5999 2.94389 15.8161C3.049 16.0742 3.16882 16.327 3.29652 16.5745L6.63201 13.9858C6.61782 13.9511 6.6052 13.9174 6.59627 13.8833Z" fill="#FABA00"/>
<path d="M6.59631 10.0759C7.3846 7.70791 9.59179 5.94426 12.2026 5.94426C13.4638 5.94426 14.6121 6.31686 15.5691 7.04786L18.8399 4.50906C17.1141 2.92672 14.8691 1.95923 12.2026 1.95923C10.3442 1.95816 8.52207 2.47401 6.94 3.44908C5.36889 4.41772 4.09586 5.8015 3.26135 7.44778L6.56005 10.1805C6.57267 10.1448 6.58265 10.1101 6.59631 10.0759Z" fill="#F04336"/>
</g>
<defs>
<clipPath id="clip0_2362_30272">
<rect width="19.6403" height="20.0408" fill="white" transform="translate(2.17981 1.95923)"/>
</clipPath>
</defs>
</svg>
