<svg width="18" height="18" viewBox="0 0 18 18" fill="none" xmlns="http://www.w3.org/2000/svg">
<path d="M4.5 6V5.25C4.5 4.05653 4.97411 2.91193 5.81802 2.06802C6.66193 1.22411 7.80653 0.75 9 0.75C10.1935 0.75 11.3381 1.22411 12.182 2.06802C13.0259 2.91193 13.5 4.05653 13.5 5.25V6H15C15.1989 6 15.3897 6.07902 15.5303 6.21967C15.671 6.36032 15.75 6.55109 15.75 6.75V15.75C15.75 15.9489 15.671 16.1397 15.5303 16.2803C15.3897 16.421 15.1989 16.5 15 16.5H3C2.80109 16.5 2.61032 16.421 2.46967 16.2803C2.32902 16.1397 2.25 15.9489 2.25 15.75V6.75C2.25 6.55109 2.32902 6.36032 2.46967 6.21967C2.61032 6.07902 2.80109 6 3 6H4.5ZM14.25 7.5H3.75V15H14.25V7.5ZM8.25 11.799C7.96404 11.6339 7.74054 11.3791 7.61418 11.074C7.48782 10.7689 7.46565 10.4307 7.55111 10.1117C7.63657 9.79278 7.82489 9.51095 8.08686 9.30993C8.34882 9.10892 8.6698 8.99996 9 8.99996C9.3302 8.99996 9.65118 9.10892 9.91314 9.30993C10.1751 9.51095 10.3634 9.79278 10.4489 10.1117C10.5344 10.4307 10.5122 10.7689 10.3858 11.074C10.2595 11.3791 10.036 11.6339 9.75 11.799V13.5H8.25V11.799ZM6 6H12V5.25C12 4.45435 11.6839 3.69129 11.1213 3.12868C10.5587 2.56607 9.79565 2.25 9 2.25C8.20435 2.25 7.44129 2.56607 6.87868 3.12868C6.31607 3.69129 6 4.45435 6 5.25V6Z" fill="#AEB1B8"/>
</svg>
