<svg width="32" height="25" viewBox="0 0 32 25" fill="none" xmlns="http://www.w3.org/2000/svg">
<path fill-rule="evenodd" clip-rule="evenodd" d="M2.26059 15.8171H2.20209C1.81011 15.7423 1.61705 15.8171 1.58195 15.2995C1.54684 14.7818 1.58195 13.7753 1.50589 13.4245C1.50589 13.1656 1.50589 12.9471 1.79256 12.8896C1.93882 12.8493 2.10848 12.832 2.10848 12.7573C2.1482 12.0026 2.2798 11.2553 2.50046 10.5314C2.83496 9.41839 3.27367 8.33822 3.81095 7.30479C4.15028 6.67212 4.03912 6.67212 4.89913 6.67212C8.07006 6.67212 11.4048 6.67212 14.6108 6.71813C16.7638 6.75264 18.8465 6.7699 19.7416 7.04597C20.9117 7.67289 21.9941 9.22006 22.8014 9.86999C24.9854 10.0223 27.1567 10.3163 29.3012 10.75C30.0501 10.934 30.2958 10.957 30.4245 11.7277C30.5006 12.1706 30.5181 12.6652 30.5766 12.9241H30.7053C30.8223 12.9241 30.8399 13.0564 30.8399 13.1829C30.8808 13.8591 30.8808 14.537 30.8399 15.2132C30.8323 15.3821 30.7588 15.5415 30.6345 15.6583C30.5102 15.7752 30.3449 15.8403 30.1729 15.8401H29.2837C28.6986 15.8401 28.7981 15.7883 28.7396 15.2189C28.691 14.4399 28.3419 13.7083 27.7635 13.1736C27.1852 12.6388 26.4211 12.3411 25.6272 12.3411C24.8332 12.3411 24.0691 12.6388 23.4908 13.1736C22.9124 13.7083 22.5634 14.4399 22.5147 15.2189C22.4796 15.8286 22.5908 15.8459 21.9297 15.8459H9.64382C8.91252 15.8459 9.05878 15.8114 8.96517 15.1097C8.90837 14.3291 8.55059 13.5992 7.96492 13.0692C7.37925 12.5391 6.60985 12.2489 5.81385 12.2577C5.01785 12.2665 4.25529 12.5737 3.6819 13.1166C3.10851 13.6594 2.76755 14.397 2.72863 15.1787C2.68767 15.5295 2.80468 15.8401 2.43026 15.8401H2.26059V15.8171ZM20.3267 10.2726C20.4729 10.1461 20.9117 9.69744 21.2218 9.42712C21.2628 9.38686 21.2979 9.35235 21.2628 9.31209C20.754 8.67668 20.1641 8.10834 19.5076 7.62113C18.3432 7.47732 17.171 7.40242 15.9974 7.39682H15.0204C14.8507 7.39682 14.8156 7.47159 14.8741 7.62113C14.9677 8.09851 15.114 9.07627 15.231 9.7377C15.2836 10.0713 15.3597 10.2553 15.699 10.2323C17.027 10.2726 20.3442 10.4106 20.3267 10.2726ZM9.21089 9.75496C9.32818 9.07123 9.50833 8.39938 9.74913 7.74766C9.82518 7.5291 9.90124 7.32205 10.1411 7.32205C11.3989 7.36231 12.5398 7.32205 13.7801 7.37956C13.8265 7.37995 13.8724 7.38987 13.9147 7.40869C13.957 7.42751 13.9948 7.45481 14.0258 7.48884C14.2011 8.24601 14.3185 9.01504 14.3768 9.78947C14.4353 10.1921 14.3768 10.2496 13.9497 10.2323C12.9552 10.2323 11.0596 10.2323 9.71403 10.1921C9.32205 10.1921 9.16409 10.2381 9.22844 9.75496H9.21089ZM7.49087 9.79522C7.69563 9.33509 8.02911 8.55863 8.35088 7.85694C8.53809 7.45433 8.53809 7.32205 8.05251 7.28178H4.60076C4.49486 7.30506 4.39763 7.35684 4.31994 7.43133C3.96149 8.15122 3.66027 8.89732 3.41898 9.66293C3.27272 10.0713 3.34292 10.2381 3.62374 10.1978H6.88827C7.02308 10.2117 7.15862 10.1792 7.27172 10.1058C7.38483 10.0323 7.4685 9.92256 7.50842 9.79522H7.49087Z" fill="#353C4D"/>
<path d="M25.6915 18.2902C27.068 18.2902 28.1838 17.1932 28.1838 15.8401C28.1838 14.4869 27.068 13.3899 25.6915 13.3899C24.3151 13.3899 23.1992 14.4869 23.1992 15.8401C23.1992 17.1932 24.3151 18.2902 25.6915 18.2902Z" stroke="#353C4D" stroke-width="0.667367" stroke-miterlimit="10"/>
<path d="M5.91119 13.4647C5.41851 13.4659 4.93723 13.6105 4.52815 13.8804C4.11907 14.1504 3.80054 14.5334 3.6128 14.9812C3.42506 15.429 3.37654 15.9215 3.47336 16.3964C3.57019 16.8713 3.80802 17.3074 4.1568 17.6494C4.50558 17.9915 4.94967 18.2243 5.43297 18.3184C5.91626 18.4125 6.41707 18.3636 6.87214 18.178C7.3272 17.9924 7.7161 17.6783 7.98969 17.2755C8.26329 16.8727 8.40931 16.3992 8.40932 15.9149C8.40932 15.5926 8.34466 15.2736 8.21904 14.9759C8.09343 14.6783 7.90933 14.4079 7.67728 14.1803C7.44523 13.9527 7.16979 13.7724 6.86674 13.6496C6.56368 13.5268 6.23897 13.464 5.91119 13.4647Z" stroke="#353C4D" stroke-width="0.667367" stroke-miterlimit="10"/>
<path d="M5.90527 17.3065C6.6872 17.3065 7.32107 16.6833 7.32107 15.9146C7.32107 15.1459 6.6872 14.5227 5.90527 14.5227C5.12335 14.5227 4.48947 15.1459 4.48947 15.9146C4.48947 16.6833 5.12335 17.3065 5.90527 17.3065Z" fill="#353C4D"/>
<path d="M25.6912 17.3065C26.4731 17.3065 27.107 16.6833 27.107 15.9146C27.107 15.1459 26.4731 14.5227 25.6912 14.5227C24.9093 14.5227 24.2754 15.1459 24.2754 15.9146C24.2754 16.6833 24.9093 17.3065 25.6912 17.3065Z" fill="#353C4D"/>
</svg>
