<svg width="23" height="22" viewBox="0 0 23 22" fill="none" xmlns="http://www.w3.org/2000/svg">
<path d="M19.7503 18.3333H21.5837V20.1666H1.41699V18.3333H3.25033V2.74998C3.25033 2.50686 3.3469 2.27371 3.51881 2.1018C3.69072 1.92989 3.92388 1.83331 4.16699 1.83331H18.8337C19.0768 1.83331 19.3099 1.92989 19.4818 2.1018C19.6538 2.27371 19.7503 2.50686 19.7503 2.74998V18.3333ZM17.917 18.3333V3.66665H5.08366V18.3333H17.917ZM7.83366 10.0833H10.5837V11.9166H7.83366V10.0833ZM7.83366 6.41665H10.5837V8.24998H7.83366V6.41665ZM7.83366 13.75H10.5837V15.5833H7.83366V13.75ZM12.417 13.75H15.167V15.5833H12.417V13.75ZM12.417 10.0833H15.167V11.9166H12.417V10.0833ZM12.417 6.41665H15.167V8.24998H12.417V6.41665Z" fill="#B2AEBF"/>
</svg>
