<svg width="50" height="50" viewBox="0 0 50 50" fill="none" xmlns="http://www.w3.org/2000/svg">
<path d="M33.3334 45.761C33.3334 40.8626 29.582 36.8916 24.9543 36.8916C20.3267 36.8916 16.5752 40.8626 16.5752 45.761" stroke="#0E354D" stroke-width="2"/>
<path d="M5.89648 44.8688C5.89648 41.1115 8.77395 38.0657 12.3235 38.0657C13.119 38.0657 13.8807 38.2186 14.5838 38.4983" stroke="#0E354D" stroke-width="2" stroke-linecap="round"/>
<path d="M44.1035 44.8688C44.1035 41.1115 41.226 38.0657 37.6765 38.0657C36.881 38.0657 36.1193 38.2186 35.4162 38.4983" stroke="#0E354D" stroke-width="2" stroke-linecap="round"/>
<circle cx="24.9406" cy="28.4037" r="4.83805" stroke="#0E354D" stroke-width="2"/>
<circle cx="11.6818" cy="32.0678" r="3.3488" stroke="#0E354D" stroke-width="2"/>
<circle cx="38.3175" cy="32.0678" r="3.3488" stroke="#0E354D" stroke-width="2"/>
<path d="M24.4914 4.52271L24.4962 12.7847C24.4964 13.0676 24.7724 13.2681 25.0414 13.1808L32.9006 10.6323L25.0444 13.1901C24.7755 13.2776 24.6701 13.602 24.8362 13.831L29.6885 20.518L24.8283 13.8367C24.6619 13.608 24.3208 13.608 24.1544 13.8367L19.2942 20.518L24.1466 13.831C24.3127 13.602 24.2073 13.2776 23.9383 13.1901L16.0822 10.6323L23.9413 13.1808C24.2104 13.2681 24.4863 13.0676 24.4865 12.7847L24.4914 4.52271Z" stroke="#2384C1" stroke-width="2"/>
</svg>
