<svg width="50" height="50" viewBox="0 0 50 50" fill="none" xmlns="http://www.w3.org/2000/svg">
<mask id="path-1-inside-1_12514_64231" fill="white">
<path d="M38.6948 27.5351H29.1448V21.7451C29.1448 20.419 28.618 19.1473 27.6803 18.2096C26.7426 17.2719 25.4708 16.7451 24.1448 16.7451C23.8795 16.7451 23.6252 16.8505 23.4377 17.038C23.2501 17.2255 23.1448 17.4799 23.1448 17.7451V21.0001C23.1459 22.0694 22.9242 23.1272 22.4938 24.106C22.0633 25.0849 21.4336 25.9632 20.6448 26.6851L18.2798 28.8351V28.1351C18.2798 27.3302 17.96 26.5582 17.3908 25.989C16.8217 25.4199 16.0497 25.1001 15.2448 25.1001H11.2998C10.4944 25.1001 9.72189 25.4197 9.15193 25.9887C8.58196 26.5578 8.26109 27.3297 8.25977 28.1351V45.4651C8.26109 46.2705 8.58196 47.0425 9.15193 47.6115C9.72189 48.1805 10.4944 48.5001 11.2998 48.5001H15.2398C15.7148 48.4999 16.1832 48.3881 16.607 48.1736C17.0309 47.959 17.3983 47.6478 17.6798 47.2651H35.9998C36.5713 47.2651 37.1194 47.0381 37.5236 46.6339C37.9277 46.2298 38.1548 45.6817 38.1548 45.1101V43.3551C38.152 42.9749 38.0485 42.6023 37.8548 42.2751C38.1392 42.075 38.3709 41.8091 38.5303 41.5C38.6896 41.1909 38.7718 40.8479 38.7698 40.5001V38.9101C38.771 38.6699 38.7304 38.4314 38.6498 38.2051C39.1927 38.1648 39.7005 37.9209 40.0713 37.5222C40.4421 37.1236 40.6487 36.5996 40.6498 36.0551V34.3001C40.6479 33.9176 40.5425 33.5426 40.3448 33.2151C40.742 33.0375 41.0818 32.7523 41.3256 32.3919C41.5694 32.0314 41.7077 31.61 41.7248 31.1751V29.9601C41.7398 28.6001 40.3998 27.5351 38.6948 27.5351ZM15.2398 47.0351H11.2998C10.8803 47.0351 10.4779 46.8688 10.1808 46.5726C9.88366 46.2765 9.71609 45.8746 9.71477 45.4551V28.1351C9.71609 27.7156 9.88366 27.3137 10.1808 27.0176C10.4779 26.7214 10.8803 26.5551 11.2998 26.5551H15.2398C15.6593 26.5551 16.0617 26.7214 16.3588 27.0176C16.6559 27.3137 16.8234 27.7156 16.8248 28.1351V45.4651C16.8234 45.8846 16.6559 46.2865 16.3588 46.5827C16.0617 46.8788 15.6593 47.0451 15.2398 47.0451V47.0351ZM39.2098 36.0351C39.2098 36.127 39.1917 36.2181 39.1565 36.303C39.1213 36.3879 39.0697 36.4651 39.0047 36.5301C38.9397 36.5951 38.8626 36.6467 38.7776 36.6818C38.6927 36.717 38.6017 36.7351 38.5098 36.7351H33.9998C33.8172 36.7503 33.6471 36.8335 33.523 36.9682C33.399 37.103 33.3301 37.2795 33.3301 37.4626C33.3301 37.6458 33.399 37.8222 33.523 37.957C33.6471 38.0918 33.8172 38.175 33.9998 38.1901H36.6048C36.6967 38.1901 36.7877 38.2082 36.8726 38.2434C36.9576 38.2786 37.0347 38.3301 37.0997 38.3951C37.1647 38.4601 37.2163 38.5373 37.2515 38.6222C37.2867 38.7072 37.3048 38.7982 37.3048 38.8901V40.5001C37.3054 40.5922 37.2878 40.6835 37.2528 40.7688C37.2179 40.854 37.1664 40.9314 37.1012 40.9966C37.0361 41.0617 36.9587 41.1132 36.8734 41.1482C36.7882 41.1831 36.6969 41.2008 36.6048 41.2001C36.5262 41.2025 36.4485 41.2177 36.3748 41.2451C36.2513 41.2191 36.1258 41.204 35.9998 41.2001H32.3848C32.2022 41.2153 32.0321 41.2985 31.908 41.4332C31.784 41.568 31.7151 41.7445 31.7151 41.9276C31.7151 42.1108 31.784 42.2872 31.908 42.422C32.0321 42.5568 32.2022 42.64 32.3848 42.6551H35.9998C36.1854 42.6551 36.3635 42.7289 36.4947 42.8601C36.626 42.9914 36.6998 43.1695 36.6998 43.3551V45.1101C36.6998 45.2958 36.626 45.4738 36.4947 45.6051C36.3635 45.7364 36.1854 45.8101 35.9998 45.8101H18.2548C18.2622 45.6952 18.2622 45.58 18.2548 45.4651V30.8051L21.5998 27.7651C22.5425 26.909 23.2962 25.8655 23.8128 24.7015C24.3293 23.5375 24.5974 22.2786 24.5998 21.0051V18.2351C25.45 18.3465 26.2308 18.7628 26.7973 19.4065C27.3638 20.0502 27.6773 20.8776 27.6798 21.7351V28.0001C27.677 28.2413 27.7616 28.4753 27.9178 28.6591C28.074 28.8428 28.2913 28.964 28.5298 29.0001C28.578 29.005 28.6266 29.005 28.6748 29.0001H38.6748C39.6098 29.0001 40.2648 29.5001 40.2648 29.9701V31.1851C40.2648 31.6451 39.6098 32.1551 38.6748 32.1551H35.4998C35.3172 32.1703 35.1471 32.2535 35.023 32.3882C34.899 32.523 34.8301 32.6995 34.8301 32.8826C34.8301 33.0658 34.899 33.2422 35.023 33.377C35.1471 33.5118 35.3172 33.595 35.4998 33.6101H38.4998C38.6854 33.6101 38.8635 33.6839 38.9947 33.8151C39.126 33.9464 39.1998 34.1245 39.1998 34.3101L39.2098 36.0351Z"/>
</mask>
<path d="M38.6948 27.5351H29.1448V21.7451C29.1448 20.419 28.618 19.1473 27.6803 18.2096C26.7426 17.2719 25.4708 16.7451 24.1448 16.7451C23.8795 16.7451 23.6252 16.8505 23.4377 17.038C23.2501 17.2255 23.1448 17.4799 23.1448 17.7451V21.0001C23.1459 22.0694 22.9242 23.1272 22.4938 24.106C22.0633 25.0849 21.4336 25.9632 20.6448 26.6851L18.2798 28.8351V28.1351C18.2798 27.3302 17.96 26.5582 17.3908 25.989C16.8217 25.4199 16.0497 25.1001 15.2448 25.1001H11.2998C10.4944 25.1001 9.72189 25.4197 9.15193 25.9887C8.58196 26.5578 8.26109 27.3297 8.25977 28.1351V45.4651C8.26109 46.2705 8.58196 47.0425 9.15193 47.6115C9.72189 48.1805 10.4944 48.5001 11.2998 48.5001H15.2398C15.7148 48.4999 16.1832 48.3881 16.607 48.1736C17.0309 47.959 17.3983 47.6478 17.6798 47.2651H35.9998C36.5713 47.2651 37.1194 47.0381 37.5236 46.6339C37.9277 46.2298 38.1548 45.6817 38.1548 45.1101V43.3551C38.152 42.9749 38.0485 42.6023 37.8548 42.2751C38.1392 42.075 38.3709 41.8091 38.5303 41.5C38.6896 41.1909 38.7718 40.8479 38.7698 40.5001V38.9101C38.771 38.6699 38.7304 38.4314 38.6498 38.2051C39.1927 38.1648 39.7005 37.9209 40.0713 37.5222C40.4421 37.1236 40.6487 36.5996 40.6498 36.0551V34.3001C40.6479 33.9176 40.5425 33.5426 40.3448 33.2151C40.742 33.0375 41.0818 32.7523 41.3256 32.3919C41.5694 32.0314 41.7077 31.61 41.7248 31.1751V29.9601C41.7398 28.6001 40.3998 27.5351 38.6948 27.5351ZM15.2398 47.0351H11.2998C10.8803 47.0351 10.4779 46.8688 10.1808 46.5726C9.88366 46.2765 9.71609 45.8746 9.71477 45.4551V28.1351C9.71609 27.7156 9.88366 27.3137 10.1808 27.0176C10.4779 26.7214 10.8803 26.5551 11.2998 26.5551H15.2398C15.6593 26.5551 16.0617 26.7214 16.3588 27.0176C16.6559 27.3137 16.8234 27.7156 16.8248 28.1351V45.4651C16.8234 45.8846 16.6559 46.2865 16.3588 46.5827C16.0617 46.8788 15.6593 47.0451 15.2398 47.0451V47.0351ZM39.2098 36.0351C39.2098 36.127 39.1917 36.2181 39.1565 36.303C39.1213 36.3879 39.0697 36.4651 39.0047 36.5301C38.9397 36.5951 38.8626 36.6467 38.7776 36.6818C38.6927 36.717 38.6017 36.7351 38.5098 36.7351H33.9998C33.8172 36.7503 33.6471 36.8335 33.523 36.9682C33.399 37.103 33.3301 37.2795 33.3301 37.4626C33.3301 37.6458 33.399 37.8222 33.523 37.957C33.6471 38.0918 33.8172 38.175 33.9998 38.1901H36.6048C36.6967 38.1901 36.7877 38.2082 36.8726 38.2434C36.9576 38.2786 37.0347 38.3301 37.0997 38.3951C37.1647 38.4601 37.2163 38.5373 37.2515 38.6222C37.2867 38.7072 37.3048 38.7982 37.3048 38.8901V40.5001C37.3054 40.5922 37.2878 40.6835 37.2528 40.7688C37.2179 40.854 37.1664 40.9314 37.1012 40.9966C37.0361 41.0617 36.9587 41.1132 36.8734 41.1482C36.7882 41.1831 36.6969 41.2008 36.6048 41.2001C36.5262 41.2025 36.4485 41.2177 36.3748 41.2451C36.2513 41.2191 36.1258 41.204 35.9998 41.2001H32.3848C32.2022 41.2153 32.0321 41.2985 31.908 41.4332C31.784 41.568 31.7151 41.7445 31.7151 41.9276C31.7151 42.1108 31.784 42.2872 31.908 42.422C32.0321 42.5568 32.2022 42.64 32.3848 42.6551H35.9998C36.1854 42.6551 36.3635 42.7289 36.4947 42.8601C36.626 42.9914 36.6998 43.1695 36.6998 43.3551V45.1101C36.6998 45.2958 36.626 45.4738 36.4947 45.6051C36.3635 45.7364 36.1854 45.8101 35.9998 45.8101H18.2548C18.2622 45.6952 18.2622 45.58 18.2548 45.4651V30.8051L21.5998 27.7651C22.5425 26.909 23.2962 25.8655 23.8128 24.7015C24.3293 23.5375 24.5974 22.2786 24.5998 21.0051V18.2351C25.45 18.3465 26.2308 18.7628 26.7973 19.4065C27.3638 20.0502 27.6773 20.8776 27.6798 21.7351V28.0001C27.677 28.2413 27.7616 28.4753 27.9178 28.6591C28.074 28.8428 28.2913 28.964 28.5298 29.0001C28.578 29.005 28.6266 29.005 28.6748 29.0001H38.6748C39.6098 29.0001 40.2648 29.5001 40.2648 29.9701V31.1851C40.2648 31.6451 39.6098 32.1551 38.6748 32.1551H35.4998C35.3172 32.1703 35.1471 32.2535 35.023 32.3882C34.899 32.523 34.8301 32.6995 34.8301 32.8826C34.8301 33.0658 34.899 33.2422 35.023 33.377C35.1471 33.5118 35.3172 33.595 35.4998 33.6101H38.4998C38.6854 33.6101 38.8635 33.6839 38.9947 33.8151C39.126 33.9464 39.1998 34.1245 39.1998 34.3101L39.2098 36.0351Z" stroke="#0E354D" stroke-width="4" mask="url(#path-1-inside-1_12514_64231)"/>
<mask id="path-2-inside-2_12514_64231" fill="white">
<path d="M13.3396 24.1851C13.4601 24.2485 13.5961 24.2766 13.7319 24.2663C13.8677 24.2559 13.9979 24.2076 14.1075 24.1267C14.2171 24.0458 14.3016 23.9357 14.3515 23.8089C14.4014 23.6822 14.4146 23.544 14.3896 23.4101L13.6746 19.4101L16.5896 16.5001C16.6857 16.4045 16.7533 16.2839 16.7848 16.152C16.8163 16.0202 16.8104 15.8821 16.7679 15.7533C16.7253 15.6246 16.6477 15.5103 16.5438 15.4231C16.4399 15.336 16.3138 15.2795 16.1796 15.2601L12.1296 14.6951L10.2996 11.0501C10.2387 10.9299 10.1457 10.829 10.031 10.7584C9.91629 10.6878 9.78427 10.6503 9.64957 10.6501C9.51369 10.6506 9.3807 10.6894 9.26578 10.7619C9.15085 10.8344 9.05861 10.9377 8.99957 11.0601L7.20957 14.7351L3.15957 15.3451C3.02559 15.3661 2.90013 15.4241 2.79726 15.5125C2.69438 15.6009 2.61816 15.7162 2.57715 15.8455C2.53613 15.9747 2.53194 16.1129 2.56505 16.2444C2.59815 16.3759 2.66724 16.4956 2.76457 16.5901L5.70957 19.4301L5.03957 23.4651C5.01762 23.5984 5.03364 23.7353 5.08581 23.86C5.13798 23.9846 5.22419 24.0921 5.33457 24.1701C5.45824 24.2598 5.6068 24.3087 5.75957 24.3101C5.87805 24.3092 5.99461 24.28 6.09957 24.2251L9.70957 22.3001L13.3396 24.1851ZM9.36457 20.8351L6.71457 22.2501L7.21457 19.2901C7.2329 19.1732 7.22294 19.0537 7.18553 18.9414C7.14812 18.8292 7.08435 18.7276 6.99957 18.6451L4.83457 16.5651L7.79957 16.1151C7.91593 16.0973 8.02627 16.0516 8.12116 15.982C8.21606 15.9123 8.29271 15.8208 8.34457 15.7151L9.65957 13.0001L10.9996 15.7001C11.0522 15.8057 11.1298 15.8969 11.2256 15.9657C11.3215 16.0346 11.4327 16.079 11.5496 16.0951L14.4996 16.5001L12.3646 18.6051C12.2802 18.6876 12.2173 18.7895 12.1816 18.902C12.1458 19.0145 12.1383 19.134 12.1596 19.2501L12.6846 22.2051L10.0196 20.8251C9.91716 20.7756 9.80461 20.7507 9.69089 20.7525C9.57717 20.7542 9.46542 20.7825 9.36457 20.8351ZM47.4196 15.7651C47.3774 15.6351 47.2999 15.5195 47.1956 15.4312C47.0914 15.3429 46.9647 15.2854 46.8296 15.2651L42.7796 14.7001L40.9496 11.0501C40.8887 10.9299 40.7957 10.829 40.681 10.7584C40.5663 10.6878 40.4343 10.6503 40.2996 10.6501C40.1637 10.6506 40.0307 10.6894 39.9158 10.7619C39.8008 10.8344 39.7086 10.9377 39.6496 11.0601L37.8596 14.7351L33.8146 15.3451C33.6806 15.3661 33.5551 15.4241 33.4523 15.5125C33.3494 15.6009 33.2732 15.7162 33.2321 15.8455C33.1911 15.9747 33.1869 16.1129 33.22 16.2444C33.2532 16.3759 33.3222 16.4956 33.4196 16.5901L36.3646 19.4301L35.6946 23.4651C35.6737 23.5994 35.6912 23.7369 35.7452 23.8617C35.7992 23.9864 35.8874 24.0933 35.9996 24.1701C36.1232 24.2598 36.2718 24.3087 36.4246 24.3101C36.543 24.3092 36.6596 24.28 36.7646 24.2251L40.3746 22.3001L43.9996 24.1851C44.1201 24.2485 44.2561 24.2766 44.3919 24.2663C44.5277 24.2559 44.6579 24.2076 44.7675 24.1267C44.8771 24.0458 44.9616 23.9357 45.0115 23.8089C45.0614 23.6822 45.0746 23.544 45.0496 23.4101L44.3346 19.4101L47.2396 16.5001C47.3329 16.4051 47.3989 16.2867 47.4306 16.1573C47.4623 16.028 47.4585 15.8925 47.4196 15.7651ZM43.0346 18.6151C42.9502 18.6976 42.8873 18.7995 42.8516 18.912C42.8158 19.0245 42.8083 19.144 42.8296 19.2601L43.3296 22.2151L40.6696 20.8351C40.5654 20.7807 40.4496 20.7524 40.3321 20.7524C40.2146 20.7524 40.0988 20.7807 39.9946 20.8351L37.3446 22.2501L37.8446 19.2901C37.8635 19.1736 37.8544 19.0543 37.8178 18.9421C37.7813 18.8299 37.7185 18.7281 37.6346 18.6451L35.4996 16.5651L38.4646 16.1151C38.5809 16.0973 38.6913 16.0516 38.7862 15.982C38.8811 15.9123 38.9577 15.8208 39.0096 15.7151L40.3096 13.0001L41.6496 15.7001C41.7022 15.8057 41.7798 15.8969 41.8756 15.9657C41.9715 16.0346 42.0827 16.079 42.1996 16.0951L45.1696 16.5101L43.0346 18.6151ZM21.0346 10.2801L20.3646 14.3151C20.3465 14.4453 20.3645 14.578 20.4165 14.6988C20.4685 14.8195 20.5525 14.9237 20.6596 15.0001C20.7821 15.092 20.9314 15.1412 21.0846 15.1401C21.2031 15.1392 21.3196 15.11 21.4246 15.0551L25.0346 13.1301L28.6646 15.0151C28.781 15.0836 28.9141 15.1185 29.0492 15.1158C29.1843 15.1132 29.3159 15.0731 29.4296 15.0001C29.5399 14.9201 29.6252 14.8104 29.6756 14.6839C29.7261 14.5573 29.7396 14.419 29.7146 14.2851L28.9996 10.2851L31.9146 7.41508C32.0268 7.32199 32.1085 7.19743 32.1493 7.05746C32.1901 6.91749 32.188 6.76851 32.1434 6.62972C32.0987 6.49094 32.0135 6.3687 31.8988 6.27876C31.784 6.18882 31.645 6.13529 31.4996 6.12508L27.4496 5.56008L25.6246 1.90508C25.5654 1.78211 25.4723 1.67863 25.3563 1.60686C25.2402 1.5351 25.106 1.49805 24.9696 1.50008C24.8339 1.50179 24.7014 1.541 24.5867 1.61336C24.472 1.68572 24.3795 1.78842 24.3196 1.91008L22.5296 5.59008L18.4996 6.20008C18.3656 6.2201 18.2398 6.27728 18.1367 6.36512C18.0335 6.45297 17.957 6.56796 17.9159 6.69707C17.8748 6.82617 17.8707 6.96422 17.904 7.09555C17.9373 7.22688 18.0068 7.34623 18.1046 7.44008L21.0346 10.2801ZM23.1246 6.97008C23.241 6.95058 23.3511 6.90369 23.4459 6.83328C23.5406 6.76286 23.6173 6.67094 23.6696 6.56508L24.9996 3.87008L26.3396 6.55508C26.3935 6.65926 26.4715 6.74902 26.5672 6.81687C26.6629 6.88471 26.7734 6.92868 26.8896 6.94508L29.8596 7.36008L27.7246 9.46508C27.6366 9.54556 27.57 9.64662 27.5307 9.7592C27.4914 9.87177 27.4807 9.99234 27.4996 10.1101L28.0246 13.0651L25.3596 11.6851C25.2558 11.6295 25.1398 11.6004 25.0221 11.6004C24.9043 11.6004 24.7884 11.6295 24.6846 11.6851L22.0346 13.0951L22.5346 10.1351C22.5512 10.0198 22.5405 9.90218 22.5031 9.79183C22.4657 9.68149 22.4029 9.58153 22.3196 9.50008L20.1596 7.42008L23.1246 6.97008Z"/>
</mask>
<path d="M13.3396 24.1851C13.4601 24.2485 13.5961 24.2766 13.7319 24.2663C13.8677 24.2559 13.9979 24.2076 14.1075 24.1267C14.2171 24.0458 14.3016 23.9357 14.3515 23.8089C14.4014 23.6822 14.4146 23.544 14.3896 23.4101L13.6746 19.4101L16.5896 16.5001C16.6857 16.4045 16.7533 16.2839 16.7848 16.152C16.8163 16.0202 16.8104 15.8821 16.7679 15.7533C16.7253 15.6246 16.6477 15.5103 16.5438 15.4231C16.4399 15.336 16.3138 15.2795 16.1796 15.2601L12.1296 14.6951L10.2996 11.0501C10.2387 10.9299 10.1457 10.829 10.031 10.7584C9.91629 10.6878 9.78427 10.6503 9.64957 10.6501C9.51369 10.6506 9.3807 10.6894 9.26578 10.7619C9.15085 10.8344 9.05861 10.9377 8.99957 11.0601L7.20957 14.7351L3.15957 15.3451C3.02559 15.3661 2.90013 15.4241 2.79726 15.5125C2.69438 15.6009 2.61816 15.7162 2.57715 15.8455C2.53613 15.9747 2.53194 16.1129 2.56505 16.2444C2.59815 16.3759 2.66724 16.4956 2.76457 16.5901L5.70957 19.4301L5.03957 23.4651C5.01762 23.5984 5.03364 23.7353 5.08581 23.86C5.13798 23.9846 5.22419 24.0921 5.33457 24.1701C5.45824 24.2598 5.6068 24.3087 5.75957 24.3101C5.87805 24.3092 5.99461 24.28 6.09957 24.2251L9.70957 22.3001L13.3396 24.1851ZM9.36457 20.8351L6.71457 22.2501L7.21457 19.2901C7.2329 19.1732 7.22294 19.0537 7.18553 18.9414C7.14812 18.8292 7.08435 18.7276 6.99957 18.6451L4.83457 16.5651L7.79957 16.1151C7.91593 16.0973 8.02627 16.0516 8.12116 15.982C8.21606 15.9123 8.29271 15.8208 8.34457 15.7151L9.65957 13.0001L10.9996 15.7001C11.0522 15.8057 11.1298 15.8969 11.2256 15.9657C11.3215 16.0346 11.4327 16.079 11.5496 16.0951L14.4996 16.5001L12.3646 18.6051C12.2802 18.6876 12.2173 18.7895 12.1816 18.902C12.1458 19.0145 12.1383 19.134 12.1596 19.2501L12.6846 22.2051L10.0196 20.8251C9.91716 20.7756 9.80461 20.7507 9.69089 20.7525C9.57717 20.7542 9.46542 20.7825 9.36457 20.8351ZM47.4196 15.7651C47.3774 15.6351 47.2999 15.5195 47.1956 15.4312C47.0914 15.3429 46.9647 15.2854 46.8296 15.2651L42.7796 14.7001L40.9496 11.0501C40.8887 10.9299 40.7957 10.829 40.681 10.7584C40.5663 10.6878 40.4343 10.6503 40.2996 10.6501C40.1637 10.6506 40.0307 10.6894 39.9158 10.7619C39.8008 10.8344 39.7086 10.9377 39.6496 11.0601L37.8596 14.7351L33.8146 15.3451C33.6806 15.3661 33.5551 15.4241 33.4523 15.5125C33.3494 15.6009 33.2732 15.7162 33.2321 15.8455C33.1911 15.9747 33.1869 16.1129 33.22 16.2444C33.2532 16.3759 33.3222 16.4956 33.4196 16.5901L36.3646 19.4301L35.6946 23.4651C35.6737 23.5994 35.6912 23.7369 35.7452 23.8617C35.7992 23.9864 35.8874 24.0933 35.9996 24.1701C36.1232 24.2598 36.2718 24.3087 36.4246 24.3101C36.543 24.3092 36.6596 24.28 36.7646 24.2251L40.3746 22.3001L43.9996 24.1851C44.1201 24.2485 44.2561 24.2766 44.3919 24.2663C44.5277 24.2559 44.6579 24.2076 44.7675 24.1267C44.8771 24.0458 44.9616 23.9357 45.0115 23.8089C45.0614 23.6822 45.0746 23.544 45.0496 23.4101L44.3346 19.4101L47.2396 16.5001C47.3329 16.4051 47.3989 16.2867 47.4306 16.1573C47.4623 16.028 47.4585 15.8925 47.4196 15.7651ZM43.0346 18.6151C42.9502 18.6976 42.8873 18.7995 42.8516 18.912C42.8158 19.0245 42.8083 19.144 42.8296 19.2601L43.3296 22.2151L40.6696 20.8351C40.5654 20.7807 40.4496 20.7524 40.3321 20.7524C40.2146 20.7524 40.0988 20.7807 39.9946 20.8351L37.3446 22.2501L37.8446 19.2901C37.8635 19.1736 37.8544 19.0543 37.8178 18.9421C37.7813 18.8299 37.7185 18.7281 37.6346 18.6451L35.4996 16.5651L38.4646 16.1151C38.5809 16.0973 38.6913 16.0516 38.7862 15.982C38.8811 15.9123 38.9577 15.8208 39.0096 15.7151L40.3096 13.0001L41.6496 15.7001C41.7022 15.8057 41.7798 15.8969 41.8756 15.9657C41.9715 16.0346 42.0827 16.079 42.1996 16.0951L45.1696 16.5101L43.0346 18.6151ZM21.0346 10.2801L20.3646 14.3151C20.3465 14.4453 20.3645 14.578 20.4165 14.6988C20.4685 14.8195 20.5525 14.9237 20.6596 15.0001C20.7821 15.092 20.9314 15.1412 21.0846 15.1401C21.2031 15.1392 21.3196 15.11 21.4246 15.0551L25.0346 13.1301L28.6646 15.0151C28.781 15.0836 28.9141 15.1185 29.0492 15.1158C29.1843 15.1132 29.3159 15.0731 29.4296 15.0001C29.5399 14.9201 29.6252 14.8104 29.6756 14.6839C29.7261 14.5573 29.7396 14.419 29.7146 14.2851L28.9996 10.2851L31.9146 7.41508C32.0268 7.32199 32.1085 7.19743 32.1493 7.05746C32.1901 6.91749 32.188 6.76851 32.1434 6.62972C32.0987 6.49094 32.0135 6.3687 31.8988 6.27876C31.784 6.18882 31.645 6.13529 31.4996 6.12508L27.4496 5.56008L25.6246 1.90508C25.5654 1.78211 25.4723 1.67863 25.3563 1.60686C25.2402 1.5351 25.106 1.49805 24.9696 1.50008C24.8339 1.50179 24.7014 1.541 24.5867 1.61336C24.472 1.68572 24.3795 1.78842 24.3196 1.91008L22.5296 5.59008L18.4996 6.20008C18.3656 6.2201 18.2398 6.27728 18.1367 6.36512C18.0335 6.45297 17.957 6.56796 17.9159 6.69707C17.8748 6.82617 17.8707 6.96422 17.904 7.09555C17.9373 7.22688 18.0068 7.34623 18.1046 7.44008L21.0346 10.2801ZM23.1246 6.97008C23.241 6.95058 23.3511 6.90369 23.4459 6.83328C23.5406 6.76286 23.6173 6.67094 23.6696 6.56508L24.9996 3.87008L26.3396 6.55508C26.3935 6.65926 26.4715 6.74902 26.5672 6.81687C26.6629 6.88471 26.7734 6.92868 26.8896 6.94508L29.8596 7.36008L27.7246 9.46508C27.6366 9.54556 27.57 9.64662 27.5307 9.7592C27.4914 9.87177 27.4807 9.99234 27.4996 10.1101L28.0246 13.0651L25.3596 11.6851C25.2558 11.6295 25.1398 11.6004 25.0221 11.6004C24.9043 11.6004 24.7884 11.6295 24.6846 11.6851L22.0346 13.0951L22.5346 10.1351C22.5512 10.0198 22.5405 9.90218 22.5031 9.79183C22.4657 9.68149 22.4029 9.58153 22.3196 9.50008L20.1596 7.42008L23.1246 6.97008Z" stroke="#2384C1" stroke-width="4" mask="url(#path-2-inside-2_12514_64231)"/>
</svg>
