<svg width="50" height="50" viewBox="0 0 50 50" fill="none" xmlns="http://www.w3.org/2000/svg">
<path d="M38.3094 5.3042H11.6803C11.3212 5.3042 11.0024 5.53424 10.8893 5.87507L7.72754 15.4029V44.9435H42.2745V15.4029L39.1001 5.87414C38.9867 5.53379 38.6682 5.3042 38.3094 5.3042Z" stroke="#0E354D" stroke-width="2" stroke-linecap="round"/>
<path d="M7.72754 16.3638H42.2745" stroke="#0E354D" stroke-width="2" stroke-linecap="round"/>
<path d="M13.4834 30.7578L13.4834 28.8385" stroke="black" stroke-width="2" stroke-linecap="round" stroke-linejoin="round"/>
<path d="M13.4834 38.436L13.4834 36.5168" stroke="#2384C1" stroke-width="2" stroke-linecap="round" stroke-linejoin="round"/>
<path d="M13.4834 23.0818L13.4834 21.1625" stroke="#2384C1" stroke-width="2" stroke-linecap="round" stroke-linejoin="round"/>
<path d="M21.1621 23.0818L21.1621 21.1625" stroke="#2384C1" stroke-width="2" stroke-linecap="round" stroke-linejoin="round"/>
<path d="M28.8398 23.0818L28.8398 21.1625" stroke="#2384C1" stroke-width="2" stroke-linecap="round" stroke-linejoin="round"/>
<path d="M36.5176 23.0818L36.5176 21.1625" stroke="#2384C1" stroke-width="2" stroke-linecap="round" stroke-linejoin="round"/>
<path d="M13.4834 30.7578L13.4834 28.8385" stroke="#2384C1" stroke-width="2" stroke-linecap="round" stroke-linejoin="round"/>
<path d="M21.1621 30.7578L21.1621 28.8385" stroke="#2384C1" stroke-width="2" stroke-linecap="round" stroke-linejoin="round"/>
<path d="M28.8398 30.7578L28.8398 28.8385" stroke="#2384C1" stroke-width="2" stroke-linecap="round" stroke-linejoin="round"/>
<path d="M36.5176 30.7578L36.5176 28.8385" stroke="#2384C1" stroke-width="2" stroke-linecap="round" stroke-linejoin="round"/>
<path d="M36.5176 38.436L36.5176 36.5168" stroke="#2384C1" stroke-width="2" stroke-linecap="round" stroke-linejoin="round"/>
<path d="M22.1621 39.642C22.1621 38.0743 23.433 36.8035 25.0007 36.8035C26.5684 36.8035 27.8392 38.0743 27.8392 39.642V44.8797H22.1621V39.642Z" stroke="#0E354D" stroke-width="2"/>
</svg>
