<svg width="51" height="50" viewBox="0 0 51 50" fill="none" xmlns="http://www.w3.org/2000/svg">
<path d="M5.54102 25C5.54102 15.6702 5.54102 11.0052 8.43943 8.10679C11.3379 5.20837 16.0028 5.20837 25.3327 5.20837C34.6625 5.20837 39.3275 5.20837 42.226 8.10679C45.1243 11.0052 45.1243 15.6702 45.1243 25C45.1243 34.3298 45.1243 38.9948 42.226 41.8934C39.3275 44.7917 34.6625 44.7917 25.3327 44.7917C16.0028 44.7917 11.3379 44.7917 8.43943 41.8934C5.54102 38.9948 5.54102 34.3298 5.54102 25Z" stroke="#0E354D" stroke-width="2"/>
<path d="M23.25 14.5834H35.75" stroke="#2384C1" stroke-width="2" stroke-linecap="round"/>
<path d="M14.916 14.5834H16.9993" stroke="#2384C1" stroke-width="2" stroke-linecap="round"/>
<path d="M14.916 25H16.9993" stroke="#2384C1" stroke-width="2" stroke-linecap="round"/>
<path d="M14.916 35.4166H16.9993" stroke="#2384C1" stroke-width="2" stroke-linecap="round"/>
<path d="M23.25 25H35.75" stroke="#2384C1" stroke-width="2" stroke-linecap="round"/>
<path d="M23.25 35.4166H35.75" stroke="#2384C1" stroke-width="2" stroke-linecap="round"/>
</svg>
