<svg width="50" height="50" viewBox="0 0 50 50" fill="none" xmlns="http://www.w3.org/2000/svg">
<path d="M43.6306 35.0738C42.2633 26.8471 38.0067 20.7211 34.3062 17.123C33.2294 16.0759 32.691 15.5524 31.5017 15.0679C30.3123 14.5834 29.29 14.5834 27.2454 14.5834H22.7546C20.71 14.5834 19.6877 14.5834 18.4984 15.0679C17.309 15.5524 16.7706 16.0759 15.6938 17.123C11.9934 20.7211 7.73668 26.8471 6.36931 35.0738C5.35193 41.1946 10.9985 45.8334 17.309 45.8334H32.691C39.0015 45.8334 44.6481 41.1946 43.6306 35.0738Z" stroke="#0E354D" stroke-width="2" stroke-linecap="round"/>
<path d="M21.0937 36.4584V23.9584M25 23.9584V20.8334M25 39.5834V36.4584M21.0937 30.2084H28.9062M28.9062 30.2084C30.2006 30.2084 31.25 31.2577 31.25 32.5521V34.1146C31.25 35.409 30.2006 36.4584 28.9062 36.4584H18.75M28.9062 30.2084C30.2006 30.2084 31.25 29.159 31.25 27.8646V26.3021C31.25 25.0077 30.2006 23.9584 28.9062 23.9584H18.75" stroke="#2384C1" stroke-width="2" stroke-linecap="round" stroke-linejoin="round"/>
<path d="M15.1176 9.25594C14.6878 8.63033 14.0648 7.78119 15.3517 7.58756C16.6745 7.38852 18.048 8.294 19.3925 8.2754C20.6088 8.25856 21.2284 7.71911 21.8932 6.94888C22.5932 6.13781 23.6772 4.16663 24.9997 4.16663C26.3222 4.16663 27.4061 6.13781 28.1061 6.94888C28.7709 7.71911 29.3905 8.25856 30.6068 8.2754C31.9513 8.294 33.3249 7.38852 34.6476 7.58756C35.9345 7.78119 35.3115 8.63033 34.8818 9.25594L32.9382 12.0846C32.107 13.2947 31.6913 13.8997 30.8213 14.2415C29.9515 14.5833 28.8274 14.5833 26.5793 14.5833H23.4201C21.172 14.5833 20.0478 14.5833 19.1779 14.2415C18.308 13.8997 17.8924 13.2947 17.061 12.0846L15.1176 9.25594Z" stroke="#0E354D" stroke-width="2"/>
</svg>
