<svg width="50" height="50" viewBox="0 0 50 50" fill="none" xmlns="http://www.w3.org/2000/svg">
<path d="M21.9684 36.597C21.4033 36.597 20.8451 36.5673 20.2954 36.5093C12.3761 35.6738 6.20508 28.9744 6.20508 20.8337C6.20508 12.1278 13.2626 5.07031 21.9684 5.07031C29.487 5.07031 35.7761 10.3341 37.3517 17.3775" stroke="#0E354D" stroke-width="2" stroke-linecap="round"/>
<path d="M7.61914 26.1475L18.8174 26.1475" stroke="#0E354D" stroke-width="2" stroke-linecap="round"/>
<path d="M7.19629 15.9077L36.8004 15.8223" stroke="#0E354D" stroke-width="2" stroke-linecap="round"/>
<path d="M19.9016 5.25488C16.3698 10.6409 11.4075 24.4328 19.8133 36.5117" stroke="#0E354D" stroke-width="2" stroke-linecap="round"/>
<path d="M23.4619 5.35645C24.7647 6.86812 27.6325 11.312 28.4692 17.9222" stroke="#0E354D" stroke-width="2" stroke-linecap="round"/>
<path d="M24.0908 26.7828C24.0908 23.7507 26.2237 21.585 28.8555 21.585C30.4669 21.585 31.8876 22.4513 32.7539 23.3176C33.6202 22.4513 35.041 21.585 36.6523 21.585C39.2512 21.585 41.417 23.7507 41.417 26.7828C41.417 32.847 34.9197 36.3122 32.7539 37.6117C30.5881 36.3122 24.0908 32.847 24.0908 26.7828Z" stroke="#2384C1" stroke-width="2"/>
<path d="M24.0908 26.7828C24.0908 23.7507 26.2237 21.585 28.8555 21.585C30.4669 21.585 31.8876 22.4513 32.7539 23.3176C33.6202 22.4513 35.041 21.585 36.6523 21.585C39.2512 21.585 41.417 23.7507 41.417 26.7828C41.417 32.847 34.9197 36.3122 32.7539 37.6117C30.5881 36.3122 24.0908 32.847 24.0908 26.7828Z" stroke="black" stroke-opacity="0.2" stroke-width="2"/>
</svg>
