<svg width="50" height="50" viewBox="0 0 50 50" fill="none" xmlns="http://www.w3.org/2000/svg">
<path d="M11.1216 28.8804C10.6759 28.5543 10.0502 28.6513 9.72413 29.0971C9.39807 29.5429 9.4951 30.1685 9.94086 30.4946L11.1216 28.8804ZM15.1601 31.8345L11.1216 28.8804L9.94086 30.4946L13.9793 33.4487L15.1601 31.8345Z" fill="#0368A0"/>
<path d="M35.1289 32.6417L39.5295 29.8076" stroke="#0368A0" stroke-width="2" stroke-linecap="round"/>
<path d="M22.6743 9.12207H36.8741C37.0889 9.12207 37.2954 9.20503 37.4505 9.35363L40.9208 12.678C41.0093 12.7627 41.0059 12.9051 40.9135 12.9855L36.365 16.9471C36.203 17.0883 35.9602 17.083 35.8044 16.935L33.13 14.3944C32.9718 14.2441 32.7243 14.2413 32.5628 14.3882L29.5821 17.0979C29.4209 17.2444 29.1741 17.2421 29.0157 17.0925L26.6451 14.8536C26.4817 14.6992 26.2629 14.6175 26.0383 14.6268L22.5137 14.7737" stroke="#0368A0" stroke-width="2.08333"/>
<path d="M22.8818 12.0179C22.8818 12.5593 22.8184 13.0844 22.6989 13.5869C21.9918 16.5611 19.3165 18.7725 16.1273 18.7725C12.3968 18.7725 9.37272 15.7483 9.37272 12.0179C9.37272 8.28746 12.3968 5.26335 16.1273 5.26335C19.2974 5.26335 21.9598 7.44823 22.686 10.3957C22.8138 10.9143 22.8818 11.4574 22.8818 12.0179Z" stroke="#0E354D" stroke-width="2.08333"/>
<path d="M18.2453 12.017C18.2453 12.1878 18.2253 12.3526 18.1879 12.5096C17.9662 13.4422 17.1264 14.1349 16.1274 14.1349C14.9577 14.1349 14.0094 13.1867 14.0094 12.017C14.0094 10.8473 14.9577 9.89909 16.1274 9.89909C17.1204 9.89909 17.9562 10.5835 18.1839 11.5078C18.2238 11.6698 18.2453 11.8402 18.2453 12.017Z" stroke="#0368A0" stroke-width="2.08333"/>
<path d="M32.6173 26.0684H17.4347C16.764 26.0684 16.2128 26.5977 16.1858 27.2679L15.9766 32.44C13.4537 32.1826 12.4364 34.0919 12.2432 35.0787V39.9429C12.2432 40.6332 12.8028 41.1929 13.4932 41.1929H36.4795C37.1699 41.1929 37.7295 40.6332 37.7295 39.9429V34.8213C36.4423 32.7618 34.6184 32.4185 33.8673 32.5043V27.3184C33.8673 26.628 33.3077 26.0684 32.6173 26.0684Z" stroke="#0E354D" stroke-width="2.08333"/>
<path d="M12.5801 38.0088L16.7411 38.0088" stroke="#0E354D" stroke-width="2.08333" stroke-linecap="round"/>
<path d="M33.2598 38.0088L37.4208 38.0088" stroke="#0E354D" stroke-width="2.08333" stroke-linecap="round"/>
<path d="M13.6289 41.4658H17.3826V44.0913C17.3826 45.1279 16.5423 45.9682 15.5057 45.9682V45.9682C14.4692 45.9682 13.6289 45.1279 13.6289 44.0913V41.4658Z" stroke="#0E354D" stroke-width="2.08333"/>
<path d="M32.3789 41.4658H36.1326V44.0913C36.1326 45.1279 35.2923 45.9682 34.2557 45.9682V45.9682C33.2192 45.9682 32.3789 45.1279 32.3789 44.0913V41.4658Z" stroke="#0E354D" stroke-width="2.08333"/>
<path d="M15.458 32.6641H34.1307" stroke="#0E354D" stroke-width="2.08333" stroke-linecap="square"/>
</svg>
