<svg width="50" height="50" viewBox="0 0 50 50" fill="none" xmlns="http://www.w3.org/2000/svg">
<path d="M25.0566 22.9863V35.4884" stroke="#0E354D" stroke-width="2" stroke-linecap="round"/>
<path d="M25.0566 3.36328L25.0566 6.50863" stroke="#0E354D" stroke-width="2" stroke-linecap="round"/>
<path d="M7.45858 24.1592C7.4776 24.7112 7.94046 25.1432 8.49242 25.1242C9.04437 25.1052 9.47641 24.6423 9.4574 24.0904L7.45858 24.1592ZM24.569 7.75488H25.569V5.75488H24.569V7.75488ZM9.4574 24.0904C9.14511 15.0246 16.0825 7.75488 24.569 7.75488V5.75488C14.8854 5.75488 7.10964 14.0291 7.45858 24.1592L9.4574 24.0904Z" fill="#0E354D"/>
<path d="M42.3783 24.1592C42.3593 24.7112 41.8965 25.1432 41.3445 25.1242C40.7925 25.1052 40.3605 24.6423 40.3795 24.0904L42.3783 24.1592ZM25.2679 7.75488H24.2679V5.75488H25.2679V7.75488ZM40.3795 24.0904C40.6918 15.0246 33.7544 7.75488 25.2679 7.75488V5.75488C34.9515 5.75488 42.7273 14.0291 42.3783 24.1592L40.3795 24.0904Z" fill="#0E354D"/>
<path d="M16.6151 25.0756V25.0756C16.6151 23.1149 15.0257 21.5254 13.0649 21.5254H11.9652C10.0045 21.5254 8.41504 23.1149 8.41504 25.0756V25.0756" stroke="#0E354D" stroke-width="2" stroke-linecap="round"/>
<path d="M24.9198 25.0756V25.0756C24.9198 23.1149 23.3304 21.5254 21.3696 21.5254H20.4652C18.5045 21.5254 16.915 23.1149 16.915 25.0756V25.0756" stroke="#0E354D" stroke-width="2" stroke-linecap="round"/>
<path d="M33.2245 25.0756V25.0756C33.2245 23.1149 31.635 21.5254 29.6743 21.5254H28.7699C26.8092 21.5254 25.2197 23.1149 25.2197 25.0756V25.0756" stroke="#0E354D" stroke-width="2" stroke-linecap="round"/>
<path d="M41.4488 25.0756V25.0756C41.4488 23.1149 39.8593 21.5254 37.8986 21.5254H37.0746C35.1139 21.5254 33.5244 23.1149 33.5244 25.0756V25.0756" stroke="#0E354D" stroke-width="2" stroke-linecap="round"/>
<circle cx="17.4813" cy="34.6991" r="3.51355" stroke="#2384C1" stroke-width="2"/>
<circle cx="17.4813" cy="34.6991" r="3.51355" stroke="black" stroke-opacity="0.2" stroke-width="2"/>
<circle cx="33.7919" cy="34.6991" r="3.51355" stroke="#2384C1" stroke-width="2"/>
<circle cx="33.7919" cy="34.6991" r="3.51355" stroke="black" stroke-opacity="0.2" stroke-width="2"/>
<path d="M12.0635 46.1266C12.0635 43.2721 14.3775 40.958 17.2321 40.958C20.0866 40.958 22.4007 43.2721 22.4007 46.1266V46.9902H12.0635V46.1266Z" stroke="#2384C1" stroke-width="2"/>
<path d="M12.0635 46.1266C12.0635 43.2721 14.3775 40.958 17.2321 40.958C20.0866 40.958 22.4007 43.2721 22.4007 46.1266V46.9902H12.0635V46.1266Z" stroke="black" stroke-opacity="0.2" stroke-width="2"/>
<path d="M28.5391 46.1266C28.5391 43.2721 30.8531 40.958 33.7077 40.958C36.5622 40.958 38.8763 43.2721 38.8763 46.1266V46.9902H28.5391V46.1266Z" stroke="#2384C1" stroke-width="2"/>
<path d="M28.5391 46.1266C28.5391 43.2721 30.8531 40.958 33.7077 40.958C36.5622 40.958 38.8763 43.2721 38.8763 46.1266V46.9902H28.5391V46.1266Z" stroke="black" stroke-opacity="0.2" stroke-width="2"/>
</svg>
