<svg width="23" height="22" viewBox="0 0 23 22" fill="none" xmlns="http://www.w3.org/2000/svg">
<path d="M2.33301 3.66025C2.33469 3.41951 2.431 3.1891 2.60114 3.01878C2.77129 2.84847 3.00161 2.75192 3.24234 2.75H19.757C20.2593 2.75 20.6663 3.15792 20.6663 3.66025V18.3398C20.6647 18.5805 20.5683 18.8109 20.3982 18.9812C20.2281 19.1515 19.9977 19.2481 19.757 19.25H3.24234C3.00109 19.2498 2.7698 19.1537 2.59929 18.9831C2.42878 18.8124 2.33301 18.581 2.33301 18.3398V3.66025ZM4.16634 4.58333V17.4167H18.833V4.58333H4.16634ZM5.99967 6.41667H11.4997V11.9167H5.99967V6.41667ZM7.83301 8.25V10.0833H9.66634V8.25H7.83301ZM5.99967 13.75H16.9997V15.5833H5.99967V13.75ZM13.333 6.41667H16.9997V8.25H13.333V6.41667ZM13.333 10.0833H16.9997V11.9167H13.333V10.0833Z" fill="#B2AEBF"/>
</svg>
