<svg width="50" height="50" viewBox="0 0 50 50" fill="none" xmlns="http://www.w3.org/2000/svg">
<path d="M22.9167 4.16602C13.7119 4.16602 6.25 11.5522 6.25 20.6636C6.25 23.7739 7.11948 26.6831 8.63096 29.166" stroke="#0E354D" stroke-width="2" stroke-linecap="round"/>
<path d="M35.4163 10.416H31.2497C29.2855 10.416 28.3034 10.416 27.6932 11.0262C27.083 11.6364 27.083 12.6185 27.083 14.5827V18.7493C27.083 20.7135 27.083 21.6956 27.6932 22.3058C28.3034 22.916 29.2855 22.916 31.2497 22.916H35.4163C37.3805 22.916 38.3626 22.916 38.9728 22.3058C39.583 21.6956 39.583 20.7135 39.583 18.7493V14.5827C39.583 12.6185 39.583 11.6364 38.9728 11.0262C38.3626 10.416 37.3805 10.416 35.4163 10.416Z" stroke="#2384C1" stroke-width="2" stroke-linecap="round" stroke-linejoin="round"/>
<path d="M35.4163 10.416H31.2497C29.2855 10.416 28.3034 10.416 27.6932 11.0262C27.083 11.6364 27.083 12.6185 27.083 14.5827V18.7493C27.083 20.7135 27.083 21.6956 27.6932 22.3058C28.3034 22.916 29.2855 22.916 31.2497 22.916H35.4163C37.3805 22.916 38.3626 22.916 38.9728 22.3058C39.583 21.6956 39.583 20.7135 39.583 18.7493V14.5827C39.583 12.6185 39.583 11.6364 38.9728 11.0262C38.3626 10.416 37.3805 10.416 35.4163 10.416Z" stroke="black" stroke-opacity="0.2" stroke-width="2" stroke-linecap="round" stroke-linejoin="round"/>
<path d="M30.2087 22.9167V27.0833M36.4587 22.9167V27.0833M30.2087 6.25V10.4167M36.4587 6.25V10.4167M27.0837 13.5417H22.917M27.0837 19.7917H22.917M43.7503 13.5417H39.5837M43.7503 19.7917H39.5837" stroke="#2384C1" stroke-width="2" stroke-linecap="round" stroke-linejoin="round"/>
<path d="M30.2087 22.9167V27.0833M36.4587 22.9167V27.0833M30.2087 6.25V10.4167M36.4587 6.25V10.4167M27.0837 13.5417H22.917M27.0837 19.7917H22.917M43.7503 13.5417H39.5837M43.7503 19.7917H39.5837" stroke="black" stroke-opacity="0.2" stroke-width="2" stroke-linecap="round" stroke-linejoin="round"/>
<path d="M13.2973 35.6219C13.1059 35.0457 13.0102 34.7575 13.0214 34.5242C13.045 34.0304 13.3562 33.5969 13.8154 33.4184C14.0326 33.334 14.3352 33.334 14.9404 33.334H30.8922C31.4976 33.334 31.8001 33.334 32.0172 33.4184C32.4765 33.5969 32.7878 34.0304 32.8113 34.5242C32.8224 34.7575 32.7268 35.0457 32.5353 35.6219C32.1815 36.6869 32.0047 37.2196 31.732 37.6507C31.1605 38.554 30.2647 39.2021 29.2301 39.4607C28.7361 39.584 28.1768 39.584 27.0582 39.584H18.7744C17.6558 39.584 17.0965 39.584 16.6027 39.4607C15.5681 39.2021 14.6722 38.554 14.1007 37.6507C13.8279 37.2196 13.651 36.6869 13.2973 35.6219Z" stroke="#0E354D" stroke-width="2"/>
<path d="M29.167 39.584L28.8976 40.9311C28.603 42.4042 28.4557 43.1407 28.1255 43.7227C27.6153 44.6225 26.7882 45.3004 25.8057 45.6244C25.1703 45.834 24.4193 45.834 22.917 45.834C21.4147 45.834 20.6637 45.834 20.0282 45.6244C19.0456 45.3004 18.2187 44.6225 17.7084 43.7227C17.3783 43.1407 17.231 42.4042 16.9364 40.9311L16.667 39.584" stroke="#0E354D" stroke-width="2"/>
</svg>
