<svg width="50" height="50" viewBox="0 0 50 50" fill="none" xmlns="http://www.w3.org/2000/svg">
<path d="M5.59961 23.4219C5.59961 22.8696 6.04733 22.4219 6.59961 22.4219L42.4006 22.422C43.5052 22.422 44.4007 23.3175 44.4006 24.4221L44.4004 26.9494C44.4003 29.7168 42.1522 31.9577 39.3849 31.9491L5.65292 31.8442C5.62345 31.8441 5.59961 31.8202 5.59961 31.7907V23.4219Z" stroke="#0E354D" stroke-width="2" stroke-linejoin="round"/>
<path d="M26.3389 26.3037H28.886" stroke="#0E354D"/>
<path d="M41.4424 26.3027H42.716H43.9896" stroke="#0E354D"/>
<path d="M15.6025 26.3037H18.1497" stroke="#0E354D"/>
<path d="M5.68848 22.901L8.20697 17.5945C8.8693 16.199 10.276 15.3096 11.8207 15.3096L27.3122 15.3099C27.9623 15.3099 28.572 15.6259 28.9466 16.1573L33.362 22.4192" stroke="#0E354D" stroke-width="2" stroke-linecap="round"/>
<path d="M23.042 15.543L23.1002 22.0074" stroke="#0E354D" stroke-width="2"/>
<path d="M16.1973 15.5938L14.5569 21.8434" stroke="#0E354D" stroke-width="2"/>
<path d="M31.916 32.0846C31.916 32.7753 32.1904 33.4377 32.6788 33.9261C33.1671 34.4144 33.8295 34.6888 34.5202 34.6888C35.2109 34.6888 35.8732 34.4144 36.3616 33.9261C36.85 33.4377 37.1243 32.7753 37.1243 32.0846C37.1243 31.394 36.85 30.7316 36.3616 30.2432C35.8732 29.7548 35.2109 29.4805 34.5202 29.4805C33.8295 29.4805 33.1671 29.7548 32.6788 30.2432C32.1904 30.7316 31.916 31.394 31.916 32.0846Z" fill="#D9D9D9" stroke="#0368A0" stroke-width="2" stroke-linecap="round" stroke-linejoin="round"/>
<path d="M10.708 32.0856C10.708 32.7763 10.9824 33.4387 11.4708 33.927C11.9591 34.4154 12.6215 34.6898 13.3122 34.6898C14.0028 34.6898 14.6652 34.4154 15.1536 33.927C15.642 33.4387 15.9163 32.7763 15.9163 32.0856C15.9163 31.3949 15.642 30.7326 15.1536 30.2442C14.6652 29.7558 14.0028 29.4814 13.3122 29.4814C12.6215 29.4814 11.9591 29.7558 11.4708 30.2442C10.9824 30.7326 10.708 31.3949 10.708 32.0856Z" fill="#D9D9D9" stroke="#0368A0" stroke-width="2" stroke-linecap="round" stroke-linejoin="round"/>
</svg>
