<svg width="50" height="50" viewBox="0 0 50 50" fill="none" xmlns="http://www.w3.org/2000/svg">
<path d="M39.8233 34.2539V38.27C39.8233 41.7218 37.0251 44.52 33.5733 44.52H31.5957" stroke="#0368A0" stroke-width="2"/>
<rect x="20.6689" y="42.3945" width="10.6282" height="3.93058" rx="1.96529" stroke="#0368A0" stroke-width="2"/>
<path d="M19.0146 31.3017C20.495 33.2286 25.8298 35.4231 30.9505 31.1406" stroke="#0E354D" stroke-width="2" stroke-linecap="round"/>
<path d="M10.417 34.3744V17.7077V17.7077C10.417 10.2288 16.4798 4.16602 23.9587 4.16602H26.042C33.5209 4.16602 39.5837 10.2288 39.5837 17.7077V17.7077V33.3327" stroke="#0E354D" stroke-width="2"/>
<path d="M39.584 18.75C42.7089 19.7917 46.4707 21.3067 46.8755 26.0417C47.1701 29.4888 44.2912 33.1946 41.5834 34.5155C40.9235 34.7915 39.206 36.1005 39.584 32.2917" stroke="#0E354D" stroke-width="2"/>
<path d="M10.4413 18.7656C7.31641 19.8073 3.55464 21.3224 3.14986 26.0573C2.85518 29.5044 5.73408 33.2102 8.44188 34.5311C9.04794 34.6328 10.6295 36.5581 10.4227 32.6319" stroke="#0E354D" stroke-width="2"/>
<rect x="17.7549" y="20.9219" width="2.08333" height="2.08333" rx="1.04167" fill="#0E354D"/>
<rect x="30.251" y="20.9219" width="2.08333" height="2.08333" rx="1.04167" fill="#0E354D"/>
</svg>
