<svg width="23" height="22" viewBox="0 0 23 22" fill="none" xmlns="http://www.w3.org/2000/svg">
<path d="M14.25 3.66671H5.08333V18.3334H17.9167V7.33337H14.25V3.66671ZM3.25 2.74271C3.25 2.24037 3.65975 1.83337 4.16575 1.83337H15.1667L19.75 6.41671V19.2436C19.7508 19.364 19.728 19.4834 19.6827 19.5949C19.6374 19.7064 19.5706 19.808 19.4861 19.8937C19.4015 19.9794 19.301 20.0476 19.1901 20.0945C19.0792 20.1413 18.9601 20.1659 18.8398 20.1667H4.16025C3.91951 20.165 3.6891 20.0687 3.51878 19.8986C3.34847 19.7284 3.25192 19.4981 3.25 19.2574V2.74271ZM10.5833 10.0834H12.4167V15.5834H10.5833V10.0834ZM10.5833 6.41671H12.4167V8.25004H10.5833V6.41671Z" fill="#B2AEBF"/>
</svg>
