<svg width="23" height="22" viewBox="0 0 23 22" fill="none" xmlns="http://www.w3.org/2000/svg">
<path d="M16.686 13.5923L15.3899 12.2961L16.686 11C17.0265 10.6595 17.2966 10.2553 17.4809 9.81038C17.6651 9.36551 17.76 8.8887 17.76 8.40717C17.76 7.92565 17.6651 7.44883 17.4809 7.00396C17.2966 6.55909 17.0265 6.15487 16.686 5.81438C16.3455 5.47389 15.9413 5.2038 15.4964 5.01953C15.0516 4.83525 14.5748 4.74041 14.0932 4.74041C13.6117 4.74041 13.1349 4.83525 12.69 5.01953C12.2451 5.2038 11.8409 5.47389 11.5004 5.81438L10.2043 7.11055L8.90811 5.81438L10.2043 4.51821C11.2386 3.50064 12.633 2.93298 14.084 2.93889C15.5349 2.9448 16.9247 3.52379 17.9506 4.54976C18.9766 5.57572 19.5556 6.96553 19.5615 8.41645C19.5674 9.86737 18.9998 11.2618 17.9822 12.2961L16.686 13.5923ZM14.0928 16.1855L12.7966 17.4817C12.2874 17.9993 11.6808 18.4109 11.0117 18.6928C10.3427 18.9747 9.6244 19.1214 8.89837 19.1244C8.17234 19.1273 7.4529 18.9865 6.78157 18.71C6.11023 18.4336 5.50028 18.0269 4.98689 17.5135C4.4735 17.0001 4.06684 16.3902 3.79036 15.7188C3.51389 15.0475 3.37307 14.3281 3.37602 13.602C3.37898 12.876 3.52565 12.1577 3.80759 11.4887C4.08952 10.8196 4.50114 10.213 5.01869 9.7038L6.31486 8.40763L7.61102 9.7038L6.31486 11C5.97437 11.3405 5.70427 11.7447 5.52 12.1895C5.33573 12.6344 5.24089 13.1112 5.24089 13.5928C5.24089 14.0743 5.33573 14.5511 5.52 14.996C5.70427 15.4408 5.97437 15.8451 6.31486 16.1855C6.65535 16.526 7.05957 16.7961 7.50444 16.9804C7.94931 17.1647 8.42612 17.2595 8.90765 17.2595C9.38917 17.2595 9.86598 17.1647 10.3109 16.9804C10.7557 16.7961 11.1599 16.526 11.5004 16.1855L12.7966 14.8894L14.0928 16.1855ZM14.0928 7.11055L15.3899 8.40763L8.90811 14.8885L7.61102 13.5923L14.0928 7.11146V7.11055Z" fill="#B2AEBF"/>
</svg>
