<svg width="23" height="22" viewBox="0 0 23 22" fill="none" xmlns="http://www.w3.org/2000/svg">
<path d="M3.24967 2.75H19.7497C19.9928 2.75 20.2259 2.84658 20.3979 3.01849C20.5698 3.19039 20.6663 3.42355 20.6663 3.66667V18.3333C20.6663 18.5764 20.5698 18.8096 20.3979 18.9815C20.2259 19.1534 19.9928 19.25 19.7497 19.25H3.24967C3.00656 19.25 2.7734 19.1534 2.60149 18.9815C2.42958 18.8096 2.33301 18.5764 2.33301 18.3333V3.66667C2.33301 3.42355 2.42958 3.19039 2.60149 3.01849C2.7734 2.84658 3.00656 2.75 3.24967 2.75ZM18.833 10.0833H4.16634V17.4167H18.833V10.0833ZM18.833 8.25V4.58333H4.16634V8.25H18.833ZM13.333 13.75H16.9997V15.5833H13.333V13.75Z" fill="#B2AEBF"/>
</svg>
